<?xml version="1.0" encoding="UTF-8" standalone="no"?>
<!-- Created with Inkscape (http://www.inkscape.org/) -->

<svg
   version="1.1"
   id="svg48"
   width="605.20001"
   height="374.17334"
   viewBox="0 0 605.20001 374.17334"
   xmlns="http://www.w3.org/2000/svg"
   xmlns:svg="http://www.w3.org/2000/svg">
  <defs
     id="defs52" />
  <g
     id="g56"
     transform="matrix(1.3333333,0,0,-1.3333333,0,374.17333)">
    <g
       id="g58"
       transform="scale(0.1)">
      <path
         d="M 1403.15,2806.3 0,0 H 3135.81 L 4539,2806.3 H 1403.15"
         style="fill:#ed1b29;fill-opacity:1;fill-rule:nonzero;stroke:none"
         id="path60" />
      <path
         d="M 1052.21,398.219 H 891.078 V 898.23 h 161.132 c 81.01,0 142.56,-25.648 182.96,-76.242 42.11,-52.707 50.95,-120.027 50.95,-167.199 0,-77.141 -22.8,-256.57 -233.91,-256.57 z m 0,663.191 H 712.387 V 231.469 h 339.823 c 134.01,0 243.02,44.601 315.24,128.98 62.78,73.371 97.35,177.051 97.35,291.949 0,197.731 -108.39,409.012 -412.59,409.012"
         style="fill:#ffffff;fill-opacity:1;fill-rule:nonzero;stroke:none"
         id="path62" />
      <path
         d="m 2146.1,434.07 -0.99,-0.75 c -68.26,-51.808 -126.48,-58.949 -179.24,-58.949 -88.92,0 -160.5,31.27 -206.97,90.418 -50.41,64.16 -57.94,140.602 -57.94,180.461 0,175.172 96.55,275.641 264.91,275.641 72.54,0 147.21,-27.911 195.57,-72.961 l 112.24,112.23 c -85.96,87.32 -181,126.3 -307.81,126.3 -141.78,0 -257.81,-45.96 -335.54,-132.901 -68.92,-77.09 -106.87,-186.59 -106.87,-308.309 0,-211.57 115.91,-437.641 441.22,-437.641 152.6,0 266.12,51.59 337.44,153.352 V 721.469 H 1946.9 V 571.41 h 199.2 V 434.07"
         style="fill:#ffffff;fill-opacity:1;fill-rule:nonzero;stroke:none"
         id="path64" />
      <path
         d="m 2822.28,388.68 h -231.51 v 198.242 h 229.13 c 79.99,0 127.74,-37.5 127.74,-100.32 0,-63.141 -44.52,-97.922 -125.36,-97.922 z m -231.51,516.699 h 231.51 c 67.02,0 108.66,-33.41 108.66,-87.188 0,-52.371 -39.43,-81.222 -111.04,-81.222 h -229.13 z m 409.59,-241.008 -5.74,2.059 5.54,2.558 c 90.48,41.864 109.47,114.621 109.47,168.301 0,165.241 -148.43,224.121 -287.35,224.121 h -409 V 231.469 h 416.16 c 173.84,0 278.16,66.929 301.7,193.57 16.08,86.84 -17.99,198.77 -130.78,239.332"
         style="fill:#ffffff;fill-opacity:1;fill-rule:nonzero;stroke:none"
         id="path66" />
    </g>
  </g>
</svg>
