<?xml version="1.0" encoding="utf-8"?>
<!-- Generator: Adobe Illustrator 21.1.0, SVG Export Plug-In . SVG Version: 6.00 Build 0)  -->
<svg version="1.1" id="Ebene_1" xmlns="http://www.w3.org/2000/svg" xmlns:xlink="http://www.w3.org/1999/xlink"
	 viewBox="0 0 470.4 116.7"  xml:space="preserve">
<g>
	<path fill="#C3006B" d="M200.9,34.3c0-1.1,0.1-2.6,0.3-3.9h-0.1c-1.2,2.6-3.8,4.4-7.4,4.4c-5.7,0-8.5-4.3-8.5-10.9
		c0-7.9,4.6-13.3,12.3-13.3c1,0,1.9,0,3,0.2V0h6v34.3H200.9L200.9,34.3z M200.5,15.6c-1.1-0.2-2.1-0.4-3.1-0.4
		c-3.4,0-5.9,2.2-5.9,7.9c0,4.4,1.3,6.6,4,6.6c3.1,0,5-3.7,5-7.7V15.6L200.5,15.6z"/>
	<path fill="#C3006B" d="M221.9,34.7c-3.4,0-6-0.4-8.7-1.1V0h6v10c0,1.4-0.1,3.3-0.4,4.6h0c1.2-2.5,3.8-4.1,7-4.1
		c5.6,0,8.6,4,8.6,10.9C234.6,29.3,230,34.7,221.9,34.7L221.9,34.7z M224.3,15.4c-3.1,0-5,3.6-5,7.5v6.6c0.8,0.3,1.8,0.4,3.1,0.4
		c3.4,0,5.9-2.2,5.9-7.9C228.3,17.6,227,15.4,224.3,15.4L224.3,15.4z"/>
	<path fill="#C3006B" d="M248.2,34.7c-3.4,0-6-0.4-8.7-1.1V0h6v10c0,1.4-0.1,3.3-0.4,4.6h0c1.2-2.5,3.8-4.1,7-4.1
		c5.6,0,8.6,4,8.6,10.9C260.8,29.3,256.2,34.7,248.2,34.7L248.2,34.7z M250.5,15.4c-3.1,0-5,3.6-5,7.5v6.6c0.8,0.3,1.8,0.4,3.1,0.4
		c3.4,0,5.9-2.2,5.9-7.9C254.5,17.6,253.3,15.4,250.5,15.4L250.5,15.4z"/>
	<path fill="#706F6F" d="M195.4,76c-3.4,0-6-0.4-8.7-1.1V41.2h6v10c0,1.4-0.1,3.3-0.4,4.6h0c1.2-2.5,3.8-4.1,7-4.1
		c5.6,0,8.6,4,8.6,10.9C208.1,70.5,203.5,76,195.4,76L195.4,76z M197.8,56.7c-3.1,0-5,3.6-5,7.5v6.6c0.8,0.3,1.8,0.4,3.1,0.4
		c3.4,0,5.9-2.2,5.9-7.9C201.8,58.9,200.5,56.7,197.8,56.7L197.8,56.7z"/>
	<path fill="#706F6F" d="M231.9,64.8h-14.5c0,4.4,2.1,6.5,6.4,6.5c2.3,0,4.8-0.5,6.8-1.5l0.6,4.6c-2.5,1-5.4,1.5-8.4,1.5
		c-7.4,0-11.5-3.7-11.5-11.9c0-7.1,3.9-12.4,10.9-12.4c6.8,0,9.8,4.6,9.8,10.4C232.1,62.9,232,63.8,231.9,64.8L231.9,64.8z
		 M222.1,56.1c-2.5,0-4.2,1.8-4.6,4.6h8.6C226.2,57.8,224.6,56.1,222.1,56.1L222.1,56.1z"/>
	<path fill="#706F6F" d="M249.6,75.5c0-1.4,0-2.7,0.2-3.9l0,0c-1.1,2.6-4,4.5-7.5,4.5c-4.2,0-6.7-2.4-6.7-6.2
		c0-5.6,5.5-8.5,13.5-8.5V60c0-2.4-1.2-3.7-4.6-3.7c-2.1,0-4.9,0.7-6.9,1.8l-0.5-5c2.3-0.8,5.4-1.5,8.4-1.5c7.5,0,9.6,3.1,9.6,8.1
		v9.7c0,1.9,0,4.1,0.1,6H249.6L249.6,75.5z M249.1,65.2c-6.3,0-7.7,1.8-7.7,3.7c0,1.5,1,2.5,2.8,2.5c3,0,5-2.8,5-5.6V65.2
		L249.1,65.2z"/>
	<path fill="#706F6F" d="M289.9,75.5V60.7c0-2.5-0.6-4-2.8-4c-2.6,0-5.4,3.1-5.4,7.7v11.2h-5.9V60.7c0-2.3-0.5-4-2.8-4
		c-2.8,0-5.4,3.3-5.4,7.7v11.2h-6V52.2h5.7c0,1.1-0.1,2.8-0.3,4.2h0.1c1.4-2.9,4.2-4.7,7.7-4.7c4.1,0,5.9,2.4,6.4,4.7
		c1.1-2.3,3.7-4.7,7.6-4.7c4.5,0,7,2.5,7,7.8v16.1H289.9L289.9,75.5z"/>
	<path fill="#706F6F" d="M310,76c-5.2,0-6.8-1.9-6.8-7.3V56.8h-4v-4.6h4V45l6-1.6v8.8h5.7v4.6h-5.7v10.2c0,3,0.7,3.8,2.8,3.8
		c1,0,2.1-0.1,2.9-0.4v4.8C313.3,75.7,311.6,76,310,76L310,76z"/>
	<path fill="#706F6F" d="M338.9,64.8h-14.5c0,4.4,2.1,6.5,6.4,6.5c2.3,0,4.8-0.5,6.8-1.5l0.6,4.6c-2.5,1-5.4,1.5-8.4,1.5
		c-7.4,0-11.5-3.7-11.5-11.9c0-7.1,3.9-12.4,10.9-12.4c6.8,0,9.8,4.6,9.8,10.4C339.1,62.9,339,63.8,338.9,64.8L338.9,64.8z
		 M329.1,56.1c-2.5,0-4.2,1.8-4.6,4.6h8.6C333.2,57.8,331.6,56.1,329.1,56.1L329.1,56.1z"/>
	<path fill="#706F6F" d="M358.4,75.5V60.6c0-2.4-0.7-3.9-2.9-3.9c-3.1,0-5.4,3.5-5.4,7.6v11.3h-6V52.2h5.7c0,1.1-0.1,2.9-0.3,4.1
		l0,0c1.4-2.8,4.1-4.7,7.9-4.7c5.3,0,6.9,3.4,6.9,7.5v16.4H358.4L358.4,75.5z"/>
	<path fill="#706F6F" d="M379.6,76c-3.4,0-6-0.4-8.7-1.1V41.2h6v10c0,1.4-0.1,3.3-0.4,4.6h0c1.2-2.5,3.8-4.1,7-4.1
		c5.6,0,8.6,4,8.6,10.9C392.2,70.5,387.6,76,379.6,76L379.6,76z M381.9,56.7c-3.1,0-5,3.6-5,7.5v6.6c0.8,0.3,1.8,0.4,3.1,0.4
		c3.4,0,5.9-2.2,5.9-7.9C385.9,58.9,384.6,56.7,381.9,56.7L381.9,56.7z"/>
	<path fill="#706F6F" d="M411.8,75.5c0-1.1,0-2.9,0.3-4.1l0,0c-1.4,2.8-4.1,4.7-7.9,4.7c-5.3,0-6.9-3.4-6.9-7.5V52.2h6v14.9
		c0,2.4,0.7,3.9,2.9,3.9c3.1,0,5.4-3.5,5.4-7.6V52.2h6v23.3H411.8L411.8,75.5z"/>
	<path fill="#706F6F" d="M438.2,75.5V60.6c0-2.4-0.7-3.9-2.9-3.9c-3.1,0-5.4,3.5-5.4,7.6v11.3h-6V52.2h5.7c0,1.1-0.1,2.9-0.3,4.1
		l0,0c1.4-2.8,4.1-4.7,7.9-4.7c5.3,0,6.9,3.4,6.9,7.5v16.4H438.2L438.2,75.5z"/>
	<path fill="#706F6F" d="M464.8,75.5c0-1.1,0.1-2.6,0.3-3.9H465c-1.2,2.6-3.8,4.4-7.4,4.4c-5.7,0-8.5-4.3-8.5-10.9
		c0-7.9,4.6-13.3,12.3-13.3c1,0,1.9,0,3,0.2V41.2h6v34.3H464.8L464.8,75.5z M464.4,56.9c-1.1-0.2-2.1-0.4-3.1-0.4
		c-3.4,0-5.9,2.2-5.9,7.9c0,4.4,1.3,6.6,4,6.6c3.1,0,5-3.7,5-7.7V56.9L464.4,56.9z"/>
	<path fill="#706F6F" d="M201.9,116.7c0-1.6,0.1-3.9,0.4-5.4l-0.1,0c-1.3,3.6-4.3,5.9-8.4,5.9c-5.4,0-7-3.3-7-7.5V93.4h3v15.2
		c0,3.9,1,6.2,4.7,6.2c4.4,0,7.5-4.3,7.5-10.2V93.4h3v23.3H201.9L201.9,116.7z"/>
	<path fill="#706F6F" d="M224.7,116.7v-15.2c0-3.9-1.1-6.2-4.7-6.2c-4.4,0-7.5,4.3-7.5,10.2v11.2h-3V93.4h3c0,1.6-0.1,3.9-0.4,5.4
		l0.1,0c1.3-3.6,4.3-5.9,8.4-5.9c5.4,0,7,3.3,7,7.5v16.2H224.7L224.7,116.7z"/>
	<path fill="#706F6F" d="M247.9,116.7c0-1.5,0.1-3.9,0.4-5.4l-0.1,0c-1.3,3.5-4.4,5.8-8.1,5.8c-5.8,0-8.6-4.2-8.6-11
		c0-8.4,4.7-13,11.9-13c1.5,0,2.9,0.1,4.6,0.3V82.5h3v34.3H247.9L247.9,116.7z M248,96.1c-1.7-0.4-3.3-0.6-4.9-0.6
		c-5.1,0-8.4,3.1-8.4,10.4c0,5.5,1.9,8.9,6,8.9c5,0,7.4-5.9,7.4-10V96.1L248,96.1z"/>
	<path fill="#706F6F" d="M278,117.2c-5.2,0-6.8-1.9-6.8-7.3V98h-4v-4.6h4v-7.2l6-1.6v8.8h5.7V98h-5.7v10.2c0,3,0.7,3.8,2.8,3.8
		c1,0,2.1-0.1,2.9-0.4v4.8C281.3,117,279.6,117.2,278,117.2L278,117.2z"/>
	<path fill="#706F6F" d="M300.2,116.7c0-1.4,0-2.7,0.2-3.9l0,0c-1.1,2.6-4,4.5-7.5,4.5c-4.2,0-6.7-2.4-6.7-6.1
		c0-5.6,5.5-8.5,13.5-8.5v-1.3c0-2.4-1.2-3.7-4.6-3.7c-2.1,0-4.9,0.7-6.9,1.8l-0.5-5c2.3-0.8,5.4-1.5,8.4-1.5c7.5,0,9.6,3.1,9.6,8.1
		v9.7c0,1.9,0,4.1,0.1,6H300.2L300.2,116.7z M299.7,106.4c-6.3,0-7.7,1.8-7.7,3.7c0,1.5,1,2.5,2.8,2.5c3,0,5-2.8,5-5.6V106.4
		L299.7,106.4z"/>
	<path fill="#706F6F" d="M324.8,98.8c-4.3-0.9-6.5,1.9-6.5,8.4v9.5h-6V93.4h5.7c0,1.2-0.1,3.1-0.4,4.7h0.1c1.1-3,3.4-5.5,7.4-5.2
		L324.8,98.8L324.8,98.8z"/>
	<path fill="#706F6F" d="M332,90.4c-2.1,0-3.7-1.6-3.7-3.7c0-2,1.6-3.6,3.7-3.6c2.1,0,3.8,1.6,3.8,3.6C335.7,88.7,334,90.4,332,90.4
		L332,90.4z M329,116.7V93.4h6v23.3H329L329,116.7z"/>
	<path fill="#706F6F" d="M355.4,87.4c-0.9-0.3-2-0.4-2.9-0.4c-2.6,0-3.8,1.4-3.8,4.5v2h5.4V98h-5.4v18.7h-6V98h-4.1v-4.6h4.1v-1.9
		c0-6.3,2.9-9.4,9.3-9.4c1.3,0,2.6,0.1,3.8,0.4L355.4,87.4L355.4,87.4z"/>
	<path fill="#706F6F" d="M372.7,116.7c0-1.1,0-2.9,0.3-4.1l0,0c-1.4,2.8-4.1,4.7-7.9,4.7c-5.3,0-6.9-3.4-6.9-7.5V93.4h6v14.9
		c0,2.4,0.7,3.9,2.9,3.9c3.1,0,5.4-3.5,5.4-7.6V93.4h6v23.3H372.7L372.7,116.7z"/>
	<path fill="#706F6F" d="M399.2,116.7v-14.9c0-2.4-0.7-3.9-2.9-3.9c-3.1,0-5.4,3.5-5.4,7.6v11.3h-6V93.4h5.7c0,1.1-0.1,2.9-0.3,4.1
		l0,0c1.4-2.8,4.1-4.7,7.9-4.7c5.3,0,6.9,3.4,6.9,7.5v16.4H399.2L399.2,116.7z"/>
	<path fill="#706F6F" d="M414.6,90.4c-2.1,0-3.7-1.6-3.7-3.7c0-2,1.6-3.6,3.7-3.6c2.1,0,3.8,1.6,3.8,3.6
		C418.4,88.7,416.7,90.4,414.6,90.4L414.6,90.4z M411.6,116.7V93.4h6v23.3H411.6L411.6,116.7z"/>
	<path fill="#706F6F" d="M433.3,117.2c-6.6,0-10.9-3.4-10.9-11.7c0-7.3,4.8-12.5,11.9-12.5c6.6,0,10.9,3.7,10.9,11.7
		C445.2,111.9,440.3,117.2,433.3,117.2L433.3,117.2z M433.9,98c-2.7,0-5.3,2.1-5.3,6.9c0,4.8,1.7,7.2,5.2,7.2c3,0,5.2-2.4,5.2-7.1
		C439.1,100.4,437.5,98,433.9,98L433.9,98z"/>
	<path fill="#706F6F" d="M464.4,116.7v-14.9c0-2.4-0.7-3.9-2.9-3.9c-3.1,0-5.4,3.5-5.4,7.6v11.3h-6V93.4h5.7c0,1.1-0.1,2.9-0.3,4.1
		l0,0c1.4-2.8,4.1-4.7,7.9-4.7c5.3,0,6.9,3.4,6.9,7.5v16.4H464.4L464.4,116.7z"/>
	<polygon fill="#C3006B" points="0,0 46.7,0 46.7,70 0,70 0,0 	"/>
	<polygon fill="#980053" points="46.7,0 70,0 70,23.3 46.7,23.3 46.7,0 	"/>
	<polygon fill="#AE005F" points="46.7,23.3 70,23.3 70,46.7 46.7,46.7 46.7,23.3 	"/>
	<polygon fill="#56454C" points="46.7,46.7 70,46.7 70,70 46.7,70 46.7,46.7 	"/>
	<polygon fill="#675E62" points="46.7,70 93.4,70 93.4,93.4 46.7,93.4 46.7,70 	"/>
	<polygon fill="#C583A1" points="70,23.3 93.4,23.3 93.4,46.7 70,46.7 70,23.3 	"/>
	<polygon fill="#C6C6C6" points="70,0 70,23.3 93.4,23.3 93.4,46.7 116.7,46.7 116.7,0 70,0 	"/>
	<polygon fill="#5B5356" points="70,46.7 93.4,46.7 93.4,70 70,70 70,46.7 	"/>
	<polygon fill="#5A5A59" points="93.4,46.7 116.7,46.7 116.7,70 93.4,70 93.4,46.7 	"/>
	<polygon fill="#706F6F" points="93.4,70 93.4,93.4 46.7,93.4 46.7,116.7 116.7,116.7 116.7,70 93.4,70 	"/>
	<polygon fill="#E094B7" points="23.3,70 46.7,70 46.7,93.4 23.3,93.4 23.3,70 	"/>
</g>
</svg>
