<?xml version="1.0" encoding="UTF-8" standalone="no"?>
<svg
   xmlns:dc="http://purl.org/dc/elements/1.1/"
   xmlns:cc="http://creativecommons.org/ns#"
   xmlns:rdf="http://www.w3.org/1999/02/22-rdf-syntax-ns#"
   xmlns:svg="http://www.w3.org/2000/svg"
   xmlns="http://www.w3.org/2000/svg"
   xmlns:sodipodi="http://sodipodi.sourceforge.net/DTD/sodipodi-0.dtd"
   xmlns:inkscape="http://www.inkscape.org/namespaces/inkscape"
   version="1.0"
   width="694.000000pt"
   height="500.000000pt"
   viewBox="0 0 694.000000 500.000000"
   preserveAspectRatio="xMidYMid meet"
   id="svg8"
   sodipodi:docname="Flag_of_the_Popular_Front_(Spain) (1).svg"
   inkscape:version="0.92.3 (2405546, 2018-03-11)">
  <defs
     id="defs12" />
  <sodipodi:namedview
     pagecolor="#ffffff"
     bordercolor="#666666"
     borderopacity="1"
     objecttolerance="10"
     gridtolerance="10"
     guidetolerance="10"
     inkscape:pageopacity="0"
     inkscape:pageshadow="2"
     inkscape:window-width="1920"
     inkscape:window-height="1017"
     id="namedview10"
     showgrid="false"
     inkscape:zoom="1.2536023"
     inkscape:cx="327.25006"
     inkscape:cy="333.16732"
     inkscape:window-x="-4"
     inkscape:window-y="-4"
     inkscape:window-maximized="1"
     inkscape:current-layer="svg8" />
  <metadata
     id="metadata2">
Created by potrace 1.15, written by Peter Selinger 2001-2017
<rdf:RDF>
  <cc:Work
     rdf:about="">
    <dc:format>image/svg+xml</dc:format>
    <dc:type
       rdf:resource="http://purl.org/dc/dcmitype/StillImage" />
  </cc:Work>
</rdf:RDF>
</metadata>
  <g
     id="g914"
     style="fill:#ffffff">
    <rect
       id="rect2"
       height="500"
       width="694"
       x="0"
       y="0"
       style="fill:#ffffff" />
    <flowRoot
       style="font-style:normal;font-variant:normal;font-weight:normal;font-stretch:normal;font-size:40px;line-height:1.25;font-family:Impact;-inkscape-font-specification:Impact;letter-spacing:0px;word-spacing:0px;fill:#ffffff;fill-opacity:1;stroke:none"
       id="flowRoot829"
       xml:space="preserve"><flowRegion
         style="font-style:normal;font-variant:normal;font-weight:normal;font-stretch:normal;font-family:Impact;-inkscape-font-specification:Impact;fill:#ffffff"
         id="flowRegion831"><rect
           style="font-style:normal;font-variant:normal;font-weight:normal;font-stretch:normal;font-family:Impact;-inkscape-font-specification:Impact;fill:#ffffff"
           y="131.95091"
           x="144.68137"
           height="191.21631"
           width="125.2213"
           id="rect833" /></flowRegion><flowPara
         id="flowPara835" /></flowRoot>    <text
       id="text839"
       y="220.79034"
       x="215.75291"
       style="font-style:normal;font-weight:normal;font-size:40px;line-height:1.25;font-family:sans-serif;letter-spacing:0px;word-spacing:0px;fill:#ffffff;fill-opacity:1;stroke:none"
       xml:space="preserve"><tspan
         y="257.28357"
         x="215.75291"
         id="tspan837"
         sodipodi:role="line" /></text>
    <flowRoot
       style="font-style:normal;font-weight:normal;font-size:40px;line-height:1.25;font-family:sans-serif;letter-spacing:0px;word-spacing:0px;fill:#ffffff;fill-opacity:1;stroke:none"
       id="flowRoot841"
       xml:space="preserve"><flowRegion
         id="flowRegion843"
         style="fill:#ffffff"><rect
           y="104.02995"
           x="89.685524"
           height="231.82861"
           width="232.67471"
           id="rect845"
           style="fill:#ffffff" /></flowRegion><flowPara
         id="flowPara847" /></flowRoot>    <flowRoot
       style="font-style:normal;font-variant:normal;font-weight:normal;font-stretch:normal;font-size:40px;line-height:1.25;font-family:Impact;-inkscape-font-specification:Impact;letter-spacing:0px;word-spacing:0px;fill:#ffffff;fill-opacity:1;stroke:none"
       id="flowRoot849"
       xml:space="preserve"><flowRegion
         style="font-style:normal;font-variant:normal;font-weight:normal;font-stretch:normal;font-family:Impact;-inkscape-font-specification:Impact;fill:#ffffff"
         id="flowRegion851"><rect
           style="font-style:normal;font-variant:normal;font-weight:normal;font-stretch:normal;font-family:Impact;-inkscape-font-specification:Impact;fill:#ffffff"
           y="87.954247"
           x="134.52829"
           height="211.52246"
           width="155.68053"
           id="rect853" /></flowRegion><flowPara
         id="flowPara855" /></flowRoot>    <text
       id="text859"
       y="160.71797"
       x="235.21298"
       style="font-style:normal;font-weight:normal;font-size:40px;line-height:1.25;font-family:sans-serif;letter-spacing:0px;word-spacing:0px;fill:#ffffff;fill-opacity:1;stroke:none"
       xml:space="preserve"><tspan
         y="197.21118"
         x="235.21298"
         id="tspan857"
         sodipodi:role="line" /></text>
    <flowRoot
       style="font-style:normal;font-variant:normal;font-weight:normal;font-stretch:normal;font-size:40px;line-height:1.25;font-family:Aharoni;-inkscape-font-specification:Aharoni;letter-spacing:0px;word-spacing:0px;fill:#ffffff;fill-opacity:1;stroke:none"
       id="flowRoot861"
       xml:space="preserve"><flowRegion
         style="font-style:normal;font-variant:normal;font-weight:normal;font-stretch:normal;font-family:Aharoni;-inkscape-font-specification:Aharoni;fill:#ffffff"
         id="flowRegion863"><rect
           style="font-style:normal;font-variant:normal;font-weight:normal;font-stretch:normal;font-family:Aharoni;-inkscape-font-specification:Aharoni;fill:#ffffff"
           y="115.87521"
           x="97.300331"
           height="183.6015"
           width="248.75041"
           id="rect865" /></flowRegion><flowPara
         id="flowPara867" /></flowRoot>    <flowRoot
       style="font-style:normal;font-variant:normal;font-weight:normal;font-stretch:normal;font-size:40px;line-height:1.25;font-family:Aharoni;-inkscape-font-specification:Aharoni;letter-spacing:0px;word-spacing:0px;fill:#ffffff;fill-opacity:1;stroke:none"
       id="flowRoot989"
       xml:space="preserve"><flowRegion
         id="flowRegion991"
         style="fill:#ffffff"><rect
           y="71.634483"
           x="142.38965"
           height="123.24483"
           width="161.53448"
           id="rect993"
           style="fill:#ffffff" /></flowRegion><flowPara
         id="flowPara995" /></flowRoot>    <flowRoot
       style="font-style:normal;font-variant:normal;font-weight:normal;font-stretch:normal;font-size:40px;line-height:1.25;font-family:Aharoni;-inkscape-font-specification:Aharoni;letter-spacing:0px;word-spacing:0px;fill:#ffffff;fill-opacity:1;stroke:none"
       id="flowRoot1055"
       xml:space="preserve"><flowRegion
         id="flowRegion1057"
         style="fill:#ffffff"><rect
           y="65.651726"
           x="476.2276"
           height="69.400002"
           width="83.758621"
           id="rect1059"
           style="fill:#ffffff" /></flowRegion><flowPara
         style="font-size:96px;fill:#ffffff"
         id="flowPara1061">T</flowPara></flowRoot>    <flowRoot
       style="font-style:normal;font-variant:normal;font-weight:normal;font-stretch:normal;font-size:40px;line-height:1.25;font-family:Aharoni;-inkscape-font-specification:Aharoni;letter-spacing:0px;word-spacing:0px;fill:#ffffff;fill-opacity:1;stroke:none"
       id="flowRoot1063"
       xml:space="preserve"><flowRegion
         style="fill:#ffffff"
         id="flowRegion1065"><rect
           style="fill:#ffffff"
           y="91.975861"
           x="390.07587"
           height="94.527588"
           width="155.55173"
           id="rect1067" /></flowRegion><flowPara
         style="font-size:96px;fill:#ffffff"
         id="flowPara1069">T</flowPara></flowRoot>  </g>
  <g
     transform="translate(0.000000,500.000000) scale(0.100000,-0.100000)"
     id="g6"
     stroke="none"
     fill="#000000">
    <path
       d="M0 2500 l0 -2500 3470 0 3470 0 0 2500 0 2500 -3470 0 -3470 0 0 -2500z m3725 716 c133 -45 232 -120 311 -236 45 -66 77 -131 67 -140 -11 -10 -308 -140 -320 -140 -5 0 -19 20 -31 45 -30 62 -85 119 -140 146 -72 35 -188 33 -264 -4 -128 -63 -208 -224 -208 -417 0 -138 38 -247 118 -341 53 -61 121 -92 220 -97 96 -5 152 11 210 62 37 33 82 116 82 154 0 22 -1 22 -140 22 l-140 0 0 145 0 145 350 0 349 0 -5 -87 c-25 -402 -182 -641 -484 -735 -64 -20 -96 -23 -215 -22 -158 0 -226 14 -334 69 -172 86 -310 269 -358 472 -27 114 -24 349 5 455 71 258 256 453 487 511 91 24 111 25 240 23 99 -3 134 -8 200 -30z m-2412 -498 c3 -353 7 -494 16 -523 8 -24 32 -59 61 -87 125 -120 322 -72 376 92 16 49 18 107 22 528 l4 472 174 0 174 0 0 -477 c-1 -531 -5 -583 -61 -699 -44 -93 -159 -209 -249 -251 -177 -83 -415 -84 -586 -3 -83 40 -181 135 -217 210 -60 125 -60 129 -65 698 l-3 522 175 0 174 0 5 -482z m4347 292 l0 -160 -145 0 -145 0 0 -570 0 -570 -175 0 -175 0 0 570 0 570 -145 0 -145 0 0 153 c0 85 3 157 7 160 3 4 213 7 465 7 l458 0 0 -160z m-2990 -1130 l0 -170 -150 0 -150 0 0 170 0 170 150 0 150 0 0 -170z m1940 0 l0 -170 -145 0 -145 0 0 170 0 170 145 0 145 0 0 -170z m1445 0 l0 -165 -147 -3 -148 -3 0 171 0 171 148 -3 147 -3 0 -165z"
       id="path4"
       style="fill:#dc0404;fill-opacity:1" />
  </g>
</svg>
