<?xml version="1.0" encoding="UTF-8"?>
<!DOCTYPE svg PUBLIC "-//W3C//DTD SVG 1.1//EN" "http://www.w3.org/Graphics/SVG/1.1/DTD/svg11.dtd">
<!-- Creator: CorelDRAW 2017 -->
<svg xmlns="http://www.w3.org/2000/svg" xml:space="preserve" width="120mm" height="51mm" version="1.1" style="shape-rendering:geometricPrecision; text-rendering:geometricPrecision; image-rendering:optimizeQuality; fill-rule:evenodd; clip-rule:evenodd"
viewBox="0 0 1200000 510000"
 xmlns:xlink="http://www.w3.org/1999/xlink">
 <defs>
  <style type="text/css">
   <![CDATA[
    .fil0 {fill:#E31E24}
    .fil1 {fill:#2B2A29;fill-rule:nonzero}
   ]]>
  </style>
 </defs>
 <g id="Ebene_x0020_1">
  <metadata id="CorelCorpID_0Corel-Layer"/>
  <path class="fil0" d="M425343 352339c-192734,188819 -360451,82919 -309520,-103608 43334,-158704 261775,-306148 365993,-160366 -135990,-220606 -499344,56088 -466788,281438 17951,124240 203812,233865 410315,-17464z"/>
  <path class="fil1" d="M198502 293435c890,14089 5290,24588 13197,31524 7935,6963 19459,10418 34574,10418 10930,-26 20160,-1538 27691,-4480 7530,-2969 13225,-7208 17138,-12685 3887,-5479 5830,-12011 5856,-19594 0,-5021 -971,-9608 -2887,-13764 -1943,-4130 -4803,-7746 -8610,-10851 -1889,-1484 -4210,-2888 -6991,-4156 -2779,-1268 -5991,-2537 -9635,-3779 -3643,-1268 -7718,-2618 -12198,-4049 -4561,-1457 -8583,-2751 -11983,-3885 -3428,-1107 -6288,-2241 -8557,-3347 -2293,-1107 -3995,-2401 -5127,-3859 -1135,-1458 -1700,-3266 -1700,-5426 0,-1970 674,-3751 1970,-5316 1295,-1593 3158,-2835 5560,-3779 2430,-945 5316,-1404 8662,-1432 5993,-26 10581,1270 13819,3862 3211,2590 5156,6584 5776,12010l28015 0c-27,-7774 -1889,-14521 -5533,-20243 -3671,-5721 -8880,-10175 -15706,-13333 -6804,-3156 -14926,-4749 -24427,-4804 -9743,55 -18082,1566 -24993,4588 -6935,3024 -12226,7234 -15895,12685 -3698,5452 -5561,11822 -5587,19163 26,7234 2186,13577 6477,19027 4317,5453 10688,9851 19109,13199 5694,2212 10903,4048 15653,5505 4778,1431 8988,2700 12631,3779 3644,1078 6640,2187 8960,3345 1403,731 2511,1810 3294,3213 809,1404 1241,3104 1241,5047 0,3589 -1646,6396 -4885,8422 -3239,2023 -7962,3048 -14224,3075 -7126,0 -12550,-1700 -16247,-5048 -3670,-3371 -5614,-8392 -5776,-15032l-28662 0z"/>
  <path class="fil1" d="M399827 332138l18623 0 0 -63479 -52469 0 0 22347 25912 0c-783,4212 -2293,7828 -4586,10824 -2297,2995 -5211,5262 -8802,6854 -3588,1593 -7691,2402 -12358,2402 -5751,-26 -10771,-1510 -15062,-4453 -4291,-2942 -7611,-7179 -9987,-12684 -2374,-5479 -3589,-12091 -3616,-19784 27,-5884 729,-11174 2133,-15843 1403,-4696 3373,-8690 5937,-11983 2565,-3320 5586,-5829 9069,-7584 3508,-1754 7341,-2645 11526,-2645 5613,0 10336,1295 14224,3832 3884,2565 6826,6371 8770,11391l28501 0c-1595,-8232 -4643,-15250 -9151,-21052 -4509,-5830 -10255,-10257 -17272,-13333 -7017,-3077 -15113,-4616 -24264,-4642 -9070,26 -17247,1539 -24560,4481 -7342,2967 -13630,7205 -18867,12738 -5235,5532 -9256,12145 -12063,19865 -2807,7718 -4238,16354 -4265,25908 27,8934 1350,17085 4022,24480 2645,7368 6477,13791 11523,19243 4967,5344 10662,9393 17059,12091 6423,2727 13359,4103 20835,4103 7988,0 15033,-1485 21104,-4452 6103,-2997 11310,-7557 15657,-13685l2427 15060z"/>
  <path class="fil1" d="M437761 332138l45501 0c5345,28 10231,-81 14683,-324 4480,-216 8555,-729 12255,-1511 3697,-809 7070,-2023 10146,-3671 3591,-1970 6643,-4453 9151,-7449 2537,-2996 4481,-6395 5832,-10201 1347,-3807 2021,-7909 2021,-12308 -25,-6746 -1806,-12361 -5344,-16813 -3535,-4481 -8718,-7612 -15544,-9420 5909,-2187 10280,-5318 13169,-9447 2890,-4102 4318,-9284 4318,-15492 29,-10229 -3263,-17786 -9821,-22617 -6558,-4831 -16517,-7232 -29852,-7179l-56515 0 0 116432zm28501 -23156l0 -25749 25587 0c5341,0 9391,1080 12114,3240 2702,2158 4078,5344 4078,9554 0,3373 -702,5991 -2106,7881 -1432,1888 -3563,3238 -6396,3995 -2861,755 -6448,1105 -10770,1079l-22507 0zm0 -47772l0 -22023 25262 0c4533,0 7959,917 10284,2727 2317,1808 3478,4479 3478,7961 0,3805 -1242,6639 -3750,8528 -2512,1862 -6286,2807 -11306,2807l-23968 0z"/>
  <path class="fil1" d="M614714 215706l0 69148c-24,5747 325,10957 1080,15599 730,4615 2025,8771 3834,12470 1835,3696 4343,7043 7557,9985 4533,4129 9850,7233 15924,9338 6100,2078 12983,3131 20673,3131 7691,0 14573,-1053 20673,-3131 6075,-2105 11391,-5209 15924,-9338 3211,-2942 5722,-6289 7504,-9985 1806,-3699 3051,-7855 3778,-12470 702,-4642 1051,-9852 1027,-15599l0 -69148 -29634 0 0 72710c25,5128 -596,9311 -1838,12576 -1241,3293 -3291,5723 -6152,7287 -2861,1567 -6668,2322 -11444,2322 -4833,0 -8689,-755 -11550,-2322 -2889,-1564 -4939,-3994 -6209,-7287 -1242,-3265 -1863,-7448 -1834,-12576l0 -72710 -29313 0z"/>
  <path class="fil1" d="M725197 293435c889,14089 5288,24588 13198,31524 7934,6963 19459,10418 34572,10418 10932,-26 20161,-1538 27693,-4480 7528,-2969 13226,-7208 17138,-12685 3884,-5479 5828,-12011 5856,-19594 0,-5021 -974,-9608 -2889,-13764 -1941,-4130 -4802,-7746 -8608,-10851 -1891,-1484 -4212,-2888 -6992,-4156 -2780,-1268 -5990,-2537 -9634,-3779 -3645,-1268 -7719,-2618 -12200,-4049 -4561,-1457 -8583,-2751 -11983,-3885 -3426,-1107 -6287,-2241 -8555,-3347 -2293,-1107 -3994,-2401 -5126,-3859 -1136,-1458 -1701,-3266 -1701,-5426 0,-1970 674,-3751 1969,-5316 1295,-1593 3157,-2835 5560,-3779 2430,-945 5316,-1404 8664,-1432 5990,-26 10580,1270 13818,3862 3211,2590 5154,6584 5775,12010l28014 0c-24,-7774 -1887,-14521 -5531,-20243 -3669,-5721 -8880,-10175 -15709,-13333 -6802,-3156 -14923,-4749 -24423,-4804 -9747,55 -18084,1566 -24995,4588 -6935,3024 -12223,7234 -15896,12685 -3697,5452 -5559,11822 -5588,19163 29,7234 2188,13577 6477,19027 4322,5453 10689,9851 19110,13199 5694,2212 10905,4048 15653,5505 4777,1431 8989,2700 12633,3779 3641,1078 6639,2187 8961,3345 1404,731 2508,1810 3291,3213 808,1404 1242,3104 1242,5047 0,3589 -1648,6396 -4886,8422 -3239,2023 -7962,3048 -14221,3075 -7126,0 -12552,-1700 -16249,-5048 -3669,-3371 -5616,-8392 -5775,-15032l-28663 0z"/>
  <path class="fil1" d="M834703 293435c892,14089 5292,24588 13197,31524 7938,6963 19463,10418 34576,10418 10929,-26 20161,-1538 27690,-4480 7531,-2969 13225,-7208 17138,-12685 3887,-5479 5831,-12011 5856,-19594 0,-5021 -970,-9608 -2886,-13764 -1944,-4130 -4805,-7746 -8611,-10851 -1888,-1484 -4209,-2888 -6989,-4156 -2780,-1268 -5994,-2537 -9634,-3779 -3644,-1268 -7719,-2618 -12199,-4049 -4562,-1457 -8583,-2751 -11984,-3885 -3429,-1107 -6290,-2241 -8555,-3347 -2293,-1107 -3997,-2401 -5129,-3859 -1133,-1458 -1701,-3266 -1701,-5426 0,-1970 674,-3751 1972,-5316 1295,-1593 3158,-2835 5560,-3779 2427,-945 5316,-1404 8661,-1432 5993,-26 10580,1270 13818,3862 3214,2590 5158,6584 5775,12010l28018 0c-29,-7774 -1891,-14521 -5532,-20243 -3672,-5721 -8883,-10175 -15709,-13333 -6802,-3156 -14926,-4749 -24426,-4804 -9744,55 -18080,1566 -24991,4588 -6936,3024 -12228,7234 -15896,12685 -3698,5452 -5560,11822 -5588,19163 28,7234 2187,13577 6477,19027 4318,5453 10689,9851 19110,13199 5693,2212 10904,4048 15652,5505 4777,1431 8989,2700 12630,3779 3644,1078 6639,2187 8960,3345 1404,731 2512,1810 3295,3213 808,1404 1242,3104 1242,5047 0,3589 -1647,6396 -4886,8422 -3238,2023 -7962,3048 -14224,3075 -7126,0 -12548,-1700 -16245,-5048 -3673,-3371 -5617,-8392 -5779,-15032l-28663 0z"/>
  <polygon class="fil0" points="564292,215380 564292,331524 579292,331524 579292,215380 "/>
 </g>
</svg>
