<svg xmlns="http://www.w3.org/2000/svg" width="188" height="36.89" viewBox="0 0 660.9 129.7">
  <defs>
    <clipPath id="a">
      <path d="M0 3v970h4957V3z"/>
    </clipPath>
  </defs>
  <g clip-path="url(#a)" transform="matrix(.13333 0 0 -.13333 0 129.7)">
    <path d="M21.4 0h4934.7v19.4H21.4zM450 960.2v-87.6H283.1v-411H166.8v411H0v87.6h450M672.5 838.8c1.4-.3 4.4-.6 9.3-1v-98c-6.8.5-12.9.9-18.2 1l-12.8.4c-43.4 0-72.5-12.7-87.4-38-8.3-14.1-12.4-36-12.4-65.5V461.6H443.2V830h102v-64.3c16.6 24.7 31.1 41.5 43.5 50.5 20.2 15.2 46.4 22.8 78.7 22.8 2 0 3.7-.1 5-.4M904.4 687c20 2.1 34.2 5 42.8 8.4 15.4 6 23 15 23 27.5 0 15.2-5.8 25.7-17.6 31.5-11.9 5.8-29.2 8.6-52 8.6-25.7 0-43.8-5.6-54.5-16.7a66.4 66.4 0 0 1-15.3-33.5H727.3c2.3 31.7 12.4 57.8 30.3 78.3 28.5 32 77.4 48 146.8 48 45.2 0 85.3-7.8 120.3-23.5 35.1-15.6 52.6-45.7 52.6-90.2V555.9c0-11.8.3-26 .8-42.9.7-12.7 2.8-21.4 6.2-26 3.4-4.6 8.5-8.3 15.4-11.2v-14.2H983a95.9 95.9 0 0 0-6.8 20.7c-1.3 6.5-2.3 13.9-3 22.2a218.8 218.8 0 0 0-51.4-36.7 169.9 169.9 0 0 0-78.6-17.8c-37.3 0-68 9.5-92.3 28.7-24.3 19.2-36.5 46.3-36.5 81.4 0 45.5 19.6 78.5 58.6 99 21.5 11 53 19 94.7 23.7zm65.5-45.1a125.8 125.8 0 0 0-49.5-16.1l-24.4-4.2c-22.9-3.6-39.2-8-49-13.3a44 44 0 0 1-24.8-41.5c0-16.6 5.1-28.8 15.4-36.1a61.6 61.6 0 0 1 37.4-11.2c23.2 0 44.7 6.2 64.4 18.5 19.5 12.4 29.7 34.9 30.5 67.5V642M1417.6 830h115.2l-148.3-368.4h-113l-147 368.5h120.4l85.3-271.8 87.4 271.8M1744.7 687a180 180 0 0 1 42.8 8.4c15.4 6 23 15 23 27.5 0 15.2-5.9 25.7-17.7 31.5-11.8 5.8-29 8.6-52 8.6-25.6 0-43.8-5.6-54.4-16.7a65.5 65.5 0 0 1-15.3-33.5h-103.5c2.3 31.7 12.4 57.8 30.3 78.3 28.5 32 77.4 48 146.8 48 45.1 0 85.2-7.8 120.3-23.5 35-15.6 52.6-45.7 52.6-90.2V555.9c0-11.8.3-26 .8-42.9.7-12.7 2.8-21.4 6.2-26 3.4-4.6 8.5-8.3 15.4-11.2v-14.2h-116.7a95.6 95.6 0 0 0-6.9 20.7c-1.2 6.5-2.2 13.9-3 22.2a219.8 219.8 0 0 0-51.3-36.7 170 170 0 0 0-78.6-17.8c-37.3 0-68 9.5-92.4 28.7-24.3 19.2-36.4 46.3-36.4 81.4 0 45.5 19.5 78.5 58.7 99 21.4 11 53 19 94.6 23.7zm65.5-45.1a125.4 125.4 0 0 0-49.5-16.1l-24.4-4.2c-22.9-3.6-39.2-8-49-13.3a44.1 44.1 0 0 1-24.8-41.5c0-16.6 5.1-28.8 15.4-36.1a61.3 61.3 0 0 1 37.3-11.2c23.3 0 44.8 6.2 64.4 18.5 19.6 12.4 29.8 34.9 30.6 67.5V642M2120 873.8h-107.8v87.7H2120zm-107.8-43.7H2120V461.6h-107.8V830M2226.4 461.6h107.8v497.3h-107.8z" fill="#231f20"/>
    <path d="M2620.3 614.8c3.5-22.5 10.4-39.4 20.7-50.6 18.8-20.3 51.1-30.5 96.9-30.5 27.3 0 49.6 2.7 66.6 8.1 32.5 10.3 48.6 29.5 48.6 57.4 0 16.4-8 29-24 38-16 8.7-41.3 16.5-75.7 23.3l-58.9 11.8c-58 11.7-98.1 24.3-120.6 38-38 23-57.1 58.8-57.1 107.7 0 44.4 18.2 81.4 54.6 111 36.4 29.3 89.9 44 160.4 44 59 0 109.2-13.9 150.8-41.6 41.6-27.6 63.5-68 65.4-120.7H2836a69.6 69.6 0 0 1-44.1 62.5 166.8 166.8 0 0 1-68 12.3c-30.1 0-54.2-5.4-72.3-16-18-10.7-27-25.6-27-44.7 0-17.5 9-30.6 26.7-39.3 11.4-5.7 35.6-12.5 72.8-20.3l96.4-20.7c42.1-9 73.9-21 95.2-36 33.2-23.4 49.7-57.3 49.7-101.6 0-45.4-19.5-83.1-58.4-113.1-39-30.1-94-45.1-165-45.1-72.7 0-129.8 14.7-171.3 44.3a141.6 141.6 0 0 0-62.5 121.8h112.2M3149 830V608.9c0-21 2.6-36.6 8.2-47.2 9.9-18.6 29-28 57.8-28 36.9 0 62 13.4 75.7 39.8 7 14.4 10.6 33.4 10.6 57V830H3409V461.6h-103.5v52.9c-1-1.2-3.6-4.6-7.5-10.3a73 73 0 0 0-14.3-14.9 152 152 0 0 0-48.7-28c-15.8-5-34-7.5-55.2-7.5-60.6 0-101.5 19.8-122.6 59.2-11.8 21.7-17.6 53.5-17.6 95.5v221.6h109.2M3621.2 873.8h-107.8v87.7h107.8zm-107.8-43.7h107.8V461.6h-107.8V830M3809.5 580c2.4-17 7.4-29 15.1-36.2 13.6-12.8 38.8-19.1 75.5-19.1 21.6 0 38.7 2.7 51.4 8.3 12.7 5.7 19 14 19 25.2 0 10.8-5 19-15 24.5-10.1 5.6-48 15.1-113.6 28.7-47.3 10.2-80.3 23-99 38.4-18.8 15.3-28.3 37.2-28.3 65.8 0 33.8 15 62.8 45 87 30 24.3 72.2 36.5 126.6 36.5 51.6 0 93.7-9.3 126.1-27.5 32.5-18.3 51.2-50 56-95h-107.8a53 53 0 0 1-11.8 29.4c-11.9 13-32.2 19.6-60.8 19.6-23.6 0-40.4-3.3-50.4-9.7-10-6.6-15-14.2-15-23 0-11 5.4-19 16-23.8 10.6-5.2 48.2-14 112.6-26.4 43-9 75-22.5 96-40.6a87.8 87.8 0 0 0 31.2-68.8c0-36.3-15.1-66-45.5-88.8-30.5-23-77.4-34.5-141-34.5-65 0-112.8 12.2-143.7 36.6a114 114 0 0 0-46.4 93.5h107.8M4238.4 580c2.2-17 7.2-29 15-36.2 13.5-12.8 38.7-19.1 75.4-19.1a129 129 0 0 1 51.4 8.3c12.8 5.7 19.1 14 19.1 25.2 0 10.8-5 19-15 24.5-10.2 5.6-48 15.1-113.7 28.7-47.2 10.2-80.2 23-99 38.4-18.8 15.3-28.1 37.2-28.1 65.8 0 33.8 14.9 62.8 44.9 87 30 24.3 72.2 36.5 126.6 36.5 51.6 0 93.6-9.3 126.1-27.5 32.5-18.3 51.2-50 56-95h-107.8a53 53 0 0 1-11.9 29.4c-11.8 13-32.1 19.6-60.8 19.6-23.5 0-40.3-3.3-50.3-9.7-10-6.6-15-14.2-15-23 0-11 5.3-19 15.9-23.8 10.7-5.2 48.2-14 112.8-26.4 42.9-9 74.9-22.5 96-40.6a88 88 0 0 0 31.2-68.8c0-36.3-15.3-66-45.7-88.8-30.4-23-77.4-34.5-141-34.5-64.8 0-112.7 12.2-143.6 36.6a114 114 0 0 0-46.3 93.5h107.8M4850 821.8c28.6-11.4 52.1-29.5 70.6-54.3a170.1 170.1 0 0 0 32.6-75.9c2.8-16.8 4-41.1 3.5-72.9h-296.8c1.6-37.5 15.8-63.6 42.4-78.7 16.3-9.4 35.7-14 58.5-14 24.2 0 43.8 5.8 59 17.5 8.2 6.3 15.5 15 21.8 26.3h110.1c-2.9-21.8-16-43.9-39.6-66.4-36.6-35.6-87.9-53.4-153.7-53.4-54.5 0-102.5 15-144 45-41.5 30.2-62.3 79.1-62.3 147 0 63.5 18.7 112.3 56.1 146.2 37.5 33.8 86.2 50.9 146 50.9 35.4 0 67.4-5.7 95.9-17.3zm-160.2-83.1a92.8 92.8 0 0 1-28.5-55.6h184c-2 25-11.4 43.9-28.5 56.7-17 13-38 19.3-63.3 19.3-27.4 0-48.6-6.8-63.7-20.4" fill="#e22526"/>
    <path d="M2435.5 447a56.4 56.4 0 1 0 0 112.8 56.4 56.4 0 0 0 0-112.8" fill="#231f20"/>
  </g>
</svg>
