<svg width="270" height="214" viewBox="0 0 270 214" fill="none" xmlns="http://www.w3.org/2000/svg">
<g clip-path="url(#clip0_1142_7983)">
<path fill-rule="evenodd" clip-rule="evenodd" d="M111.251 140.66C111.251 135.714 112.232 134.478 113.671 134.478C115.289 134.478 116.289 136.24 116.289 140.66C116.289 144.579 115.388 146.489 113.745 146.489C112.103 146.489 111.275 145.117 111.275 140.66H111.251ZM119.643 146.631V146.093H118.469V129.687H114.993V130.225H116.166V135.689H116.123C115.896 135.134 115.509 134.659 115.013 134.323C114.516 133.988 113.931 133.807 113.332 133.804C110.812 133.804 108.731 136.178 108.731 140.437C108.731 144.696 110.985 147.027 113.282 147.027C114.968 147.027 115.826 146.242 116.265 145.141H116.314V146.631H119.643Z" fill="#231F20"/>
<path d="M132.499 146.093H131.19V134.194H127.485V134.731H128.905V142.422C128.905 144.968 127.707 146.131 126.361 146.131C125.015 146.131 124.601 145.512 124.601 143.88V134.194H120.976V134.731H122.298V143.472C122.298 145.945 123.422 147.027 125.676 147.027C126.345 147.048 127.006 146.868 127.573 146.51C128.14 146.152 128.586 145.632 128.856 145.018H128.905V146.631H132.524L132.499 146.093Z" fill="#231F20"/>
<path fill-rule="evenodd" clip-rule="evenodd" d="M151.08 149.524H150.784C150.073 149.524 149.66 149.153 149.66 147.565V146.947C152.84 146.285 155.483 143.003 155.483 138.181C155.483 132.79 152.13 129.316 148.437 129.316C144.744 129.316 141.391 132.79 141.391 138.181C141.391 143.003 144.034 146.285 147.214 146.947V147.435C147.214 149.395 147.974 150.229 149.783 150.229C150.218 150.21 150.652 150.161 151.08 150.081V149.524ZM144.423 138.162C144.423 131.746 145.72 129.835 148.437 129.835C151.154 129.835 152.445 131.746 152.445 138.162C152.445 144.579 151.154 146.514 148.437 146.514C145.72 146.514 144.423 144.604 144.423 138.187" fill="#231F20"/>
<path d="M168.679 146.093H167.358V134.194H163.652V134.731H165.073V142.422C165.073 144.968 163.875 146.131 162.529 146.131C161.182 146.131 160.769 145.512 160.769 143.88V134.194H157.125V134.731H158.441V143.472C158.441 145.945 159.571 147.027 161.818 147.027C162.489 147.049 163.15 146.87 163.717 146.512C164.284 146.154 164.731 145.633 164.999 145.018H165.048V146.631H168.667L168.679 146.093Z" fill="#231F20"/>
<path fill-rule="evenodd" clip-rule="evenodd" d="M174.743 132.531L178.219 130.151C178.837 129.761 178.93 129.533 178.93 129.149C178.925 128.912 178.827 128.686 178.657 128.521C178.487 128.355 178.259 128.264 178.022 128.265C177.756 128.305 177.501 128.4 177.274 128.544C177.046 128.688 176.851 128.877 176.7 129.1L173.693 132.531H174.743ZM179.973 139.238C179.973 135.764 178.189 133.804 175.398 133.804C172.606 133.804 170.093 136.493 170.093 140.412C170.093 144.332 172.322 147.027 175.428 147.027C177.898 147.027 179.905 145.358 180.029 141.983H179.492C179.245 145.018 177.75 146.341 175.675 146.341C173.823 146.341 172.637 144.696 172.637 139.974C172.625 139.728 172.625 139.483 172.637 139.238H179.973ZM172.73 138.7C172.927 135.856 173.835 134.342 175.348 134.342C176.62 134.342 177.429 135.294 177.429 137.742V138.7H172.73Z" fill="#231F20"/>
<path fill-rule="evenodd" clip-rule="evenodd" d="M183.549 146.631L184.432 144.869C184.703 145.519 185.163 146.072 185.752 146.457C186.341 146.842 187.032 147.04 187.735 147.027C190.594 147.027 192.824 143.936 192.824 140.227C192.824 136.518 190.916 133.817 187.976 133.817C187.396 133.786 186.822 133.94 186.335 134.256C185.848 134.573 185.473 135.036 185.265 135.578H185.216V129.699H181.739V130.237H182.919V146.644L183.549 146.631ZM187.538 146.489C186.266 146.489 185.166 145.556 185.166 140.709C185.166 135.64 186.34 134.49 187.587 134.49C189.199 134.49 190.279 136.493 190.279 140.412C190.279 144.579 189.131 146.489 187.538 146.489Z" fill="#231F20"/>
<path fill-rule="evenodd" clip-rule="evenodd" d="M204.828 139.238C204.828 135.764 203.043 133.804 200.252 133.804C197.369 133.804 194.997 136.493 194.997 140.412C194.997 144.332 197.22 147.027 200.326 147.027C202.796 147.027 204.803 145.358 204.927 141.983H204.39C204.143 145.018 202.654 146.341 200.573 146.341C198.721 146.341 197.541 144.696 197.541 139.973C197.529 139.728 197.529 139.483 197.541 139.238H204.828ZM197.591 138.7C197.782 135.856 198.69 134.342 200.203 134.342C201.475 134.342 202.284 135.294 202.284 137.742V138.7H197.591Z" fill="#231F20"/>
<path d="M216.011 134.583C214.931 134.155 213.792 133.892 212.633 133.804C208.928 133.804 206.711 136.493 206.711 140.412C206.711 144.332 208.817 147.027 212.096 147.027C214.393 147.027 216.128 145.481 216.153 142.032H215.616C215.542 144.993 214.319 146.359 212.436 146.359C210.429 146.359 209.256 144.69 209.256 140.177C209.256 135.85 210.824 134.348 212.343 134.348C213.615 134.348 214.159 134.738 215.332 139.046H216.017L216.011 134.583Z" fill="#231F20"/>
<path fill-rule="evenodd" clip-rule="evenodd" d="M118.445 112.384C118.445 108.904 116.66 106.944 113.869 106.944C110.985 106.944 108.608 109.64 108.608 113.559C108.608 117.478 110.837 120.173 113.943 120.173C116.413 120.173 118.42 118.504 118.543 115.129H118.006C117.759 118.164 116.265 119.456 114.19 119.456C112.337 119.456 111.152 117.812 111.152 113.089C111.139 112.844 111.139 112.598 111.152 112.353L118.445 112.384ZM111.201 111.846C111.399 109.003 112.307 107.488 113.819 107.488C115.091 107.488 115.9 108.44 115.9 110.888V111.846H111.201Z" fill="#231F20"/>
<path d="M120.229 107.878H121.773V117.231C121.773 119.24 122.749 120.173 124.508 120.173C126.515 120.173 127.596 119.289 127.596 116.693V114.882H127.053V116.841C127.053 118.653 126.435 119.314 125.392 119.314C124.465 119.314 124.07 118.925 124.07 117.991V107.878H126.911V107.34H124.07V104.404H121.773V107.34H120.229V107.878Z" fill="#231F20"/>
<path d="M135.161 107.878H136.704V117.231C136.704 119.24 137.68 120.173 139.44 120.173C141.447 120.173 142.527 119.289 142.527 116.693V114.882H141.984V116.841C141.984 118.653 141.367 119.314 140.323 119.314C139.397 119.314 139.001 118.925 139.001 117.991V107.878H141.842V107.34H139.001V104.404H136.704V107.34H135.161V107.878Z" fill="#231F20"/>
<path d="M145.059 119.24H143.738V119.778H148.974V119.24H147.363V111.822C147.363 109.615 148.338 107.804 149.345 107.804C149.962 107.804 150.172 108.341 150.617 109.658L151.469 112.18H152.006V107.383C151.482 107.13 150.914 106.983 150.333 106.951C148.764 106.951 147.863 107.729 147.375 109.151H147.325V107.34H143.75V107.878H145.072L145.059 119.24Z" fill="#231F20"/>
<path fill-rule="evenodd" clip-rule="evenodd" d="M155.847 111.797C157.02 108.366 157.484 107.47 159.2 107.47C160.497 107.47 161.324 108.088 161.324 109.646V112.217C158.854 113.713 153.84 112.465 153.84 116.749C153.84 118.881 155.359 120.155 157.545 120.155C158.349 120.163 159.136 119.922 159.799 119.467C160.462 119.011 160.969 118.362 161.25 117.608H161.3V119.759H164.628V119.221H163.455V110.085C163.455 108.564 162.084 106.944 159.027 106.944C157.734 106.991 156.463 107.291 155.285 107.828V111.797H155.847ZM161.324 114.733C161.324 117.429 160.089 119.24 158.268 119.289C156.971 119.289 156.286 118.603 156.286 116.767C156.286 113.244 158.564 114.171 161.324 112.873V114.733Z" fill="#231F20"/>
<path d="M164.986 107.878H165.987L170.34 119.877H171.347L175.675 107.878H176.682V107.34H173.008V107.878H174.965L171.686 117.033H171.637L168.407 107.878H170.315V107.34H164.986V107.878Z" fill="#231F20"/>
<path fill-rule="evenodd" clip-rule="evenodd" d="M179.387 111.797C180.56 108.366 181.023 107.47 182.74 107.47C184.036 107.47 184.864 108.088 184.864 109.646V112.217C182.394 113.713 177.38 112.465 177.38 116.749C177.38 118.881 178.899 120.155 181.085 120.155C181.889 120.163 182.676 119.922 183.339 119.467C184.002 119.011 184.508 118.362 184.79 117.608H184.839V119.759H188.168V119.221H186.994V110.085C186.994 108.564 185.623 106.944 182.567 106.944C181.274 106.991 180.002 107.291 178.825 107.828V111.797H179.387ZM184.864 114.733C184.864 117.429 183.629 119.24 181.807 119.289C180.51 119.289 179.825 118.603 179.825 116.767C179.825 113.244 182.104 114.171 184.864 112.873V114.733Z" fill="#231F20"/>
<path fill-rule="evenodd" clip-rule="evenodd" d="M193.491 107.34H190.02V107.878H191.193V119.24H190.02V119.778H194.664V119.24H193.491V107.34ZM190.946 104.571C190.946 104.847 191.028 105.117 191.182 105.347C191.335 105.576 191.553 105.756 191.808 105.861C192.063 105.967 192.344 105.995 192.614 105.941C192.885 105.887 193.134 105.754 193.329 105.558C193.524 105.363 193.657 105.114 193.711 104.843C193.765 104.572 193.737 104.291 193.631 104.036C193.526 103.781 193.347 103.562 193.117 103.409C192.888 103.255 192.618 103.173 192.342 103.173C192.157 103.167 191.973 103.199 191.801 103.268C191.629 103.336 191.473 103.438 191.342 103.569C191.211 103.7 191.108 103.857 191.04 104.029C190.972 104.201 190.94 104.385 190.946 104.571Z" fill="#231F20"/>
<path d="M200.283 102.833H196.813V103.371H197.986V119.24H196.813V119.778H201.456V119.24H200.283V102.833Z" fill="#231F20"/>
<path d="M207.076 102.833H203.605V103.371H204.779V119.24H203.605V119.778H208.249V119.24H207.076V102.833Z" fill="#231F20"/>
<path fill-rule="evenodd" clip-rule="evenodd" d="M220.303 112.384C220.303 108.904 218.518 106.944 215.727 106.944C212.936 106.944 210.472 109.64 210.472 113.559C210.472 117.478 212.695 120.173 215.801 120.173C218.271 120.173 220.278 118.504 220.402 115.129H219.864C219.617 118.164 218.123 119.456 216.048 119.456C214.196 119.456 213.016 117.812 213.016 113.089C213.016 112.842 213.016 112.601 213.016 112.353L220.303 112.384ZM213.059 111.846C213.257 109.003 214.165 107.488 215.678 107.488C216.95 107.488 217.759 108.44 217.759 110.888V111.846H213.059Z" fill="#231F20"/>
<path d="M233.907 119.24H232.585V107.34H228.88V107.878H230.294V115.568C230.294 118.115 229.096 119.277 227.75 119.277C226.404 119.277 225.99 118.659 225.99 117.027V107.34H222.371V107.878H223.693V116.619C223.693 119.091 224.817 120.173 227.065 120.173C227.735 120.195 228.397 120.015 228.965 119.657C229.532 119.299 229.98 118.779 230.251 118.164H230.294V119.778H233.919L233.907 119.24Z" fill="#231F20"/>
<path d="M235.759 114.783V119.11C237.004 119.8 238.4 120.172 239.822 120.192C242.755 120.192 244.904 118.523 244.904 116.025C244.904 111.741 237.328 112.792 237.328 109.708C237.328 108.36 238.791 107.507 240.335 107.507C242.07 107.507 242.342 108.125 243.422 111.766H244.108V107.822C243.008 107.255 241.789 106.956 240.551 106.951C237.741 106.951 235.759 108.416 235.759 110.864C235.759 115.005 243.342 114.492 243.342 116.866C243.342 118.653 241.922 119.629 240.014 119.629C237.815 119.629 237.328 118.9 236.445 114.783H235.759Z" fill="#231F20"/>
<path fill-rule="evenodd" clip-rule="evenodd" d="M256.989 112.384C256.989 108.904 255.204 106.944 252.413 106.944C249.622 106.944 247.158 109.64 247.158 113.559C247.158 117.478 249.381 120.173 252.487 120.173C254.957 120.173 256.964 118.504 257.088 115.129H256.544C256.297 118.164 254.809 119.456 252.728 119.456C250.876 119.456 249.696 117.812 249.696 113.089C249.684 112.844 249.684 112.598 249.696 112.353L256.989 112.384ZM249.752 111.846C249.943 109.003 250.851 107.488 252.364 107.488C253.636 107.488 254.445 108.44 254.445 110.888V111.846H249.752Z" fill="#231F20"/>
<path d="M259.317 114.783V119.11C260.56 119.8 261.953 120.172 263.374 120.192C266.313 120.192 268.462 118.523 268.462 116.025C268.462 111.741 260.879 112.792 260.879 109.708C260.879 108.36 262.349 107.507 263.893 107.507C265.628 107.507 265.894 108.125 266.98 111.766H267.66V107.822C266.567 107.266 265.359 106.973 264.134 106.969C261.324 106.969 259.342 108.434 259.342 110.882C259.342 115.024 266.925 114.511 266.925 116.885C266.925 118.671 265.505 119.648 263.596 119.648C261.392 119.648 260.904 118.918 260.027 114.801L259.317 114.783Z" fill="#231F20"/>
<path fill-rule="evenodd" clip-rule="evenodd" d="M111.251 86.9464C111.251 82.001 112.232 80.7647 113.671 80.7647C115.289 80.7647 116.289 82.5327 116.289 86.9464C116.289 90.8657 115.388 92.7758 113.745 92.7758C112.103 92.7758 111.275 91.4035 111.275 86.9464H111.251ZM119.643 92.9242V92.3864H118.469V75.98H114.993V76.5178H116.166V81.9763H116.123C115.896 81.4211 115.509 80.9456 115.013 80.61C114.516 80.2745 113.931 80.0938 113.332 80.0908C110.812 80.0908 108.731 82.4708 108.731 86.7301C108.731 90.9893 110.985 93.3136 113.282 93.3136C114.968 93.3136 115.826 92.5347 116.265 91.4282H116.314V92.9242H119.643Z" fill="#231F20"/>
<path fill-rule="evenodd" clip-rule="evenodd" d="M131.128 85.5308C131.128 82.0504 129.344 80.0908 126.552 80.0908C123.761 80.0908 121.297 82.7861 121.297 86.7053C121.297 90.6245 123.52 93.3136 126.627 93.3136C129.097 93.3136 131.104 91.6507 131.227 88.2693H130.69C130.443 91.3107 128.955 92.6336 126.874 92.6336C125.021 92.6336 123.842 90.9893 123.842 86.2664C123.829 86.0214 123.829 85.7758 123.842 85.5308H131.128ZM123.891 84.993C124.082 82.1494 124.99 80.6348 126.503 80.6348C127.775 80.6348 128.584 81.5868 128.584 84.0348V84.993H123.891Z" fill="#231F20"/>
<path d="M133.456 87.9293V92.2565C134.699 92.9452 136.093 93.3147 137.513 93.3322C140.453 93.3322 142.602 91.6693 142.602 89.1718C142.602 84.8879 135.019 85.9388 135.019 82.8541C135.019 81.5065 136.488 80.6472 138.026 80.6472C139.767 80.6472 140.033 81.2654 141.113 84.9126H141.799V80.9686C140.707 80.4102 139.499 80.1159 138.273 80.1094C135.463 80.1094 133.481 81.5806 133.481 84.0286C133.481 88.1704 141.064 87.6511 141.064 90.0311C141.064 91.8176 139.644 92.7944 137.736 92.7944C135.531 92.7944 135.043 92.0587 134.166 87.9479L133.456 87.9293Z" fill="#231F20"/>
<path d="M151.031 81.0243H152.574V90.3773C152.574 92.3863 153.55 93.3136 155.316 93.3136C157.317 93.3136 158.404 92.4358 158.404 89.8395V88.0282H157.866V89.9878C157.866 91.7991 157.249 92.4605 156.199 92.4605C155.273 92.4605 154.878 92.0649 154.878 91.1376V81.0243H157.743V80.4865H154.902V77.5439H152.605V80.4865H151.061L151.031 81.0243Z" fill="#231F20"/>
<path d="M160.935 92.3863H159.595V92.9241H164.826V92.3863H163.214V84.9682C163.214 82.7613 164.19 80.95 165.196 80.95C165.783 80.95 166.024 81.4878 166.468 82.8046L167.32 85.3267H167.864V80.5297C167.335 80.2714 166.76 80.1201 166.172 80.0846C164.61 80.0846 163.702 80.8697 163.214 82.2915H163.165V80.4802H159.595V81.018H160.917L160.935 92.3863Z" fill="#231F20"/>
<path fill-rule="evenodd" clip-rule="evenodd" d="M171.717 84.9435C172.89 81.5126 173.36 80.6163 175.07 80.6163C176.367 80.6163 177.201 81.2345 177.201 82.7923V85.3639C174.731 86.8598 169.71 85.6111 169.71 89.8951C169.71 92.0216 171.229 93.2951 173.415 93.2951C174.219 93.3028 175.006 93.0626 175.669 92.6069C176.332 92.1512 176.839 91.5022 177.12 90.7482H177.17V92.9056H180.492V92.3678H179.356V83.225C179.356 81.7104 177.985 80.0908 174.928 80.0908C173.635 80.1373 172.364 80.4377 171.186 80.9748V84.9435H171.717ZM177.201 87.8798C177.201 90.5751 175.966 92.3863 174.113 92.4358C172.822 92.4358 172.137 91.7496 172.137 89.9136C172.137 86.3839 174.409 87.3173 177.176 86.0191L177.201 87.8798Z" fill="#231F20"/>
<path d="M180.856 81.0243H181.857L186.216 93.023H187.217L191.545 81.0243H192.552V80.4865H188.878V81.0243H190.835L187.562 90.1794H187.507L184.283 81.0243H186.192V80.4865H180.856V81.0243Z" fill="#231F20"/>
<path fill-rule="evenodd" clip-rule="evenodd" d="M195.257 84.9435C196.43 81.5126 196.899 80.6163 198.61 80.6163C199.906 80.6163 200.74 81.2345 200.74 82.7923V85.3639C198.27 86.8598 193.25 85.6111 193.25 89.8951C193.25 92.0216 194.769 93.2951 196.955 93.2951C197.759 93.3028 198.546 93.0626 199.209 92.6069C199.872 92.1512 200.378 91.5022 200.66 90.7482H200.709V92.9056H204.056V92.3678H202.883V83.225C202.883 81.7104 201.512 80.0908 198.455 80.0908C197.162 80.1373 195.891 80.4377 194.713 80.9748V84.9435H195.257ZM200.74 87.8798C200.74 90.5751 199.505 92.3863 197.653 92.4358C196.356 92.4358 195.677 91.7496 195.677 89.9136C195.677 86.3839 197.949 87.3173 200.715 86.0191L200.74 87.8798Z" fill="#231F20"/>
<path fill-rule="evenodd" clip-rule="evenodd" d="M209.361 80.4864H205.909V81.0242H207.082V92.3863H205.909V92.9241H210.552V92.3863H209.379L209.361 80.4864ZM206.816 77.717C206.816 77.9933 206.898 78.2634 207.052 78.4932C207.205 78.7229 207.423 78.902 207.678 79.0077C207.933 79.1135 208.214 79.1411 208.484 79.0872C208.755 79.0333 209.004 78.9003 209.199 78.7049C209.394 78.5095 209.527 78.2606 209.581 77.9896C209.635 77.7186 209.607 77.4376 209.501 77.1824C209.396 76.9271 209.217 76.7089 208.987 76.5554C208.758 76.4019 208.488 76.3199 208.212 76.3199C208.027 76.3139 207.843 76.3459 207.671 76.414C207.499 76.4821 207.343 76.5848 207.212 76.7157C207.081 76.8467 206.978 77.0031 206.91 77.1753C206.842 77.3475 206.81 77.5319 206.816 77.717Z" fill="#231F20"/>
<path d="M216.153 75.98H212.683V76.5178H213.856V92.3864H212.683V92.9242H217.326V92.3864H216.153V75.98Z" fill="#231F20"/>
<path d="M222.946 75.98H219.475V76.5178H220.649V92.3864H219.475V92.9242H224.119V92.3864H222.946V75.98Z" fill="#231F20"/>
<path fill-rule="evenodd" clip-rule="evenodd" d="M235.438 85.5308C235.438 82.0504 233.653 80.0908 230.862 80.0908C228.071 80.0908 225.607 82.7861 225.607 86.7053C225.607 90.6245 227.83 93.3136 230.936 93.3136C233.437 93.3136 235.413 91.6507 235.537 88.2693H235C234.753 91.3107 233.264 92.6336 231.183 92.6336C229.331 92.6336 228.151 90.9893 228.151 86.2664C228.139 86.0214 228.139 85.7758 228.151 85.5308H235.438ZM228.201 84.993C228.392 82.1494 229.3 80.6348 230.819 80.6348C232.091 80.6348 232.894 81.5868 232.894 84.0348V84.993H228.201Z" fill="#231F20"/>
<path d="M249.042 92.3863H247.72V80.4865H244.015V81.0243H245.429V88.7144C245.429 91.2613 244.231 92.4234 242.885 92.4234C241.539 92.4234 241.125 91.8053 241.125 90.1671V80.4865H237.5V81.0243H238.822V89.7653C238.822 92.238 239.946 93.3136 242.2 93.3136C242.869 93.335 243.529 93.1557 244.096 92.7989C244.662 92.442 245.109 91.9238 245.38 91.3107H245.429V92.9241H249.048L249.042 92.3863Z" fill="#231F20"/>
<path d="M252.117 92.3863H250.795V92.9241H256.032V92.3863H254.42V84.9682C254.42 82.7613 255.396 80.95 256.402 80.95C257.02 80.95 257.23 81.4878 257.675 82.8046L258.527 85.3267H259.064V80.5297C258.537 80.2706 257.964 80.1193 257.378 80.0846C255.81 80.0846 254.908 80.8697 254.42 82.2915H254.371V80.4802H250.795V81.018H252.117V92.3863Z" fill="#231F20"/>
<path d="M260.867 87.9293V92.2565C262.112 92.9442 263.508 93.3137 264.93 93.3322C267.863 93.3322 270.019 91.6693 270.019 89.1718C270.019 84.8879 262.435 85.9388 262.435 82.8541C262.435 81.5065 263.905 80.6472 265.443 80.6472C267.178 80.6472 267.45 81.2654 268.53 84.9126H269.216V80.9686C268.126 80.4094 266.92 80.115 265.696 80.1094C262.88 80.1094 260.898 81.5806 260.898 84.0286C260.898 88.1704 268.481 87.6511 268.481 90.0311C268.481 91.8176 267.067 92.7944 265.159 92.7944C262.954 92.7944 262.466 92.0587 261.583 87.9479L260.867 87.9293Z" fill="#231F20"/>
<path d="M112.597 57.546H114.517C115.752 57.546 116.326 58.3064 116.814 60.9274H117.358V53.633H116.814C116.326 56.2479 115.74 57.0082 114.517 57.0082H112.609V49.6643H117.16C118.482 49.6643 118.969 49.9796 120.39 54.5602H120.927V49.1265H108.49V49.6643H109.954V65.5329H108.49V66.0707H114.851V65.5329H112.597V57.546Z" fill="#231F20"/>
<path fill-rule="evenodd" clip-rule="evenodd" d="M126.54 51.9638L130.011 49.59C130.597 49.2006 130.721 48.9719 130.721 48.5886C130.717 48.3519 130.621 48.1262 130.452 47.9606C130.283 47.795 130.056 47.703 129.819 47.7046C129.553 47.744 129.298 47.8385 129.07 47.9823C128.843 48.126 128.648 48.3156 128.498 48.5392L125.484 51.9638H126.54ZM131.752 58.6772C131.752 55.1969 129.961 53.2373 127.176 53.2373C124.286 53.2373 121.915 55.9325 121.915 59.8518C121.915 63.771 124.144 66.4601 127.25 66.4601C129.72 66.4601 131.727 64.7972 131.845 61.4157H131.307C131.066 64.451 129.572 65.7739 127.491 65.7739C125.639 65.7739 124.459 64.1357 124.459 59.4067C124.447 59.1637 124.447 58.9202 124.459 58.6772H131.752ZM124.508 58.1147C124.706 55.2773 125.608 53.7875 127.127 53.7875C128.399 53.7875 129.208 54.7456 129.208 57.1936V58.1147H124.508Z" fill="#231F20"/>
<path fill-rule="evenodd" clip-rule="evenodd" d="M136.791 60.0929C136.791 55.1475 137.766 53.9112 139.211 53.9112C140.823 53.9112 141.83 55.673 141.83 60.0929C141.83 64.0121 140.922 65.9223 139.285 65.9223C137.649 65.9223 136.815 64.55 136.815 60.0929H136.791ZM145.183 66.0707V65.5329H144.003V49.1265H140.533V49.6643H141.688V55.1228H141.638C141.413 54.5675 141.028 54.0919 140.532 53.7562C140.036 53.4205 139.452 53.2399 138.853 53.2373C136.334 53.2373 134.253 55.6111 134.253 59.8765C134.253 64.142 136.501 66.4601 138.804 66.4601C140.49 66.4601 141.348 65.675 141.786 64.5747H141.836V66.0707H145.183Z" fill="#231F20"/>
<path fill-rule="evenodd" clip-rule="evenodd" d="M151.457 51.9638L154.927 49.59C155.545 49.2006 155.637 48.9719 155.637 48.5886C155.634 48.3519 155.537 48.1262 155.368 47.9606C155.199 47.795 154.972 47.703 154.736 47.7046C154.469 47.744 154.214 47.8385 153.987 47.9823C153.759 48.126 153.564 48.3156 153.414 48.5392L150.407 51.9638H151.457ZM156.668 58.6772C156.668 55.1969 154.884 53.2373 152.093 53.2373C149.209 53.2373 146.831 55.9325 146.831 59.8518C146.831 63.771 149.061 66.4601 152.167 66.4601C154.637 66.4601 156.644 64.7972 156.767 61.4157H156.224C155.983 64.451 154.489 65.7739 152.408 65.7739C150.555 65.7739 149.376 64.1357 149.376 59.4067C149.363 59.1637 149.363 58.9202 149.376 58.6772H156.668ZM149.425 58.1147C149.623 55.2773 150.524 53.7875 152.043 53.7875C153.315 53.7875 154.124 54.7456 154.124 57.1936V58.1147H149.425Z" fill="#231F20"/>
<path d="M160.213 65.5328H158.891V66.0706H164.128V65.5328H162.516V58.1147C162.516 55.914 163.492 54.1028 164.498 54.1028C165.085 54.1028 165.326 54.6406 165.733 55.9573L166.592 58.4794H167.129V53.6824C166.602 53.4233 166.029 53.272 165.443 53.2373C163.875 53.2373 162.973 54.0224 162.485 55.4442H162.436V53.6329H158.861V54.1708H160.213V65.5328Z" fill="#231F20"/>
<path fill-rule="evenodd" clip-rule="evenodd" d="M171.001 58.1147C172.174 54.6838 172.637 53.7875 174.354 53.7875C175.651 53.7875 176.478 54.4057 176.478 55.9696V58.5413C174.008 60.0311 168.994 58.7823 168.994 63.0725C168.994 65.199 170.513 66.4724 172.699 66.4724C173.503 66.4811 174.291 66.2412 174.954 65.7854C175.617 65.3296 176.123 64.6801 176.404 63.9256H176.453V66.083H179.782V65.5328H178.609V56.3715C178.609 54.8569 177.238 53.2373 174.181 53.2373C172.888 53.2838 171.616 53.5842 170.439 54.1213V58.1147H171.001ZM176.478 61.051C176.478 63.7463 175.243 65.5575 173.391 65.607C172.094 65.607 171.408 64.9208 171.408 63.0849C171.408 59.5551 173.687 60.4885 176.447 59.1903L176.478 61.051Z" fill="#231F20"/>
<path d="M181.091 54.1707H182.635V63.5237C182.635 65.5327 183.61 66.46 185.376 66.46C187.377 66.46 188.464 65.5822 188.464 62.9859V61.2055H187.927V63.1651C187.927 64.9764 187.309 65.6378 186.26 65.6378C185.333 65.6378 184.938 65.2422 184.938 64.3149V54.1707H187.779V53.6329H184.913V50.6965H182.616V53.6391H181.072L181.091 54.1707Z" fill="#231F20"/>
<path fill-rule="evenodd" clip-rule="evenodd" d="M193.244 53.6329H189.773V54.1707H190.946V65.5328H189.773V66.0706H194.417V65.5328H193.244V53.6329ZM190.699 50.8635C190.699 51.1398 190.781 51.4099 190.935 51.6396C191.088 51.8694 191.306 52.0485 191.561 52.1542C191.816 52.26 192.097 52.2876 192.367 52.2337C192.638 52.1798 192.887 52.0468 193.082 51.8514C193.277 51.656 193.41 51.407 193.464 51.136C193.518 50.865 193.49 50.5841 193.384 50.3288C193.279 50.0736 193.1 49.8554 192.87 49.7019C192.641 49.5483 192.371 49.4664 192.095 49.4664C191.91 49.4604 191.726 49.4924 191.554 49.5605C191.382 49.6286 191.226 49.7313 191.095 49.8622C190.964 49.9932 190.861 50.1496 190.793 50.3218C190.725 50.494 190.693 50.6784 190.699 50.8635Z" fill="#231F20"/>
<path fill-rule="evenodd" clip-rule="evenodd" d="M196.492 59.8518C196.492 63.771 198.789 66.4601 201.821 66.4601C204.853 66.4601 207.156 63.771 207.156 59.8518C207.156 55.9326 204.853 53.2373 201.821 53.2373C198.789 53.2373 196.492 55.9326 196.492 59.8518ZM199.036 59.8518C199.036 55.098 199.987 53.7751 201.821 53.7751C203.655 53.7751 204.612 55.098 204.612 59.8518C204.612 64.6056 203.655 65.9223 201.821 65.9223C199.987 65.9223 199.036 64.5994 199.036 59.8518Z" fill="#231F20"/>
<path d="M208.953 54.1708H210.274V65.5329H208.953V66.0707H213.992V65.5329H212.572V57.8427C212.572 55.2959 213.807 54.1337 215.165 54.1337C216.32 54.1337 216.882 54.7519 216.882 56.557V65.5329H215.462V66.0707H220.5V65.5329H219.179V56.8413C219.179 54.1708 217.808 53.2373 215.875 53.2373C215.168 53.2346 214.474 53.4249 213.867 53.7876C213.26 54.1502 212.763 54.6717 212.43 55.2959H212.38V53.633H208.953V54.1708Z" fill="#231F20"/>
<path d="M15.339 205.729H11.4424V188.55H13.7025C16.1108 188.55 16.7345 189.168 18.1795 195.776H19.2354V180.18H18.1857C16.7407 186.776 16.117 187.406 13.7087 187.406H11.4486V171.803H18.3277C21.1188 171.803 21.7425 173.658 24.052 182.17H25.6884V170.654H0.185257V171.754H2.6553V205.754H0.185257V206.903H15.339V205.729Z" fill="#231F20"/>
<path d="M48.8697 206.879V205.729H46.3626V171.803H47.857C51.8029 171.803 52.5748 178.715 53.4887 182.312H55.1251V170.654H28.8562V182.325H30.4865C31.4004 178.715 32.1723 171.816 36.0441 171.816H37.5878V205.741H35.1054V206.891L48.8697 206.879Z" fill="#231F20"/>
<path fill-rule="evenodd" clip-rule="evenodd" d="M77.3431 212.43H76.6206C75.1324 212.43 74.6014 211.694 74.6014 210.075V207.404C82.734 205.939 87.0627 197.822 87.0627 188.766C87.0627 178.715 81.7213 169.813 71.7176 169.813C61.7139 169.813 56.3663 178.715 56.3663 188.766C56.3663 197.822 60.6889 205.939 68.8277 207.404V208.82C68.8277 212.85 70.4146 214 73.5454 214H77.3431V212.43ZM77.1517 188.766C77.1517 202.428 76.0957 206.563 71.7176 206.563C67.3394 206.563 66.2773 202.428 66.2773 188.766C66.2773 175.104 67.3394 170.963 71.7176 170.963C76.0957 170.963 77.1517 175.104 77.1517 188.766Z" fill="#231F20"/>
<path d="M109.472 158.259H269.543V159.495H109.472V158.259ZM0.0555878 158.259H86.9763V159.495H0.0555878V158.259Z" fill="#231F20"/>
<path fill-rule="evenodd" clip-rule="evenodd" d="M111.251 140.66C111.251 135.714 112.232 134.478 113.671 134.478C115.289 134.478 116.289 136.24 116.289 140.66C116.289 144.579 115.388 146.489 113.745 146.489C112.103 146.489 111.275 145.117 111.275 140.66H111.251ZM119.643 146.631V146.093H118.469V129.687H114.993V130.225H116.166V135.689H116.123C115.896 135.134 115.509 134.659 115.013 134.323C114.516 133.988 113.931 133.807 113.332 133.804C110.812 133.804 108.731 136.178 108.731 140.437C108.731 144.696 110.985 147.027 113.282 147.027C114.968 147.027 115.826 146.242 116.265 145.141H116.314V146.631H119.643Z" fill="#231F20"/>
<path d="M132.499 146.093H131.19V134.194H127.485V134.731H128.905V142.422C128.905 144.968 127.707 146.131 126.361 146.131C125.015 146.131 124.601 145.512 124.601 143.88V134.194H120.976V134.731H122.298V143.472C122.298 145.945 123.422 147.027 125.676 147.027C126.345 147.048 127.006 146.868 127.573 146.51C128.14 146.152 128.586 145.632 128.856 145.018H128.905V146.631H132.524L132.499 146.093Z" fill="#231F20"/>
<path fill-rule="evenodd" clip-rule="evenodd" d="M151.08 149.524H150.784C150.073 149.524 149.66 149.153 149.66 147.565V146.947C152.84 146.285 155.483 143.003 155.483 138.181C155.483 132.79 152.13 129.316 148.437 129.316C144.744 129.316 141.391 132.79 141.391 138.181C141.391 143.003 144.034 146.285 147.214 146.947V147.435C147.214 149.395 147.974 150.229 149.783 150.229C150.218 150.21 150.652 150.161 151.08 150.081V149.524ZM144.423 138.162C144.423 131.746 145.72 129.835 148.437 129.835C151.154 129.835 152.445 131.746 152.445 138.162C152.445 144.579 151.154 146.514 148.437 146.514C145.72 146.514 144.423 144.604 144.423 138.187" fill="#231F20"/>
<path d="M168.679 146.093H167.358V134.194H163.652V134.731H165.073V142.422C165.073 144.968 163.875 146.131 162.529 146.131C161.182 146.131 160.769 145.512 160.769 143.88V134.194H157.125V134.731H158.441V143.472C158.441 145.945 159.571 147.027 161.818 147.027C162.489 147.049 163.15 146.87 163.717 146.512C164.284 146.154 164.731 145.633 164.999 145.018H165.048V146.631H168.667L168.679 146.093Z" fill="#231F20"/>
<path fill-rule="evenodd" clip-rule="evenodd" d="M174.743 132.531L178.219 130.151C178.837 129.761 178.93 129.533 178.93 129.149C178.925 128.912 178.827 128.686 178.657 128.521C178.487 128.355 178.259 128.264 178.022 128.265C177.756 128.305 177.501 128.4 177.274 128.544C177.046 128.688 176.851 128.877 176.7 129.1L173.693 132.531H174.743ZM179.973 139.238C179.973 135.764 178.189 133.804 175.398 133.804C172.606 133.804 170.093 136.493 170.093 140.412C170.093 144.332 172.322 147.027 175.428 147.027C177.898 147.027 179.905 145.358 180.029 141.983H179.492C179.245 145.018 177.75 146.341 175.675 146.341C173.823 146.341 172.637 144.696 172.637 139.974C172.625 139.728 172.625 139.483 172.637 139.238H179.973ZM172.73 138.7C172.927 135.856 173.835 134.342 175.348 134.342C176.62 134.342 177.429 135.294 177.429 137.742V138.7H172.73Z" fill="#231F20"/>
<path fill-rule="evenodd" clip-rule="evenodd" d="M183.549 146.631L184.432 144.869C184.703 145.519 185.163 146.072 185.752 146.457C186.341 146.842 187.032 147.04 187.735 147.027C190.594 147.027 192.824 143.936 192.824 140.227C192.824 136.518 190.916 133.817 187.976 133.817C187.396 133.786 186.822 133.94 186.335 134.256C185.848 134.573 185.473 135.036 185.265 135.578H185.216V129.699H181.739V130.237H182.919V146.644L183.549 146.631ZM187.538 146.489C186.266 146.489 185.166 145.556 185.166 140.709C185.166 135.64 186.34 134.49 187.587 134.49C189.199 134.49 190.279 136.493 190.279 140.412C190.279 144.579 189.131 146.489 187.538 146.489Z" fill="#231F20"/>
<path fill-rule="evenodd" clip-rule="evenodd" d="M204.828 139.238C204.828 135.764 203.043 133.804 200.252 133.804C197.369 133.804 194.997 136.493 194.997 140.412C194.997 144.332 197.22 147.027 200.326 147.027C202.796 147.027 204.803 145.358 204.927 141.983H204.39C204.143 145.018 202.654 146.341 200.573 146.341C198.721 146.341 197.541 144.696 197.541 139.973C197.529 139.728 197.529 139.483 197.541 139.238H204.828ZM197.591 138.7C197.782 135.856 198.69 134.342 200.203 134.342C201.475 134.342 202.284 135.294 202.284 137.742V138.7H197.591Z" fill="#231F20"/>
<path d="M216.011 134.583C214.931 134.155 213.792 133.892 212.633 133.804C208.928 133.804 206.711 136.493 206.711 140.412C206.711 144.332 208.817 147.027 212.096 147.027C214.393 147.027 216.128 145.481 216.153 142.032H215.616C215.542 144.993 214.319 146.359 212.436 146.359C210.429 146.359 209.256 144.69 209.256 140.177C209.256 135.85 210.824 134.348 212.343 134.348C213.615 134.348 214.159 134.738 215.332 139.046H216.017L216.011 134.583Z" fill="#231F20"/>
<path fill-rule="evenodd" clip-rule="evenodd" d="M118.445 112.384C118.445 108.904 116.66 106.944 113.869 106.944C110.985 106.944 108.608 109.64 108.608 113.559C108.608 117.478 110.837 120.173 113.943 120.173C116.413 120.173 118.42 118.504 118.543 115.129H118.006C117.759 118.164 116.265 119.456 114.19 119.456C112.337 119.456 111.152 117.812 111.152 113.089C111.139 112.844 111.139 112.598 111.152 112.353L118.445 112.384ZM111.201 111.846C111.399 109.003 112.307 107.488 113.819 107.488C115.091 107.488 115.9 108.44 115.9 110.888V111.846H111.201Z" fill="#231F20"/>
<path d="M120.229 107.878H121.773V117.231C121.773 119.24 122.749 120.173 124.508 120.173C126.515 120.173 127.596 119.289 127.596 116.693V114.882H127.053V116.841C127.053 118.653 126.435 119.314 125.392 119.314C124.465 119.314 124.07 118.925 124.07 117.991V107.878H126.911V107.34H124.07V104.404H121.773V107.34H120.229V107.878Z" fill="#231F20"/>
<path d="M135.161 107.878H136.704V117.231C136.704 119.24 137.68 120.173 139.44 120.173C141.447 120.173 142.527 119.289 142.527 116.693V114.882H141.984V116.841C141.984 118.653 141.367 119.314 140.323 119.314C139.397 119.314 139.001 118.925 139.001 117.991V107.878H141.842V107.34H139.001V104.404H136.704V107.34H135.161V107.878Z" fill="#231F20"/>
<path d="M145.059 119.24H143.738V119.778H148.974V119.24H147.363V111.822C147.363 109.615 148.338 107.804 149.345 107.804C149.962 107.804 150.172 108.341 150.617 109.658L151.469 112.18H152.006V107.383C151.482 107.13 150.914 106.983 150.333 106.951C148.764 106.951 147.863 107.729 147.375 109.151H147.325V107.34H143.75V107.878H145.072L145.059 119.24Z" fill="#231F20"/>
<path fill-rule="evenodd" clip-rule="evenodd" d="M155.847 111.797C157.02 108.366 157.484 107.47 159.2 107.47C160.497 107.47 161.324 108.088 161.324 109.646V112.217C158.854 113.713 153.84 112.465 153.84 116.749C153.84 118.881 155.359 120.155 157.545 120.155C158.349 120.163 159.136 119.922 159.799 119.467C160.462 119.011 160.969 118.362 161.25 117.608H161.3V119.759H164.628V119.221H163.455V110.085C163.455 108.564 162.084 106.944 159.027 106.944C157.734 106.991 156.463 107.291 155.285 107.828V111.797H155.847ZM161.324 114.733C161.324 117.429 160.089 119.24 158.268 119.289C156.971 119.289 156.286 118.603 156.286 116.767C156.286 113.244 158.564 114.171 161.324 112.873V114.733Z" fill="#231F20"/>
<path d="M164.986 107.878H165.987L170.34 119.877H171.347L175.675 107.878H176.682V107.34H173.008V107.878H174.965L171.686 117.033H171.637L168.407 107.878H170.315V107.34H164.986V107.878Z" fill="#231F20"/>
<path fill-rule="evenodd" clip-rule="evenodd" d="M179.387 111.797C180.56 108.366 181.023 107.47 182.74 107.47C184.036 107.47 184.864 108.088 184.864 109.646V112.217C182.394 113.713 177.38 112.465 177.38 116.749C177.38 118.881 178.899 120.155 181.085 120.155C181.889 120.163 182.676 119.922 183.339 119.467C184.002 119.011 184.508 118.362 184.79 117.608H184.839V119.759H188.168V119.221H186.994V110.085C186.994 108.564 185.623 106.944 182.567 106.944C181.274 106.991 180.002 107.291 178.825 107.828V111.797H179.387ZM184.864 114.733C184.864 117.429 183.629 119.24 181.807 119.289C180.51 119.289 179.825 118.603 179.825 116.767C179.825 113.244 182.104 114.171 184.864 112.873V114.733Z" fill="#231F20"/>
<path fill-rule="evenodd" clip-rule="evenodd" d="M193.491 107.34H190.02V107.878H191.193V119.24H190.02V119.778H194.664V119.24H193.491V107.34ZM190.946 104.571C190.946 104.847 191.028 105.117 191.182 105.347C191.335 105.576 191.553 105.756 191.808 105.861C192.063 105.967 192.344 105.995 192.614 105.941C192.885 105.887 193.134 105.754 193.329 105.558C193.524 105.363 193.657 105.114 193.711 104.843C193.765 104.572 193.737 104.291 193.631 104.036C193.526 103.781 193.347 103.562 193.117 103.409C192.888 103.255 192.618 103.173 192.342 103.173C192.157 103.167 191.973 103.199 191.801 103.268C191.629 103.336 191.473 103.438 191.342 103.569C191.211 103.7 191.108 103.857 191.04 104.029C190.972 104.201 190.94 104.385 190.946 104.571Z" fill="#231F20"/>
<path d="M200.283 102.833H196.813V103.371H197.986V119.24H196.813V119.778H201.456V119.24H200.283V102.833Z" fill="#231F20"/>
<path d="M207.076 102.833H203.605V103.371H204.779V119.24H203.605V119.778H208.249V119.24H207.076V102.833Z" fill="#231F20"/>
<path fill-rule="evenodd" clip-rule="evenodd" d="M220.303 112.384C220.303 108.904 218.518 106.944 215.727 106.944C212.936 106.944 210.472 109.64 210.472 113.559C210.472 117.478 212.695 120.173 215.801 120.173C218.271 120.173 220.278 118.504 220.402 115.129H219.864C219.617 118.164 218.123 119.456 216.048 119.456C214.196 119.456 213.016 117.812 213.016 113.089C213.016 112.842 213.016 112.601 213.016 112.353L220.303 112.384ZM213.059 111.846C213.257 109.003 214.165 107.488 215.678 107.488C216.95 107.488 217.759 108.44 217.759 110.888V111.846H213.059Z" fill="#231F20"/>
<path d="M233.907 119.24H232.585V107.34H228.88V107.878H230.294V115.568C230.294 118.115 229.096 119.277 227.75 119.277C226.404 119.277 225.99 118.659 225.99 117.027V107.34H222.371V107.878H223.693V116.619C223.693 119.091 224.817 120.173 227.065 120.173C227.735 120.195 228.397 120.015 228.965 119.657C229.532 119.299 229.98 118.779 230.251 118.164H230.294V119.778H233.919L233.907 119.24Z" fill="#231F20"/>
<path d="M235.759 114.783V119.11C237.004 119.8 238.4 120.172 239.822 120.192C242.755 120.192 244.904 118.523 244.904 116.025C244.904 111.741 237.328 112.792 237.328 109.708C237.328 108.36 238.791 107.507 240.335 107.507C242.07 107.507 242.342 108.125 243.422 111.766H244.108V107.822C243.008 107.255 241.789 106.956 240.551 106.951C237.741 106.951 235.759 108.416 235.759 110.864C235.759 115.005 243.342 114.492 243.342 116.866C243.342 118.653 241.922 119.629 240.014 119.629C237.815 119.629 237.328 118.9 236.445 114.783H235.759Z" fill="#231F20"/>
<path fill-rule="evenodd" clip-rule="evenodd" d="M256.989 112.384C256.989 108.904 255.204 106.944 252.413 106.944C249.622 106.944 247.158 109.64 247.158 113.559C247.158 117.478 249.381 120.173 252.487 120.173C254.957 120.173 256.964 118.504 257.088 115.129H256.544C256.297 118.164 254.809 119.456 252.728 119.456C250.876 119.456 249.696 117.812 249.696 113.089C249.684 112.844 249.684 112.598 249.696 112.353L256.989 112.384ZM249.752 111.846C249.943 109.003 250.851 107.488 252.364 107.488C253.636 107.488 254.445 108.44 254.445 110.888V111.846H249.752Z" fill="#231F20"/>
<path d="M259.317 114.783V119.11C260.56 119.8 261.953 120.172 263.374 120.192C266.313 120.192 268.462 118.523 268.462 116.025C268.462 111.741 260.879 112.792 260.879 109.708C260.879 108.36 262.349 107.507 263.893 107.507C265.628 107.507 265.894 108.125 266.98 111.766H267.66V107.822C266.567 107.266 265.359 106.973 264.134 106.969C261.324 106.969 259.342 108.434 259.342 110.882C259.342 115.024 266.925 114.511 266.925 116.885C266.925 118.671 265.505 119.648 263.596 119.648C261.392 119.648 260.904 118.918 260.027 114.801L259.317 114.783Z" fill="#231F20"/>
<path fill-rule="evenodd" clip-rule="evenodd" d="M111.251 86.9464C111.251 82.001 112.232 80.7647 113.671 80.7647C115.289 80.7647 116.289 82.5327 116.289 86.9464C116.289 90.8657 115.388 92.7758 113.745 92.7758C112.103 92.7758 111.275 91.4035 111.275 86.9464H111.251ZM119.643 92.9242V92.3864H118.469V75.98H114.993V76.5178H116.166V81.9763H116.123C115.896 81.4211 115.509 80.9456 115.013 80.61C114.516 80.2745 113.931 80.0938 113.332 80.0908C110.812 80.0908 108.731 82.4708 108.731 86.7301C108.731 90.9893 110.985 93.3136 113.282 93.3136C114.968 93.3136 115.826 92.5347 116.265 91.4282H116.314V92.9242H119.643Z" fill="#231F20"/>
<path fill-rule="evenodd" clip-rule="evenodd" d="M131.128 85.5308C131.128 82.0504 129.344 80.0908 126.552 80.0908C123.761 80.0908 121.297 82.7861 121.297 86.7053C121.297 90.6245 123.52 93.3136 126.627 93.3136C129.097 93.3136 131.104 91.6507 131.227 88.2693H130.69C130.443 91.3107 128.955 92.6336 126.874 92.6336C125.021 92.6336 123.842 90.9893 123.842 86.2664C123.829 86.0214 123.829 85.7758 123.842 85.5308H131.128ZM123.891 84.993C124.082 82.1494 124.99 80.6348 126.503 80.6348C127.775 80.6348 128.584 81.5868 128.584 84.0348V84.993H123.891Z" fill="#231F20"/>
<path d="M133.456 87.9293V92.2565C134.699 92.9452 136.093 93.3147 137.513 93.3322C140.453 93.3322 142.602 91.6693 142.602 89.1718C142.602 84.8879 135.019 85.9388 135.019 82.8541C135.019 81.5065 136.488 80.6472 138.026 80.6472C139.767 80.6472 140.033 81.2654 141.113 84.9126H141.799V80.9686C140.707 80.4102 139.499 80.1159 138.273 80.1094C135.463 80.1094 133.481 81.5806 133.481 84.0286C133.481 88.1704 141.064 87.6511 141.064 90.0311C141.064 91.8176 139.644 92.7944 137.736 92.7944C135.531 92.7944 135.043 92.0587 134.166 87.9479L133.456 87.9293Z" fill="#231F20"/>
<path d="M151.031 81.0243H152.574V90.3773C152.574 92.3863 153.55 93.3136 155.316 93.3136C157.317 93.3136 158.404 92.4358 158.404 89.8395V88.0282H157.866V89.9878C157.866 91.7991 157.249 92.4605 156.199 92.4605C155.273 92.4605 154.878 92.0649 154.878 91.1376V81.0243H157.743V80.4865H154.902V77.5439H152.605V80.4865H151.061L151.031 81.0243Z" fill="#231F20"/>
<path d="M160.935 92.3863H159.595V92.9241H164.826V92.3863H163.214V84.9682C163.214 82.7613 164.19 80.95 165.196 80.95C165.783 80.95 166.024 81.4878 166.468 82.8046L167.32 85.3267H167.864V80.5297C167.335 80.2714 166.76 80.1201 166.172 80.0846C164.61 80.0846 163.702 80.8697 163.214 82.2915H163.165V80.4802H159.595V81.018H160.917L160.935 92.3863Z" fill="#231F20"/>
<path fill-rule="evenodd" clip-rule="evenodd" d="M171.717 84.9435C172.89 81.5126 173.36 80.6163 175.07 80.6163C176.367 80.6163 177.201 81.2345 177.201 82.7923V85.3639C174.731 86.8598 169.71 85.6111 169.71 89.8951C169.71 92.0216 171.229 93.2951 173.415 93.2951C174.219 93.3028 175.006 93.0626 175.669 92.6069C176.332 92.1512 176.839 91.5022 177.12 90.7482H177.17V92.9056H180.492V92.3678H179.356V83.225C179.356 81.7104 177.985 80.0908 174.928 80.0908C173.635 80.1373 172.364 80.4377 171.186 80.9748V84.9435H171.717ZM177.201 87.8798C177.201 90.5751 175.966 92.3863 174.113 92.4358C172.822 92.4358 172.137 91.7496 172.137 89.9136C172.137 86.3839 174.409 87.3173 177.176 86.0191L177.201 87.8798Z" fill="#231F20"/>
<path d="M180.856 81.0243H181.857L186.216 93.023H187.217L191.545 81.0243H192.552V80.4865H188.878V81.0243H190.835L187.562 90.1794H187.507L184.283 81.0243H186.192V80.4865H180.856V81.0243Z" fill="#231F20"/>
<path fill-rule="evenodd" clip-rule="evenodd" d="M195.257 84.9435C196.43 81.5126 196.899 80.6163 198.61 80.6163C199.906 80.6163 200.74 81.2345 200.74 82.7923V85.3639C198.27 86.8598 193.25 85.6111 193.25 89.8951C193.25 92.0216 194.769 93.2951 196.955 93.2951C197.759 93.3028 198.546 93.0626 199.209 92.6069C199.872 92.1512 200.378 91.5022 200.66 90.7482H200.709V92.9056H204.056V92.3678H202.883V83.225C202.883 81.7104 201.512 80.0908 198.455 80.0908C197.162 80.1373 195.891 80.4377 194.713 80.9748V84.9435H195.257ZM200.74 87.8798C200.74 90.5751 199.505 92.3863 197.653 92.4358C196.356 92.4358 195.677 91.7496 195.677 89.9136C195.677 86.3839 197.949 87.3173 200.715 86.0191L200.74 87.8798Z" fill="#231F20"/>
<path fill-rule="evenodd" clip-rule="evenodd" d="M209.361 80.4864H205.909V81.0242H207.082V92.3863H205.909V92.9241H210.552V92.3863H209.379L209.361 80.4864ZM206.816 77.717C206.816 77.9933 206.898 78.2634 207.052 78.4932C207.205 78.7229 207.423 78.902 207.678 79.0077C207.933 79.1135 208.214 79.1411 208.484 79.0872C208.755 79.0333 209.004 78.9003 209.199 78.7049C209.394 78.5095 209.527 78.2606 209.581 77.9896C209.635 77.7186 209.607 77.4376 209.501 77.1824C209.396 76.9271 209.217 76.7089 208.987 76.5554C208.758 76.4019 208.488 76.3199 208.212 76.3199C208.027 76.3139 207.843 76.3459 207.671 76.414C207.499 76.4821 207.343 76.5848 207.212 76.7157C207.081 76.8467 206.978 77.0031 206.91 77.1753C206.842 77.3475 206.81 77.5319 206.816 77.717Z" fill="#231F20"/>
<path d="M216.153 75.98H212.683V76.5178H213.856V92.3864H212.683V92.9242H217.326V92.3864H216.153V75.98Z" fill="#231F20"/>
<path d="M222.946 75.98H219.475V76.5178H220.649V92.3864H219.475V92.9242H224.119V92.3864H222.946V75.98Z" fill="#231F20"/>
<path fill-rule="evenodd" clip-rule="evenodd" d="M235.438 85.5308C235.438 82.0504 233.653 80.0908 230.862 80.0908C228.071 80.0908 225.607 82.7861 225.607 86.7053C225.607 90.6245 227.83 93.3136 230.936 93.3136C233.437 93.3136 235.413 91.6507 235.537 88.2693H235C234.753 91.3107 233.264 92.6336 231.183 92.6336C229.331 92.6336 228.151 90.9893 228.151 86.2664C228.139 86.0214 228.139 85.7758 228.151 85.5308H235.438ZM228.201 84.993C228.392 82.1494 229.3 80.6348 230.819 80.6348C232.091 80.6348 232.894 81.5868 232.894 84.0348V84.993H228.201Z" fill="#231F20"/>
<path d="M249.042 92.3863H247.72V80.4865H244.015V81.0243H245.429V88.7144C245.429 91.2613 244.231 92.4234 242.885 92.4234C241.539 92.4234 241.125 91.8053 241.125 90.1671V80.4865H237.5V81.0243H238.822V89.7653C238.822 92.238 239.946 93.3136 242.2 93.3136C242.869 93.335 243.529 93.1557 244.096 92.7989C244.662 92.442 245.109 91.9238 245.38 91.3107H245.429V92.9241H249.048L249.042 92.3863Z" fill="#231F20"/>
<path d="M252.117 92.3863H250.795V92.9241H256.032V92.3863H254.42V84.9682C254.42 82.7613 255.396 80.95 256.402 80.95C257.02 80.95 257.23 81.4878 257.675 82.8046L258.527 85.3267H259.064V80.5297C258.537 80.2706 257.964 80.1193 257.378 80.0846C255.81 80.0846 254.908 80.8697 254.42 82.2915H254.371V80.4802H250.795V81.018H252.117V92.3863Z" fill="#231F20"/>
<path d="M260.867 87.9293V92.2565C262.112 92.9442 263.508 93.3137 264.93 93.3322C267.863 93.3322 270.019 91.6693 270.019 89.1718C270.019 84.8879 262.435 85.9388 262.435 82.8541C262.435 81.5065 263.905 80.6472 265.443 80.6472C267.178 80.6472 267.45 81.2654 268.53 84.9126H269.216V80.9686C268.126 80.4094 266.92 80.115 265.696 80.1094C262.88 80.1094 260.898 81.5806 260.898 84.0286C260.898 88.1704 268.481 87.6511 268.481 90.0311C268.481 91.8176 267.067 92.7944 265.159 92.7944C262.954 92.7944 262.466 92.0587 261.583 87.9479L260.867 87.9293Z" fill="#231F20"/>
<path d="M112.597 57.546H114.517C115.752 57.546 116.326 58.3064 116.814 60.9274H117.358V53.633H116.814C116.326 56.2479 115.74 57.0082 114.517 57.0082H112.609V49.6643H117.16C118.482 49.6643 118.969 49.9796 120.39 54.5602H120.927V49.1265H108.49V49.6643H109.954V65.5329H108.49V66.0707H114.851V65.5329H112.597V57.546Z" fill="#231F20"/>
<path fill-rule="evenodd" clip-rule="evenodd" d="M126.54 51.9638L130.011 49.59C130.597 49.2006 130.721 48.9719 130.721 48.5886C130.717 48.3519 130.621 48.1262 130.452 47.9606C130.283 47.795 130.056 47.703 129.819 47.7046C129.553 47.744 129.298 47.8385 129.07 47.9823C128.843 48.126 128.648 48.3156 128.498 48.5392L125.484 51.9638H126.54ZM131.752 58.6772C131.752 55.1969 129.961 53.2373 127.176 53.2373C124.286 53.2373 121.915 55.9325 121.915 59.8518C121.915 63.771 124.144 66.4601 127.25 66.4601C129.72 66.4601 131.727 64.7972 131.845 61.4157H131.307C131.066 64.451 129.572 65.7739 127.491 65.7739C125.639 65.7739 124.459 64.1357 124.459 59.4067C124.447 59.1637 124.447 58.9202 124.459 58.6772H131.752ZM124.508 58.1147C124.706 55.2773 125.608 53.7875 127.127 53.7875C128.399 53.7875 129.208 54.7456 129.208 57.1936V58.1147H124.508Z" fill="#231F20"/>
<path fill-rule="evenodd" clip-rule="evenodd" d="M136.791 60.0929C136.791 55.1475 137.766 53.9112 139.211 53.9112C140.823 53.9112 141.83 55.673 141.83 60.0929C141.83 64.0121 140.922 65.9223 139.285 65.9223C137.649 65.9223 136.815 64.55 136.815 60.0929H136.791ZM145.183 66.0707V65.5329H144.003V49.1265H140.533V49.6643H141.688V55.1228H141.638C141.413 54.5675 141.028 54.0919 140.532 53.7562C140.036 53.4205 139.452 53.2399 138.853 53.2373C136.334 53.2373 134.253 55.6111 134.253 59.8765C134.253 64.142 136.501 66.4601 138.804 66.4601C140.49 66.4601 141.348 65.675 141.786 64.5747H141.836V66.0707H145.183Z" fill="#231F20"/>
<path fill-rule="evenodd" clip-rule="evenodd" d="M151.457 51.9638L154.927 49.59C155.545 49.2006 155.637 48.9719 155.637 48.5886C155.634 48.3519 155.537 48.1262 155.368 47.9606C155.199 47.795 154.972 47.703 154.736 47.7046C154.469 47.744 154.214 47.8385 153.987 47.9823C153.759 48.126 153.564 48.3156 153.414 48.5392L150.407 51.9638H151.457ZM156.668 58.6772C156.668 55.1969 154.884 53.2373 152.093 53.2373C149.209 53.2373 146.831 55.9325 146.831 59.8518C146.831 63.771 149.061 66.4601 152.167 66.4601C154.637 66.4601 156.644 64.7972 156.767 61.4157H156.224C155.983 64.451 154.489 65.7739 152.408 65.7739C150.555 65.7739 149.376 64.1357 149.376 59.4067C149.363 59.1637 149.363 58.9202 149.376 58.6772H156.668ZM149.425 58.1147C149.623 55.2773 150.524 53.7875 152.043 53.7875C153.315 53.7875 154.124 54.7456 154.124 57.1936V58.1147H149.425Z" fill="#231F20"/>
<path d="M160.213 65.5328H158.891V66.0706H164.128V65.5328H162.516V58.1147C162.516 55.914 163.492 54.1028 164.498 54.1028C165.085 54.1028 165.326 54.6406 165.733 55.9573L166.592 58.4794H167.129V53.6824C166.602 53.4233 166.029 53.272 165.443 53.2373C163.875 53.2373 162.973 54.0224 162.485 55.4442H162.436V53.6329H158.861V54.1708H160.213V65.5328Z" fill="#231F20"/>
<path fill-rule="evenodd" clip-rule="evenodd" d="M171.001 58.1147C172.174 54.6838 172.637 53.7875 174.354 53.7875C175.651 53.7875 176.478 54.4057 176.478 55.9696V58.5413C174.008 60.0311 168.994 58.7823 168.994 63.0725C168.994 65.199 170.513 66.4724 172.699 66.4724C173.503 66.4811 174.291 66.2412 174.954 65.7854C175.617 65.3296 176.123 64.6801 176.404 63.9256H176.453V66.083H179.782V65.5328H178.609V56.3715C178.609 54.8569 177.238 53.2373 174.181 53.2373C172.888 53.2838 171.616 53.5842 170.439 54.1213V58.1147H171.001ZM176.478 61.051C176.478 63.7463 175.243 65.5575 173.391 65.607C172.094 65.607 171.408 64.9208 171.408 63.0849C171.408 59.5551 173.687 60.4885 176.447 59.1903L176.478 61.051Z" fill="#231F20"/>
<path d="M181.091 54.1707H182.635V63.5237C182.635 65.5327 183.61 66.46 185.376 66.46C187.377 66.46 188.464 65.5822 188.464 62.9859V61.2055H187.927V63.1651C187.927 64.9764 187.309 65.6378 186.26 65.6378C185.333 65.6378 184.938 65.2422 184.938 64.3149V54.1707H187.779V53.6329H184.913V50.6965H182.616V53.6391H181.072L181.091 54.1707Z" fill="#231F20"/>
<path fill-rule="evenodd" clip-rule="evenodd" d="M193.244 53.6329H189.773V54.1707H190.946V65.5328H189.773V66.0706H194.417V65.5328H193.244V53.6329ZM190.699 50.8635C190.699 51.1398 190.781 51.4099 190.935 51.6396C191.088 51.8694 191.306 52.0485 191.561 52.1542C191.816 52.26 192.097 52.2876 192.367 52.2337C192.638 52.1798 192.887 52.0468 193.082 51.8514C193.277 51.656 193.41 51.407 193.464 51.136C193.518 50.865 193.49 50.5841 193.384 50.3288C193.279 50.0736 193.1 49.8554 192.87 49.7019C192.641 49.5483 192.371 49.4664 192.095 49.4664C191.91 49.4604 191.726 49.4924 191.554 49.5605C191.382 49.6286 191.226 49.7313 191.095 49.8622C190.964 49.9932 190.861 50.1496 190.793 50.3218C190.725 50.494 190.693 50.6784 190.699 50.8635Z" fill="#231F20"/>
<path fill-rule="evenodd" clip-rule="evenodd" d="M196.492 59.8518C196.492 63.771 198.789 66.4601 201.821 66.4601C204.853 66.4601 207.156 63.771 207.156 59.8518C207.156 55.9326 204.853 53.2373 201.821 53.2373C198.789 53.2373 196.492 55.9326 196.492 59.8518ZM199.036 59.8518C199.036 55.098 199.987 53.7751 201.821 53.7751C203.655 53.7751 204.612 55.098 204.612 59.8518C204.612 64.6056 203.655 65.9223 201.821 65.9223C199.987 65.9223 199.036 64.5994 199.036 59.8518Z" fill="#231F20"/>
<path d="M208.953 54.1708H210.274V65.5329H208.953V66.0707H213.992V65.5329H212.572V57.8427C212.572 55.2959 213.807 54.1337 215.165 54.1337C216.32 54.1337 216.882 54.7519 216.882 56.557V65.5329H215.462V66.0707H220.5V65.5329H219.179V56.8413C219.179 54.1708 217.808 53.2373 215.875 53.2373C215.168 53.2346 214.474 53.4249 213.867 53.7876C213.26 54.1502 212.763 54.6717 212.43 55.2959H212.38V53.633H208.953V54.1708Z" fill="#231F20"/>
<path d="M43.4418 46.0231C47.9893 46.0244 52.435 44.6754 56.2166 42.147C59.9983 39.6186 62.9459 36.0243 64.6867 31.8186C66.4275 27.613 66.8833 22.985 65.9964 18.52C65.1096 14.0551 62.9199 9.95367 59.7043 6.73463C56.4887 3.5156 52.3918 1.32354 47.9316 0.435706C43.4714 -0.452123 38.8484 0.00415603 34.6473 1.74685C30.4462 3.48954 26.8557 6.44035 24.33 10.226C21.8043 14.0117 20.4569 18.4622 20.4581 23.0146C20.4663 29.1144 22.8904 34.9619 27.1989 39.2751C31.5074 43.5882 37.3487 46.015 43.4418 46.0231Z" fill="#EF3E33"/>
<path d="M83.7096 87.8984L80.4183 84.5664C77.0282 81.1232 71.4953 75.5163 65.9562 69.9095C54.7546 58.5845 48.7277 52.6006 48.0484 52.038C45.4178 49.9857 40.8545 49.9795 38.6685 52.038C36.9086 53.6762 4.70543 86.0377 2.98258 87.7562C0.185261 90.6307 -0.691606 94.0122 0.58664 97.0289C1.09162 98.2619 1.94465 99.3208 3.04136 100.076C4.13807 100.832 5.43091 101.251 6.76174 101.282H23.1257V140.116C23.1257 144.072 27.0655 146.86 30.61 146.885H33.043H50.7099H55.8661C59.0401 146.885 62.597 144.134 62.597 140.456V101.288H79.8873C82.4685 101.288 85.1176 99.4335 86.1859 96.8248C86.8836 95.1372 87.4888 91.7311 83.6602 87.8984" fill="#EF3E33"/>
<path d="M15.339 205.729H11.4424V188.55H13.7025C16.1108 188.55 16.7345 189.168 18.1795 195.776H19.2354V180.18H18.1857C16.7407 186.776 16.117 187.406 13.7087 187.406H11.4486V171.803H18.3277C21.1188 171.803 21.7425 173.658 24.052 182.17H25.6884V170.654H0.185257V171.754H2.6553V205.754H0.185257V206.903H15.339V205.729Z" fill="#231F20"/>
<path d="M48.8697 206.879V205.729H46.3626V171.803H47.857C51.8029 171.803 52.5748 178.715 53.4887 182.312H55.1251V170.654H28.8562V182.325H30.4865C31.4004 178.715 32.1723 171.816 36.0441 171.816H37.5878V205.741H35.1054V206.891L48.8697 206.879Z" fill="#231F20"/>
<path fill-rule="evenodd" clip-rule="evenodd" d="M77.3431 212.43H76.6206C75.1324 212.43 74.6014 211.694 74.6014 210.075V207.404C82.734 205.939 87.0627 197.822 87.0627 188.766C87.0627 178.715 81.7213 169.813 71.7176 169.813C61.7139 169.813 56.3663 178.715 56.3663 188.766C56.3663 197.822 60.6889 205.939 68.8277 207.404V208.82C68.8277 212.85 70.4146 214 73.5454 214H77.3431V212.43ZM77.1517 188.766C77.1517 202.428 76.0957 206.563 71.7176 206.563C67.3394 206.563 66.2773 202.428 66.2773 188.766C66.2773 175.104 67.3394 170.963 71.7176 170.963C76.0957 170.963 77.1517 175.104 77.1517 188.766Z" fill="#231F20"/>
<path d="M109.472 158.259H269.543V159.495H109.472V158.259ZM0.0555878 158.259H86.9763V159.495H0.0555878V158.259Z" fill="#231F20"/>
</g>
<defs>
<clipPath id="clip0_1142_7983">
<rect width="270" height="214" fill="white"/>
</clipPath>
</defs>
</svg>
