<?xml version="1.0" encoding="UTF-8"?>
<svg width="86px" height="80px" viewBox="0 0 86 80" version="1.1" xmlns="http://www.w3.org/2000/svg" xmlns:xlink="http://www.w3.org/1999/xlink">
    <!-- Generator: Sketch 51.1 (57501) - http://www.bohemiancoding.com/sketch -->
    <title>structural/logo</title>
    <desc>Created with Sketch.</desc>
    <defs>
        <linearGradient x1="-2.48949813e-15%" y1="50%" x2="38.4663244%" y2="50%" id="linearGradient-1">
            <stop stop-color="#7FBA24" stop-opacity="0" offset="0%"></stop>
            <stop stop-color="#7FBA25" offset="100%"></stop>
        </linearGradient>
    </defs>
    <g id="Symbols" stroke="none" stroke-width="1" fill="none" fill-rule="evenodd">
        <g id="structural/header" transform="translate(-130.000000, -25.000000)">
            <g id="structural/logo" transform="translate(130.000000, 25.000000)">
                <polygon id="Fill-4" fill="#009CDE" points="13.1821339 0.118815416 32.7276105 4.48311562 18.9164949 60.325712 0.149922921 55.3710669"></polygon>
                <path d="M13.0563083,15.8186126 C10.7067748,25.8569087 7.84300203,34.8493631 6.27853955,44.8818174 C6.14320487,45.2715943 6.73111562,45.4025477 7.12235294,45.4025477 C8.94791075,45.5320406 10.9654361,46.0537444 12.9858824,45.4025477 C13.3767951,45.4025477 13.7060446,44.8818174 13.8327789,44.5563002 C14.6822718,41.2978824 15.3350913,38.1043732 16.4437323,34.8493631 C16.5698174,34.327497 17.0905477,34.0655903 17.4814604,34.0026288 C19.1780122,33.2199919 21.7837728,34.5876187 22.8249087,32.6999108 C23.545071,31.0689168 23.9335497,29.3712292 24.1948073,27.6128519 C24.1948073,27.3541907 24.0658012,26.9631156 23.6711562,26.8980446 C22.0424341,26.2423043 19.4404057,27.3541907 18.7867748,25.660073 C18.3317647,24.2900122 18.657931,22.008146 20.5458012,21.6850629 C22.5660852,21.166929 25.4295335,22.6609655 26.5410953,20.6436024 C27.5144016,19.0161785 27.9085598,17.0591805 27.9085598,15.1657931 C27.9085598,14.9098905 27.64714,14.648146 27.3884787,14.5154077 C26.1501826,14.1924868 24.7827181,14.3219797 23.545071,14.3219797 C20.5458012,14.1924868 17.6820284,13.8041704 14.6822718,14.3219797 C13.9650304,14.452284 13.182069,14.9098905 13.0563083,15.8186126" id="Fill-6" fill="#FFFFFF"></path>
                <polygon id="Fill-8" fill="#009CDE" points="73.3104097 62.2132901 85.5041623 11.7164138 36.3801055 0.11884787 24.065785 50.4205112"></polygon>
                <path d="M35.5331765,15.165712 C33.6430345,23.7708235 31.8870913,31.4556917 29.7962191,39.9301744 C29.5377201,41.1038864 29.146645,42.2754888 28.8175578,43.5769087 C28.4933387,44.1644949 28.1704178,45.2715132 29.0169899,45.5321217 C31.2931765,46.31557 33.5133793,46.0538256 35.857071,45.6614523 C36.380073,45.5321217 36.6418174,44.8817363 36.703643,44.4278621 C36.8360568,42.7931359 37.3564625,41.2978012 37.7475375,39.6716755 C38.0065233,38.4311075 38.203359,37.3224665 38.5941095,36.0844949 C38.9851846,35.1082677 38.9851846,34.0656714 39.1177606,33.0878215 C39.1177606,32.8939067 39.5055903,32.8939067 39.5055903,32.9581663 C40.2234807,37.3224665 40.7435619,41.4274564 42.1168682,45.5321217 C42.3080243,46.1849412 43.414069,46.31557 44.3310669,46.1849412 C45.9576795,45.9231968 47.5216552,46.3817769 49.0153671,45.7911075 C49.4129331,45.6614523 49.6711075,45.4024665 49.6711075,45.0113915 C50.6476592,41.6872535 51.1683895,38.5635213 52.0149615,35.1082677 C52.1470507,34.7141095 52.1470507,34.0656714 52.2767059,33.7378824 C52.9264422,30.7408844 53.5143529,28.005144 54.1700933,25.0078215 C55.0169899,21.685144 56.251716,18.4267262 56.251716,15.0407627 C56.251716,14.9099716 56.1256308,14.6482272 56.0552049,14.6482272 C53.7760974,14.3220609 51.8234807,14.3220609 49.5419391,14.7777201 C49.3444544,14.7777201 48.9564625,15.165712 48.8243732,15.5627911 C47.457071,19.2723245 47.0627505,23.2489574 46.2161785,27.3541095 C46.2161785,27.6127708 45.8283489,27.4863611 45.5636836,27.4863611 C45.3076187,23.2489574 44.3310669,19.4044138 43.3524057,15.165712 C43.2195051,14.9099716 42.9605193,14.6482272 42.6987748,14.5153266 C40.6142312,14.0614523 38.5941095,13.9293631 36.5097282,14.4523651 C36.1154077,14.5153266 35.5980852,14.6482272 35.5331765,15.165712" id="Fill-10" fill="#FFFFFF"></path>
                <path d="M61.8564706,15.0408438 C60.7449087,15.8186126 61.0098986,17.1240892 60.880568,18.426645 C60.163002,25.8569087 59.5072617,33.2199919 59.1161866,40.778288 C58.9865314,42.27557 58.8576876,43.9046166 59.1161866,45.5320406 C59.1161866,45.7910264 59.2515213,46.1850223 59.5072617,46.1850223 C62.5062069,46.6436024 65.3738742,46.7703367 68.243002,46.381858 C68.6928195,46.3154888 69.0902231,45.7910264 69.3492089,45.4025477 C72.4773225,39.6715943 74.6921704,33.8703773 77.1676268,28.0052252 C77.4322921,27.3541907 77.9499391,26.7656308 78.0792698,26.1158945 C78.7968357,24.1606815 79.7764706,22.1402353 80.4229615,20.0556917 C80.884787,18.5575984 82.313428,17.2534199 82.313428,15.6256714 C82.313428,15.4319189 82.313428,14.9098905 81.9255984,14.9098905 C79.708641,14.5154077 77.4322921,14.452284 75.2153347,14.648146 C74.8213387,14.7778012 74.5592698,15.0408438 74.4335091,15.3011278 C71.4986613,21.5542718 69.9989452,28.0052252 67.2612576,34.1965436 C67.2612576,34.1965436 67.0022718,34.458288 66.8726166,34.458288 C66.3496146,34.0026288 66.7442596,33.0879026 66.7442596,32.4999919 C67.0022718,30.4826288 67.0671805,28.4628316 67.5908316,26.5053469 C67.8522515,25.5309047 67.8522515,24.4865233 68.1109128,23.3769087 C68.8927383,20.7748803 68.9578093,18.1665233 69.2166329,15.4319189 C69.2166329,15.3011278 69.0902231,14.9098905 68.6928195,14.7778012 C66.8726166,14.3219797 64.9824746,14.648146 62.9651116,14.5154077 C62.7651927,14.5154077 62.2478702,14.7778012 61.8564706,15.0408438" id="Fill-12" fill="#FFFFFF"></path>
                <path d="M11.1858824,67.6541988 L8.35423935,79.9045842 C36.0124949,63.5198377 57.0807302,63.491927 73.0039757,63.4912779 C64.5690872,61.4622312 56.4321298,60.6409736 48.8452738,60.6406491 C33.2970385,60.64 20.0457606,64.0874645 11.1858824,67.6541988" id="Fill-15" fill="url(#linearGradient-1)"></path>
            </g>
        </g>
    </g>
</svg>