<?xml version="1.0" encoding="utf-8"?>
<!-- Generator: Adobe Illustrator 15.1.0, SVG Export Plug-In . SVG Version: 6.00 Build 0)  -->
<!DOCTYPE svg PUBLIC "-//W3C//DTD SVG 1.1//EN" "http://www.w3.org/Graphics/SVG/1.1/DTD/svg11.dtd">
<svg version="1.1" id="Layer_1" xmlns="http://www.w3.org/2000/svg" xmlns:xlink="http://www.w3.org/1999/xlink" x="0px" y="0px"
	 width="195px" height="126px" viewBox="0 0 195 126" enable-background="new 0 0 195 126" xml:space="preserve">
<path fill="#414042" d="M79.671,7.154L83.5,3.453l3.042,6.524l-3.649,2.689l-0.242,0.185L79.671,7.154z M82.741,12.464l0.228-0.122
	L82.741,12.464z M80.308,7.261l2.523,4.817l3.068-2.268l-2.562-5.487L80.308,7.261z"/>
<path fill="#414042" d="M67.113,27.269l0.083-5.33l6.767,2.465l-0.676,4.48l-0.042,0.301L67.113,27.269z M73.037,28.847l0.075-0.245
	L73.037,28.847z M67.634,26.889l5.19,1.625l0.57-3.775l-5.69-2.066L67.634,26.889z"/>
<path fill="#414042" d="M68.744,46.537l6.527-3.044l2.692,3.65l-0.204,0.154l0.204-0.154l0.179,0.242l-5.689,2.986L68.744,46.537z
	 M69.62,46.7l2.933,3.029l4.817-2.521l-2.264-3.068L69.62,46.7z"/>
<path fill="#414042" d="M87.232,62.839l2.464-6.766l4.483,0.68l-0.036,0.256l0.036-0.256l0.297,0.043l-1.916,6.125L87.232,62.839z
	 M87.963,62.334l4.222,0.065l1.619-5.184l-3.768-0.569L87.963,62.334z"/>
<path fill="#414042" d="M108.786,54.768l3.652-2.696l0.24-0.176l2.984,5.691l-3.828,3.707L108.786,54.768z M109.435,54.931
	l2.559,5.49l3.031-2.938l-2.525-4.816L109.435,54.931z"/>
<path fill="#414042" d="M121.37,40.341l0.67-4.482l0.053-0.297l6.125,1.918l-0.088,5.328L121.37,40.341z M121.938,40.005
	l5.688,2.068l0.07-4.218l-5.186-1.622L121.938,40.005z"/>
<path fill="#414042" d="M117.366,17.598l0.209-0.148l0.125,0.227l-0.125-0.227L117.366,17.598l-0.176-0.238l5.689-2.983l3.705,3.828
	l-6.521,3.041L117.366,17.598z M120.222,20.604l5.494-2.557l-2.939-3.035l-4.814,2.526L120.222,20.604z"/>
<path fill="#414042" d="M101.149,7.994l0.041-0.252l0.248,0.076l-0.248-0.076L101.149,7.994l-0.295-0.043l1.916-6.13l5.326,0.087
	l-2.455,6.765L101.149,7.994z M105.296,8.098l2.07-5.688l-4.219-0.067l-1.621,5.191L105.296,8.098z"/>
<path fill="#414042" d="M95.49,21.489c-0.788-1.01-1.467-2.488-1.945-4.443L88.962,1.6l5.268,0.084l4.061,14.448l1.927-6.3
	l0.064-0.2l0.206,0.022c1.655,0.149,3.214,0.496,4.474,1.03l0.225,0.095l-2.225,6.412c-0.537,1.928-1.25,3.386-2.07,4.372
	c-0.816,0.986-1.753,1.515-2.712,1.496C97.209,23.048,96.281,22.498,95.49,21.489 M94.041,16.906l0.003,0.007
	c0.467,1.909,1.122,3.326,1.848,4.258c0.736,0.931,1.525,1.363,2.292,1.375c0.762,0.013,1.557-0.399,2.314-1.312
	c0.751-0.908,1.446-2.305,1.97-4.184v-0.006l2.074-5.976c-1.107-0.434-2.457-0.737-3.891-0.882l-2.119,6.941l-0.494-0.014
	L93.837,2.189l-4.181-0.063L94.041,16.906z M100.44,10.163l0.025-0.253L100.44,10.163z"/>
<path fill="#414042" d="M82.411,32.005l0.006-0.496l-6.94-2.119c0.148-1.44,0.45-2.783,0.884-3.891l5.976,2.067l0.005,0.005
	c1.881,0.525,3.279,1.217,4.186,1.97c0.912,0.757,1.323,1.556,1.312,2.312c-0.011,0.768-0.446,1.554-1.373,2.287
	c-0.93,0.734-2.351,1.388-4.259,1.86L82.2,36.001l-6.476,1.919c0.041,0.166,0.087,0.332,0.133,0.496l6.477-1.921
	c1.955-0.482,3.436-1.152,4.45-1.947c1.009-0.791,1.556-1.721,1.571-2.686c0.017-0.963-0.511-1.902-1.497-2.714
	c-0.988-0.821-2.441-1.534-4.368-2.069l-6.19-2.148c-0.549,1.564-0.932,3.205-1.124,4.904l6.25,1.908l-6.361,1.789
	c0.009,0.178,0.02,0.355,0.033,0.531L82.411,32.005z"/>
<path fill="#414042" d="M67.419,40.38l0.067-4.178l4.503-1.266c-0.016-0.173-0.035-0.348-0.048-0.523l-4.963,1.397l-0.082,5.263
	l5.919-1.755c-0.046-0.165-0.09-0.331-0.133-0.498L67.419,40.38z"/>
<path fill="#414042" d="M76.072,24.852l-0.096,0.224c-0.531,1.259-0.882,2.82-1.031,4.468l-0.019,0.215l0.202,0.063l0.048,0.013
	c0.192-1.699,0.575-3.339,1.124-4.904L76.072,24.852z"/>
<path fill="#414042" d="M75.725,37.92l-3.043,0.9c0.043,0.167,0.087,0.333,0.134,0.498l3.042-0.902
	C75.812,38.252,75.766,38.086,75.725,37.92"/>
<path fill="#414042" d="M75.098,34.062c-0.013-0.176-0.023-0.353-0.032-0.53l-3.124,0.881c0.012,0.174,0.031,0.349,0.048,0.522
	L75.098,34.062z"/>
<path fill="#414042" d="M78.396,56.501l7.341-13.088l-5.818,3.092l-0.18,0.097l-0.137-0.158c-1.063-1.278-1.918-2.629-2.434-3.895
	l-0.091-0.222l6.113-2.969c2.039-1.144,3.787-1.665,5.176-1.648c0.991,0.02,1.808,0.318,2.369,0.898
	c0.558,0.577,0.836,1.399,0.818,2.394c-0.022,1.387-0.599,3.117-1.811,5.126l-7.682,14.16L78.396,56.501z M86.618,42.897
	l-7.584,13.526l2.908,3l7.352-13.553l0.004-0.004c1.186-1.953,1.719-3.618,1.741-4.87c0.012-0.9-0.231-1.572-0.676-2.031
	c-0.445-0.459-1.107-0.72-2.005-0.734c-1.25-0.025-2.935,0.461-4.921,1.581l-0.007,0.003l-5.69,2.761
	c0.476,1.09,1.218,2.26,2.125,3.373l6.407-3.402L86.618,42.897z M79.803,46.277l0.195-0.163L79.803,46.277z"/>
<path fill="#414042" d="M101.103,63.064L97.04,48.611l-1.928,6.3l-0.06,0.203l-0.208-0.019c-1.652-0.152-3.213-0.5-4.475-1.033
	l-0.222-0.094l2.222-6.419c0.546-1.934,1.259-3.383,2.078-4.378c0.819-0.982,1.764-1.502,2.727-1.486
	c0.962,0.012,1.885,0.566,2.678,1.577c0.782,1.012,1.457,2.489,1.938,4.438l4.578,15.446L101.103,63.064z M101.497,62.55l4.178,0.07
	l-4.387-14.783l0.002-0.007c-0.467-1.901-1.121-3.322-1.848-4.251c-0.731-0.93-1.516-1.368-2.275-1.379
	c-0.764-0.013-1.561,0.398-2.323,1.303c-0.754,0.909-1.451,2.305-1.98,4.194l-0.003,0.004l-2.068,5.979
	c1.102,0.43,2.451,0.742,3.886,0.879l2.124-6.937L97.3,47.63L101.497,62.55z M94.865,54.836l0.022-0.257L94.865,54.836z"/>
<path fill="#414042" d="M104.649,46.849c-1.141-2.036-1.664-3.791-1.645-5.176c0.014-0.995,0.318-1.81,0.895-2.369
	c0.578-0.559,1.406-0.837,2.398-0.82c1.387,0.023,3.117,0.6,5.123,1.812l14.154,7.68l-3.775,3.669L108.702,44.3l3.096,5.819
	l-0.229,0.116l0.229-0.116l0.1,0.179l-0.162,0.139c-1.281,1.058-2.625,1.912-3.895,2.433l-0.221,0.088L104.649,46.849z
	 M106.292,38.999c-0.898-0.014-1.568,0.229-2.033,0.672c-0.455,0.445-0.723,1.108-0.738,2.01c-0.021,1.248,0.465,2.931,1.582,4.927
	h0.004l2.766,5.69c1.09-0.472,2.256-1.213,3.375-2.121l-3.404-6.412l0.352-0.348l13.52,7.587l3.002-2.905l-13.549-7.357
	l-0.006,0.002c-1.949-1.182-3.615-1.723-4.867-1.745H106.292z"/>
<path fill="#414042" d="M112.839,37.668c-1.93-0.545-3.385-1.254-4.369-2.074c-0.984-0.814-1.506-1.759-1.492-2.72
	c0.016-0.97,0.562-1.898,1.574-2.682c1.014-0.791,2.492-1.462,4.445-1.939l15.441-4.586l-0.084,5.27l-14.449,4.062l6.305,1.926
	l-0.076,0.248l0.076-0.248l0.195,0.062l-0.023,0.211c-0.146,1.651-0.496,3.21-1.025,4.47l-0.094,0.227L112.839,37.668z
	 M113.134,28.747l-0.01-0.002c-1.902,0.475-3.326,1.122-4.256,1.852c-0.93,0.731-1.363,1.519-1.373,2.282
	c-0.012,0.764,0.393,1.565,1.307,2.317c0.904,0.756,2.303,1.453,4.191,1.983h0.006l5.971,2.069c0.434-1.11,0.736-2.454,0.885-3.892
	l-6.938-2.119l0.004-0.492l14.922-4.203l0.068-4.182L113.134,28.747z"/>
<path fill="#414042" d="M97.306,55.008c-0.826-0.013-1.64-0.074-2.44-0.175v0.003c-1.561-0.141-3.031-0.465-4.231-0.948
	c-1.524-0.5-2.975-1.158-4.339-1.955l-1.511,2.79c3.678,2.133,7.927,3.389,12.467,3.464c0.916,0.013,1.823-0.024,2.715-0.102
	l-0.878-3.123C98.499,54.997,97.907,55.019,97.306,55.008"/>
<path fill="#414042" d="M79.823,46.267l-0.021,0.011c-1.049-1.263-1.892-2.589-2.393-3.826l0.004-0.003
	c-0.641-1.282-1.166-2.629-1.556-4.033l-3.042,0.903c1.424,5.075,4.368,9.533,8.313,12.841l1.583-2.825
	C81.656,48.404,80.689,47.377,79.823,46.267"/>
<path fill="#414042" d="M110.544,10.03c-3.678-2.131-7.926-3.385-12.462-3.457c-0.917-0.014-1.821,0.021-2.716,0.102l0.876,3.114
	c0.591-0.036,1.188-0.052,1.788-0.042c0.823,0.013,1.635,0.073,2.434,0.173l0.003-0.01c1.632,0.147,3.169,0.493,4.401,1.008
	l-0.004,0.008c1.459,0.493,2.855,1.129,4.164,1.893L110.544,10.03z"/>
<path fill="#414042" d="M70.615,16.652l3.005-2.909l4.101,2.301c0.11-0.135,0.218-0.271,0.332-0.403l-4.518-2.533l-3.784,3.658
	l5.441,2.953c0.084-0.149,0.173-0.296,0.261-0.445L70.615,16.652z"/>
<path fill="#414042" d="M90.678,17.894l-2.856-5.883c-1.518,0.74-2.942,1.644-4.249,2.689l3.054,5.745l-5.743-3.218
	c-0.118,0.13-0.232,0.263-0.348,0.396l6.604,3.703l0.353-0.34l-3.405-6.412c1.114-0.909,2.284-1.651,3.376-2.129l2.761,5.693
	l0.002,0.004c1.12,1.988,1.606,3.672,1.584,4.92c-0.017,0.9-0.28,1.566-0.74,2.008c-0.458,0.44-1.13,0.689-2.029,0.674
	c-1.253-0.016-2.916-0.559-4.867-1.74L84.167,24l-5.922-3.211c-0.088,0.147-0.175,0.295-0.261,0.446l5.923,3.215
	c2.004,1.204,3.74,1.786,5.125,1.808l0.005,0.006c0.993,0.012,1.817-0.269,2.393-0.825c0.577-0.552,0.885-1.373,0.894-2.366
	C92.351,21.687,91.824,19.933,90.678,17.894"/>
<path fill="#414042" d="M83.572,14.699l-0.038-0.07l-0.098-0.184l0.162-0.132c1.276-1.066,2.621-1.92,3.893-2.436l0.22-0.095
	l0.11,0.229c1.289-0.625,2.644-1.135,4.052-1.509L90.97,7.464c-5.089,1.373-9.573,4.271-12.917,8.177l2.831,1.585
	C81.71,16.313,82.609,15.468,83.572,14.699"/>
<path fill="#414042" d="M71.86,31.967c-0.014,0.824,0.018,1.639,0.081,2.446l3.124-0.881c-0.025-0.502-0.041-1.005-0.032-1.517
	c0.012-0.735,0.061-1.462,0.142-2.18l-0.047-0.014l-0.202-0.062l0.019-0.215c0.149-1.648,0.5-3.209,1.031-4.469l0.096-0.223
	l0.227,0.079c0.452-1.289,1.019-2.526,1.684-3.695l-2.791-1.516C73.137,23.347,71.931,27.519,71.86,31.967"/>
<path fill="#414042" d="M75.453,19.274c-0.088,0.148-0.177,0.296-0.261,0.445l2.791,1.516c0.086-0.15,0.174-0.299,0.262-0.445
	L75.453,19.274z"/>
<path fill="#414042" d="M87.491,11.877c-1.271,0.517-2.617,1.37-3.893,2.437l-0.162,0.131l0.098,0.184l0.038,0.07
	c1.308-1.045,2.731-1.948,4.249-2.688l-0.11-0.229L87.491,11.877z"/>
<path fill="#414042" d="M80.536,17.622c0.115-0.133,0.229-0.266,0.348-0.396l-2.83-1.584c-0.115,0.131-0.223,0.267-0.332,0.402
	L80.536,17.622z"/>
<path fill="#414042" d="M100.466,9.91l-0.003,0.01c1.521,0.189,2.991,0.53,4.401,1.007l0.004-0.009
	C103.633,10.403,102.099,10.057,100.466,9.91"/>
<path fill="#414042" d="M120.3,32.739c-0.012,0.821-0.072,1.633-0.172,2.432l0.006,0.002c-0.15,1.576-0.48,3.06-0.965,4.271
	c-0.498,1.509-1.154,2.945-1.941,4.295l2.787,1.512c2.129-3.678,3.381-7.925,3.453-12.46c0.014-0.919-0.022-1.827-0.102-2.722
	l-3.115,0.877C120.288,31.538,120.312,32.135,120.3,32.739"/>
<path fill="#414042" d="M111.563,50.22l0.008,0.016c-1.256,1.048-2.592,1.888-3.824,2.396h-0.002
	c-1.357,0.678-2.789,1.223-4.281,1.621l0.904,3.041c5.178-1.398,9.725-4.372,13.086-8.385l-2.822-1.58
	C113.7,48.384,112.671,49.352,111.563,50.22"/>
<path fill="#414042" d="M114.2,12.591l-1.582,2.822c1.055,0.932,2.021,1.958,2.891,3.068l0.021-0.013
	c1.049,1.258,1.889,2.592,2.396,3.826l-0.006,0.004c0.678,1.354,1.223,2.787,1.619,4.277l3.039-0.9
	C121.181,20.499,118.208,15.95,114.2,12.591"/>
<path fill="#414042" d="M115.53,18.468l-0.021,0.013c0.924,1.184,1.732,2.463,2.412,3.817l0.006-0.004
	C117.419,21.06,116.579,19.726,115.53,18.468"/>
<path fill="#414042" d="M104.597,26.138c-0.557-0.579-0.838-1.405-0.818-2.397c0.025-1.386,0.605-3.123,1.814-5.127l7.677-14.16
	l3.667,3.787l-7.342,13.088l5.816-3.087l0.184-0.101l0.134,0.163c1.065,1.275,1.917,2.625,2.433,3.892l0.096,0.225l-6.113,2.967
	c-2.04,1.144-3.79,1.667-5.176,1.644l-0.008,0.001C105.972,27.017,105.149,26.711,104.597,26.138 M106.042,18.875l-0.008,0.007
	c-1.594,2.819-1.74,4.166-1.74,4.867c0,0.895,0.23,1.571,0.678,2.031c0.439,0.452,1.107,0.719,2.006,0.737
	c1.248,0.019,2.934-0.464,4.922-1.586l0.002-0.002l5.691-2.761c-0.475-1.091-1.217-2.258-2.129-3.374l-6.404,3.405l-0.344-0.35
	l7.582-13.529l-2.912-2.997L106.042,18.875z M115.333,18.632l0.197-0.164L115.333,18.632z"/>
<path fill-rule="evenodd" clip-rule="evenodd" fill="#414042" d="M8.435,84.479L8.35,84.816v0.254l-0.168,0.168H8.097H2.869
	c-0.168,0-0.338,0-0.506-0.084c-0.085-0.168-0.169-0.338-0.169-0.506v-9.109c0-0.252,0.084-0.422,0.169-0.506
	c0.168-0.17,0.338-0.17,0.506-0.17h5.143h0.17l0.085,0.17l0.083,0.254v0.422v0.335c0,0.168-0.083,0.254-0.083,0.254l-0.085,0.168
	h-0.17h-3.71v2.616h3.205h0.085l0.084,0.168l0.084,0.253v0.336v0.422l-0.084,0.254l-0.084,0.084l-0.085,0.084H4.302v2.953h3.795
	h0.085l0.168,0.168v0.254C8.35,84.141,8.435,84.309,8.435,84.479"/>
<path fill-rule="evenodd" clip-rule="evenodd" fill="#414042" d="M16.784,81.188c0,0.254-0.085,0.422-0.168,0.593
	c-0.085,0.084-0.253,0.168-0.423,0.168h-2.867v-1.351h1.518c0-0.505-0.083-1.011-0.336-1.349c-0.254-0.252-0.675-0.422-1.182-0.422
	v-1.435h0.084c0.591,0,1.098,0.084,1.519,0.252c0.421,0.17,0.759,0.424,1.011,0.676c0.338,0.339,0.506,0.761,0.676,1.183
	c0.083,0.42,0.168,0.843,0.168,1.349V81.188z M13.326,83.887c0.084,0,0.254,0.084,0.422,0.084c0.338,0,0.675-0.084,0.928-0.084
	c0.253-0.084,0.505-0.169,0.674-0.169c0.253-0.082,0.421-0.168,0.506-0.168c0.169-0.082,0.253-0.082,0.337-0.082h0.085l0.085,0.082
	l0.083,0.253v0.338v0.252v0.254l-0.083,0.084l-0.085,0.168l-0.253,0.17c-0.169,0-0.422,0.084-0.59,0.168
	c-0.254,0.087-0.591,0.087-0.844,0.169c-0.337,0-0.675,0.084-1.011,0.084h-0.254V83.887z M13.326,81.949h-1.519
	c0,0.254,0,0.592,0.085,0.842c0.084,0.254,0.168,0.422,0.338,0.592c0.168,0.168,0.337,0.336,0.59,0.421
	c0.168,0,0.337,0.084,0.506,0.084v1.603c-0.591-0.084-1.012-0.166-1.434-0.253c-0.505-0.168-0.842-0.422-1.18-0.758
	c-0.338-0.338-0.59-0.761-0.76-1.267c-0.168-0.506-0.253-1.096-0.253-1.687c0-0.674,0.085-1.266,0.253-1.771
	c0.17-0.506,0.422-0.928,0.76-1.266c0.338-0.421,0.675-0.675,1.18-0.845c0.422-0.168,0.843-0.252,1.434-0.252v1.435
	c-0.253,0-0.506,0-0.674,0.086c-0.17,0.084-0.338,0.252-0.422,0.42c-0.17,0.17-0.254,0.338-0.338,0.59
	c-0.085,0.17-0.085,0.423-0.085,0.675h1.519V81.949z"/>
<path fill-rule="evenodd" clip-rule="evenodd" fill="#414042" d="M23.531,82.96c0,0.422-0.084,0.758-0.253,1.098
	c-0.168,0.336-0.338,0.59-0.675,0.757c-0.253,0.254-0.591,0.422-1.011,0.508c-0.337,0.082-0.759,0.166-1.181,0.166
	c-0.254,0-0.507-0.084-0.759-0.084c-0.253-0.082-0.506-0.082-0.676-0.168c-0.167-0.084-0.337-0.084-0.505-0.168l-0.253-0.17
	l-0.169-0.251v-0.59v-0.34v-0.25l0.085-0.086l0.168-0.084c0,0,0.084,0.084,0.252,0.17c0.085,0,0.255,0.082,0.422,0.168
	c0.17,0.082,0.338,0.168,0.591,0.252s0.507,0.084,0.76,0.084h0.506c0.169-0.084,0.253-0.168,0.337-0.168
	c0.17-0.086,0.253-0.168,0.253-0.336c0.084-0.086,0.084-0.17,0.084-0.34c0-0.168,0-0.339-0.167-0.423
	c-0.085-0.084-0.17-0.166-0.338-0.252c-0.169-0.084-0.338-0.168-0.591-0.252c-0.169-0.086-0.422-0.17-0.591-0.254
	c-0.253-0.084-0.421-0.252-0.674-0.338c-0.17-0.084-0.423-0.252-0.592-0.421c-0.083-0.168-0.252-0.422-0.336-0.674
	c-0.084-0.168-0.169-0.508-0.169-0.844c0-0.339,0.085-0.675,0.169-0.929c0.168-0.254,0.336-0.506,0.591-0.76
	c0.252-0.168,0.59-0.337,0.927-0.421c0.421-0.168,0.759-0.168,1.266-0.168h0.59c0.252,0.084,0.42,0.084,0.59,0.168
	c0.168,0,0.337,0.084,0.505,0.084l0.253,0.169l0.085,0.168v0.086l0.085,0.252v0.254v0.422l-0.085,0.168l-0.085,0.168h-0.083
	c-0.085,0-0.085,0-0.254-0.084c-0.084-0.084-0.169-0.168-0.336-0.168c-0.17-0.084-0.338-0.168-0.591-0.168
	c-0.169-0.086-0.421-0.086-0.674-0.086H20.58c-0.169,0.086-0.253,0.086-0.338,0.17l-0.253,0.252v0.339c0,0.168,0,0.252,0.085,0.42
	c0.168,0.086,0.253,0.17,0.421,0.254c0.169,0.086,0.338,0.168,0.591,0.254c0.254,0.084,0.421,0.168,0.674,0.252
	c0.169,0.086,0.422,0.168,0.59,0.338c0.253,0.084,0.422,0.253,0.59,0.421c0.17,0.17,0.338,0.338,0.423,0.59
	C23.447,82.37,23.531,82.622,23.531,82.96"/>
<path fill-rule="evenodd" clip-rule="evenodd" fill="#414042" d="M29.267,84.31c0,0.254,0,0.422-0.084,0.506
	c0,0.17,0,0.254-0.085,0.254l-0.168,0.168c-0.169,0-0.253,0.086-0.338,0.086c-0.168,0.082-0.252,0.082-0.422,0.082h-0.506
	c-0.336,0-0.674,0-1.011-0.082c-0.253-0.17-0.506-0.254-0.759-0.508c-0.17-0.252-0.338-0.506-0.423-0.845
	c-0.084-0.254-0.084-0.674-0.084-1.096v-3.711h-0.843c-0.169,0-0.254-0.084-0.254-0.168c-0.084-0.169-0.084-0.337-0.084-0.675
	v-0.338l0.084-0.252l0.085-0.17h0.169h0.843v-1.603v-0.168l0.169-0.084c0.085-0.086,0.168-0.086,0.338-0.086h0.506h0.506
	l0.253,0.086l0.169,0.084l0.084,0.168v1.603h1.518h0.168l0.085,0.17l0.084,0.252v0.338c0,0.338,0,0.506-0.084,0.675
	c-0.085,0.084-0.085,0.168-0.253,0.168h-1.518v3.375c0,0.42,0,0.672,0.167,0.928c0.085,0.168,0.338,0.25,0.675,0.25h0.253
	l0.254-0.082l0.169-0.086h0.084h0.169v0.168l0.084,0.17V84.31z"/>
<path fill-rule="evenodd" clip-rule="evenodd" fill="#414042" d="M32.725,84.985v0.168l-0.169,0.084
	c-0.084,0-0.168,0.086-0.338,0.086h-0.505H31.29c-0.167,0-0.252-0.086-0.335-0.086l-0.169-0.084l-0.085-0.168v-7.17l0.085-0.084
	l0.169-0.17h0.335c0.085-0.084,0.254-0.084,0.423-0.084c0.252,0,0.422,0,0.505,0.084h0.338l0.169,0.17v0.084V84.985z M32.894,75.37
	c0,0.423-0.084,0.675-0.253,0.843c-0.169,0.17-0.423,0.254-0.928,0.254c-0.423,0-0.758-0.084-0.927-0.254
	c-0.085-0.168-0.168-0.42-0.168-0.759c0-0.422,0.083-0.76,0.168-0.844c0.169-0.168,0.504-0.254,1.011-0.254
	c0.421,0,0.759,0.086,0.844,0.17C32.81,74.694,32.894,74.948,32.894,75.37"/>
<path fill-rule="evenodd" clip-rule="evenodd" fill="#414042" d="M47.147,84.48c0.085,0.167,0.169,0.335,0.169,0.505l-0.084,0.252
	c-0.085,0-0.168,0.086-0.337,0.086h-0.591h-0.675c-0.168,0-0.253,0-0.338-0.086l-0.168-0.084l-0.085-0.168l-0.675-2.108h-1.938
	v-1.604h1.433l-1.433-4.468V74.78h0.759c0.169,0.082,0.337,0.082,0.422,0.082l0.252,0.17c0,0,0.085,0.084,0.085,0.254L47.147,84.48z
	 M42.425,82.876H40.4l-0.59,2.022l-0.085,0.254l-0.168,0.084l-0.338,0.086h-0.59h-0.59c-0.17,0-0.255-0.086-0.255-0.17
	c-0.083,0-0.083-0.084-0.083-0.254c0-0.084,0.083-0.252,0.168-0.419l3.205-9.28l0.085-0.168l0.168-0.17c0.17,0,0.253,0,0.422-0.082
	h0.676v2.024l-1.52,4.468h1.52V82.876z"/>
<path fill-rule="evenodd" clip-rule="evenodd" fill="#414042" d="M59.967,84.986l-0.084,0.168l-0.168,0.084
	c-0.084,0-0.169,0.084-0.338,0.084h-0.421h-0.507c-0.169,0-0.253-0.084-0.337-0.084l-0.169-0.084v-0.168v-4.22
	c0-0.252-0.084-0.506-0.084-0.674c-0.084-0.253-0.168-0.421-0.253-0.505c-0.084-0.17-0.169-0.254-0.337-0.338
	c-0.085-0.084-0.337-0.17-0.507-0.17c-0.253,0-0.506,0.17-0.759,0.338c-0.253,0.17-0.507,0.422-0.759,0.843v4.726l-0.085,0.168
	l-0.168,0.084l-0.253,0.084h-0.506h-0.506l-0.338-0.084l-0.168-0.084v-0.168v-4.22c0-0.252,0-0.506-0.084-0.674
	c0-0.253-0.085-0.421-0.169-0.505c-0.084-0.17-0.253-0.254-0.422-0.338c-0.084-0.084-0.253-0.17-0.506-0.17
	c-0.169,0-0.422,0.17-0.675,0.338c-0.252,0.17-0.506,0.422-0.843,0.843v4.726v0.168l-0.168,0.084l-0.338,0.084h-0.506h-0.507
	l-0.253-0.084l-0.168-0.084l-0.084-0.168v-7.171l0.084-0.17l0.084-0.084l0.254-0.084h0.421h0.422
	c0.168,0.084,0.253,0.084,0.338,0.084l0.083,0.084l0.085,0.17v0.845c0.337-0.422,0.76-0.761,1.18-1.015
	c0.337-0.168,0.76-0.252,1.182-0.252c0.337,0,0.59,0,0.843,0.084c0.253,0,0.422,0.084,0.59,0.254
	c0.253,0.084,0.338,0.252,0.506,0.423c0.169,0.168,0.253,0.336,0.337,0.506c0.253-0.252,0.422-0.422,0.675-0.59
	c0.169-0.171,0.338-0.339,0.59-0.425c0.17-0.084,0.423-0.168,0.591-0.252h0.59c0.507,0,0.928,0.084,1.265,0.168
	c0.254,0.17,0.591,0.422,0.76,0.677c0.169,0.252,0.338,0.59,0.421,1.012c0.085,0.338,0.169,0.759,0.169,1.179V84.986z"/>
<path fill-rule="evenodd" clip-rule="evenodd" fill="#414042" d="M68.569,81.188c0,0.254-0.084,0.424-0.168,0.593
	c-0.085,0.081-0.253,0.168-0.422,0.168h-2.867v-1.351h1.517c0-0.505-0.167-1.011-0.421-1.349c-0.169-0.252-0.59-0.422-1.096-0.422
	v-1.435h0.085c0.59,0,1.096,0.084,1.517,0.252c0.421,0.17,0.759,0.424,1.012,0.676c0.337,0.339,0.507,0.759,0.675,1.183
	c0.084,0.42,0.168,0.843,0.168,1.349V81.188z M65.112,83.887c0.085,0,0.253,0.084,0.421,0.084c0.338,0,0.675-0.084,0.929-0.084
	c0.252-0.084,0.505-0.169,0.673-0.169c0.253-0.082,0.423-0.168,0.507-0.168c0.168-0.082,0.252-0.082,0.337-0.082h0.084l0.085,0.082
	l0.085,0.253v0.338v0.254l-0.085,0.252v0.084l-0.085,0.168c-0.084,0-0.169,0.086-0.337,0.17c-0.084,0-0.338,0.084-0.591,0.168
	c-0.168,0.084-0.506,0.084-0.757,0.169c-0.339,0-0.675,0.084-1.013,0.084h-0.253V83.887z M65.112,81.949h-1.52
	c0,0.254,0,0.59,0.085,0.844c0.085,0.252,0.17,0.42,0.338,0.59c0.168,0.168,0.337,0.336,0.59,0.421c0.169,0,0.338,0.084,0.507,0.084
	v1.603c-0.59-0.084-1.013-0.169-1.435-0.253c-0.504-0.168-0.927-0.422-1.264-0.758c-0.253-0.338-0.506-0.761-0.675-1.267
	s-0.252-1.096-0.252-1.688c0-0.672,0.083-1.264,0.252-1.769c0.169-0.506,0.422-0.928,0.759-1.266
	c0.338-0.421,0.676-0.675,1.095-0.845c0.507-0.168,0.93-0.252,1.52-0.252v1.435c-0.254,0-0.507,0-0.675,0.086
	c-0.169,0.084-0.338,0.252-0.506,0.42c-0.084,0.17-0.169,0.338-0.254,0.59c-0.085,0.17-0.085,0.423-0.085,0.675h1.52V81.949z"/>
<path fill-rule="evenodd" clip-rule="evenodd" fill="#414042" d="M74.475,84.307c0,0.257,0,0.425-0.085,0.509
	c0,0.17,0,0.254-0.084,0.254l-0.17,0.168c-0.168,0-0.251,0.084-0.336,0.084c-0.17,0.084-0.339,0.084-0.423,0.084h-0.506
	c-0.336,0-0.673,0-1.011-0.084c-0.337-0.168-0.506-0.252-0.76-0.506c-0.168-0.252-0.336-0.509-0.421-0.845
	c-0.085-0.254-0.085-0.674-0.085-1.096v-3.711h-0.928l-0.168-0.168c-0.084-0.169-0.084-0.337-0.084-0.675v-0.338l0.084-0.252
	l0.084-0.17h0.168h0.844v-1.603v-0.17l0.17-0.082c0.083-0.086,0.168-0.086,0.336-0.086h0.506h0.424c0.168,0,0.251,0,0.336,0.086
	l0.169,0.082l0.085,0.17v1.603h1.516h0.17l0.084,0.17l0.085,0.252v0.338c0,0.338,0,0.506-0.085,0.675l-0.254,0.168H72.62v3.373
	c0,0.422,0,0.674,0.167,0.93c0.084,0.168,0.337,0.25,0.674,0.25h0.254l0.253-0.082l0.168-0.086h0.085h0.085l0.084,0.168l0.085,0.17
	V84.307z"/>
<path fill-rule="evenodd" clip-rule="evenodd" fill="#414042" d="M77.932,84.985v0.168l-0.168,0.084
	c-0.085,0-0.169,0.084-0.338,0.084h-0.506h-0.422c-0.168,0-0.252-0.084-0.336-0.084l-0.17-0.084l-0.083-0.168v-7.17l0.083-0.084
	l0.17-0.17h0.336c0.084-0.084,0.253-0.084,0.422-0.084c0.252,0,0.421,0,0.506,0.084h0.338l0.168,0.17v0.084V84.985z M78.101,75.37
	c0,0.421-0.084,0.675-0.254,0.843c-0.168,0.17-0.421,0.254-0.927,0.254c-0.422,0-0.758-0.084-0.928-0.254
	c-0.168-0.168-0.251-0.422-0.251-0.759c0-0.422,0.083-0.76,0.251-0.844c0.17-0.168,0.506-0.254,0.928-0.254
	c0.506,0,0.759,0.086,0.927,0.17C78.017,74.694,78.101,74.948,78.101,75.37"/>
<path fill-rule="evenodd" clip-rule="evenodd" fill="#414042" d="M86.788,84.985v0.168l-0.169,0.084l-0.253,0.084h-0.423h-0.42
	l-0.255-0.084L85.1,85.153v-0.168v-0.844c-0.422,0.422-0.843,0.758-1.264,1.012c-0.423,0.168-0.844,0.336-1.265,0.336
	c-0.507,0-0.929-0.084-1.265-0.252c-0.339-0.168-0.591-0.422-0.759-0.674c-0.254-0.255-0.338-0.591-0.506-1.013
	c-0.084-0.338-0.084-0.758-0.084-1.349v-4.387v-0.17l0.167-0.084c0.085,0,0.169,0,0.338-0.084h0.505h0.507l0.253,0.084l0.169,0.084
	l0.083,0.17v4.047c0,0.424,0,0.677,0.085,0.845c0,0.254,0.084,0.422,0.169,0.506c0.169,0.17,0.254,0.256,0.421,0.338
	c0.169,0.086,0.338,0.168,0.507,0.168c0.252,0,0.506-0.082,0.759-0.336c0.337-0.17,0.59-0.422,0.843-0.76v-4.808l0.084-0.17
	l0.17-0.084l0.251-0.084h0.507h0.507c0.168,0.084,0.252,0.084,0.337,0.084l0.169,0.084v0.17V84.985z M82.823,75.37
	c0,0.421-0.083,0.675-0.169,0.843c-0.167,0.086-0.421,0.17-0.843,0.17c-0.422,0-0.675-0.084-0.844-0.17
	c-0.085-0.168-0.168-0.422-0.168-0.759c0-0.422,0.083-0.674,0.253-0.844c0.084-0.084,0.337-0.168,0.759-0.168
	c0.422,0,0.676,0.084,0.843,0.168C82.74,74.78,82.823,75.032,82.823,75.37 M86.028,75.37c0,0.421-0.085,0.675-0.253,0.843
	c-0.168,0.086-0.422,0.17-0.843,0.17c-0.338,0-0.591-0.084-0.759-0.17c-0.169-0.168-0.253-0.422-0.253-0.759
	c0-0.422,0.084-0.674,0.253-0.844c0.168-0.084,0.421-0.168,0.844-0.168c0.336,0,0.59,0.084,0.758,0.168
	C85.943,74.78,86.028,75.032,86.028,75.37"/>
<path fill-rule="evenodd" clip-rule="evenodd" fill="#414042" d="M95.729,84.986l-0.085,0.168l-0.169,0.084l-0.254,0.084h-0.505
	h-0.506c-0.169,0-0.253-0.084-0.337-0.084l-0.168-0.084v-0.168v-4.052c0-0.42-0.084-0.674-0.084-0.842
	c-0.085-0.253-0.17-0.421-0.254-0.505c-0.084-0.17-0.169-0.254-0.337-0.338c-0.169-0.084-0.339-0.17-0.59-0.17
	c-0.255,0-0.507,0.17-0.76,0.338c-0.254,0.17-0.506,0.422-0.844,0.843v4.726v0.168l-0.169,0.084c-0.083,0-0.167,0.084-0.336,0.084
	h-0.506h-0.423c-0.168,0-0.252-0.084-0.337-0.084l-0.168-0.084l-0.085-0.168V74.443l0.085-0.171l0.168-0.084
	c0.085-0.084,0.169-0.084,0.337-0.084h0.423h0.506c0.169,0,0.253,0,0.336,0.084l0.169,0.084v0.171v3.965
	c0.338-0.338,0.759-0.593,1.097-0.763c0.338-0.168,0.758-0.252,1.182-0.252c0.421,0,0.842,0.084,1.18,0.168
	c0.336,0.17,0.59,0.422,0.843,0.677c0.168,0.336,0.337,0.59,0.423,1.012c0.083,0.338,0.168,0.843,0.168,1.349V84.986z"/>
<path fill-rule="evenodd" clip-rule="evenodd" fill="#414042" d="M99.691,84.985v0.168l-0.171,0.084
	c-0.083,0-0.167,0.084-0.335,0.084H98.68h-0.422c-0.168,0-0.251-0.084-0.336-0.084l-0.17-0.084l-0.084-0.168v-7.17l0.084-0.084
	l0.17-0.17h0.336c0.083-0.084,0.253-0.084,0.422-0.084c0.252,0,0.421,0,0.506,0.084h0.335l0.171,0.17v0.084V84.985z M99.861,75.37
	c0,0.421-0.086,0.675-0.256,0.843c-0.168,0.17-0.42,0.254-0.926,0.254c-0.422,0-0.758-0.084-0.928-0.254
	c-0.167-0.168-0.252-0.422-0.252-0.759c0-0.422,0.085-0.76,0.252-0.844c0.17-0.168,0.506-0.254,0.928-0.254
	c0.506,0,0.758,0.086,0.926,0.17C99.775,74.694,99.861,74.948,99.861,75.37"/>
<path fill-rule="evenodd" clip-rule="evenodd" fill="#414042" d="M108.632,84.986l-0.084,0.168l-0.17,0.084l-0.252,0.084h-0.508
	h-0.507c-0.167,0-0.251-0.084-0.335-0.084l-0.168-0.084v-0.168v-4.052c0-0.42-0.084-0.674-0.084-0.842
	c-0.086-0.253-0.17-0.421-0.254-0.505c-0.084-0.17-0.168-0.254-0.336-0.338c-0.172-0.084-0.338-0.17-0.592-0.17
	s-0.506,0.17-0.76,0.338c-0.254,0.17-0.506,0.422-0.844,0.843v4.726v0.168l-0.169,0.084c-0.084,0-0.168,0.084-0.337,0.084h-0.506
	h-0.42c-0.17,0-0.254-0.084-0.338-0.084l-0.168-0.084l-0.086-0.168v-7.171l0.086-0.17l0.168-0.084c0,0,0.084,0,0.252-0.084h0.422
	h0.422l0.252,0.084l0.085,0.084l0.084,0.17v0.845c0.421-0.422,0.761-0.761,1.181-1.015c0.422-0.168,0.846-0.252,1.268-0.252
	c0.504,0,0.926,0.084,1.264,0.168c0.338,0.17,0.59,0.422,0.844,0.677c0.168,0.252,0.336,0.59,0.42,1.012
	c0.086,0.338,0.17,0.759,0.17,1.349V84.986z"/>
<path fill-rule="evenodd" clip-rule="evenodd" fill="#414042" d="M117.067,78.321c0,0.252,0,0.422-0.086,0.592
	c-0.084,0.085-0.084,0.166-0.252,0.166h-0.844c0.168,0.087,0.252,0.255,0.252,0.425c0.084,0.168,0.084,0.336,0.084,0.506
	c0,0.42-0.084,0.843-0.168,1.095c-0.168,0.338-0.338,0.592-0.592,0.844c-0.252,0.254-0.588,0.422-0.926,0.506
	c-0.422,0.169-0.844,0.169-1.266,0.169v-1.351c0.17,0,0.338-0.084,0.506-0.168c0.17,0,0.254-0.17,0.424-0.252l0.168-0.337
	c0.084-0.168,0.084-0.338,0.084-0.506c0-0.422-0.084-0.676-0.338-0.931c-0.168-0.166-0.506-0.252-0.844-0.252v-1.434h0.676
	c0.168,0.084,0.338,0.084,0.506,0.168h2.277c0.168,0,0.168,0,0.252,0.17C117.067,77.815,117.067,78.069,117.067,78.321
	 M113.271,83.468l1.098,0.082c0.422,0,0.842,0.086,1.094,0.168c0.338,0.086,0.592,0.254,0.844,0.424
	c0.254,0.166,0.34,0.421,0.508,0.673c0.084,0.254,0.168,0.506,0.168,0.844c0,0.336-0.084,0.675-0.252,1.013
	c-0.17,0.338-0.338,0.592-0.676,0.76c-0.338,0.252-0.674,0.421-1.18,0.589c-0.506,0.084-1.014,0.168-1.604,0.168v-1.347
	c0.338,0,0.59,0,0.844-0.086c0.17-0.084,0.338-0.168,0.506-0.252l0.254-0.338c0.083-0.171,0.083-0.253,0.083-0.423
	c0-0.254-0.083-0.422-0.337-0.59c-0.168-0.084-0.42-0.168-0.76-0.168h-0.59V83.468z M113.271,82.623c-0.252,0-0.422,0-0.676-0.085
	c-0.168,0-0.336-0.084-0.506-0.168l-0.168,0.253c0,0.084-0.084,0.17-0.084,0.338s0.084,0.252,0.252,0.338
	c0.17,0.084,0.338,0.17,0.59,0.17h0.592v1.517h-0.844c-0.168,0.084-0.252,0.168-0.338,0.252l-0.168,0.252l-0.17,0.254v0.252
	c0,0.257,0.17,0.509,0.424,0.593c0.252,0.168,0.59,0.254,1.096,0.254v1.347h-0.086c-0.59,0-1.096,0-1.516-0.084
	c-0.422-0.168-0.844-0.252-1.098-0.421c-0.252-0.168-0.422-0.42-0.59-0.674c-0.084-0.168-0.168-0.422-0.168-0.758
	c0-0.17,0-0.339,0.084-0.509c0-0.168,0.084-0.338,0.168-0.422c0.084-0.168,0.168-0.336,0.338-0.422
	c0.084-0.168,0.252-0.252,0.422-0.42c-0.254-0.084-0.422-0.253-0.506-0.507c-0.17-0.168-0.254-0.422-0.254-0.674
	c0-0.338,0.084-0.592,0.254-0.845c0.168-0.338,0.336-0.506,0.59-0.758c-0.17-0.172-0.338-0.424-0.506-0.676
	c-0.084-0.253-0.17-0.591-0.17-0.927c0-0.422,0.086-0.844,0.254-1.181c0.168-0.34,0.338-0.592,0.592-0.844
	c0.252-0.17,0.59-0.338,1.01-0.508c0.338-0.084,0.76-0.168,1.182-0.168v1.434c-0.252,0-0.422,0-0.592,0.086l-0.336,0.253
	c-0.084,0.084-0.168,0.252-0.254,0.422c0,0.168-0.084,0.252-0.084,0.422c0,0.42,0.17,0.674,0.338,0.925
	c0.252,0.17,0.506,0.338,0.928,0.338V82.623z"/>
<path fill-rule="evenodd" clip-rule="evenodd" fill="#414042" d="M125.163,84.986l-0.086,0.168l-0.084,0.084l-0.252,0.084h-0.422
	h-0.506l-0.254-0.084l-0.084-0.084l-0.084-0.168v-0.845c-0.338,0.422-0.758,0.758-1.18,1.013c-0.34,0.168-0.76,0.336-1.182,0.336
	c-0.506,0-0.93-0.084-1.264-0.252c-0.34-0.168-0.592-0.423-0.846-0.675c-0.168-0.256-0.336-0.592-0.42-1.014
	c-0.084-0.337-0.084-0.757-0.084-1.347v-4.388v-0.17l0.168-0.084c0.084,0,0.168,0,0.336-0.084h0.422h0.508
	c0.166,0.084,0.25,0.084,0.336,0.084l0.17,0.084v0.17v4.048c0,0.424,0.082,0.676,0.082,0.844c0.086,0.254,0.168,0.422,0.254,0.506
	c0.084,0.169,0.254,0.255,0.338,0.337c0.168,0.086,0.336,0.168,0.59,0.168c0.252,0,0.424-0.082,0.676-0.336
	c0.252-0.169,0.506-0.421,0.842-0.759v-4.808v-0.17l0.17-0.084l0.336-0.084h0.506h0.506l0.254,0.084l0.168,0.084l0.086,0.17V84.986z
	"/>
<path fill-rule="evenodd" clip-rule="evenodd" fill="#414042" d="M131.403,84.307v0.509c0,0.17-0.084,0.254-0.168,0.254
	l-0.168,0.168c-0.086,0-0.17,0.084-0.338,0.084c-0.086,0.084-0.254,0.084-0.422,0.084h-0.422c-0.422,0-0.76,0-1.096-0.084
	c-0.254-0.168-0.506-0.252-0.678-0.506c-0.252-0.252-0.334-0.509-0.42-0.845c-0.084-0.254-0.168-0.674-0.168-1.096v-3.711h-0.844
	l-0.254-0.168c-0.084-0.169-0.084-0.337-0.084-0.675v-0.338l0.084-0.252l0.084-0.17h0.17h0.844v-1.603l0.084-0.17l0.17-0.082
	l0.25-0.086h0.508h0.508l0.338,0.086l0.082,0.082l0.085,0.17v1.603h1.601h0.086l0.084,0.17l0.084,0.252v0.338
	c0,0.338,0,0.506-0.084,0.675l-0.17,0.168h-1.601v3.373c0,0.422,0.084,0.674,0.167,0.93c0.17,0.168,0.338,0.25,0.676,0.25h0.338
	l0.168-0.082l0.17-0.086h0.168h0.084l0.084,0.168v0.17V84.307z"/>
<path fill-rule="evenodd" clip-rule="evenodd" fill="#414042" d="M139.499,81.188c0,0.254,0,0.424-0.082,0.593
	c-0.17,0.081-0.338,0.168-0.506,0.168h-2.869v-1.351h1.52c0-0.505-0.084-1.011-0.338-1.349c-0.252-0.252-0.59-0.422-1.098-0.422
	h-0.084v-1.435h0.084c0.592,0,1.184,0.084,1.603,0.252c0.423,0.17,0.759,0.424,1.013,0.676c0.254,0.339,0.506,0.759,0.59,1.183
	c0.168,0.42,0.168,0.843,0.168,1.349V81.188z M136.042,83.887c0.168,0,0.338,0.084,0.506,0.084c0.338,0,0.592-0.084,0.93-0.084
	c0.251-0.084,0.504-0.169,0.674-0.169c0.17-0.082,0.336-0.168,0.504-0.168l0.256-0.082h0.168l0.084,0.082v0.253v0.338v0.254v0.252
	v0.084l-0.084,0.168c-0.084,0-0.168,0.086-0.338,0.17c-0.17,0-0.338,0.084-0.59,0.168c-0.254,0.084-0.506,0.084-0.842,0.169
	c-0.338,0-0.592,0.084-1.014,0.084h-0.254V83.887z M136.042,81.949h-1.518c0,0.254,0.084,0.59,0.084,0.844
	c0.084,0.252,0.254,0.42,0.422,0.59c0.168,0.168,0.338,0.336,0.59,0.421c0.168,0,0.254,0.084,0.422,0.084v1.603
	c-0.506-0.084-1.012-0.169-1.434-0.253c-0.42-0.168-0.844-0.422-1.18-0.758c-0.338-0.338-0.59-0.761-0.676-1.267
	c-0.17-0.506-0.254-1.096-0.254-1.688c0-0.672,0.084-1.264,0.254-1.769c0.17-0.506,0.422-0.928,0.676-1.266
	c0.336-0.421,0.76-0.675,1.18-0.845c0.422-0.168,0.928-0.252,1.434-0.252v1.435c-0.254,0-0.422,0-0.59,0.086
	c-0.254,0.084-0.338,0.252-0.506,0.42c-0.084,0.17-0.254,0.338-0.254,0.59c-0.084,0.17-0.168,0.423-0.168,0.675h1.518V81.949z"/>
<path fill-rule="evenodd" clip-rule="evenodd" fill="#414042" d="M152.657,84.986v0.168l-0.168,0.084
	c-0.084,0-0.254,0.084-0.422,0.084h-0.506h-0.759c-0.167-0.084-0.253-0.084-0.337-0.168l-0.168-0.168l-3.121-4.978v4.978
	l-0.086,0.168l-0.168,0.084l-0.254,0.084h-0.59h-0.506l-0.338-0.084l-0.168-0.084v-0.168v-9.869v-0.084l0.168-0.17h0.338
	c0.168-0.082,0.338-0.082,0.506-0.082c0.254,0,0.422,0,0.59,0.082h0.254l0.168,0.17l0.086,0.084v4.471l3.035-4.471l0.168-0.168
	l0.17-0.086l0.336-0.082h0.508c0.252,0,0.42,0,0.59,0.082h0.336l0.17,0.17v0.084c0,0.17,0,0.254-0.084,0.338
	c0,0.084-0.086,0.254-0.254,0.422l-2.867,3.795l3.121,4.636c0.17,0.256,0.17,0.424,0.252,0.508V84.986z"/>
<path fill-rule="evenodd" clip-rule="evenodd" fill="#414042" d="M160.585,81.188c0,0.254-0.084,0.424-0.168,0.593
	c-0.084,0.081-0.252,0.168-0.422,0.168h-2.867v-1.351h1.52c0-0.505-0.086-1.011-0.338-1.349c-0.254-0.252-0.676-0.422-1.182-0.422
	v-1.435h0.084c0.59,0,1.098,0.084,1.518,0.252c0.424,0.17,0.76,0.424,1.098,0.676c0.254,0.339,0.422,0.759,0.59,1.183
	c0.084,0.42,0.168,0.843,0.168,1.349V81.188z M157.128,83.887c0.084,0,0.254,0.084,0.424,0.084c0.334,0,0.674-0.084,0.926-0.084
	c0.252-0.084,0.505-0.169,0.676-0.169c0.252-0.082,0.42-0.168,0.504-0.168c0.17-0.082,0.254-0.082,0.338-0.082h0.086l0.084,0.082
	l0.084,0.253v0.338v0.254v0.252l-0.084,0.084l-0.084,0.168c0,0-0.086,0.086-0.254,0.17c-0.17,0-0.422,0.084-0.592,0.168
	c-0.253,0.084-0.588,0.084-0.842,0.169c-0.338,0-0.674,0.084-1.012,0.084h-0.254V83.887z M157.128,81.949h-1.518
	c0,0.254,0,0.59,0.084,0.844c0.084,0.252,0.168,0.42,0.336,0.59c0.17,0.168,0.34,0.336,0.59,0.421c0.17,0,0.34,0.084,0.508,0.084
	v1.603c-0.59-0.084-1.014-0.169-1.434-0.253c-0.506-0.168-0.844-0.422-1.182-0.758c-0.336-0.338-0.59-0.761-0.758-1.267
	c-0.17-0.506-0.254-1.096-0.254-1.688c0-0.672,0.084-1.264,0.254-1.769c0.168-0.506,0.422-0.928,0.758-1.266
	c0.338-0.421,0.676-0.675,1.182-0.845c0.42-0.168,0.844-0.252,1.434-0.252v1.435c-0.254,0-0.508,0-0.676,0.086
	c-0.168,0.084-0.338,0.252-0.422,0.42c-0.168,0.17-0.252,0.338-0.336,0.59c-0.084,0.17-0.084,0.423-0.084,0.675h1.518V81.949z"/>
<path fill-rule="evenodd" clip-rule="evenodd" fill="#414042" d="M167.333,82.96c0,0.422-0.086,0.758-0.252,1.098
	c-0.168,0.338-0.338,0.59-0.676,0.757c-0.254,0.254-0.59,0.422-0.928,0.506c-0.422,0.084-0.842,0.168-1.264,0.168
	c-0.254,0-0.506-0.084-0.76-0.084c-0.254-0.084-0.506-0.084-0.676-0.168c-0.168-0.084-0.336-0.084-0.506-0.168l-0.252-0.17
	l-0.168-0.251v-0.59v-0.34v-0.25l0.084-0.086l0.167-0.084c0.085,0,0.085,0.084,0.253,0.17c0.086,0,0.254,0.082,0.422,0.168
	c0.17,0.082,0.338,0.168,0.59,0.252c0.254,0.084,0.508,0.084,0.762,0.084h0.506c0.168-0.084,0.252-0.168,0.336-0.168
	c0.168-0.086,0.254-0.168,0.254-0.336c0.084-0.086,0.084-0.17,0.084-0.34c0-0.168,0-0.337-0.084-0.423
	c-0.17-0.084-0.254-0.168-0.422-0.252s-0.338-0.168-0.59-0.252c-0.17-0.086-0.424-0.17-0.592-0.254
	c-0.254-0.086-0.422-0.252-0.674-0.336c-0.17-0.088-0.338-0.256-0.506-0.423c-0.17-0.168-0.339-0.422-0.422-0.674
	c-0.084-0.168-0.168-0.506-0.168-0.844c0-0.339,0.084-0.675,0.251-0.929c0.085-0.254,0.253-0.506,0.507-0.76
	c0.252-0.168,0.59-0.337,0.928-0.421c0.422-0.168,0.76-0.168,1.266-0.168h0.674c0.168,0.084,0.338,0.084,0.506,0.168
	c0.168,0,0.338,0.084,0.506,0.084l0.254,0.169l0.084,0.168v0.086l0.086,0.252v0.252v0.424l-0.086,0.168l-0.084,0.168h-0.086
	c-0.084,0-0.084,0-0.252-0.084c-0.084-0.084-0.168-0.17-0.338-0.17c-0.168-0.082-0.336-0.166-0.506-0.166
	c-0.252-0.086-0.506-0.086-0.758-0.086h-0.422c-0.168,0.086-0.252,0.086-0.338,0.17l-0.254,0.252v0.339c0,0.168,0,0.252,0.17,0.422
	c0.084,0.084,0.17,0.168,0.338,0.252c0.168,0.086,0.422,0.168,0.59,0.254c0.252,0.084,0.422,0.168,0.674,0.252
	c0.17,0.086,0.422,0.168,0.59,0.338c0.254,0.084,0.422,0.251,0.592,0.419c0.17,0.172,0.338,0.338,0.42,0.592
	C167.247,82.37,167.333,82.622,167.333,82.96"/>
<path fill-rule="evenodd" clip-rule="evenodd" fill="#414042" d="M175.513,84.986l-0.082,0.168l-0.17,0.084l-0.254,0.084h-0.59
	h-0.506c-0.168,0-0.252-0.084-0.336-0.084l-0.17-0.084l-0.168-0.168l-2.361-3.798v3.798l-0.084,0.168l-0.17,0.084l-0.252,0.084
	h-0.506h-0.506c-0.168,0-0.254-0.084-0.338-0.084l-0.168-0.084v-0.168V74.443v-0.171l0.168-0.084
	c0.084-0.084,0.17-0.084,0.338-0.084h0.506h0.506l0.252,0.084l0.17,0.084l0.084,0.171v6.239l2.109-2.783l0.168-0.254l0.168-0.084
	l0.338-0.084h0.506h0.506c0.168,0.084,0.252,0.084,0.336,0.084l0.17,0.084l0.084,0.17l-0.084,0.255
	c-0.084,0.084-0.084,0.168-0.17,0.338l-2.107,2.358l2.445,3.713c0,0.168,0.086,0.252,0.086,0.336L175.513,84.986z"/>
<path fill-rule="evenodd" clip-rule="evenodd" fill="#414042" d="M178.804,84.986l-0.084,0.168l-0.17,0.084
	c-0.084,0-0.168,0.084-0.336,0.084h-0.508h-0.42c-0.17,0-0.254-0.084-0.338-0.084l-0.168-0.084l-0.084-0.168V74.443l0.084-0.171
	l0.168-0.084c0.084-0.084,0.168-0.084,0.338-0.084h0.42h0.508c0.168,0,0.252,0,0.336,0.084l0.17,0.084l0.084,0.171V84.986z"/>
<path fill-rule="evenodd" clip-rule="evenodd" fill="#414042" d="M182.853,84.985l-0.086,0.168l-0.168,0.084
	c-0.084,0-0.17,0.084-0.338,0.084h-0.422h-0.507c-0.167,0-0.251-0.084-0.335-0.084l-0.17-0.084l-0.084-0.168v-7.17l0.084-0.084
	l0.17-0.17h0.335c0.087-0.084,0.255-0.084,0.507-0.084c0.17,0,0.338,0,0.422,0.084h0.338l0.168,0.17l0.086,0.084V84.985z
	 M182.937,75.37c0,0.421-0.084,0.675-0.252,0.843c-0.17,0.17-0.424,0.254-0.93,0.254c-0.423,0-0.758-0.084-0.928-0.254
	c-0.084-0.168-0.168-0.422-0.168-0.759c0-0.422,0.084-0.76,0.254-0.844c0.168-0.168,0.419-0.254,0.926-0.254
	c0.422,0,0.76,0.086,0.846,0.17C182.853,74.694,182.937,74.948,182.937,75.37"/>
<path fill-rule="evenodd" clip-rule="evenodd" fill="#414042" d="M186.899,84.985l-0.084,0.168l-0.168,0.084
	c-0.084,0-0.168,0.084-0.338,0.084h-0.422h-0.506c-0.17,0-0.252-0.084-0.336-0.084l-0.17-0.084v-0.168v-7.17v-0.084l0.17-0.17h0.336
	c0.084-0.084,0.254-0.084,0.506-0.084c0.168,0,0.338,0,0.422,0.084h0.338l0.168,0.17l0.084,0.084V84.985z M186.983,75.37
	c0,0.421-0.084,0.675-0.252,0.843c-0.168,0.17-0.422,0.254-0.928,0.254c-0.422,0-0.758-0.084-0.928-0.254
	c-0.084-0.168-0.168-0.422-0.168-0.759c0-0.422,0.084-0.76,0.254-0.844c0.168-0.168,0.42-0.254,0.926-0.254
	c0.422,0,0.76,0.086,0.928,0.17C186.899,74.694,186.983,74.948,186.983,75.37"/>
<path fill-rule="evenodd" clip-rule="evenodd" fill="#414042" d="M193.142,84.307c0,0.257,0,0.425-0.086,0.509
	c0,0.17,0,0.254-0.084,0.254l-0.168,0.168c-0.168,0-0.254,0.084-0.338,0.084c-0.168,0.084-0.336,0.084-0.42,0.084h-0.506
	c-0.338,0-0.676,0-1.012-0.084c-0.338-0.168-0.506-0.252-0.762-0.506c-0.168-0.252-0.338-0.509-0.42-0.845
	c-0.084-0.254-0.084-0.674-0.084-1.096v-3.711h-0.93l-0.168-0.168c-0.084-0.169-0.084-0.337-0.084-0.675v-0.338l0.084-0.252
	l0.084-0.17h0.17h0.844v-1.603v-0.17l0.166-0.082c0.086-0.086,0.17-0.086,0.338-0.086h0.508h0.422c0.168,0,0.252,0,0.338,0.086
	l0.168,0.082l0.084,0.17v1.603h1.518h0.168l0.084,0.17l0.086,0.252v0.338c0,0.338,0,0.506-0.086,0.675l-0.252,0.168h-1.518v3.373
	c0,0.422,0,0.674,0.168,0.93c0.086,0.168,0.338,0.25,0.676,0.25h0.252l0.254-0.082l0.168-0.086h0.086h0.082l0.084,0.168l0.086,0.17
	V84.307z"/>
<path fill="#414042" d="M6.897,100.532c0,0.121-0.006,0.224-0.016,0.306l-0.047,0.199l-0.078,0.108l-0.104,0.035H2.566
	c-0.138,0-0.255-0.041-0.349-0.123c-0.093-0.082-0.142-0.216-0.142-0.397v-7.093c0-0.183,0.049-0.315,0.142-0.397
	c0.094-0.082,0.211-0.123,0.349-0.123h4.06l0.101,0.031l0.075,0.11l0.048,0.201c0.01,0.082,0.016,0.184,0.016,0.311
	c0,0.117-0.006,0.218-0.016,0.3l-0.048,0.196l-0.075,0.109l-0.101,0.036H3.724v1.986h2.457l0.104,0.034l0.078,0.107l0.048,0.194
	c0.01,0.082,0.015,0.181,0.015,0.299c0,0.123-0.005,0.222-0.015,0.302l-0.048,0.192l-0.078,0.103l-0.104,0.032H3.724v2.293h2.929
	l0.104,0.035l0.078,0.11l0.047,0.197C6.892,100.309,6.897,100.412,6.897,100.532"/>
<path fill="#414042" d="M12.208,99.381c0,0.318-0.06,0.601-0.178,0.843c-0.12,0.244-0.288,0.446-0.507,0.608
	c-0.217,0.164-0.475,0.287-0.772,0.369c-0.299,0.082-0.621,0.121-0.969,0.121c-0.209,0-0.41-0.013-0.599-0.045
	c-0.192-0.033-0.362-0.072-0.513-0.119c-0.151-0.05-0.276-0.099-0.377-0.147c-0.101-0.052-0.175-0.099-0.22-0.144
	c-0.047-0.045-0.082-0.113-0.107-0.207c-0.025-0.093-0.037-0.233-0.037-0.418c0-0.121,0.004-0.218,0.012-0.293l0.037-0.175
	l0.063-0.086l0.095-0.024l0.204,0.078c0.091,0.053,0.202,0.11,0.337,0.174c0.134,0.063,0.289,0.121,0.468,0.177
	c0.177,0.055,0.379,0.081,0.606,0.081c0.143,0,0.269-0.016,0.381-0.045c0.111-0.028,0.207-0.069,0.288-0.125l0.186-0.207
	c0.041-0.084,0.063-0.182,0.063-0.291c0-0.125-0.039-0.231-0.116-0.321c-0.077-0.09-0.181-0.17-0.309-0.237
	c-0.127-0.066-0.272-0.129-0.433-0.188c-0.162-0.058-0.328-0.123-0.497-0.193c-0.169-0.071-0.335-0.155-0.497-0.247
	c-0.162-0.091-0.305-0.205-0.433-0.337c-0.128-0.135-0.231-0.297-0.309-0.485C7.998,97.31,7.96,97.081,7.96,96.818
	c0-0.269,0.053-0.514,0.156-0.739c0.106-0.224,0.256-0.416,0.453-0.574c0.198-0.159,0.437-0.282,0.72-0.37
	C9.571,95.045,9.89,95,10.241,95c0.177,0,0.348,0.015,0.512,0.037c0.166,0.026,0.316,0.058,0.449,0.097
	c0.135,0.036,0.249,0.077,0.34,0.12c0.092,0.045,0.158,0.082,0.199,0.113l0.084,0.094l0.037,0.115l0.023,0.162
	c0.006,0.067,0.01,0.147,0.01,0.243c0,0.113-0.004,0.207-0.01,0.277l-0.032,0.17l-0.059,0.084l-0.088,0.021L11.53,96.47
	c-0.079-0.046-0.179-0.093-0.299-0.144c-0.119-0.05-0.257-0.097-0.414-0.14c-0.158-0.045-0.338-0.067-0.539-0.067
	c-0.142,0-0.265,0.017-0.371,0.043c-0.104,0.031-0.189,0.073-0.257,0.127L9.5,96.482l-0.05,0.236c0,0.129,0.039,0.237,0.118,0.325
	c0.08,0.088,0.185,0.166,0.316,0.233c0.129,0.066,0.277,0.13,0.442,0.187c0.165,0.06,0.333,0.125,0.503,0.193
	c0.17,0.069,0.338,0.149,0.503,0.243c0.165,0.091,0.313,0.205,0.443,0.339c0.13,0.133,0.235,0.293,0.315,0.481
	C12.169,98.905,12.208,99.125,12.208,99.381"/>
<path fill="#414042" d="M16.571,100.413c0,0.187-0.012,0.326-0.035,0.425s-0.054,0.168-0.092,0.207l-0.166,0.106
	c-0.073,0.033-0.158,0.06-0.258,0.082c-0.097,0.024-0.205,0.041-0.32,0.053c-0.115,0.015-0.232,0.021-0.349,0.021
	c-0.313,0-0.587-0.039-0.817-0.12c-0.231-0.08-0.421-0.203-0.572-0.369c-0.15-0.164-0.262-0.373-0.333-0.625
	c-0.072-0.252-0.107-0.549-0.107-0.892v-2.871H12.85c-0.08,0-0.14-0.049-0.183-0.149c-0.042-0.097-0.063-0.263-0.063-0.494
	c0-0.12,0.006-0.223,0.017-0.309l0.046-0.197l0.079-0.103l0.11-0.032h0.666v-1.25l0.035-0.113l0.125-0.084
	c0.061-0.024,0.143-0.041,0.245-0.053c0.103-0.009,0.23-0.015,0.38-0.015c0.157,0,0.285,0.006,0.387,0.015
	c0.104,0.012,0.184,0.028,0.242,0.053l0.125,0.084l0.038,0.113v1.25h1.22l0.111,0.032l0.078,0.103l0.047,0.197
	c0.01,0.086,0.016,0.188,0.016,0.309c0,0.231-0.021,0.397-0.063,0.494c-0.042,0.101-0.103,0.149-0.182,0.149h-1.227v2.632
	c0,0.307,0.049,0.536,0.146,0.688c0.096,0.151,0.267,0.229,0.514,0.229l0.226-0.021l0.18-0.052l0.132-0.051l0.098-0.021l0.072,0.021
	l0.053,0.088l0.035,0.181C16.565,100.2,16.571,100.296,16.571,100.413"/>
<path fill="#414042" d="M23.259,98.106c0,0.479-0.063,0.913-0.188,1.307c-0.126,0.396-0.316,0.735-0.572,1.021
	c-0.256,0.283-0.577,0.504-0.962,0.658c-0.385,0.155-0.837,0.231-1.351,0.231c-0.499,0-0.933-0.067-1.301-0.207
	c-0.37-0.136-0.675-0.34-0.918-0.603c-0.243-0.265-0.424-0.588-0.54-0.974c-0.119-0.387-0.177-0.825-0.177-1.319
	c0-0.479,0.064-0.914,0.193-1.312c0.126-0.396,0.318-0.735,0.574-1.019c0.256-0.282,0.575-0.5,0.959-0.657
	c0.383-0.154,0.833-0.231,1.347-0.231c0.504,0,0.94,0.067,1.308,0.204c0.369,0.136,0.673,0.336,0.914,0.601
	c0.242,0.263,0.421,0.59,0.538,0.974C23.2,97.165,23.259,97.608,23.259,98.106 M21.631,98.169c0-0.275-0.022-0.531-0.065-0.765
	c-0.045-0.231-0.12-0.435-0.224-0.606c-0.105-0.172-0.244-0.306-0.418-0.4c-0.174-0.098-0.393-0.146-0.656-0.146
	c-0.236,0-0.441,0.043-0.616,0.131c-0.176,0.086-0.322,0.211-0.434,0.377c-0.113,0.164-0.199,0.362-0.255,0.596
	c-0.056,0.234-0.085,0.498-0.085,0.794c0,0.278,0.024,0.532,0.068,0.764c0.046,0.235,0.122,0.437,0.224,0.608
	c0.103,0.171,0.241,0.304,0.418,0.398c0.177,0.096,0.394,0.143,0.653,0.143c0.241,0,0.448-0.043,0.623-0.129
	c0.176-0.086,0.321-0.211,0.434-0.375c0.113-0.162,0.197-0.362,0.251-0.594C21.604,98.732,21.631,98.468,21.631,98.169"/>
<path fill="#414042" d="M29.865,100.965l-0.038,0.109l-0.125,0.08c-0.059,0.02-0.14,0.038-0.242,0.047
	c-0.104,0.01-0.231,0.017-0.381,0.017c-0.155,0-0.283-0.007-0.386-0.017c-0.102-0.009-0.184-0.027-0.242-0.047l-0.126-0.08
	l-0.037-0.109v-3.198c0-0.272-0.021-0.485-0.061-0.642c-0.039-0.153-0.097-0.287-0.174-0.397c-0.074-0.114-0.171-0.198-0.291-0.258
	c-0.119-0.062-0.258-0.093-0.418-0.093c-0.201,0-0.404,0.074-0.609,0.22c-0.206,0.147-0.42,0.36-0.642,0.642v3.727l-0.037,0.109
	l-0.129,0.08c-0.061,0.02-0.141,0.038-0.242,0.047c-0.1,0.01-0.228,0.017-0.383,0.017c-0.156,0-0.284-0.007-0.384-0.017
	c-0.101-0.009-0.181-0.027-0.242-0.047l-0.128-0.08l-0.038-0.109v-5.606l0.031-0.11l0.113-0.078l0.211-0.047
	c0.085-0.012,0.193-0.015,0.323-0.015c0.134,0,0.246,0.003,0.333,0.015l0.204,0.047l0.104,0.078l0.032,0.11v0.647
	c0.311-0.336,0.625-0.588,0.946-0.754C27.128,95.084,27.462,95,27.809,95c0.381,0,0.703,0.063,0.965,0.19
	c0.262,0.125,0.475,0.296,0.635,0.511c0.162,0.215,0.277,0.469,0.35,0.758c0.07,0.289,0.106,0.638,0.106,1.043V100.965z"/>
<path fill="#414042" d="M33.121,93.461c0,0.318-0.065,0.537-0.194,0.66c-0.131,0.121-0.371,0.183-0.724,0.183
	c-0.356,0-0.597-0.06-0.719-0.177c-0.124-0.116-0.186-0.328-0.186-0.635c0-0.318,0.064-0.541,0.192-0.664
	c0.128-0.123,0.37-0.185,0.726-0.185c0.352,0,0.592,0.06,0.717,0.179C33.059,92.943,33.121,93.155,33.121,93.461 M33.001,100.965
	l-0.036,0.109l-0.13,0.08c-0.061,0.02-0.142,0.038-0.241,0.047c-0.102,0.01-0.23,0.017-0.384,0.017
	c-0.155,0-0.282-0.007-0.384-0.017c-0.1-0.009-0.18-0.027-0.241-0.047l-0.129-0.08l-0.038-0.109v-5.594l0.038-0.108l0.129-0.082
	c0.061-0.024,0.141-0.041,0.241-0.054c0.102-0.014,0.229-0.019,0.384-0.019c0.154,0,0.282,0.005,0.384,0.019
	c0.099,0.013,0.18,0.029,0.241,0.054l0.13,0.082l0.036,0.108V100.965z"/>
<path fill="#414042" d="M39.356,100.985l-0.063,0.139c-0.041,0.033-0.107,0.058-0.198,0.072c-0.09,0.015-0.223,0.022-0.399,0.022
	c-0.188,0-0.326-0.008-0.412-0.022l-0.182-0.072l-0.053-0.139v-0.445c-0.23,0.246-0.494,0.44-0.789,0.576
	c-0.295,0.14-0.623,0.207-0.983,0.207c-0.298,0-0.572-0.037-0.822-0.115c-0.249-0.075-0.465-0.192-0.646-0.346
	c-0.183-0.151-0.324-0.341-0.424-0.567c-0.102-0.228-0.152-0.49-0.152-0.793c0-0.326,0.064-0.609,0.192-0.853
	c0.128-0.24,0.318-0.438,0.572-0.595c0.253-0.158,0.57-0.274,0.946-0.351c0.378-0.075,0.815-0.112,1.313-0.112h0.547v-0.34
	c0-0.177-0.018-0.33-0.053-0.462c-0.036-0.131-0.094-0.241-0.176-0.329c-0.082-0.089-0.191-0.154-0.328-0.195
	c-0.135-0.041-0.303-0.063-0.505-0.063c-0.264,0-0.5,0.029-0.708,0.088c-0.207,0.06-0.389,0.123-0.548,0.195
	c-0.161,0.071-0.293,0.135-0.4,0.196c-0.107,0.056-0.194,0.088-0.261,0.088l-0.123-0.045l-0.087-0.127l-0.053-0.2
	c-0.014-0.08-0.02-0.167-0.02-0.263c0-0.131,0.01-0.235,0.032-0.31l0.119-0.205c0.059-0.06,0.162-0.127,0.308-0.2
	c0.147-0.072,0.319-0.142,0.516-0.203c0.197-0.063,0.411-0.115,0.643-0.156c0.234-0.039,0.474-0.059,0.72-0.059
	c0.442,0,0.817,0.043,1.129,0.129c0.313,0.086,0.568,0.219,0.77,0.396c0.201,0.178,0.347,0.407,0.44,0.69
	c0.093,0.278,0.138,0.612,0.138,0.998V100.985z M37.804,98.585h-0.603c-0.256,0-0.473,0.018-0.654,0.055
	c-0.181,0.039-0.327,0.095-0.439,0.17c-0.114,0.076-0.197,0.168-0.249,0.272c-0.052,0.107-0.078,0.229-0.078,0.369
	c0,0.235,0.074,0.418,0.223,0.554c0.149,0.135,0.355,0.2,0.618,0.2c0.223,0,0.427-0.057,0.614-0.17
	c0.186-0.112,0.377-0.278,0.568-0.496V98.585z"/>
<path fill="#414042" d="M46.29,100.965l-0.037,0.109l-0.127,0.08c-0.059,0.022-0.139,0.038-0.241,0.047
	c-0.103,0.01-0.23,0.017-0.38,0.017c-0.155,0-0.285-0.007-0.387-0.017c-0.102-0.009-0.183-0.024-0.242-0.047l-0.126-0.08
	l-0.038-0.109v-3.198c0-0.272-0.019-0.485-0.06-0.642c-0.04-0.153-0.096-0.287-0.172-0.397c-0.076-0.112-0.172-0.198-0.293-0.258
	c-0.12-0.062-0.258-0.093-0.417-0.093c-0.202,0-0.405,0.074-0.611,0.222c-0.204,0.146-0.418,0.358-0.64,0.64v3.727l-0.038,0.109
	l-0.129,0.08c-0.061,0.022-0.14,0.038-0.242,0.047c-0.1,0.01-0.228,0.017-0.383,0.017c-0.156,0-0.284-0.007-0.384-0.017
	c-0.1-0.009-0.181-0.024-0.241-0.047l-0.13-0.08l-0.037-0.109v-5.606l0.031-0.11l0.113-0.078l0.211-0.047
	c0.086-0.012,0.194-0.015,0.324-0.015c0.134,0,0.244,0.003,0.332,0.015l0.205,0.047l0.104,0.078l0.031,0.11v0.647
	c0.311-0.336,0.626-0.588,0.946-0.754C43.553,95.084,43.887,95,44.235,95c0.381,0,0.703,0.063,0.964,0.19
	c0.262,0.125,0.474,0.296,0.636,0.511c0.16,0.215,0.277,0.469,0.349,0.758c0.071,0.289,0.106,0.638,0.106,1.043V100.965z"/>
<path fill="#414042" d="M56.259,93.725c0,0.121-0.004,0.226-0.016,0.312l-0.047,0.207l-0.078,0.117l-0.103,0.037h-2.037v6.557
	l-0.041,0.111l-0.135,0.084c-0.064,0.019-0.148,0.037-0.256,0.049c-0.105,0.013-0.239,0.019-0.398,0.019
	c-0.16,0-0.292-0.006-0.399-0.019c-0.107-0.012-0.192-0.03-0.255-0.049l-0.135-0.084l-0.039-0.111v-6.557h-2.038l-0.108-0.037
	L50.1,94.244l-0.048-0.207c-0.01-0.086-0.016-0.19-0.016-0.312c0-0.127,0.006-0.231,0.016-0.319l0.048-0.211l0.074-0.114
	l0.108-0.035h5.733l0.103,0.035l0.078,0.114l0.047,0.211C56.255,93.494,56.259,93.598,56.259,93.725"/>
<path fill="#414042" d="M60.069,95.881c0,0.15-0.005,0.273-0.014,0.369c-0.007,0.099-0.021,0.174-0.038,0.229l-0.065,0.11
	l-0.104,0.031l-0.113-0.021l-0.141-0.047l-0.173-0.048l-0.207-0.021l-0.264,0.052c-0.088,0.035-0.18,0.09-0.274,0.166
	c-0.094,0.076-0.193,0.176-0.295,0.303c-0.103,0.125-0.213,0.281-0.332,0.466v3.493l-0.037,0.109l-0.129,0.08
	c-0.06,0.022-0.14,0.038-0.241,0.047c-0.1,0.01-0.229,0.017-0.384,0.017s-0.283-0.007-0.383-0.017
	c-0.101-0.009-0.181-0.024-0.242-0.047l-0.128-0.08l-0.038-0.109v-5.606l0.03-0.11l0.114-0.078l0.211-0.047
	c0.085-0.012,0.193-0.015,0.323-0.015c0.134,0,0.246,0.003,0.333,0.015l0.204,0.047l0.104,0.078l0.032,0.11v0.699
	c0.147-0.211,0.284-0.384,0.415-0.519c0.13-0.138,0.253-0.246,0.371-0.324c0.117-0.079,0.235-0.137,0.352-0.168
	C59.073,95.017,59.19,95,59.307,95l0.176,0.011l0.195,0.03l0.177,0.052l0.11,0.06l0.049,0.069l0.03,0.103l0.017,0.198
	C60.065,95.611,60.069,95.73,60.069,95.881"/>
<path fill="#414042" d="M65.538,100.985l-0.064,0.139l-0.197,0.072c-0.09,0.015-0.223,0.022-0.4,0.022
	c-0.188,0-0.325-0.008-0.412-0.022l-0.181-0.072l-0.054-0.139v-0.445c-0.23,0.246-0.492,0.44-0.788,0.576
	c-0.296,0.14-0.623,0.207-0.983,0.207c-0.299,0-0.573-0.037-0.822-0.115c-0.249-0.075-0.465-0.192-0.647-0.346
	c-0.182-0.151-0.324-0.341-0.424-0.567c-0.101-0.228-0.151-0.49-0.151-0.793c0-0.326,0.064-0.609,0.191-0.853
	c0.128-0.24,0.319-0.438,0.572-0.595c0.254-0.158,0.57-0.274,0.947-0.351c0.377-0.075,0.814-0.112,1.313-0.112h0.547v-0.34
	c0-0.177-0.018-0.33-0.054-0.462c-0.035-0.131-0.093-0.241-0.175-0.329c-0.083-0.089-0.191-0.154-0.328-0.195
	c-0.135-0.041-0.303-0.063-0.505-0.063c-0.264,0-0.5,0.029-0.708,0.088c-0.208,0.06-0.389,0.123-0.549,0.195
	c-0.16,0.071-0.293,0.135-0.399,0.196c-0.107,0.056-0.194,0.088-0.261,0.088l-0.123-0.045l-0.088-0.125l-0.053-0.202
	c-0.013-0.08-0.02-0.167-0.02-0.263c0-0.131,0.011-0.235,0.033-0.31l0.119-0.205c0.059-0.06,0.161-0.127,0.307-0.2
	c0.148-0.072,0.319-0.142,0.516-0.203c0.197-0.063,0.412-0.115,0.644-0.156c0.233-0.039,0.473-0.059,0.72-0.059
	c0.441,0,0.816,0.043,1.129,0.129c0.312,0.086,0.568,0.219,0.769,0.396c0.201,0.178,0.348,0.407,0.441,0.69
	c0.092,0.278,0.138,0.612,0.138,0.998V100.985z M63.984,98.585h-0.603c-0.255,0-0.474,0.018-0.654,0.055
	c-0.18,0.039-0.327,0.095-0.439,0.17c-0.114,0.076-0.197,0.168-0.249,0.272c-0.052,0.107-0.078,0.229-0.078,0.369
	c0,0.235,0.073,0.418,0.223,0.554c0.149,0.135,0.355,0.2,0.618,0.2c0.223,0,0.427-0.057,0.614-0.17
	c0.186-0.112,0.376-0.278,0.568-0.496V98.585z"/>
<path fill="#414042" d="M72.432,100.965l-0.031,0.117l-0.107,0.078l-0.204,0.045c-0.087,0.008-0.192,0.012-0.318,0.012
	c-0.135,0-0.244-0.004-0.327-0.012l-0.204-0.045l-0.113-0.078l-0.035-0.117v-0.621c-0.289,0.312-0.592,0.552-0.909,0.722
	c-0.315,0.174-0.667,0.258-1.052,0.258c-0.427,0-0.79-0.083-1.084-0.249c-0.295-0.164-0.538-0.386-0.723-0.667
	c-0.187-0.282-0.322-0.61-0.405-0.985c-0.084-0.375-0.126-0.769-0.126-1.183c0-0.5,0.053-0.948,0.16-1.346
	c0.107-0.399,0.262-0.738,0.469-1.021c0.205-0.279,0.46-0.496,0.766-0.646C68.495,95.077,68.847,95,69.246,95
	c0.313,0,0.598,0.065,0.854,0.194c0.256,0.127,0.509,0.313,0.761,0.562v-3.037l0.034-0.112l0.125-0.084
	c0.061-0.024,0.143-0.041,0.242-0.056c0.102-0.012,0.229-0.019,0.385-0.019c0.154,0,0.283,0.007,0.383,0.019
	c0.1,0.015,0.18,0.031,0.238,0.056l0.127,0.084l0.037,0.112V100.965z M70.861,97.219c-0.227-0.284-0.443-0.502-0.651-0.653
	c-0.207-0.151-0.424-0.226-0.651-0.226c-0.205,0-0.383,0.052-0.531,0.154s-0.268,0.241-0.357,0.411
	c-0.091,0.173-0.158,0.365-0.203,0.576c-0.044,0.211-0.065,0.427-0.065,0.649c0,0.234,0.02,0.463,0.057,0.687
	c0.038,0.222,0.099,0.42,0.185,0.593c0.085,0.174,0.199,0.313,0.342,0.418c0.143,0.106,0.322,0.159,0.541,0.159
	c0.109,0,0.215-0.019,0.317-0.049c0.103-0.031,0.207-0.082,0.315-0.155c0.106-0.07,0.217-0.164,0.329-0.279
	c0.114-0.114,0.237-0.256,0.372-0.424V97.219z"/>
<path fill="#414042" d="M79.203,97.999c0,0.194-0.043,0.336-0.13,0.429c-0.086,0.092-0.203,0.139-0.354,0.139h-3.414
	c0,0.238,0.028,0.455,0.085,0.65c0.056,0.194,0.146,0.36,0.27,0.495c0.124,0.138,0.283,0.24,0.478,0.312
	c0.194,0.072,0.428,0.107,0.701,0.107c0.276,0,0.519-0.02,0.728-0.06c0.211-0.041,0.392-0.084,0.545-0.132
	c0.153-0.049,0.28-0.092,0.381-0.131c0.1-0.041,0.182-0.062,0.244-0.062l0.094,0.022l0.064,0.078l0.035,0.162
	c0.006,0.067,0.009,0.153,0.009,0.26c0,0.092-0.002,0.172-0.006,0.233l-0.02,0.168l-0.037,0.115l-0.066,0.092
	c-0.028,0.029-0.102,0.068-0.223,0.119c-0.123,0.052-0.277,0.101-0.466,0.149c-0.188,0.048-0.405,0.09-0.647,0.125
	c-0.243,0.035-0.502,0.052-0.78,0.052c-0.499,0-0.935-0.06-1.31-0.187c-0.375-0.125-0.689-0.317-0.94-0.572
	c-0.252-0.254-0.439-0.577-0.562-0.969c-0.125-0.39-0.186-0.847-0.186-1.369c0-0.498,0.065-0.948,0.196-1.349
	c0.129-0.399,0.318-0.739,0.564-1.018c0.247-0.279,0.548-0.492,0.902-0.638C75.713,95.075,76.112,95,76.556,95
	c0.469,0,0.871,0.068,1.203,0.209c0.334,0.138,0.607,0.33,0.821,0.574s0.371,0.535,0.472,0.871c0.1,0.334,0.151,0.7,0.151,1.092
	V97.999z M77.669,97.548c0.013-0.445-0.076-0.793-0.268-1.048c-0.19-0.254-0.485-0.381-0.882-0.381
	c-0.203,0-0.377,0.037-0.526,0.114c-0.148,0.076-0.272,0.177-0.371,0.304c-0.098,0.129-0.174,0.28-0.225,0.453
	c-0.053,0.172-0.083,0.36-0.092,0.558H77.669z"/>
<path fill="#414042" d="M90.146,98.152c0,0.497-0.074,0.944-0.221,1.338s-0.362,0.728-0.647,1c-0.285,0.271-0.637,0.478-1.056,0.621
	c-0.419,0.143-0.901,0.213-1.446,0.213c-0.511,0-0.97-0.063-1.377-0.19c-0.406-0.128-0.75-0.322-1.03-0.582
	c-0.281-0.259-0.495-0.584-0.644-0.972c-0.148-0.387-0.224-0.84-0.224-1.36v-4.947l0.039-0.11l0.134-0.082
	c0.065-0.024,0.151-0.039,0.254-0.053c0.105-0.013,0.239-0.019,0.403-0.019c0.16,0,0.291,0.006,0.396,0.019
	c0.105,0.014,0.189,0.028,0.252,0.053l0.135,0.082l0.041,0.11v4.804c0,0.321,0.039,0.601,0.119,0.838
	c0.08,0.238,0.193,0.433,0.342,0.588c0.149,0.156,0.328,0.272,0.535,0.349c0.207,0.078,0.438,0.117,0.694,0.117
	c0.26,0,0.492-0.039,0.697-0.121c0.207-0.078,0.38-0.194,0.523-0.347c0.143-0.153,0.252-0.342,0.33-0.567
	c0.076-0.224,0.116-0.478,0.116-0.763v-4.897l0.038-0.11l0.132-0.082c0.063-0.024,0.148-0.039,0.254-0.053
	c0.107-0.013,0.24-0.019,0.399-0.019s0.291,0.006,0.393,0.019c0.104,0.014,0.186,0.028,0.249,0.053l0.132,0.082l0.038,0.11V98.152z"
	/>
<path fill="#414042" d="M97.174,100.965l-0.038,0.109l-0.126,0.08c-0.06,0.022-0.141,0.038-0.241,0.047
	c-0.103,0.01-0.23,0.017-0.382,0.017c-0.153,0-0.282-0.007-0.386-0.017c-0.102-0.009-0.182-0.024-0.243-0.047l-0.125-0.08
	l-0.038-0.109v-3.198c0-0.272-0.021-0.485-0.06-0.642c-0.038-0.153-0.096-0.287-0.172-0.397c-0.076-0.112-0.172-0.198-0.293-0.258
	c-0.119-0.062-0.257-0.093-0.417-0.093c-0.202,0-0.404,0.074-0.609,0.222c-0.207,0.146-0.42,0.358-0.641,0.64v3.727l-0.04,0.109
	l-0.127,0.08c-0.062,0.022-0.143,0.038-0.244,0.047c-0.098,0.01-0.228,0.017-0.381,0.017c-0.158,0-0.285-0.007-0.383-0.017
	c-0.102-0.009-0.183-0.024-0.243-0.047l-0.128-0.08l-0.038-0.109v-5.606l0.032-0.11l0.112-0.078l0.21-0.047
	c0.086-0.012,0.193-0.015,0.324-0.015c0.135,0,0.244,0.003,0.332,0.015l0.204,0.047l0.104,0.078l0.032,0.11v0.647
	c0.311-0.336,0.627-0.588,0.945-0.754C94.438,95.084,94.771,95,95.117,95c0.382,0,0.703,0.063,0.966,0.19
	c0.261,0.125,0.474,0.296,0.634,0.511c0.163,0.215,0.277,0.469,0.35,0.758c0.071,0.289,0.107,0.638,0.107,1.043V100.965z"/>
<path fill="#414042" d="M100.429,93.461c0,0.318-0.062,0.537-0.192,0.66c-0.131,0.121-0.371,0.183-0.726,0.183
	s-0.596-0.06-0.72-0.177c-0.123-0.116-0.184-0.328-0.184-0.635c0-0.318,0.062-0.539,0.19-0.664c0.127-0.123,0.37-0.185,0.728-0.185
	c0.35,0,0.591,0.06,0.717,0.179C100.368,92.943,100.429,93.155,100.429,93.461 M100.311,100.965l-0.036,0.109l-0.131,0.08
	c-0.062,0.022-0.143,0.038-0.24,0.047c-0.103,0.01-0.23,0.017-0.385,0.017s-0.282-0.007-0.385-0.017
	c-0.099-0.009-0.179-0.024-0.242-0.047l-0.128-0.08l-0.039-0.109v-5.594l0.039-0.108l0.128-0.082
	c0.063-0.024,0.144-0.041,0.242-0.054c0.103-0.014,0.23-0.019,0.385-0.019s0.282,0.005,0.385,0.019
	c0.098,0.013,0.179,0.029,0.24,0.054l0.131,0.082l0.036,0.108V100.965z"/>
<path fill="#414042" d="M107.558,98.106c0,0.479-0.064,0.915-0.189,1.309s-0.316,0.733-0.572,1.019
	c-0.256,0.283-0.574,0.506-0.961,0.658c-0.386,0.155-0.836,0.231-1.352,0.231c-0.498,0-0.934-0.067-1.299-0.207
	c-0.371-0.136-0.678-0.34-0.92-0.601c-0.242-0.264-0.424-0.59-0.539-0.976c-0.117-0.387-0.178-0.825-0.178-1.319
	c0-0.479,0.064-0.914,0.193-1.312c0.125-0.396,0.318-0.735,0.574-1.019c0.256-0.282,0.576-0.5,0.959-0.657
	c0.383-0.154,0.832-0.231,1.348-0.231c0.502,0,0.939,0.067,1.307,0.204c0.369,0.136,0.676,0.336,0.914,0.601
	c0.242,0.263,0.422,0.59,0.539,0.974C107.497,97.165,107.558,97.608,107.558,98.106 M105.929,98.169
	c0-0.275-0.021-0.531-0.064-0.765c-0.045-0.231-0.119-0.433-0.225-0.606c-0.105-0.172-0.242-0.306-0.418-0.4
	c-0.174-0.098-0.393-0.146-0.656-0.146c-0.234,0-0.441,0.043-0.616,0.131c-0.175,0.086-0.321,0.211-0.433,0.377
	c-0.113,0.164-0.197,0.362-0.256,0.596c-0.057,0.234-0.084,0.498-0.084,0.796c0,0.276,0.022,0.53,0.068,0.762
	c0.047,0.235,0.12,0.437,0.223,0.608c0.104,0.171,0.242,0.304,0.418,0.398c0.178,0.096,0.395,0.143,0.654,0.143
	c0.24,0,0.447-0.043,0.621-0.129c0.178-0.086,0.322-0.211,0.436-0.375c0.111-0.162,0.195-0.362,0.252-0.594
	C105.903,98.732,105.929,98.468,105.929,98.169"/>
<path fill="#414042" d="M114.165,100.965l-0.037,0.109l-0.127,0.08c-0.059,0.022-0.141,0.038-0.242,0.047
	c-0.102,0.01-0.229,0.017-0.379,0.017c-0.156,0-0.285-0.007-0.389-0.017c-0.102-0.009-0.182-0.024-0.24-0.047l-0.127-0.08
	l-0.037-0.109v-3.198c0-0.272-0.021-0.485-0.061-0.642c-0.039-0.153-0.096-0.287-0.173-0.397c-0.075-0.112-0.171-0.198-0.293-0.258
	c-0.118-0.062-0.257-0.093-0.417-0.093c-0.201,0-0.404,0.074-0.609,0.222c-0.207,0.146-0.42,0.358-0.641,0.64v3.727l-0.04,0.109
	l-0.128,0.08c-0.061,0.022-0.141,0.038-0.24,0.047c-0.102,0.01-0.229,0.017-0.385,0.017c-0.154,0-0.283-0.007-0.383-0.017
	c-0.102-0.009-0.184-0.024-0.242-0.047l-0.129-0.08l-0.037-0.109v-5.606l0.031-0.11l0.111-0.078l0.211-0.047
	c0.088-0.012,0.193-0.015,0.324-0.015c0.135,0,0.246,0.003,0.334,0.015l0.203,0.047l0.105,0.078l0.029,0.11v0.647
	c0.312-0.336,0.627-0.588,0.944-0.754c0.323-0.168,0.657-0.252,1.005-0.252c0.381,0,0.702,0.063,0.965,0.19
	c0.264,0.125,0.475,0.296,0.635,0.511c0.162,0.215,0.277,0.469,0.35,0.758c0.07,0.289,0.107,0.638,0.107,1.043V100.965z"/>
<path fill="#414042" d="M124.347,99.949c0,0.104-0.002,0.192-0.01,0.266l-0.027,0.188l-0.051,0.138l-0.099,0.127
	c-0.048,0.049-0.136,0.108-0.271,0.185c-0.131,0.076-0.293,0.149-0.479,0.217c-0.194,0.07-0.411,0.127-0.657,0.175
	c-0.244,0.045-0.51,0.067-0.795,0.067c-0.557,0-1.061-0.086-1.508-0.258c-0.449-0.169-0.83-0.427-1.145-0.769
	c-0.312-0.341-0.557-0.769-0.723-1.279c-0.168-0.51-0.252-1.106-0.252-1.786c0-0.691,0.092-1.304,0.277-1.841
	c0.184-0.537,0.441-0.987,0.771-1.353c0.332-0.362,0.73-0.641,1.193-0.827c0.461-0.189,0.973-0.283,1.529-0.283
	c0.227,0,0.445,0.017,0.654,0.056c0.209,0.038,0.403,0.086,0.582,0.147c0.176,0.06,0.338,0.131,0.48,0.211s0.242,0.147,0.299,0.205
	l0.115,0.141l0.052,0.144l0.028,0.207c0.006,0.08,0.01,0.179,0.01,0.298c0,0.125-0.006,0.231-0.014,0.319l-0.043,0.213l-0.076,0.119
	l-0.102,0.039c-0.061,0-0.143-0.037-0.238-0.108c-0.098-0.076-0.221-0.156-0.373-0.246c-0.154-0.091-0.336-0.173-0.549-0.246
	c-0.211-0.072-0.463-0.11-0.756-0.11c-0.324,0-0.611,0.067-0.865,0.198c-0.254,0.133-0.471,0.319-0.646,0.565
	c-0.178,0.244-0.314,0.541-0.406,0.89c-0.092,0.347-0.139,0.739-0.139,1.176c0,0.478,0.049,0.892,0.146,1.242
	c0.1,0.349,0.24,0.636,0.424,0.862c0.182,0.228,0.4,0.397,0.658,0.507c0.26,0.11,0.549,0.168,0.871,0.168
	c0.293,0,0.547-0.035,0.762-0.104c0.213-0.07,0.396-0.146,0.549-0.229s0.277-0.158,0.377-0.228c0.098-0.065,0.174-0.099,0.229-0.099
	l0.102,0.024l0.062,0.101l0.039,0.209C124.343,99.677,124.347,99.798,124.347,99.949"/>
<path fill="#414042" d="M131.112,98.106c0,0.479-0.064,0.915-0.189,1.309c-0.128,0.394-0.316,0.733-0.572,1.019
	c-0.258,0.283-0.576,0.506-0.963,0.658c-0.385,0.155-0.836,0.231-1.35,0.231c-0.498,0-0.934-0.067-1.301-0.207
	c-0.369-0.136-0.676-0.34-0.918-0.601c-0.244-0.264-0.426-0.59-0.541-0.976c-0.117-0.387-0.176-0.825-0.176-1.319
	c0-0.479,0.064-0.914,0.191-1.312c0.127-0.396,0.318-0.735,0.574-1.019c0.256-0.282,0.576-0.5,0.959-0.657
	c0.383-0.154,0.834-0.231,1.348-0.231c0.504,0,0.939,0.067,1.309,0.204c0.369,0.136,0.674,0.336,0.914,0.601
	c0.24,0.263,0.422,0.59,0.537,0.974C131.052,97.165,131.112,97.608,131.112,98.106 M129.483,98.169c0-0.275-0.021-0.531-0.066-0.765
	c-0.043-0.231-0.119-0.433-0.223-0.606c-0.105-0.172-0.244-0.306-0.418-0.4c-0.176-0.098-0.393-0.146-0.656-0.146
	c-0.236,0-0.441,0.043-0.617,0.131c-0.176,0.086-0.32,0.211-0.434,0.377c-0.113,0.164-0.197,0.362-0.256,0.596
	c-0.057,0.234-0.084,0.498-0.084,0.796c0,0.276,0.023,0.53,0.068,0.762c0.047,0.235,0.121,0.437,0.223,0.608
	c0.105,0.171,0.242,0.304,0.42,0.398c0.176,0.096,0.395,0.143,0.652,0.143c0.24,0,0.447-0.043,0.623-0.129s0.322-0.211,0.434-0.375
	c0.113-0.162,0.197-0.362,0.252-0.594C129.456,98.732,129.483,98.468,129.483,98.169"/>
<path fill="#414042" d="M137.718,100.965l-0.037,0.109l-0.127,0.08c-0.059,0.022-0.141,0.038-0.242,0.047
	c-0.104,0.01-0.229,0.017-0.381,0.017c-0.154,0-0.283-0.007-0.387-0.017c-0.102-0.009-0.182-0.024-0.242-0.047l-0.125-0.08
	l-0.037-0.109v-3.198c0-0.272-0.021-0.485-0.061-0.642c-0.039-0.153-0.098-0.287-0.172-0.397c-0.076-0.112-0.174-0.198-0.293-0.258
	c-0.119-0.062-0.258-0.093-0.418-0.093c-0.201,0-0.404,0.074-0.609,0.222c-0.205,0.146-0.42,0.358-0.641,0.64v3.727l-0.039,0.109
	l-0.127,0.08c-0.062,0.022-0.145,0.038-0.244,0.047c-0.1,0.01-0.227,0.017-0.383,0.017s-0.283-0.007-0.383-0.017
	c-0.102-0.009-0.182-0.024-0.242-0.047l-0.129-0.08l-0.037-0.109v-5.606l0.031-0.11l0.111-0.078l0.211-0.047
	c0.086-0.012,0.193-0.015,0.324-0.015c0.135,0,0.246,0.003,0.332,0.015l0.205,0.047l0.104,0.078l0.033,0.11v0.647
	c0.309-0.336,0.625-0.588,0.945-0.754c0.32-0.168,0.656-0.252,1.002-0.252c0.381,0,0.703,0.063,0.965,0.19
	c0.262,0.125,0.475,0.296,0.635,0.511c0.162,0.215,0.277,0.469,0.35,0.758s0.107,0.638,0.107,1.043V100.965z"/>
<path fill="#414042" d="M142.583,93.222c0,0.12-0.006,0.221-0.014,0.293l-0.039,0.17l-0.055,0.082l-0.07,0.021l-0.096-0.021
	l-0.133-0.048l-0.186-0.047c-0.07-0.015-0.154-0.022-0.252-0.022c-0.111,0-0.211,0.019-0.291,0.054l-0.205,0.168
	c-0.055,0.079-0.094,0.18-0.119,0.303c-0.025,0.125-0.037,0.276-0.037,0.457v0.515h1.023l0.104,0.032l0.08,0.104l0.045,0.197
	c0.012,0.084,0.015,0.185,0.015,0.306c0,0.231-0.019,0.397-0.06,0.495c-0.043,0.099-0.104,0.147-0.184,0.147h-1.023v4.537
	l-0.039,0.11l-0.125,0.08c-0.059,0.021-0.143,0.037-0.244,0.046c-0.105,0.01-0.234,0.016-0.385,0.016s-0.277-0.006-0.381-0.016
	c-0.102-0.009-0.185-0.025-0.244-0.046l-0.125-0.08l-0.035-0.11v-4.537h-0.703c-0.08,0-0.141-0.049-0.18-0.147
	c-0.041-0.098-0.061-0.264-0.061-0.495c0-0.121,0.006-0.222,0.018-0.306l0.043-0.197l0.074-0.104l0.111-0.032h0.697v-0.472
	c0-0.381,0.037-0.715,0.111-1.002c0.076-0.287,0.195-0.526,0.355-0.719c0.162-0.188,0.369-0.332,0.619-0.429
	c0.248-0.097,0.541-0.146,0.881-0.146c0.164,0,0.318,0.015,0.465,0.041c0.148,0.028,0.262,0.058,0.346,0.09l0.172,0.087l0.07,0.118
	l0.041,0.201C142.577,92.999,142.583,93.101,142.583,93.222"/>
<path fill="#414042" d="M148.226,97.999c0,0.194-0.043,0.336-0.127,0.429c-0.086,0.092-0.205,0.139-0.355,0.139h-3.412
	c0,0.238,0.025,0.455,0.084,0.65c0.055,0.194,0.146,0.36,0.268,0.495c0.125,0.138,0.283,0.24,0.48,0.312
	c0.195,0.072,0.426,0.107,0.701,0.107s0.518-0.02,0.729-0.06c0.209-0.041,0.391-0.084,0.543-0.132
	c0.154-0.049,0.281-0.092,0.381-0.131c0.102-0.041,0.182-0.062,0.244-0.062l0.096,0.022l0.062,0.078l0.035,0.162
	c0.006,0.067,0.008,0.153,0.008,0.26c0,0.092,0,0.172-0.006,0.233l-0.02,0.168l-0.037,0.115l-0.064,0.092
	c-0.029,0.029-0.104,0.068-0.225,0.119c-0.121,0.052-0.275,0.101-0.465,0.149c-0.188,0.048-0.404,0.09-0.648,0.125
	c-0.241,0.035-0.502,0.052-0.777,0.052c-0.5,0-0.936-0.06-1.311-0.187c-0.377-0.125-0.689-0.317-0.941-0.572
	c-0.25-0.254-0.438-0.577-0.562-0.969c-0.123-0.39-0.186-0.847-0.186-1.369c0-0.498,0.066-0.948,0.195-1.349
	c0.131-0.399,0.318-0.739,0.564-1.018c0.248-0.279,0.549-0.492,0.902-0.638c0.355-0.147,0.754-0.222,1.199-0.222
	c0.469,0,0.871,0.068,1.203,0.209c0.334,0.138,0.607,0.33,0.82,0.574s0.371,0.535,0.473,0.871c0.098,0.334,0.148,0.7,0.148,1.092
	V97.999z M146.692,97.548c0.014-0.445-0.074-0.793-0.268-1.048c-0.189-0.254-0.484-0.381-0.883-0.381
	c-0.201,0-0.375,0.037-0.523,0.114c-0.148,0.076-0.271,0.177-0.371,0.304c-0.1,0.129-0.174,0.28-0.227,0.453
	c-0.053,0.172-0.082,0.36-0.09,0.558H146.692z"/>
<path fill="#414042" d="M154.847,100.965l-0.033,0.117l-0.105,0.078l-0.205,0.045c-0.086,0.008-0.191,0.012-0.318,0.012
	c-0.133,0-0.242-0.004-0.326-0.012l-0.203-0.045l-0.113-0.078l-0.035-0.117v-0.621c-0.289,0.312-0.592,0.552-0.908,0.722
	c-0.316,0.174-0.668,0.258-1.054,0.258c-0.427,0-0.788-0.083-1.084-0.249c-0.294-0.164-0.536-0.386-0.722-0.667
	c-0.188-0.282-0.322-0.61-0.406-0.985c-0.082-0.375-0.125-0.769-0.125-1.183c0-0.5,0.053-0.948,0.16-1.346
	c0.107-0.399,0.262-0.738,0.467-1.021c0.207-0.279,0.46-0.496,0.768-0.646c0.307-0.151,0.658-0.228,1.057-0.228
	c0.314,0,0.598,0.065,0.854,0.194c0.258,0.127,0.51,0.313,0.762,0.562v-3.037l0.033-0.112l0.127-0.084
	c0.062-0.024,0.143-0.041,0.242-0.056c0.102-0.012,0.229-0.019,0.383-0.019c0.156,0,0.283,0.007,0.385,0.019
	c0.1,0.015,0.18,0.031,0.238,0.056l0.125,0.084l0.039,0.112V100.965z M153.274,97.219c-0.227-0.284-0.443-0.502-0.65-0.653
	s-0.424-0.226-0.65-0.226c-0.205,0-0.383,0.052-0.531,0.154s-0.27,0.241-0.357,0.411c-0.09,0.173-0.158,0.365-0.203,0.576
	c-0.043,0.211-0.064,0.427-0.064,0.649c0,0.234,0.018,0.463,0.057,0.687c0.037,0.222,0.1,0.42,0.186,0.593
	c0.084,0.174,0.199,0.313,0.342,0.418c0.143,0.106,0.322,0.159,0.541,0.159c0.107,0,0.215-0.019,0.316-0.049
	c0.104-0.031,0.209-0.082,0.314-0.155c0.107-0.07,0.219-0.164,0.33-0.279c0.113-0.114,0.236-0.256,0.371-0.424V97.219z"/>
<path fill="#414042" d="M161.614,97.999c0,0.194-0.043,0.336-0.129,0.429c-0.086,0.092-0.203,0.139-0.354,0.139h-3.414
	c0,0.238,0.027,0.455,0.084,0.65c0.057,0.194,0.146,0.36,0.271,0.495c0.123,0.138,0.281,0.24,0.479,0.312
	c0.193,0.072,0.428,0.107,0.699,0.107c0.277,0,0.52-0.02,0.73-0.06c0.209-0.041,0.389-0.084,0.543-0.132
	c0.152-0.049,0.281-0.092,0.381-0.131c0.1-0.041,0.182-0.062,0.244-0.062l0.094,0.022l0.064,0.078l0.035,0.162
	c0.006,0.067,0.008,0.153,0.008,0.26c0,0.092-0.002,0.172-0.006,0.233l-0.02,0.168l-0.037,0.115l-0.064,0.092
	c-0.029,0.029-0.104,0.068-0.225,0.119c-0.121,0.052-0.277,0.101-0.465,0.149c-0.189,0.048-0.404,0.09-0.646,0.125
	c-0.243,0.035-0.504,0.052-0.781,0.052c-0.5,0-0.936-0.06-1.311-0.187c-0.375-0.125-0.688-0.317-0.939-0.572
	c-0.252-0.254-0.438-0.577-0.562-0.969c-0.123-0.39-0.186-0.847-0.186-1.369c0-0.498,0.066-0.948,0.195-1.349
	c0.129-0.399,0.318-0.739,0.564-1.018c0.248-0.279,0.549-0.492,0.902-0.638c0.355-0.147,0.754-0.222,1.197-0.222
	c0.469,0,0.871,0.068,1.205,0.209c0.334,0.138,0.605,0.33,0.818,0.574c0.215,0.244,0.373,0.535,0.473,0.871
	c0.1,0.334,0.15,0.7,0.15,1.092V97.999z M160.081,97.548c0.014-0.445-0.076-0.793-0.268-1.048c-0.191-0.254-0.484-0.381-0.883-0.381
	c-0.201,0-0.375,0.037-0.525,0.114c-0.148,0.076-0.27,0.177-0.371,0.304c-0.098,0.129-0.174,0.28-0.224,0.453
	c-0.054,0.172-0.085,0.36-0.093,0.558H160.081z"/>
<path fill="#414042" d="M166.519,95.881c0,0.15-0.006,0.273-0.014,0.369c-0.007,0.099-0.02,0.174-0.037,0.229l-0.066,0.11
	l-0.104,0.031l-0.113-0.021l-0.143-0.047l-0.172-0.048l-0.207-0.021l-0.264,0.052c-0.088,0.035-0.18,0.09-0.275,0.166
	c-0.092,0.076-0.191,0.176-0.292,0.303c-0.104,0.125-0.214,0.281-0.331,0.466v3.493l-0.039,0.109l-0.129,0.08
	c-0.061,0.022-0.141,0.038-0.242,0.047c-0.1,0.01-0.227,0.017-0.383,0.017s-0.283-0.007-0.383-0.017
	c-0.102-0.009-0.182-0.024-0.244-0.047l-0.127-0.08l-0.037-0.109v-5.606l0.031-0.11l0.111-0.078l0.213-0.047
	c0.086-0.012,0.193-0.015,0.322-0.015c0.135,0,0.246,0.003,0.332,0.015l0.205,0.047l0.104,0.078l0.031,0.11v0.699
	c0.148-0.211,0.285-0.384,0.416-0.519c0.131-0.138,0.254-0.246,0.371-0.324c0.115-0.079,0.234-0.137,0.352-0.168
	c0.117-0.03,0.234-0.047,0.352-0.047l0.176,0.011l0.195,0.03l0.176,0.052l0.111,0.06l0.049,0.069l0.029,0.103l0.02,0.198
	C166.515,95.611,166.519,95.73,166.519,95.881"/>
<path fill="#414042" d="M171.987,100.985l-0.064,0.139c-0.041,0.033-0.105,0.058-0.197,0.072c-0.09,0.015-0.223,0.022-0.398,0.022
	c-0.188,0-0.326-0.008-0.412-0.022l-0.182-0.072l-0.055-0.139v-0.445c-0.229,0.246-0.494,0.44-0.789,0.576
	c-0.295,0.14-0.623,0.207-0.982,0.207c-0.297,0-0.572-0.037-0.822-0.115c-0.248-0.075-0.463-0.192-0.645-0.346
	c-0.184-0.151-0.324-0.341-0.426-0.567c-0.102-0.228-0.15-0.49-0.15-0.793c0-0.326,0.062-0.609,0.191-0.853
	c0.127-0.24,0.318-0.438,0.572-0.595c0.254-0.158,0.568-0.274,0.947-0.351c0.375-0.075,0.814-0.112,1.312-0.112h0.547v-0.34
	c0-0.177-0.018-0.33-0.055-0.462c-0.035-0.131-0.092-0.241-0.174-0.329c-0.082-0.089-0.191-0.154-0.328-0.195
	c-0.135-0.041-0.305-0.063-0.505-0.063c-0.265,0-0.5,0.029-0.708,0.088c-0.209,0.06-0.391,0.123-0.549,0.195
	c-0.16,0.071-0.293,0.135-0.4,0.196c-0.105,0.056-0.193,0.088-0.26,0.088l-0.123-0.045l-0.088-0.125l-0.055-0.202
	c-0.012-0.08-0.02-0.167-0.02-0.263c0-0.131,0.012-0.235,0.033-0.31l0.121-0.205c0.057-0.06,0.16-0.127,0.307-0.2
	c0.146-0.072,0.318-0.142,0.516-0.203c0.195-0.063,0.41-0.115,0.643-0.156c0.234-0.039,0.473-0.059,0.721-0.059
	c0.439,0,0.816,0.043,1.127,0.129c0.314,0.086,0.57,0.219,0.771,0.396c0.201,0.178,0.348,0.407,0.439,0.69
	c0.092,0.278,0.139,0.612,0.139,0.998V100.985z M170.435,98.585h-0.604c-0.256,0-0.473,0.018-0.654,0.055
	c-0.179,0.039-0.326,0.095-0.439,0.17c-0.113,0.076-0.197,0.168-0.248,0.272c-0.053,0.107-0.078,0.229-0.078,0.369
	c0,0.235,0.074,0.418,0.223,0.554c0.148,0.135,0.355,0.2,0.619,0.2c0.221,0,0.426-0.057,0.613-0.17
	c0.186-0.112,0.377-0.278,0.568-0.496V98.585z"/>
<path fill="#414042" d="M178.921,95.146c0.174,0,0.297,0.039,0.366,0.113c0.069,0.073,0.103,0.185,0.103,0.325v5.382l-0.035,0.108
	l-0.125,0.08c-0.061,0.022-0.143,0.037-0.242,0.047c-0.104,0.01-0.23,0.017-0.381,0.017c-0.156,0-0.285-0.007-0.389-0.017
	c-0.102-0.01-0.182-0.024-0.24-0.047l-0.127-0.08l-0.037-0.108v-4.537h-2.521v2.633c0,0.306,0.049,0.535,0.145,0.687
	c0.098,0.154,0.267,0.231,0.517,0.231l0.226-0.022l0.18-0.051l0.131-0.05l0.098-0.022l0.074,0.022l0.051,0.087l0.035,0.18
	c0.01,0.076,0.016,0.172,0.016,0.289c0,0.187-0.01,0.324-0.031,0.418c-0.021,0.095-0.051,0.164-0.088,0.207l-0.17,0.113
	c-0.074,0.034-0.162,0.059-0.26,0.082c-0.1,0.024-0.205,0.042-0.32,0.055s-0.232,0.019-0.35,0.019c-0.312,0-0.586-0.039-0.816-0.119
	s-0.422-0.204-0.572-0.368c-0.152-0.166-0.262-0.375-0.334-0.627c-0.07-0.25-0.107-0.546-0.107-0.892v-2.871h-0.672
	c-0.078,0-0.139-0.049-0.182-0.149c-0.041-0.097-0.064-0.263-0.064-0.494c0-0.121,0.006-0.222,0.018-0.306l0.047-0.198l0.078-0.103
	l0.109-0.033h0.666v-1.25l0.035-0.114l0.127-0.084c0.061-0.022,0.141-0.041,0.244-0.05c0.102-0.012,0.23-0.018,0.381-0.018
	c0.154,0,0.285,0.006,0.387,0.018c0.104,0.009,0.184,0.027,0.24,0.05l0.127,0.084l0.037,0.114v1.25H178.921z M179.517,93.461
	c0,0.318-0.064,0.537-0.193,0.66c-0.131,0.121-0.371,0.183-0.725,0.183c-0.355,0-0.596-0.06-0.721-0.177
	c-0.121-0.116-0.184-0.327-0.184-0.635c0-0.317,0.062-0.539,0.189-0.664c0.129-0.123,0.371-0.185,0.729-0.185
	c0.352,0,0.592,0.06,0.717,0.179S179.517,93.155,179.517,93.461"/>
<path fill="#414042" d="M186.651,98.106c0,0.479-0.062,0.915-0.189,1.309c-0.125,0.394-0.316,0.733-0.572,1.019
	c-0.256,0.283-0.576,0.506-0.961,0.658c-0.385,0.155-0.836,0.231-1.352,0.231c-0.498,0-0.934-0.067-1.301-0.207
	c-0.369-0.136-0.676-0.34-0.918-0.601c-0.242-0.264-0.424-0.59-0.539-0.976c-0.117-0.387-0.178-0.825-0.178-1.319
	c0-0.479,0.064-0.914,0.194-1.312c0.126-0.396,0.317-0.735,0.573-1.019c0.256-0.282,0.574-0.5,0.959-0.657
	c0.384-0.154,0.832-0.231,1.348-0.231c0.502,0,0.939,0.067,1.307,0.204c0.369,0.136,0.674,0.336,0.914,0.601
	c0.242,0.263,0.422,0.59,0.537,0.974C186.593,97.165,186.651,97.608,186.651,98.106 M185.022,98.169
	c0-0.275-0.021-0.531-0.064-0.765c-0.045-0.231-0.119-0.433-0.225-0.606c-0.105-0.172-0.244-0.306-0.416-0.4
	c-0.176-0.098-0.395-0.146-0.656-0.146c-0.236,0-0.443,0.043-0.617,0.131c-0.176,0.086-0.322,0.211-0.434,0.377
	c-0.113,0.164-0.199,0.362-0.256,0.596c-0.057,0.234-0.084,0.498-0.084,0.796c0,0.276,0.023,0.53,0.068,0.762
	c0.045,0.235,0.121,0.437,0.223,0.608c0.104,0.171,0.242,0.304,0.418,0.398c0.178,0.096,0.397,0.143,0.654,0.143
	c0.24,0,0.447-0.043,0.623-0.129c0.174-0.086,0.32-0.211,0.432-0.375c0.115-0.162,0.197-0.362,0.254-0.594
	C184.995,98.732,185.022,98.468,185.022,98.169"/>
<path fill="#414042" d="M193.259,100.965l-0.037,0.109l-0.127,0.08c-0.059,0.022-0.141,0.038-0.24,0.047
	c-0.105,0.01-0.23,0.017-0.381,0.017c-0.154,0-0.285-0.007-0.389-0.017c-0.102-0.009-0.182-0.024-0.242-0.047l-0.125-0.08
	l-0.037-0.109v-3.198c0-0.272-0.02-0.485-0.061-0.642c-0.039-0.153-0.096-0.287-0.172-0.397c-0.076-0.112-0.172-0.198-0.293-0.258
	c-0.119-0.062-0.258-0.093-0.418-0.093c-0.201,0-0.404,0.074-0.609,0.222c-0.205,0.146-0.42,0.358-0.641,0.64v3.727l-0.039,0.109
	l-0.128,0.08c-0.062,0.022-0.142,0.038-0.243,0.047c-0.1,0.01-0.227,0.017-0.381,0.017c-0.158,0-0.285-0.007-0.385-0.017
	c-0.102-0.009-0.182-0.024-0.242-0.047l-0.129-0.08l-0.037-0.109v-5.606l0.031-0.11l0.111-0.078l0.211-0.047
	c0.086-0.012,0.195-0.015,0.324-0.015c0.135,0,0.246,0.003,0.332,0.015l0.205,0.047l0.104,0.078l0.033,0.11v0.647
	c0.311-0.336,0.625-0.588,0.945-0.754c0.322-0.168,0.656-0.252,1.002-0.252c0.381,0,0.703,0.063,0.965,0.19
	c0.264,0.125,0.475,0.296,0.635,0.511c0.162,0.215,0.277,0.469,0.35,0.758s0.107,0.638,0.107,1.043V100.965z"/>
<path fill="#D6287C" d="M31.607,109.22c-0.243,0.378-0.419,0.62-0.554,0.711l0.2,0.063c-0.864,1.816-1.659,3.897-2.368,6.217
	c-0.066,0.09-0.175,0.312-0.331,0.646c-0.155,0.331-0.244,0.551-0.265,0.706c-0.111,0.753-0.333,1.526-0.62,2.303l-0.864,2.254
	l0.244,0.222v0.399c-0.509,0.929-1.017,1.393-1.548,1.393c-0.112,0-0.244-0.195-0.311-0.176c0-0.354,0.089-0.753,0.266-1.195
	c0.244-0.597,0.355-0.995,0.376-1.172l0.177,0.11c0-0.398,0.156-1.04,0.487-1.905c0.244-0.662,0.508-1.303,0.798-1.901
	c0-0.198,0.087-0.509,0.242-0.931c0.177-0.417,0.265-0.752,0.265-0.972l0.2-0.111l0.177-0.133l-0.067-0.131
	c0-0.176,0.067-0.444,0.199-0.775c0.134-0.354,0.199-0.619,0.199-0.797c0.333-0.64,0.642-1.416,0.929-2.345
	c0.223-0.796,0.443-1.591,0.688-2.413c0.109-0.109,0.199-0.243,0.22-0.419l-0.066-0.175v-0.333c0.133-0.024,0.244-0.068,0.332-0.154
	l-0.178-0.069c0.266-0.286,0.576-0.42,0.93-0.42l-0.088,0.154l0.043,0.046c0.422,0,0.642,0.176,0.642,0.508
	C31.961,108.558,31.851,108.823,31.607,109.22"/>
<path fill="#D6287C" d="M38.778,115.195c-0.066,0.112-0.132,0.245-0.177,0.354l-0.178,0.379c-0.044,0.197-0.109,0.485-0.221,0.861
	c-0.199,0.598-0.507,1.394-0.951,2.39l-0.353,0.819c-0.864,2.014-1.263,3.208-1.153,3.63c-0.198,0.197-0.397,0.31-0.596,0.31
	c-0.177,0-0.509-0.202-0.685-0.202c0.021-0.107,0.111-0.241,0.264-0.396l-0.066-0.068l-0.087,0.022
	c0.641-1.572,1.393-3.604,2.256-6.129h0.022c0.045-0.045,0.066-0.132,0.066-0.243l-0.021-0.065l-0.112,0.108h-0.111
	c-0.266,0.245-0.862,0.798-1.149,1.085l0.021,0.155c-0.419,0.067-0.774,0.442-1.106,1.129c-0.199,0-0.421,0.152-0.686,0.485
	c-0.265,0.333-0.443,0.487-0.531,0.487c-0.066,0-0.354,0.355-0.84,1.084c-0.289,0.443-0.576,0.842-0.863,1.195h-0.377
	c-0.11,0-0.244-0.156-0.399-0.465c-0.154-0.331-0.309-0.509-0.464-0.553c0.244-0.222,0.531-0.555,0.863-0.973v-0.045
	c0-0.245,0.133-0.553,0.377-0.93l-0.045-0.135c0-0.22,0.111-0.571,0.31-1.058c0.221-0.489,0.332-0.844,0.332-1.085
	c0-0.112-0.044-0.444-0.044-0.555c0-0.599,0.486-1.128,1.084-1.193c0.464,0.263,0.685,0.551,0.685,0.861
	c-0.242,0.576-0.619,1.437-1.084,2.611l0.111,0.155c0.973-0.929,2.413-2.345,4.292-4.226v-0.134
	c0.111-0.111,0.265-0.442,0.443-0.442c0.154,0,0.486,0.089,0.642,0.089c0.221,0.22,0.399,0.442,0.553,0.663L38.778,115.195z
	 M37.097,114.907l0.044-0.087l0.021,0.044L37.097,114.907z"/>
<path fill="#D6287C" d="M39.512,122.342v0.997l-0.09,0.218l0.022,0.091h-0.088c-0.111-0.021-0.287,0.087-0.488,0.289
	c-0.154-0.09-0.375-0.223-0.662-0.4c0.287-1.351,0.686-2.588,1.15-3.718c0.156-0.243,0.333-0.595,0.575-1.104
	c0-0.111,0.133-0.442,0.377-0.976c0.243-0.529,0.353-0.883,0.332-1.038c0.244-0.109,0.376-0.244,0.376-0.354
	c0-0.265-0.132-0.51-0.376-0.709c0.353-0.288,0.73-0.598,1.129-0.972c0.376,0.02,0.574,0.24,0.64,0.641
	c0.045,0.289,0.112,0.396,0.2,0.375C40.551,119.555,39.512,121.79,39.512,122.342 M44.335,111.411h-0.93
	c-0.044,0-0.177-0.196-0.377-0.618l-0.109-0.243c0.375-0.511,0.686-0.774,0.93-0.774c0.199,0,0.486,0.333,0.863,0.975
	C44.644,110.859,44.512,111.082,44.335,111.411"/>
<path fill="#D6287C" d="M54.784,115.772c-0.177,0.374-0.443,0.952-0.775,1.727c-0.111,0.044-0.178,0.086-0.242,0.153
	c-0.045,0.066-0.289,0.643-0.732,1.748c-0.331,0.861-0.509,1.482-0.509,1.903c0,0.155,0,0.288,0.024,0.353
	c-0.089,0.155-0.135,0.4-0.111,0.71c-0.156,0.463-0.355,0.706-0.553,0.706l-0.112,0.155c-0.287-0.065-0.884-0.398-0.974-0.642
	c0-0.662,0.289-1.594,0.887-2.789c0.596-1.262,0.928-2.168,0.972-2.741c-0.443,0.198-1.107,0.973-2.013,2.345l-0.221,0.111
	c-0.354,0.397-0.62,0.729-0.818,0.995c-0.377,0.508-0.598,0.86-0.622,1.062c-0.197,0.023-0.441,0.222-0.752,0.599
	c-0.287,0.354-0.486,0.53-0.552,0.53c-0.266,0-0.443-0.045-0.553-0.134c-0.133-0.154-0.266-0.287-0.422-0.421
	c0.555-1.525,1.019-2.676,1.396-3.473l-0.267-0.11c0-0.11,0.111-0.244,0.332-0.355l-0.133-0.134c0,0.156-0.486,0.245-0.486,0.358
	l-0.088,0.131l0.088,0.11c-0.398,0.245-0.996,0.93-1.793,2.057c-0.795,1.129-1.193,1.881-1.216,2.302
	c-0.243,0.065-0.354,0.222-0.376,0.465c-0.066,0-0.398,0.222-0.553,0.222c-0.111,0-0.244-0.111-0.443-0.332
	c-0.177-0.242-0.265-0.42-0.265-0.53c0-0.177,0.22-0.289,0.22-0.31c0.068-0.2,0.289-0.842,0.664-1.947
	c0.333-0.996,0.598-1.572,0.753-1.681l-0.177-0.179c0.177-0.287,0.399-0.818,0.664-1.594c0.288-0.774,0.442-1.305,0.464-1.594
	c0.244-0.197,0.532-0.287,0.841-0.287c0.133,0,0.266,0.09,0.399,0.244c0.087,0.154,0.176,0.31,0.287,0.422
	c-0.354,0.529-0.73,1.392-1.129,2.588c0.443-0.332,0.974-0.776,1.572-1.306c0.022-0.111,0.022-0.223,0-0.375
	c0.244-0.157,0.398-0.357,0.465-0.621c0.066-0.286,0.221-0.42,0.464-0.441l0.199,0.131c0.11,0,0.354-0.2,0.442-0.2l0.112,0.135
	v0.065l0.198-0.2c0.155,0.2,0.333,0.333,0.487,0.38c-0.154,0.595-0.332,1.46-0.575,2.607c-0.11,0.069-0.177,0.133-0.177,0.201
	l0.067,0.155L49.075,119l-0.154,0.179l0.221,0.265l0.043-0.11l-0.065-0.154l1.194-1.24c0.287-0.287,0.685-0.708,1.217-1.238
	c1.372-1.393,2.079-2.08,2.146-2.08c0.09,0.021,0.289,0.089,0.619,0.199l0.134-0.067l-0.044-0.086l0.066,0.063l-0.022,0.022
	l0.177,0.067l0.177,0.178V115.772z M45.734,119.068l-0.022-0.109l-0.222,0.109v0.111L45.734,119.068z M46.044,118.581l-0.111-0.065
	l-0.31,0.288l0.089,0.111L46.044,118.581z"/>
<path fill="#D6287C" d="M62.206,115.041c-0.287,0.196-1.017,1.149-2.212,2.811c-0.464,0.684-1.15,1.682-2.079,3.031
	c-0.156,0.353-0.288,0.619-0.377,0.818c-0.043,0.311-0.066,0.466-0.066,0.485c-0.044,0.223-0.067,0.288-0.067,0.202
	c-0.111,0.042-0.22,0.109-0.287,0.197l0.154,0.044l-0.131,0.224l0.044,0.154h-0.244l0.089,0.221c-0.134,0.089-0.222,0.22-0.244,0.42
	c-0.287,0.266-0.553,0.397-0.797,0.397c-0.111,0-0.265-0.264-0.376-0.264c-0.022-0.199-0.022-0.422-0.022-0.62v-0.641
	c0-1.351,0.022-2.19,0.088-2.546l0.177-1.061c0-0.225-0.043-0.38-0.111-0.486c0.023-0.025,0.156-0.092,0.156-0.202
	c0-0.066-0.023-0.263-0.045-0.574c-0.021-0.109-0.021-0.223-0.021-0.309c0-0.112,0-0.201,0.021-0.268
	c-0.111-0.063-0.22-0.177-0.331-0.309v-0.577c0.22-0.044,0.531-0.199,0.908-0.487c0.109,0,0.287,0.069,0.53,0.225
	c0.198,0.155,0.331,0.286,0.442,0.42v0.354h-0.066c-0.111,0-0.178,0.109-0.198,0.354l0.02-0.091
	c0.024,0.068,0.024,0.178,0.024,0.289v0.398c-0.112,0.087-0.222,0.531-0.289,1.327c-0.065,0.775-0.088,1.282-0.044,1.527
	l-0.066-0.044l-0.178,0.178v0.286l0.133,0.132c1.395-2.323,2.611-4.094,3.629-5.265l0.022-0.091l-0.066-0.131
	c0.177,0,0.355-0.244,0.531-0.752c0.177-0.51,0.443-0.773,0.775-0.773l0.574,0.419V115.041z"/>
<path fill="#D6287C" d="M68.655,115.749l0.067,0.089c-0.067,0.065-0.354,0.596-0.863,1.637c-0.508,1.02-0.774,1.594-0.795,1.728
	l-0.112,0.178l0.045,0.106h-0.045l-0.22,0.202l0.198,0.242c-0.554,1.106-0.951,2.522-1.195,4.271h-0.664
	c-0.177,0-0.486-0.397-0.486-0.554l0.022-0.064l-0.088,0.021l-0.067-0.089c0-0.175,0.088-0.287,0.286-0.352l-0.175-0.07
	c0.354-0.197,0.508-0.572,0.464-1.148c0.266-0.223,0.399-0.73,0.376-1.505l0.221-0.199l-0.022-0.043
	c-0.199,0.178-0.509,0.465-0.884,0.885c-0.199,0.153-0.442,0.354-0.688,0.596l-0.906,0.908c-0.287,0.422-0.486,0.62-0.575,0.62
	c-0.266,0-0.952,0.177-1.217,0.177c-0.11-0.22-0.287-0.553-0.532-1.016c0.488-1.041,1.483-2.393,2.988-4.009
	c0.996-1.084,1.836-1.901,2.5-2.477c0.266-0.221,0.664-0.531,1.174-0.952c0.441-0.487,0.751-0.729,0.928-0.729
	c0.156,0,0.332,0.044,0.488,0.132c0.154,0.334,0.242,0.597,0.242,0.753L68.655,115.749z M66.089,117.319
	c-0.066,0.109-0.088,0.243-0.066,0.354c-0.421,0.354-1.039,0.907-1.859,1.681c-0.177,0.09-0.333,0.2-0.442,0.334l0.088,0.131
	c-0.199,0-0.731,0.62-1.594,1.838l0.223,0.221l0.221-0.088h0.066l-0.022-0.112l0.088-0.065c0.266,0,0.51-0.266,0.709-0.796
	l0.198,0.066l-0.11-0.133c0.354-0.375,0.863-0.953,1.549-1.727c0.332-0.42,0.797-0.905,1.373-1.504l-0.178-0.154l0.043-0.046
	l0.178,0.046c0-0.155,0.066-0.311,0.178-0.466C66.575,116.987,66.376,117.12,66.089,117.319"/>
<path fill="#D6287C" d="M76.28,115.749l0.067,0.089c-0.067,0.065-0.354,0.596-0.863,1.637c-0.508,1.02-0.774,1.594-0.797,1.728
	l-0.11,0.178l0.045,0.106h-0.045l-0.222,0.202l0.199,0.242c-0.553,1.106-0.951,2.522-1.194,4.271h-0.664
	c-0.177,0-0.486-0.397-0.486-0.554l0.022-0.064l-0.09,0.021l-0.067-0.089c0-0.175,0.088-0.287,0.289-0.352l-0.177-0.07
	c0.353-0.197,0.509-0.572,0.464-1.148c0.266-0.223,0.399-0.73,0.375-1.505l0.223-0.199l-0.023-0.043
	c-0.2,0.178-0.508,0.465-0.883,0.885c-0.201,0.153-0.443,0.354-0.688,0.596l-0.906,0.908c-0.289,0.422-0.488,0.62-0.577,0.62
	c-0.265,0-0.95,0.177-1.216,0.177c-0.111-0.22-0.288-0.553-0.531-1.016c0.486-1.041,1.482-2.393,2.988-4.009
	c0.996-1.084,1.836-1.901,2.5-2.477c0.266-0.221,0.664-0.531,1.172-0.952c0.443-0.487,0.752-0.729,0.93-0.729
	c0.154,0,0.332,0.044,0.487,0.132c0.155,0.334,0.243,0.597,0.243,0.753L76.28,115.749z M73.714,117.319
	c-0.066,0.109-0.088,0.243-0.066,0.354c-0.422,0.354-1.041,0.907-1.86,1.681c-0.176,0.09-0.332,0.2-0.441,0.334l0.088,0.131
	c-0.2,0-0.731,0.62-1.594,1.838l0.221,0.221l0.221-0.088h0.066l-0.021-0.112l0.088-0.065c0.267,0,0.511-0.266,0.708-0.796
	l0.199,0.066l-0.111-0.133c0.356-0.375,0.863-0.953,1.551-1.727c0.33-0.42,0.797-0.905,1.371-1.504l-0.178-0.154l0.045-0.046
	l0.178,0.046c0-0.155,0.066-0.311,0.176-0.466C74.2,116.987,74.001,117.12,73.714,117.319"/>
<path fill="#D6287C" d="M82.518,119.819c-0.11-0.045-0.376-0.088-0.796-0.108c-0.022-0.112-0.022-0.2-0.022-0.267v-0.064
	c0.022-0.201,0.089-0.511,0.2-0.93l0.088-0.069l0.109,0.069c0.023-0.199,0.067-0.511,0.111-0.907
	c0.044-0.355,0.178-0.601,0.42-0.708l-0.066-0.378l-0.618,0.399c-0.091,0.065-0.2,0.131-0.355,0.241
	c-0.465,0.331-0.687,0.576-0.687,0.753l0.09,0.113c-0.067,0.021-0.288,0.241-0.643,0.662c-0.441,0.375-0.929,1.016-1.437,1.901
	c-0.509,0.863-0.776,1.507-0.776,1.902c0,0.068,0.023,0.177,0.045,0.289c-0.11,0.066-0.309,0.289-0.619,0.642
	c-0.199,0.223-0.486,0.397-0.907,0.554c0-0.179-0.531-0.511-0.531-0.62c0.043-0.066,0.131-0.266,0.264-0.619v-0.068
	c0-0.33,0.289-1.104,0.842-2.3c0.553-1.195,0.841-2.034,0.841-2.521c0-0.178-0.156-0.598-0.156-0.751
	c0.244-0.511,0.488-0.753,0.752-0.753c0.401,0,0.688,0.065,0.842,0.196c0.155,0.113,0.244,0.797,0.42,0.997
	c0.289-0.377,0.862-0.951,1.682-1.681c0.929-0.819,1.527-1.24,1.793-1.24h0.53c-0.021,0.068,0.066,0.177,0.243,0.288
	c0.112,0.044,0.178,0.111,0.178,0.199C84.354,115.483,83.735,117.077,82.518,119.819"/>
<path fill="#D6287C" d="M89.155,115.44c-0.242,0-0.377,0.133-0.377,0.375c-0.176,0-0.574-0.066-0.751-0.066l-0.398,1.594
	c-0.488,1.967-1.018,3.519-1.572,4.623c-0.132,0.112-0.708,0.819-1.724,2.169l-0.201-0.044l-0.287,0.264h-0.708
	c-0.089,0-0.22-0.197-0.333-0.197c-0.176,0-0.354-0.464-0.53-1.372l0.176-0.222c0.09,0,0.443,0.09,1.062,0.243l0.156,0.2v-0.045
	l0.177-0.044l0.82-0.62c0.064-0.31,0.33-0.907,0.752-1.77c0.331-0.685,0.486-1.395,0.486-2.124c0.199-0.179,0.287-0.554,0.287-1.15
	c0-0.242,0.242-0.776,0.242-1.017c0.157-0.422,0.244-0.642,0.244-0.71c0-0.134-0.042-0.241-0.132-0.311
	c0.111-0.155,0.244-0.219,0.398-0.219c0.067,0,0.354-0.331,0.863-0.996v-0.111c0.2,0,0.731-0.045,0.93-0.045
	c0.133,0,0.266,0.133,0.399,0.399c0.131,0.243,0.199,0.441,0.199,0.597C89.333,114.998,89.155,115.329,89.155,115.44"/>
<path fill="#D6287C" d="M95.251,121.966l-0.133,0.111l-0.066,0.089c0,0.045-0.266,0.263-0.797,0.663
	c-0.221,0.153-0.553,0.376-0.996,0.664l-0.198,0.177c-0.2,0-0.488,0.087-0.863,0.243c-0.377,0.178-0.643,0.265-0.841,0.265
	c-0.089,0-0.288-0.087-0.62-0.242c-0.309-0.153-0.553-0.222-0.752-0.201l0.154-0.107c-0.088-0.024-0.265-0.179-0.507-0.444
	c-0.245-0.266-0.421-0.398-0.532-0.398c0.023-0.044,0.023-0.133,0.023-0.242c0-0.331-0.045-0.619-0.111-0.865
	c0.111-0.044,0.155-0.155,0.155-0.352c0-0.312-0.112-0.487-0.355-0.556c0.068-0.088,0.2-0.331,0.355-0.708
	c0.109-0.043,0.199-0.308,0.31-0.772c0.132-0.044,0.22-0.134,0.242-0.267c0.044-0.022,0.2-0.221,0.465-0.553
	c0.266-0.332,0.399-0.507,0.399-0.531l-0.044-0.066c0.11-0.043,0.376-0.33,0.796-0.839c0.067-0.112,0.155-0.199,0.22-0.311
	l-0.043-0.021c0.021-0.069,0.088-0.11,0.2-0.154l1.061-1.042c0.554-0.531,0.886-0.796,1.039-0.796c0.886,0,1.461,0.265,1.749,0.796
	c-0.022,0.619-0.332,1.261-0.908,1.902c-0.553,0.51-1.105,1.02-1.615,1.527c-0.022,0.065-0.11,0.088-0.242,0.088
	c-0.069,0.023-0.157,0.11-0.267,0.243c-0.11,0.067-0.243,0.134-0.398,0.22l0.043,0.091c-0.574,0.111-1.017,0.465-1.326,1.062
	l-0.111-0.045c-0.198,0-0.287,0.045-0.309,0.155l0.111,0.11l-0.2-0.09l-0.221,0.997c0,0.22,0.109,0.487,0.332,0.775
	c0.221,0.287,0.442,0.44,0.64,0.44l0.178,0.09c0.265,0,0.952-0.09,1.217-0.09c0.178-0.153,0.398-0.221,0.664-0.221
	c0.066,0,0.221-0.133,0.51-0.375c0.286-0.246,0.508-0.377,0.662-0.4l0.023-0.063l-0.132-0.068c0.308-0.309,0.507-0.465,0.574-0.465
	l0.088,0.023l-0.043,0.133v0.021l0.176-0.42c0.111,0,0.554-0.287,0.798-0.287h0.088c0.067,0.043,0.155,0.11,0.287,0.222
	C95.915,121.235,95.605,121.546,95.251,121.966 M94.278,115.903c-0.066-0.065-0.155-0.088-0.289-0.088
	c-0.198,0-0.662,0.421-1.438,1.262c-0.308,0.376-0.775,0.907-1.416,1.638l0.222,0.13l-0.046-0.109l0.112-0.065l0.289,0.065
	c0.199-0.177,0.531-0.44,1.015-0.817l0.112,0.11l0.111-0.198c0.222,0,0.709-0.665,1.482-2.015L94.278,115.903z"/>
<path fill="#D6287C" d="M107.604,121.966l-0.133,0.111l-0.066,0.089c0,0.045-0.266,0.263-0.799,0.663
	c-0.219,0.153-0.551,0.376-0.994,0.664l-0.199,0.177c-0.199,0-0.486,0.087-0.865,0.243c-0.373,0.178-0.641,0.265-0.838,0.265
	c-0.09,0-0.289-0.087-0.621-0.242c-0.309-0.153-0.553-0.222-0.752-0.201l0.154-0.107c-0.088-0.024-0.266-0.179-0.508-0.444
	s-0.422-0.398-0.531-0.398c0.023-0.044,0.023-0.133,0.023-0.242c0-0.331-0.045-0.619-0.111-0.865
	c0.111-0.044,0.154-0.155,0.154-0.352c0-0.312-0.111-0.487-0.354-0.556c0.066-0.088,0.199-0.331,0.354-0.708
	c0.111-0.043,0.199-0.308,0.311-0.772c0.133-0.044,0.219-0.134,0.242-0.267c0.045-0.022,0.201-0.221,0.465-0.553
	c0.266-0.332,0.398-0.507,0.398-0.531l-0.043-0.066c0.109-0.043,0.375-0.33,0.797-0.839c0.064-0.112,0.154-0.199,0.219-0.311
	l-0.043-0.021c0.021-0.069,0.088-0.11,0.199-0.154l1.062-1.042c0.553-0.531,0.885-0.796,1.039-0.796
	c0.885,0,1.461,0.265,1.748,0.796c-0.021,0.619-0.332,1.261-0.908,1.902c-0.553,0.51-1.104,1.02-1.615,1.527
	c-0.021,0.065-0.109,0.088-0.242,0.088c-0.066,0.023-0.156,0.11-0.268,0.243c-0.107,0.067-0.24,0.134-0.396,0.22l0.043,0.091
	c-0.574,0.111-1.016,0.465-1.324,1.062l-0.113-0.045c-0.197,0-0.287,0.045-0.309,0.155l0.111,0.11l-0.199-0.09l-0.223,0.997
	c0,0.22,0.111,0.487,0.332,0.775c0.221,0.287,0.443,0.44,0.641,0.44l0.178,0.09c0.266,0,0.953-0.09,1.217-0.09
	c0.178-0.153,0.398-0.221,0.662-0.221c0.07,0,0.225-0.133,0.512-0.375c0.287-0.246,0.51-0.377,0.664-0.4l0.021-0.063l-0.133-0.068
	c0.311-0.309,0.508-0.465,0.576-0.465l0.088,0.023l-0.045,0.133v0.021l0.178-0.42c0.111,0,0.553-0.287,0.795-0.287h0.09
	c0.066,0.043,0.156,0.11,0.287,0.222C108.269,121.235,107.958,121.546,107.604,121.966 M106.63,115.903
	c-0.066-0.065-0.154-0.088-0.289-0.088c-0.199,0-0.662,0.421-1.438,1.262c-0.309,0.376-0.773,0.907-1.416,1.638l0.223,0.13
	l-0.045-0.109l0.109-0.065l0.289,0.065c0.199-0.177,0.531-0.44,1.018-0.817l0.109,0.11l0.111-0.198c0.223,0,0.709-0.665,1.482-2.015
	L106.63,115.903z"/>
<path fill="#D6287C" d="M114.056,109.22c-0.242,0.378-0.42,0.62-0.553,0.711l0.199,0.063c-0.863,1.816-1.658,3.896-2.369,6.218
	c-0.064,0.089-0.173,0.312-0.33,0.645c-0.156,0.331-0.242,0.551-0.266,0.706c-0.109,0.753-0.33,1.526-0.619,2.303l-0.863,2.255
	l0.242,0.221v0.399c-0.506,0.929-1.016,1.394-1.547,1.394c-0.111,0-0.246-0.197-0.309-0.177c0-0.354,0.088-0.753,0.264-1.195
	c0.244-0.597,0.355-0.994,0.377-1.172l0.176,0.11c0-0.398,0.156-1.04,0.488-1.905c0.244-0.662,0.508-1.303,0.795-1.901
	c0-0.198,0.09-0.51,0.246-0.931c0.176-0.417,0.264-0.751,0.264-0.972l0.201-0.111l0.176-0.133l-0.066-0.131
	c0-0.176,0.066-0.444,0.199-0.775c0.133-0.354,0.199-0.619,0.199-0.796c0.33-0.64,0.641-1.416,0.928-2.346
	c0.223-0.796,0.443-1.592,0.686-2.413c0.113-0.108,0.201-0.243,0.223-0.419l-0.068-0.176v-0.332
	c0.135-0.024,0.246-0.068,0.334-0.154l-0.178-0.07c0.268-0.286,0.576-0.418,0.93-0.418l-0.088,0.153l0.045,0.046
	c0.42,0,0.641,0.176,0.641,0.508C114.411,108.558,114.3,108.823,114.056,109.22"/>
<path fill="#D6287C" d="M120.565,115.417c0.021,0.066,0.092,0.155,0.178,0.266c-0.199,0.287-0.441,0.598-0.73,0.908
	c-0.221,0.573-0.465,1.148-0.73,1.726l0.045,0.199c-0.066,0.044-0.156,0.109-0.221,0.221l0.064,0.044
	c-0.086,0.111-0.197,0.289-0.354,0.509l0.268,0.267l-0.111-0.044c-0.111,0.021-0.178,0.088-0.221,0.198l0.021,0.044l-0.068,0.178
	l-0.064-0.111c-0.066,0.354-0.09,0.665-0.09,0.906l-0.176-0.043c-0.312,1.062-0.488,1.97-0.531,2.698l-0.046,0.046l0.112,0.154
	c-0.043,0.022-0.199,0.2-0.465,0.487c-0.178,0.2-0.375,0.309-0.598,0.332l0.176-0.068c-0.154-0.153-0.396-0.22-0.75-0.22l0.176-0.2
	c-0.067-0.022-0.154-0.065-0.287-0.131c0.508-0.908,0.752-1.661,0.73-2.259c0.178-0.198,0.287-0.531,0.354-0.951
	c0.021-0.087,0.154-0.354,0.422-0.818v-0.242l-0.111-0.133c0,0-0.244,0.264-0.754,0.773c-0.219,0.244-0.619,0.643-1.195,1.239
	c-0.107,0.132-0.484,0.511-1.127,1.15c-0.396,0.397-0.863,0.599-1.416,0.599v-0.134h-0.066l-0.068-0.133
	c-0.02,0.043-0.152-0.09-0.375-0.377c0.111-0.088,0.154-0.31,0.154-0.685c0-0.199,0.068-0.312,0.178-0.375
	c-0.089-0.09-0.199-0.134-0.332-0.156c0.111-0.045,0.355-0.443,0.73-1.174c0.375-0.752,0.574-1.193,0.574-1.327l-0.107-0.176
	c0.373-0.354,0.551-0.775,0.551-1.24l0.111-0.111l0.111-0.134c-0.023-0.063-0.111-0.131-0.269-0.219l0.046-0.112l-0.066-0.087
	c0.111-0.11,0.311-0.245,0.555-0.421c0.109,0,0.375,0.067,0.463,0.067c0.199,0.108,0.51,0.285,0.908,0.486v0.375l-0.064,0.111
	l-0.113-0.067c-0.066,0.245-0.377,0.664-0.908,1.263c-0.109,0-0.176,0.198-0.219,0.597c-0.246,0.198-0.465,0.708-0.686,1.505
	c-0.068,0.2-0.111,0.375-0.18,0.553l-0.086,0.021c0,0.09,0.154,0.134,0.441,0.134c0.154,0,0.443-0.267,0.906-0.775
	c0.465-0.529,0.688-0.884,0.688-1.038c1.062-0.82,1.703-1.549,1.945-2.191c0.199-0.156,0.488-0.532,0.842-1.173
	c0.377-0.643,0.553-1.085,0.553-1.326c0.244,0,0.818-0.155,1.062-0.155c0.156,0,0.312,0.176,0.465,0.53L120.565,115.417z
	 M117.778,119.133c-0.088,0-0.178,0.046-0.264,0.155l0.219,0.177l-0.064-0.177c0.043-0.064,0.13-0.088,0.242-0.064L117.778,119.133z
	"/>
<path fill="#D6287C" d="M134.226,115.195c-0.064,0.111-0.133,0.245-0.176,0.354l-0.178,0.379c-0.045,0.198-0.111,0.486-0.221,0.861
	c-0.201,0.598-0.51,1.394-0.951,2.39l-0.355,0.819c-0.861,2.014-1.262,3.208-1.148,3.63c-0.201,0.197-0.4,0.309-0.598,0.309
	c-0.178,0-0.51-0.201-0.688-0.201c0.023-0.107,0.112-0.241,0.264-0.396l-0.064-0.068l-0.087,0.023
	c0.64-1.572,1.392-3.606,2.257-6.13h0.021c0.043-0.045,0.064-0.132,0.064-0.243l-0.021-0.065l-0.109,0.108h-0.109
	c-0.268,0.245-0.865,0.799-1.152,1.085l0.021,0.155c-0.42,0.067-0.771,0.442-1.105,1.129c-0.2,0-0.42,0.152-0.688,0.485
	c-0.263,0.332-0.443,0.487-0.529,0.487c-0.066,0-0.355,0.355-0.842,1.084c-0.289,0.443-0.574,0.842-0.861,1.196h-0.377
	c-0.11,0-0.244-0.156-0.398-0.465c-0.156-0.331-0.311-0.51-0.465-0.555c0.244-0.221,0.531-0.553,0.863-0.972v-0.045
	c0-0.244,0.133-0.553,0.377-0.93l-0.045-0.135c0-0.219,0.111-0.571,0.311-1.058c0.219-0.489,0.332-0.844,0.332-1.085
	c0-0.112-0.044-0.444-0.044-0.555c0-0.599,0.485-1.128,1.083-1.193c0.463,0.263,0.688,0.551,0.688,0.861
	c-0.246,0.576-0.621,1.437-1.086,2.611l0.109,0.155c0.977-0.929,2.415-2.345,4.295-4.226v-0.134
	c0.109-0.111,0.264-0.442,0.443-0.442c0.152,0,0.484,0.089,0.641,0.089c0.219,0.22,0.396,0.442,0.551,0.664L134.226,115.195z
	 M132.544,114.907l0.047-0.086l0.021,0.043L132.544,114.907z"/>
<path fill="#D6287C" d="M134.962,122.342v0.997l-0.09,0.218l0.02,0.091h-0.086c-0.111-0.021-0.287,0.087-0.488,0.288
	c-0.154-0.089-0.375-0.222-0.662-0.399c0.287-1.351,0.686-2.588,1.15-3.718c0.156-0.243,0.33-0.595,0.574-1.104
	c0-0.112,0.131-0.443,0.377-0.977c0.242-0.529,0.354-0.883,0.332-1.038c0.242-0.109,0.375-0.244,0.375-0.353
	c0-0.266-0.133-0.511-0.375-0.71c0.354-0.288,0.729-0.598,1.127-0.972c0.377,0.02,0.578,0.24,0.643,0.641
	c0.045,0.289,0.111,0.396,0.199,0.375C135.999,119.555,134.962,121.791,134.962,122.342 M139.782,111.411h-0.928
	c-0.045,0-0.178-0.196-0.377-0.618l-0.111-0.243c0.379-0.511,0.687-0.773,0.93-0.773c0.199,0,0.486,0.331,0.865,0.974
	C140.093,110.859,139.96,111.082,139.782,111.411"/>
<path fill="#D6287C" d="M150.231,115.771c-0.176,0.375-0.443,0.952-0.775,1.728c-0.111,0.044-0.176,0.086-0.242,0.153
	c-0.045,0.066-0.287,0.643-0.73,1.748c-0.332,0.861-0.51,1.482-0.51,1.903c0,0.155,0,0.288,0.023,0.352
	c-0.09,0.156-0.133,0.401-0.111,0.711c-0.154,0.463-0.354,0.705-0.553,0.705l-0.109,0.156c-0.289-0.065-0.887-0.398-0.975-0.641
	c0-0.663,0.287-1.595,0.885-2.79c0.598-1.262,0.928-2.167,0.975-2.74c-0.443,0.197-1.107,0.972-2.016,2.344l-0.221,0.111
	c-0.354,0.397-0.619,0.728-0.818,0.995c-0.377,0.509-0.598,0.86-0.621,1.061c-0.197,0.024-0.441,0.224-0.752,0.6
	c-0.287,0.354-0.486,0.529-0.551,0.529c-0.268,0-0.443-0.043-0.555-0.133c-0.133-0.154-0.266-0.287-0.422-0.42
	c0.555-1.527,1.02-2.677,1.396-3.474l-0.266-0.11c0-0.11,0.109-0.244,0.332-0.355l-0.135-0.134c0,0.156-0.484,0.245-0.484,0.358
	l-0.092,0.131l0.092,0.11c-0.398,0.245-0.996,0.93-1.793,2.057c-0.797,1.129-1.195,1.88-1.217,2.302
	c-0.244,0.066-0.354,0.222-0.377,0.465c-0.066,0-0.396,0.222-0.553,0.222c-0.111,0-0.246-0.11-0.443-0.332
	c-0.178-0.242-0.266-0.42-0.266-0.53c0-0.176,0.223-0.289,0.223-0.31c0.064-0.2,0.287-0.842,0.662-1.947
	c0.332-0.996,0.6-1.572,0.754-1.681l-0.176-0.18c0.176-0.286,0.396-0.817,0.662-1.593c0.288-0.774,0.443-1.305,0.465-1.594
	c0.242-0.197,0.529-0.286,0.84-0.286c0.133,0,0.266,0.089,0.399,0.243c0.087,0.154,0.177,0.31,0.288,0.422
	c-0.355,0.529-0.73,1.392-1.129,2.588c0.441-0.332,0.973-0.776,1.568-1.306c0.022-0.111,0.022-0.222,0-0.376
	c0.246-0.155,0.4-0.356,0.465-0.62c0.07-0.286,0.225-0.42,0.465-0.442l0.201,0.132c0.109,0,0.355-0.2,0.441-0.2l0.111,0.135v0.065
	l0.197-0.2c0.156,0.2,0.334,0.334,0.488,0.38c-0.154,0.596-0.332,1.46-0.574,2.607c-0.111,0.069-0.178,0.133-0.178,0.201
	l0.066,0.155L144.522,119l-0.152,0.179l0.219,0.265l0.043-0.11l-0.064-0.154l1.193-1.24c0.287-0.287,0.688-0.708,1.217-1.238
	c1.373-1.394,2.082-2.08,2.148-2.08c0.088,0.021,0.289,0.089,0.619,0.2l0.135-0.068l-0.047-0.086l0.068,0.063l-0.021,0.022
	l0.176,0.068l0.176,0.177V115.771z M141.181,119.068l-0.021-0.109l-0.221,0.109v0.111L141.181,119.068z M141.491,118.581
	l-0.109-0.065l-0.311,0.288l0.088,0.111L141.491,118.581z"/>
<path fill="#D6287C" d="M156.437,121.966l-0.133,0.111l-0.066,0.089c0,0.045-0.266,0.264-0.799,0.663
	c-0.221,0.153-0.551,0.376-0.994,0.664l-0.199,0.177c-0.199,0-0.486,0.087-0.863,0.243c-0.375,0.178-0.643,0.265-0.84,0.265
	c-0.09,0-0.289-0.087-0.621-0.242c-0.311-0.153-0.553-0.222-0.752-0.201l0.154-0.107c-0.088-0.023-0.266-0.179-0.508-0.444
	c-0.244-0.266-0.422-0.398-0.531-0.398c0.023-0.043,0.023-0.132,0.023-0.242c0-0.331-0.045-0.619-0.113-0.865
	c0.113-0.043,0.156-0.155,0.156-0.352c0-0.312-0.111-0.487-0.354-0.555c0.066-0.089,0.197-0.332,0.354-0.708
	c0.111-0.044,0.197-0.309,0.309-0.774c0.135-0.043,0.221-0.133,0.244-0.266c0.045-0.022,0.201-0.221,0.465-0.552
	c0.266-0.333,0.398-0.508,0.398-0.532l-0.043-0.066c0.109-0.043,0.375-0.33,0.797-0.839c0.064-0.112,0.154-0.2,0.219-0.312
	l-0.043-0.021c0.021-0.069,0.088-0.11,0.199-0.154l1.062-1.042c0.553-0.531,0.885-0.796,1.039-0.796
	c0.885,0,1.461,0.265,1.748,0.796c-0.021,0.62-0.332,1.261-0.906,1.902c-0.555,0.51-1.107,1.02-1.615,1.527
	c-0.023,0.065-0.111,0.088-0.244,0.088c-0.068,0.023-0.156,0.11-0.268,0.244c-0.107,0.066-0.24,0.133-0.396,0.219l0.042,0.091
	c-0.573,0.111-1.017,0.465-1.323,1.063l-0.113-0.046c-0.197,0-0.287,0.046-0.311,0.155l0.113,0.11l-0.2-0.089l-0.222,0.996
	c0,0.22,0.111,0.487,0.332,0.775c0.221,0.287,0.443,0.44,0.64,0.44l0.179,0.089c0.266,0,0.951-0.089,1.217-0.089
	c0.178-0.153,0.398-0.221,0.664-0.221c0.068,0,0.223-0.133,0.51-0.375c0.285-0.245,0.51-0.377,0.664-0.4l0.021-0.063l-0.133-0.068
	c0.309-0.309,0.508-0.465,0.576-0.465l0.086,0.023l-0.043,0.133v0.021l0.176-0.42c0.113,0,0.555-0.287,0.797-0.287h0.09
	c0.066,0.043,0.155,0.11,0.287,0.223C157.101,121.235,156.79,121.546,156.437,121.966 M155.462,115.903
	c-0.066-0.065-0.154-0.088-0.287-0.088c-0.201,0-0.664,0.421-1.439,1.262c-0.311,0.376-0.775,0.907-1.416,1.639l0.223,0.129
	l-0.045-0.109l0.109-0.065l0.289,0.065c0.199-0.176,0.529-0.44,1.016-0.817l0.111,0.11l0.111-0.198c0.223,0,0.709-0.665,1.482-2.015
	L155.462,115.903z"/>
<path fill="#D6287C" d="M162.888,109.222c-0.242,0.376-0.42,0.618-0.553,0.709l0.199,0.063c-0.863,1.816-1.658,3.896-2.367,6.218
	c-0.066,0.089-0.178,0.312-0.334,0.645c-0.154,0.332-0.24,0.551-0.264,0.706c-0.109,0.753-0.332,1.526-0.62,2.303l-0.862,2.255
	l0.242,0.221v0.4c-0.508,0.928-1.016,1.393-1.547,1.393c-0.111,0-0.244-0.197-0.311-0.176c0-0.354,0.09-0.754,0.266-1.196
	c0.242-0.597,0.355-0.994,0.377-1.172l0.176,0.11c0-0.398,0.156-1.04,0.488-1.905c0.244-0.662,0.508-1.303,0.795-1.901
	c0-0.197,0.09-0.509,0.246-0.931c0.176-0.417,0.264-0.751,0.264-0.972l0.201-0.11l0.176-0.134l-0.066-0.13
	c0-0.177,0.066-0.444,0.199-0.776c0.133-0.354,0.199-0.619,0.199-0.796c0.33-0.64,0.641-1.416,0.928-2.346
	c0.221-0.796,0.441-1.592,0.686-2.413c0.111-0.108,0.201-0.243,0.221-0.419l-0.064-0.175v-0.332c0.133-0.025,0.244-0.07,0.33-0.155
	l-0.176-0.07c0.266-0.285,0.576-0.418,0.93-0.418l-0.088,0.153l0.045,0.046c0.42,0,0.641,0.176,0.641,0.508
	C163.243,108.558,163.132,108.823,162.888,109.222"/>
<path fill="#D6287C" d="M165.138,121.434c-0.056,0.31-0.109,0.613-0.154,0.906c-0.178,0.547-0.662,0.822-1.461,0.822
	c-0.68,0-1.018-0.358-1.018-1.064c0-0.547,0.457-0.819,1.373-0.819C164.351,121.279,164.771,121.332,165.138,121.434
	 M170.144,107.862c-0.828,1.521-1.434,2.807-1.816,3.853c-0.486,1.344-1.271,2.917-1.299,4.347
	c-0.016,0.548-0.193,1.783-0.445,2.165c-0.295,0.458-0.699,0.667-1.217,0.621l-0.576-0.045l-0.021-0.708
	c-0.016-0.398,1.229-3.583,2.584-7.64c0.088-0.324,0.242-0.815,0.465-1.475c0.221-0.655,0.488-1.042,0.799-1.161
	c0.162-0.059,0.346-0.09,0.551-0.09C169.376,107.729,169.7,107.774,170.144,107.862"/>
<path fill="#D6287C" d="M67.317,113.262l-0.484-0.26c-0.024-0.012,0.045-0.306,0.232-0.907c0.038-0.125,0.076-0.251,0.111-0.346
	c0.549-0.552,0.893-0.806,1.02-0.738c0.104,0.057,0.025,0.565-0.223,1.499C67.862,112.633,67.639,112.882,67.317,113.262"/>
<path fill="#D6287C" d="M70.489,113.262l-0.485-0.26c-0.025-0.012,0.022-0.264,0.162-0.776c0.029-0.108,0.058-0.217,0.085-0.294
	c0.494-0.447,0.806-0.647,0.933-0.577c0.106,0.055,0.063,0.496-0.113,1.294C70.971,112.748,70.774,112.95,70.489,113.262"/>
<path fill="#D6287C" d="M74.755,113.262l-0.484-0.26c-0.024-0.012,0.046-0.306,0.232-0.907c0.039-0.125,0.078-0.251,0.111-0.346
	c0.551-0.552,0.893-0.806,1.02-0.738c0.105,0.057,0.025,0.565-0.221,1.499C75.3,112.633,75.077,112.882,74.755,113.262"/>
<path fill="#D6287C" d="M77.926,113.262l-0.483-0.26c-0.026-0.012,0.026-0.274,0.177-0.803c0.03-0.113,0.061-0.222,0.088-0.305
	c0.504-0.47,0.824-0.68,0.951-0.611c0.106,0.056,0.055,0.511-0.135,1.336C78.421,112.726,78.219,112.938,77.926,113.262"/>
</svg>
