<svg xmlns="http://www.w3.org/2000/svg" class="hed__title--logo" viewBox="0 0 138 171" width="284" height="352"><g fill="none" fill-rule="evenodd"><path fill="#F5B724" d="m77.04 11.28-5 4.16a5.4 5.4 0 0 0-4.47-2.37 5.4 5.4 0 0 0-4.48 2.37l-5-4.16c3.04-.24 6.14-.34 9.49-.34 3.35 0 6.44.1 9.46.34zm45.28 21.1c3.62 6.43 6.18 13.55 10.5 19.57l.38 1.32-.04.47.93 2.86c1.21 2.44 4.33 8.8 3.86 11.63l-.12.5-.43 1.06-.14.29-1.73 2.87-.84.76c-1.37.69-2.47 1.7-2.72 3.26l-1.01 1.53c-.36.2-.75.34-1.12.43-1.67 2.13-4.62 6.12-5.94 9.27a58.7 58.7 0 0 1 4.88 23.48c0 32.76-26.82 59.32-59.9 59.32s-59.9-26.56-59.9-59.31a58.67 58.67 0 0 1 7.65-29.02 893.51 893.51 0 0 0-5.45-5.54c-.48.05-.8.12-.98.2l-1.64-.1-.87-.44-1.09-2c-.05-2.21-3.32-3.52-4.98-4.63L.75 68.8 0 64.1l.02-.75 2.04-9.02.11-.34s.1-.25.31-.62c.8-1.52 2-2.98 3.64-3.65 3.52-5.7 6.97-11.45 10.09-17.37-5.25-7.88.97-15.57 7.48-19.94h.16c-.24-2.67-1.46-5.27-2.62-7.66l.33-2.22.77-.84 1.6-.66s.3 0 .87.13c3.3.7 6.16 3.01 8.5 5.29a11.1 11.1 0 0 0-1.38-2.48l-.02-2.53.68-.85L34.97 0s.67.28 1.82.97a29.71 29.71 0 0 1 6.28 5.05c7.39-1.48 17.15-2.68 24.52-2.68 7.33 0 18.7.65 27.89 3.96a33.86 33.86 0 0 1 11.4-7.3l1.75.14.75.43.43 3.14s-.69.71-1.54 2l-.3.46a54.61 54.61 0 0 1 8.18-2.5l2.2.88.46.74-.72 2.81-.38.25c-2.21 1.5-4.25 4.02-4.71 6.69 3.19 2.15 6.84 6.03 9.25 9.06l.14.2s.12.19.28.56c.93 2.26.68 5.34-.35 7.52z"/><path fill="#1C4483" fill-rule="nonzero" d="M67.19 5.5C75.2 5.5 84 6 92.06 8.55l-2.84 2.9-2.92-.8-.29.08-16.55 13.84-.12.26v6.58c-.73 1.05-1.77 1.97-2.32 2.8-.55-.83-1.3-1.75-2.02-2.8v-6.58l-.12-.26-16.56-13.84-.3-.07-1.31.25-2.84-2.9a108.2 108.2 0 0 1 23.32-2.53zm-.01 3.58c-4.92 0-9.33.2-13.76.76l-.18.6 9.97 8.22.58-.25a3.36 3.36 0 0 1 3.38-3.19c1.82 0 3.3 1.42 3.38 3.19l.57.25 9.97-8.23-.18-.6c-4.43-.55-8.8-.75-13.73-.75zm20.68 6.65 1.07-.85-.07-.17s1.58-2.63 2.58-3.1l.74.6.01.29c.85-.48 1.53-.76 1.53-.76s4.07-4.12 6.93-6.17c2.87-2.06 6.83-3.54 6.83-3.54l.75.43s-3.23 3.26-4.67 8.57c1.33-.9 3.03-1.95 4.5-2.61 2.97-1.35 8.5-2.65 8.5-2.65l.47.74s-3.29 1.82-5.13 5.45a8.63 8.63 0 0 0-1.1 4.29c4.34 2.4 9.81 9.22 9.81 9.22s.93 1.53.36 4.49c-.34 1.76-1.06 2.52-1.06 2.52s1.2 1.77 4.84 9.32c3.64 7.57 6.44 11.42 6.44 11.42l-.06.87.2 1.53s1.75 3.47 3.31 7.08c1.57 3.6 1.35 5.37 1.35 5.37l-.43 1.06s-.25.7-.72 1.53c-.48.82-1.02 1.34-1.02 1.34s-1.88.93-2.69 2.07c-1.02 1.45-1.16 2.76-1.16 2.76-1 .56-3.23.47-4.4.2-1.15-.27-3.9.22-3.9.22l-1.02-.43-1.8.13s-2.78-1.44-3.6-4.02c-.39-1.24-1.3-1.74-1.3-1.74a34.64 34.64 0 0 0-1.12-1c-.26.7-.74 1.97-1.13 3.11a56.5 56.5 0 0 1 15.06 38.43c0 31.63-26.1 57.27-58.27 57.27-32.2 0-58.28-25.64-58.28-57.27A56.54 56.54 0 0 1 26.8 71.7c-.74-1.45-1.55-4.63-2.05-5.2l-.35-.3c-1.74 2.36-3 6.76-3.93 7.72-1.08 1.14-2.83.2-2.83.2l-.89.94s-6.08-.28-8.07.46l-.87-.45s.23-2.12-1.53-3.43a124 124 0 0 0-4.37-3.06s-.73-1.57-.87-2.72a5.06 5.06 0 0 1 .11-1.99l2.06-9s1.2-2.83 3.3-3.32l.64-.88s3.49-5.48 7.06-11.73a196.37 196.37 0 0 0 3.65-6.68c-.73-.79-2.7-3.37-2.19-7.62.63-5.2 8.46-10.43 8.46-10.43l1.07.74c.1-1.3.08-3.26-.5-5.08-1-3.09-2.34-5.85-2.34-5.85l.77-.83s3.04.14 7.35 4.13a38.52 38.52 0 0 1 4.58 5.02l.77.02a7.48 7.48 0 0 0-.01-1.62c-.59-5.04-2.97-7.9-2.97-7.9l.68-.84s2.33.98 5.6 3.77c3.7 3.13 6.18 7.44 6.18 7.44s.73.47 1.66 1.31l.87-.67s2.9 3.2 7.65 7.63c4.09 3.82 9.7 12.67 11.17 15.05 1.52-1.93 6.38-8.03 9.12-10.53a392.98 392.98 0 0 1 12.07-10.27zm22.43 52.72c-.58-.56-.74-1.07-.74-1.07s-2.19-4.41-6.1-8.3c-3.9-3.9-4.16-3.42-4.16-3.42s-1.7 3.08-2.76 5.85a58.14 58.14 0 0 1 12.83 9.4c.34-.96.72-2 .93-2.46zm-84.25-4.31.25.43c.66.82 2.33 2.97 3.07 4.73a58.26 58.26 0 0 1 11.3-7.9 37.54 37.54 0 0 0-1.75-5.83c-2.4 1.4-5.28.59-5.28.59l-7.6 7.98z"/><ellipse cx="68" cy="112" fill="#FFF" rx="53" ry="52"/><path fill="#1C4483" fill-rule="nonzero" d="M26.5 122.34c.13.47-.17.57-.4.63l-2.4.77c-1.07.34-1.12 1.18-.94 1.7.26.8.97 1.02 1.25 1.08l-.69.24.6 1.8.23-.08c-.07-.4-.03-.53.4-.67l2.82-.9c.47-.15.56 0 .75.32l.23-.08-.76-2.27-.23.07c.1.45-.17.56-.4.64l-2.56.81c-.08.03-.69-.22-.81-.6-.17-.51.35-.69.62-.77l2.32-.74c.36-.11.57-.04.7.27l.23-.08-.73-2.2-.23.06zm-5.03-2.5.2.91-1.67.36.05.24c1.1.46 1.63.8 2.18 1.22l.27-.04-.11-.51 3.2-.67c.2-.05 1.03-.27.8-1.31-.2-.88-.95-1.08-1.42-1.2l-.05.27c.22.06.57.17.63.45.08.38-.32.46-.48.49l-2.97.62-.2-.91-.43.09zM22.8 117c-1.39.13-1.64-.19-1.67-.55-.03-.36.21-.5.42-.58.3-.1.82-.15 1.13-.19l.12 1.32zm1.37-2.48c.25.17.72.47.77 1.06.09.93-.92 1.24-1.77 1.34l-.22-2.48c-.54.07-2.28.35-2.12 2.07.1 1.13 1.12 1.95 2.6 1.82 1.73-.14 2.38-1.21 2.3-2.2-.08-.8-.45-1.34-1.44-1.86l-.12.25zm.92-3.61c-.02.6-.18.72-.79.74l-1.9.03c-.74.01-.97-.42-.97-.57-.01-.32.59-.32.58-.9-.01-.49-.43-.62-.7-.62a.76.76 0 0 0-.76.84c.01.64.62 1.07.94 1.29l-.8.03.03 1.87h.25c.03-.3.08-.54.58-.55l2.97-.05c.5-.02.55.2.61.53h.25l-.05-2.65h-.24zm.5-6.91c-.06.48-.38.46-.62.44l-2.52-.22c-1.1-.1-1.5.66-1.54 1.2-.07.83.5 1.31.72 1.47l-.72-.04-.17 1.88.24.02c.1-.38.19-.5.64-.47l2.96.26c.49.04.52.2.55.57l.24.02.22-2.38-.24-.02c-.1.46-.39.46-.62.44l-2.69-.23c-.09-.01-.54-.48-.5-.88.04-.53.6-.5.88-.47l2.43.21c.37.04.53.2.53.52l.24.02.2-2.32-.23-.02zm.95-5.27.07.12c.02.03.02.06.01.1-.06.21-.25.16-.3.14l-2.54-.7c-.9-.26-1.57.46-1.88 1.52-.35 1.18.07 1.95.68 2.12.66.19.81-.33.85-.44.14-.5-.18-.74-.36-.8-.38-.1-.54.16-.74.1-.16-.04-.29-.31-.19-.66.2-.7.6-.73 1.1-.59l.71.2c.02 1.47.06 2.78 1.06 3.07.74.2 1.21-.3 1.35-.76.06-.23.21-.9-.24-1.7.29.02.72.06.91-.61.13-.43 0-.85-.25-1.2l-.24.08zm-.85 1.6c.11.19.31.48.22.8-.1.34-.5.39-.8.3-.84-.23-.84-1.26-.82-1.49l1.4.4zm-1.64-6.47-.35.85-1.58-.62-.1.23c.66.99.9 1.56 1.11 2.22l.26.1.2-.48 3.03 1.2c.2.07 1 .35 1.4-.65.34-.83-.17-1.4-.49-1.77l-.2.2c.16.17.39.44.28.71-.15.37-.53.2-.68.15l-2.82-1.12.36-.86-.41-.17zm5.18-1c-.19.34-.42.33-.71.22l-3.56-1.42-.72 1.77.22.1c.21-.34.33-.45.75-.28l2.75 1.1c.45.17.41.34.36.7l.23.1.9-2.2-.22-.09zm-6.25-.4a.77.77 0 0 0 1.01-.42.75.75 0 0 0-.42-1 .79.79 0 0 0-1.03.42c-.17.41.04.85.44 1zm5.5-2.47c-1.02-.53-1.88-1.03-1.53-1.68.29-.54.9-.41 2.26.3 1.14.6 1.86 1.06 1.53 1.66-.37.7-1.3.22-2.26-.28zm-.7 1.29c1.15.6 2.58.37 3.24-.85.64-1.19.08-2.48-1.1-3.1-1.24-.64-2.63-.3-3.25.83-.66 1.22-.04 2.52 1.1 3.12zm7.7-7.8c-.33.36-.57.17-.75.02l-1.98-1.56c-.86-.7-1.6-.28-1.95.15a1.59 1.59 0 0 0-.24 1.62l-.58-.44-1.22 1.47.2.15c.3-.27.44-.32.79-.04l2.3 1.83c.4.31.31.47.14.79l.19.15 1.53-1.86-.19-.15c-.33.33-.58.17-.76.02l-2.1-1.67c-.06-.05-.17-.68.08-1 .35-.4.78-.07 1 .1l1.9 1.51c.29.23.33.45.15.72l.18.15 1.5-1.81-.19-.15zm3.23-4v.13c0 .04-.01.08-.04.1-.16.16-.3.02-.33-.01l-1.9-1.8c-.68-.65-1.62-.3-2.4.48-.86.89-.86 1.75-.4 2.18.49.47.87.09.95 0 .36-.36.2-.73.06-.86-.28-.27-.55-.1-.7-.25-.12-.11-.1-.41.15-.67.52-.53.89-.37 1.26-.02l.53.5c-.69 1.3-1.29 2.49-.53 3.2.55.53 1.2.3 1.55-.05.17-.16.62-.7.6-1.6.25.14.61.38 1.1-.12.31-.33.4-.75.36-1.17l-.26-.05zM37.2 80.5c.02.2.05.55-.19.8-.25.26-.61.12-.84-.1-.63-.6-.15-1.5-.03-1.7l1.06 1zm4.22-2.71c-.3.24-.58.07-.77-.15l-3.84-4.5-1.47 1.21.16.19c.38-.32.7.03.77.12l3.3 3.87c.16.17.31.52 0 .78l.16.17 1.85-1.52-.16-.17zm3.25-6.1.26-.14c.59-.29 1.44-.59 2.14.66.3.52.62 1.36-.35 1.89-.37.2-.61.14-.83-.24l-1.22-2.17zm-1.25-2.2c-.1-.2-.22-.44.23-.68.72-.39 1.2.02 1.54.62.5.88.51 1.36-.67 2l-1.1-1.95zm.74 6.36L47 74.3c1.84-1.04 1.98-2.23 1.56-2.95-.55-1-1.72-.92-2.54-.64.3-.33 1.18-1.1.63-2.06-.76-1.35-2.58-.4-3.07-.14L40.85 70l.12.21c.42-.2.8-.38 1.12.19l2.37 4.2c.3.53.04.71-.43 1.03l.13.22zm8.58-4.61c-.58.22-.75.13-1-.42l-.77-1.7c-.3-.67.01-1.05.15-1.1.3-.14.53.4 1.06.17.46-.2.42-.63.31-.87-.09-.22-.45-.64-1.08-.37-.6.26-.76.99-.83 1.35l-.35-.7-1.74.76.1.2c.3-.07.53-.12.74.33l1.2 2.66c.21.46.03.58-.24.76l.1.22 2.45-1.07-.1-.22zm2.51-2.98c-.36-1.08-.62-2.03.1-2.25.58-.2.92.32 1.4 1.77.4 1.2.6 2.02-.07 2.23-.77.25-1.1-.74-1.43-1.75zm-1.4.45c.4 1.22 1.58 2.02 2.91 1.6 1.3-.42 1.82-1.73 1.4-2.98-.43-1.31-1.66-2.01-2.91-1.61-1.34.42-1.81 1.77-1.4 2.98zm7.6-4.29-.93.2-.36-1.64-.24.05a8.63 8.63 0 0 1-1.25 2.14l.06.26.5-.1.69 3.13c.05.21.27 1.01 1.33.8.9-.2 1.1-.94 1.22-1.4l-.27-.05c-.07.22-.17.56-.45.62-.4.09-.48-.32-.51-.48l-.63-2.91.93-.2-.1-.42zm6.77 3.59c-.49.06-.54-.37-.56-.54l-.31-2.43c-.14-1.09-.97-1.3-1.52-1.23-.51.07-.92.33-1.33.95L64.14 62l-1.92.23.03.23c.4.04.55.05.6.51l.63 5.02c.06.48-.1.55-.46.65l.03.24 2.41-.3-.02-.22c-.47 0-.53-.28-.57-.5l-.32-2.63c-.02-.1.36-.63.76-.67.54-.07.62.47.65.74l.3 2.38c.04.37-.07.55-.4.62l.03.24 2.35-.28-.03-.24zm2.64-2.32c.12-1.35.49-1.55.86-1.52.35.04.46.3.5.52.06.3 0 .82-.01 1.12l-1.35-.12zm2.26 1.76c-.21.21-.6.62-1.2.57-.96-.09-1.08-1.12-1.04-1.96l2.53.22c.02-.53.04-2.26-1.7-2.4-1.16-.1-2.16.74-2.29 2.2-.15 1.69.81 2.5 1.83 2.6.8.06 1.4-.2 2.1-1.07l-.24-.16zm3.54 1.49c-.6-.15-.69-.32-.57-.9l.36-1.85c.14-.71.62-.84.77-.81.32.06.2.63.77.74.5.1.71-.28.76-.53a.76.76 0 0 0-.67-.91c-.65-.13-1.2.37-1.47.63l.13-.77-1.88-.36-.04.24c.29.1.52.18.42.68l-.56 2.85c-.1.49-.33.48-.65.48l-.05.23 2.64.5.04-.22zm6.92 1.67c-.48-.14-.37-.55-.31-.71l.68-2.36c.31-1.05-.37-1.56-.9-1.7-.51-.15-.99-.06-1.6.34l.77-2.67-1.86-.53-.07.23c.36.18.49.25.36.7l-1.42 4.85c-.13.47-.3.46-.68.43l-.07.23 2.34.66.06-.23c-.43-.18-.37-.46-.3-.68l.73-2.54c.02-.09.58-.43.97-.33.52.15.38.68.3.94l-.67 2.3c-.1.36-.3.49-.62.42l-.07.23 2.28.65.07-.23zm2.83-1.01c.43-1.05.85-1.94 1.54-1.67.57.23.5.83-.07 2.24-.48 1.17-.88 1.93-1.52 1.67-.75-.3-.36-1.25.05-2.24zm-1.37-.55c-.5 1.19-.1 2.56 1.19 3.07 1.27.5 2.52-.17 3.03-1.4.52-1.27.04-2.59-1.19-3.08-1.3-.5-2.55.22-3.03 1.41zm6.73 3.02c.63-.95 1.21-1.74 1.83-1.35.53.33.34.91-.5 2.2-.7 1.04-1.23 1.7-1.82 1.34-.67-.44-.1-1.3.5-2.2zm-1.24-.8c-.72 1.09-.6 2.5.57 3.25 1.16.72 2.5.3 3.24-.81.77-1.16.55-2.54-.56-3.25-1.18-.75-2.54-.26-3.25.81zm7.5 7.52c-.44-.37-.27-.6-.1-.81l3.65-4.43-1.69-1.34-.15.18c.4.38.57.52.23.93l-1.16 1.4c-.02-.34-.06-.83-.53-1.2-.74-.6-2.05-.57-3.14.77-.94 1.12-.74 2.34-.09 2.86.58.46.98.43 1.5.36l-.41.5c.6.26.67.3 1.74.96l.15-.18zm-1.12-1.76c-.07.08-.73.3-1.1.02-.62-.5.2-1.5.57-1.95.62-.74 1.3-1.35 1.85-.9.44.34.23.95.22.96l-1.54 1.87zm6.12 4.04c.89-.73 1.68-1.33 2.16-.76.4.46.05.97-1.14 1.95-.98.8-1.68 1.29-2.13.76-.53-.6.28-1.27 1.11-1.95zm-.95-1.12c-1 .83-1.31 2.2-.41 3.26.88 1.03 2.31 1 3.34.16 1.07-.89 1.27-2.26.42-3.26-.9-1.05-2.35-.98-3.35-.16zm1.56 5.32 1.6 2.26.2-.14c-.36-.54-.39-.73.18-1.11l2.6-1.8.5.72.36-.25-.5-.71 1-.69c.23-.16.65-.43.93-.04.06.1.15.26.02.35-.13.09-.39 0-.61.15a.56.56 0 0 0-.1.79c.23.32.58.36.87.16.57-.4.4-1.18.04-1.67-1.04-1.47-2.15-.72-2.96-.17l-.33-.47-.36.25.33.46-2.75 1.9c-.44.3-.6.13-.83-.12l-.2.13zm5.76 9.26c-.26-.69-.34-.91.44-1.26l4.86-2.12c.25.64.62 1.59-.77 2.42l.12.26 1.84-.82-2.46-5.44-1.86.79.12.26c1.55-.47 2.02.45 2.34 1.06l-4.85 2.12c-.77.35-.9.14-1.25-.5l-.23.1 1.47 3.23.23-.1zm3.38 1.57c1.32-.43 1.64-.17 1.76.18.1.33-.1.52-.29.65-.26.17-.76.33-1.06.43l-.41-1.26zm-.77 2.72c-.28-.1-.8-.3-1-.86-.29-.9.62-1.41 1.43-1.7l.78 2.37c.51-.2 2.14-.85 1.6-2.49-.36-1.08-1.55-1.65-2.96-1.2-1.65.52-2.04 1.71-1.72 2.67.25.75.74 1.19 1.81 1.48l.06-.27zm.66 5.45-.11-.08c-.11-.3.07-.33.13-.35l2.58-.54c.93-.19 1.17-1.14.93-2.2-.26-1.22-1-1.7-1.61-1.57-.67.14-.56.66-.54.78.11.5.52.57.7.53.38-.08.4-.38.6-.43.16-.03.4.15.48.5.16.72-.18.93-.68 1.03l-.72.16c-.72-1.3-1.39-2.44-2.41-2.23-.76.16-.93.82-.83 1.3.06.22.25.89 1.02 1.39-.26.11-.66.28-.5.95.09.44.4.75.79.95l.17-.19zm-.02-1.82c-.19-.1-.5-.27-.57-.6-.08-.34.24-.56.55-.63.86-.17 1.36.72 1.45.93l-1.43.3zm.22 10.67c0-.5.3-.5.56-.5l2.54-.05c1.1-.02 1.4-.8 1.4-1.35-.02-.57-.31-1.01-.92-1.45.33-.15.88-.4.86-1.31a1.63 1.63 0 0 0-.87-1.4l.72-.02-.03-1.9h-.24c-.04.3-.06.56-.58.57l-2.98.05c-.49 0-.54-.21-.6-.54h-.25l.05 2.39.23-.01c.04-.39.26-.47.58-.47l2.69-.04c.08 0 .59.38.6.81 0 .54-.5.55-.83.56l-2.45.04c-.22 0-.54 0-.57-.46h-.25l.05 2.32h.23c.03-.39.25-.48.57-.49l2.7-.04c.08 0 .59.4.6.82 0 .54-.52.55-.83.55l-2.44.04c-.24 0-.56 0-.58-.47h-.25l.04 2.36h.25zm2.64 4.1 1.46.13.02-.22c-.08-.03-.2-.08-.18-.26.02-.19.27-.57.32-1.04.07-.9-.46-1.62-1.34-1.7-1.55-.13-1.7 2.23-2.62 2.14a.66.66 0 0 1-.6-.75c.1-1.1 1.17-1.24 1.44-1.28l.03-.28-1.66-.14-.02.25c.19.11.27.18.26.3-.01.08-.36.73-.4 1.22-.09.91.45 1.6 1.4 1.68 1.65.15 1.63-2.18 2.65-2.1.31.03.55.33.51.68-.04.56-.51.98-1.25 1.13l-.02.25zm.6 4.27.18-.9 1.67.3.05-.24a8.75 8.75 0 0 1-1.52-1.96l-.27-.05-.1.5-3.2-.61c-.21-.03-1.05-.14-1.26.9-.18.88.44 1.35.82 1.64l.16-.22c-.19-.15-.46-.38-.4-.65.07-.4.48-.3.63-.27l2.98.57-.18.9.44.09zm-2.33 1.94c1.34.38 1.46.76 1.36 1.12-.1.33-.38.39-.61.39-.31-.02-.82-.16-1.12-.23l.37-1.28zm-2.18 1.84c-.18-.24-.5-.7-.34-1.26.26-.9 1.31-.84 2.15-.63l-.7 2.4c.53.12 2.25.46 2.74-1.19.32-1.1-.34-2.22-1.78-2.62-1.66-.47-2.66.3-2.94 1.26-.22.76-.07 1.4.67 2.23l.2-.19zm-2.33 3.08c.26-.55.45-.61 1.01-.38l1.77.7c.68.27.73.75.67.9-.12.29-.67.06-.89.59-.19.46.14.74.38.83.23.1.8.16 1.05-.46.24-.6-.15-1.23-.36-1.54l.75.27.71-1.74-.22-.08c-.15.26-.29.46-.76.27l-2.75-1.09c-.47-.18-.42-.4-.35-.71l-.23-.1-1 2.44.22.1zm.36 5.96 1.29.68.1-.2c-.05-.06-.14-.15-.06-.3.1-.17.48-.42.7-.84.44-.8.23-1.66-.55-2.07-1.37-.72-2.45 1.39-3.27.96-.26-.14-.48-.49-.24-.92.52-.97 1.57-.7 1.83-.63l.14-.24-1.47-.77-.12.22c.13.18.18.27.12.37-.04.07-.62.54-.86.97-.44.82-.22 1.65.63 2.1 1.46.75 2.37-1.4 3.28-.92.27.14.37.5.2.82-.27.5-.87.7-1.6.55l-.12.22zm-81.2-6.5c.18.51.32.89-.27 1.14l-4.47 1.95c-.62.27-.83-.16-1.04-.57l-.23.1 1.44 3.17.23-.11c-.16-.43-.34-.86.27-1.12l4.46-1.95c.57-.25.77.08 1.04.55l.23-.1-1.44-3.16-.23.1zm50.22-15.22a1.48 1.48 0 0 1 2.97 0c0 .8-.66 1.46-1.48 1.46s-1.48-.65-1.48-1.46zm-3.8 7.7c0-.82.67-1.47 1.49-1.47s1.48.65 1.48 1.47a1.47 1.47 0 0 1-1.48 1.46c-.82 0-1.48-.66-1.48-1.46zm-7.96 3.2a1.48 1.48 0 0 1 2.97 0c0 .81-.67 1.47-1.5 1.47a1.47 1.47 0 0 1-1.47-1.47zm-8.34-3.67c0-.8.66-1.46 1.48-1.46a1.47 1.47 0 1 1 0 2.94 1.48 1.48 0 0 1-1.48-1.48zm-3.15-7.6c0-.81.66-1.47 1.48-1.47s1.48.66 1.48 1.47c0 .81-.66 1.47-1.48 1.47a1.48 1.48 0 0 1-1.48-1.47zm3.24-8.16a1.49 1.49 0 0 1 2.97 0 1.48 1.48 0 0 1-1.49 1.47c-.81 0-1.48-.66-1.48-1.47zm2.95 7.93c0-3.78 3.1-6.84 6.92-6.84s6.92 3.06 6.92 6.84-3.1 6.84-6.92 6.84a6.88 6.88 0 0 1-6.92-6.84zm5.3-11.5a1.48 1.48 0 0 1 2.97 0c0 .8-.67 1.46-1.5 1.46-.81 0-1.47-.65-1.47-1.46zM29 112a38.52 38.52 0 0 1 4.11-17.37l21.03 12.03a15.1 15.1 0 0 0-.98 5.34c0 1.8.32 3.53.9 5.13l-21.05 12.03A38.5 38.5 0 0 1 29 112zm7.1-22.36A39.56 39.56 0 0 1 66.1 73v24.02a15.34 15.34 0 0 0-8.87 4.7L36.1 89.64zm35.87-16.56a39.56 39.56 0 0 1 29.22 17L80.12 102.1a15.36 15.36 0 0 0-8.16-4.89l.01-24.14zm32.14 22A38.5 38.5 0 0 1 108 112a38.56 38.56 0 0 1-3.85 16.85l-21.1-12.06a15 15 0 0 0-.03-9.67l21.09-12.04zm-2.89 38.8a39.55 39.55 0 0 1-29.26 17.04v-24.14a15.4 15.4 0 0 0 8.2-4.93l21.06 12.04zM66.1 151a39.57 39.57 0 0 1-30.12-16.83l21.1-12.05a15.37 15.37 0 0 0 9.03 4.86L66.09 151zm9.12-47.2a1.49 1.49 0 0 1 2.97 0c0 .8-.66 1.46-1.48 1.46a1.47 1.47 0 0 1-1.49-1.46z"/><path fill="#FFF" d="m126.82 64.64.8-.32 2.11 3.33-3.77 5.01s-2.39-.63-3.13-2.34c0 0 1.34-1.64.98-2.79l.66-.6 2.4 1.74s1.11-1.16.46-2.17c-.74-1.15-.51-1.86-.51-1.86zM88.5 15.42l1.06-.86c.41.92 2.47 5.54 6.06 14.38a48.26 48.26 0 0 0-4.15 6.73c-.5-1.7-1.31-4.45-1.86-6.19a25.23 25.23 0 0 1-.95-6.01l-.73.34s-.52 4.64-.56 7.62c-.05 3 .52 8.36.52 8.36s-1.61-1.82-2.32-5.23c-.7-3.43-.82-7.71-.82-7.71l-.71.17s-1.25 6.26-1.54 8.95c-.28 2.7.8 9.24.8 9.24s-2.26-2.4-2.7-5.87c-.44-3.47-.33-7.3-.33-7.3l-.92.57s-1.54 5.62-1.69 8.85c-.1 2.3 1.63 8.57 1.63 8.57s-2.64-4.33-3.31-7.07c-.67-2.73-.55-6.81-.55-6.81l-.73.6s-.68 4.36-.95 6.89c-.27 2.53 1.39 9.65 1.39 9.65s-2.65-5.53-3.07-9.25c-.42-3.73.27-8.43.27-8.43s.9-2.72 5.54-7.71c6.23-6.73 10.64-11.7 10.64-11.7l-.02-.78zm4.3-3.24a13.8 13.8 0 0 1 1.53-.76 11.1 11.1 0 0 0 .55 3.14l1.86-1.48c.93-3.22 5.67-6.15 5.67-6.15l.53-.03s-1.6 2.89-2.8 6.08c-1.2 3.19-1.51 7.6-1.51 7.6l.83.52c1.08-1.75 4-4.56 4-4.56a18.27 18.27 0 0 1 .04-2.28c1.46.5 5.9 2.18 9.27 4.6a28.69 28.69 0 0 1 6.87 6.63c-.54 2.31-3 7.08-3 7.08s-.36-1.6-1.7-5.17c-1.58-4.15-3.63-5.3-3.63-5.3l-.37.34s1.02 2.56 1.1 4.66c.08 2.36-.24 4.33-.24 4.33-2.16-5.43-4.23-8.24-4.23-8.24l-.68-.08s-.8 2.63-1.54 5.45c-.73 2.82-.33 5.68-.33 5.68s2.23.44 5.75 2.32 3.23 3.39 3.23 3.39l-1.12-.14c-.44-1.17-2.1-2.22-2.1-2.22l-.78-.01-.77 3.33.56.66 3.78 1.9s4.26 4.89 5.13 6.01c2 2.57 3.18 4.29 3.82 5.29a29.3 29.3 0 0 0-6.81 5.54l1.94 3.52c4.75-6.77 9.85-9.78 13.94-10.05l.2 1.53s-1.62 1.7-4.12 2.51c-2.5.81-4.03 1.48-4.03 1.48l-.07.93s3.78.8 7.19 6.5c0 0 .11 3.1-1.29 4.38l.92.54s3.57-3.5 5.61-2.82c0 0-.25.7-.72 1.53-.47.82-1.01 1.33-1.01 1.33l-.03-.81-.68-.26s-2 1.45-4.56 2.32c-3.18 1.07-5.52.96-5.52.96s-.62 1.88-1.48 2.38l.16.66-1.01-.42.5-.75s-1.86-1.2-2.15-4.02c-.38-3.72-1.8-5.64-1.8-5.64l-1.38.73s1.03 1.62.01 2.44c-1.02.81-2.97.61-2.97.61-1.15-.09-2.01-.95-2.53-1.75-.2.51-.74-1.07-.74-1.07l1.14-1.73L102.98 55c1.62.36 2.05.34 2.05.34l-.88-1.04c-2.68-.24-7.43-3.12-9.84-7.08-2.41-3.97-1.01-8.76 1.97-14.98l.38-.76c.9 2.2 1.92 4.63 3.06 7.33a137.1 137.1 0 0 0 13.5 24.87c-.22.33-.42.67-.63 1l2.13.94 1.3.85c.54-.91.68-1.25 1.23-2.06l-2.33-3.15a35.18 35.18 0 0 1-.86-1.1c-2.51-3.36-6.81-10.2-12.54-23.36a257.1 257.1 0 0 1-3.3-7.9c3.12-4.64 7.18-8.12 7.18-8.12l-.56-.58s-4.02 2.93-7.44 6.62c-3.94-10.26-4.51-13.72-4.6-14.65zM2.92 68.28s-.72-1.58-.87-2.73a5.1 5.1 0 0 1 .12-1.98l1.21-.15c.29-4.69 3.45-7.54 3.45-7.54s2.4-1.23 5.61-.75c1.76.27 3.8 1.56 5.63 3.16-.7.89-3.1 3.97-3.53 5.4-.5 1.7 1.24 3.02 1.24 3.02l-.68.4s-2.44-1.22-2.56-3.62c-.1-2.39 1.7-3.04 1.7-3.04l-1.04-.02s-3.87 2.15-3.23 4.9c.64 2.74 4.29 3.91 4.29 3.91l-.77.5c-1.05-.79-3.81-.66-3.81-.66s-2.1-2.09-3.84-2.63c-1.74-.54-2.92 1.83-2.92 1.83zm43.33-55.32c.24.16.83.6 1.55 1.24 0 .74-.19 5.84-3.25 13.4 2.84 5.3 4.93 11.86 4.23 15.66-.52 2.75-1.88 4.03-3.82 6.04 5.03-6.7 1.34-13.55-1.62-18.91-.4.89-.86 1.8-1.35 2.73a443.87 443.87 0 0 1-16.3 27.8c.22.35.43.71.63 1.06.35.63.5.84.18 1.35l.44.5.25.43s-.98 1-1.52 1.95l-.35-.32-.5-.66c-.3.25-.42.24-.72.5-.42.35-.9.15-1.37-.3-1.94 2.86-3.54 5-4.52 5.93l-1.09-1.3a19.82 19.82 0 0 0 4.1-6.67 24 24 0 0 0-.65-1c-.26-.38-.16-.9.05-1.37 0 0 .17-.21.47-.5.13-.13.3-.28.49-.43-1.55-1.78-5.06-5.64-7.7-7.23-3.49-2.12-6.24-1.65-6.24-1.65-.05 0-.1.02-.14.03l.64-.87.7.35s.94-.24 2.5-.47c1.55-.23 3.21.82 3.21.82 1.27-1.77 4.12-9.14 4.12-9.14l-.87-.01s-.76 1.52-1.94 3.38a11.01 11.01 0 0 1-2.82 2.93l-.95.07s-.1-1.19 3.7-8.13l5.66-10.3c.34 1.8.82 2.57.82 2.57l.69-.16s.64-4.35 2.15-7.21a9.12 9.12 0 0 1 2.81-2.92c-.51 1.14-1.17 2.49-1.16 3.46.04 3.16.58 4.78.58 4.78l.95-.24s.05-3.24 1.67-4.74c1.62-1.51 2.56-2.35 2.56-2.35l3.05 8.58c-5.27.08-8.62 1.99-8.62 1.99-1.62 2.19-1.65 5.77-1.65 5.77l3.18-.96 1.7-1.68.03 2.05-4.97 3.24-7.7 11.3a32 32 0 0 1 2.7 2.78c.83.96 1.7 2.2 2.42 3.28.14-.07.28-.12.42-.17.18-.05.92-.07 1.08-.07 9.31-12.48 14.77-22.95 17.96-30.95-2.1-3.6-4.53-6.88-8.26-8.6l-1.8-1.85c2.12.42 4.33 1.02 6.04 1.9 1.6.8 3.43 2.93 5.13 5.64 2.23-6.2 2.86-10.26 3.03-12.35zM21.2 27.56c-.2-1.72-.14-3.57.51-4.94 1.1-2.3 4.39-4.21 5.94-5.02-2.28-.65-2.99-.74-2.99-.74s-5.66 3.62-4.1 11.2l.64-.5zm40.4 3.76s1.25 6.4 1.6 10.53c.37 4.42.14 11.34.14 11.34s1.75-5.25 1.88-8.75c.2-5.2-2.93-13.1-2.93-13.1l-.7-.02zm-5.7-5.55s2 6.15 2.64 10.2c.66 4.1.65 10.58.65 10.58s1.4-4.82 1.38-7.99c-.06-5.17-3.97-12.78-3.97-12.78l-.7-.01zm-2.77-.82s.99 4.67 1.22 7.7c.26 3.39-.15 8.7-.15 8.7s1.58-4.8 1.54-8c-.05-3.33-1.92-8.4-1.92-8.4h-.7zm-3.45-5.86s.56 4.17.52 6.84c-.06 3.6-1.27 9.1-1.27 9.1s2.68-5.08 2.83-8.65c.12-2.9-1.3-7.36-1.3-7.36l-.78.07zm76.68 33.02 1.96-.53-4.43-9.76-.55.45s1.98 3.82 2.42 6.1c.45 2.27.6 3.74.6 3.74zM65.9 17.46c0 .7.58 1.28 1.36 1.28l.91-2.12a1.29 1.29 0 0 0-.98-.44 1.29 1.29 0 0 0-1.3 1.28zM51.74 7.7c-1.1.73 1.7.8 1.7.8a83.71 83.71 0 0 1 12.21-1.34c7.48-.4 12 .57 17.76 1.53l1.96-.8a87.65 87.65 0 0 0-19.33-1.88c-5.3.08-13.3 1-14.3 1.69zm-11.77 9.94 1.3.63s1.09-2.89 1.93-4.24c0 0-2.22-5.5-5.71-8.03l-.69.41s3.32 2.96 3.45 6.2c.13 3.25-.28 5.03-.28 5.03zM125.9 77.7c.95-.52 2.19.71 2.19.71s-3.2 3.87-4.94 7.6l-1.6-4.16s.44-.73 1.42-2.27c.99-1.55.96-1.86.96-1.86s1.02.51 1.97-.02zM14.42 76l3.54-.2s1.36 1.36 2.17 2.03a60.4 60.4 0 0 0-2.21 2.86c-1.4-1.57-3.83-3.94-3.83-3.94l.33-.76z"/><path fill="#1C4483" d="M69 156a2 2 0 1 1 0 4 2 2 0 0 1 0-4zm0 .33a1.67 1.67 0 0 0 0 3.34 1.67 1.67 0 0 0 0-3.34zm.58 2.83h.4l-.88-.9c.37-.01.69-.26.69-.67 0-.43-.33-.68-.76-.68h-.65v2.25h.29v-.96l.9.96zm-.91-2h.35c.3 0 .48.18.48.43s-.15.44-.59.44h-.24v-.87z"/></g></svg>