<?xml version="1.0" encoding="utf-8"?>
<!-- Generator: Adobe Illustrator 23.0.1, SVG Export Plug-In . SVG Version: 6.00 Build 0)  -->
<svg version="1.1" id="Layer_1" xmlns="http://www.w3.org/2000/svg" xmlns:xlink="http://www.w3.org/1999/xlink" x="0px" y="0px"
	 viewBox="0 0 656.17 295.48" style="enable-background:new 0 0 656.17 295.48;" xml:space="preserve">
<style type="text/css">
	.st0{fill:#002856;}
	.st1{fill:#FFB71B;}
	.st2{fill:#FFFFFF;}
</style>
<g>
	<path class="st0" d="M37.94,1.03v19.26c0,2.05,0.06,3.43,0.16,4.16c0.11,0.73,0.38,1.47,0.81,2.22c1.01,1.81,2.66,2.72,4.95,2.72
		c1.11,0,2.14-0.26,3.08-0.78c0.94-0.52,1.65-1.23,2.11-2.12c0.37-0.7,0.61-1.44,0.73-2.22c0.11-0.78,0.17-2.1,0.17-3.98V1.03h9.02
		v20.52c0,3.41-0.44,6.03-1.31,7.85c-1.33,2.79-3.32,4.9-5.96,6.32c-2.29,1.23-4.94,1.84-7.97,1.84c-3.45,0-6.45-0.78-9.01-2.32
		c-2.13-1.31-3.64-2.99-4.5-5.02c-0.87-2.05-1.3-4.93-1.3-8.66V1.03H37.94z"/>
	<polygon class="st0" points="67.59,36.61 67.59,1.03 76.61,1.03 93.04,22.81 93.04,1.03 102.06,1.03 102.06,36.61 93.04,36.61 
		76.61,14.83 76.61,36.61 	"/>
	<rect x="110.61" y="1.03" class="st0" width="9.01" height="35.58"/>
	<polygon class="st0" points="141.21,8.92 141.21,36.61 132.19,36.61 132.19,8.92 124.87,8.92 124.87,1.03 148.63,1.03 148.63,8.92 
			"/>
	<polygon class="st0" points="173.49,8.92 162.88,8.92 162.88,14.74 172.92,14.74 172.92,22.63 162.88,22.63 162.88,28.74 
		173.49,28.74 173.49,36.61 153.87,36.61 153.87,1.03 173.49,1.03 	"/>
	<path class="st0" d="M189.53,28.74h2.04c1.69,0,3.11-0.23,4.28-0.7c1.17-0.47,2.2-1.22,3.09-2.25c1.66-1.92,2.51-4.24,2.51-6.97
		c0-2.71-0.84-5.02-2.51-6.93c-0.9-1.04-1.93-1.79-3.09-2.25c-1.16-0.47-2.59-0.71-4.28-0.71h-2.04V28.74z M180.51,36.61V1.03h13.3
		c4.32,0,8.11,1.57,11.36,4.71c1.85,1.78,3.28,3.86,4.27,6.26c0.94,2.24,1.4,4.51,1.4,6.8c0,3.37-0.93,6.55-2.78,9.54
		c-1.86,2.97-4.29,5.19-7.29,6.65c-2.23,1.07-4.55,1.61-6.96,1.61H180.51z"/>
	<path class="st0" d="M254.57,3.07l-3.59,7.2c-1.92-1.64-3.88-2.48-5.86-2.48c-1.28,0-2.25,0.37-2.96,1.1
		c-0.59,0.59-0.89,1.25-0.89,1.96c0,1.09,0.71,1.98,2.14,2.69c0.4,0.19,1.76,0.64,4.06,1.36c2.99,0.92,5.14,2.16,6.46,3.71
		c1.33,1.55,1.98,3.62,1.98,6.19c0,4.6-1.48,7.98-4.44,10.11c-2.43,1.76-5.43,2.64-8.99,2.64c-4.26,0-8.26-1.35-12-4.04l3.85-7.46
		c2.67,2.41,5.3,3.62,7.89,3.62c1.57,0,2.73-0.42,3.46-1.29c0.57-0.68,0.85-1.41,0.85-2.2c0-0.97-0.37-1.74-1.12-2.31
		c-0.75-0.56-2.17-1.17-4.26-1.81c-3.27-0.99-5.45-1.95-6.52-2.88c-1.83-1.55-2.74-3.91-2.74-7.08c0-3.71,1.18-6.69,3.56-8.94
		c2.16-2.04,4.89-3.07,8.18-3.07C247.39,0.1,251.03,1.08,254.57,3.07z"/>
	<polygon class="st0" points="276.09,8.92 276.09,36.61 267.08,36.61 267.08,8.92 259.75,8.92 259.75,1.03 283.51,1.03 283.51,8.92 
			"/>
	<polygon class="st0" points="308.38,8.92 297.77,8.92 297.77,14.74 307.81,14.74 307.81,22.63 297.77,22.63 297.77,28.74 
		308.38,28.74 308.38,36.61 288.75,36.61 288.75,1.03 308.38,1.03 	"/>
	<polygon class="st0" points="335.03,8.92 324.41,8.92 324.41,14.74 334.47,14.74 334.47,22.63 324.41,22.63 324.41,28.74 
		335.03,28.74 335.03,36.61 315.41,36.61 315.41,1.03 335.03,1.03 	"/>
	<polygon class="st0" points="351.06,1.03 351.06,28.74 361.76,28.74 361.76,36.61 342.04,36.61 342.04,1.03 	"/>
	<polygon class="st0" points="371.58,1.03 377.59,24.03 384.9,1.03 392.03,1.03 398.84,24.03 405.37,1.03 414.73,1.03 403.7,36.61 
		394.54,36.61 388.24,16 381.63,36.61 372.5,36.61 362.21,1.03 	"/>
	<path class="st0" d="M436.44,9.01c-2.68,0-4.96,0.97-6.84,2.91c-1.91,1.97-2.86,4.28-2.86,6.93c0,2.81,0.96,5.19,2.86,7.16
		c1.88,1.94,4.16,2.91,6.85,2.91c2.7,0,4.99-0.97,6.89-2.91c1.89-1.95,2.84-4.31,2.84-7.06c0-2.78-0.95-5.13-2.84-7.03
		C441.44,10.02,439.14,9.05,436.44,9.01z M436.46,0c5.76,0,10.48,1.99,14.13,5.98c3.32,3.59,4.99,7.92,4.99,12.98
		c0,3.48-0.84,6.69-2.51,9.62c-1.78,3.17-4.25,5.58-7.4,7.22c-2.74,1.42-5.85,2.14-9.36,2.14c-5.68,0-10.34-1.98-13.96-5.95
		c-3.32-3.61-4.98-8.06-4.98-13.34c0-3.33,0.83-6.41,2.51-9.29C423.42,3.24,428.96,0.12,436.46,0z"/>
	<path class="st0" d="M471.65,16.9h1.67c1.71,0,3.01-0.3,3.87-0.93c0.48-0.37,0.87-0.86,1.2-1.51c0.32-0.64,0.49-1.29,0.49-1.93
		c0-0.63-0.17-1.28-0.49-1.92c-0.32-0.64-0.72-1.14-1.2-1.51c-0.86-0.62-2.16-0.93-3.87-0.93h-1.67V16.9z M480.52,21.98l10.86,14.64
		h-11.19l-8.54-13.7v13.7h-9.02V1.03h14.01c1.94,0,3.6,0.26,4.95,0.75c1.36,0.51,2.53,1.3,3.53,2.37c1.97,2.15,2.96,4.78,2.96,7.86
		c0,1.56-0.28,3.05-0.85,4.44c-0.57,1.41-1.33,2.55-2.29,3.42C483.85,20.84,482.38,21.54,480.52,21.98z"/>
	<polygon class="st0" points="505.43,15.71 516.39,1.03 527.46,1.03 513.75,17.88 528.73,36.61 517.09,36.61 505.43,21.19 
		505.43,36.61 496.42,36.61 496.42,1.03 505.43,1.03 	"/>
	<polygon class="st0" points="553.59,8.92 542.99,8.92 542.99,14.74 553.03,14.74 553.03,22.63 542.99,22.63 542.99,28.74 
		553.59,28.74 553.59,36.61 533.97,36.61 533.97,1.03 553.59,1.03 	"/>
	<path class="st0" d="M569.63,16.9h1.67c1.72,0,3.01-0.3,3.88-0.93c0.47-0.37,0.87-0.86,1.19-1.51c0.33-0.64,0.49-1.29,0.49-1.93
		c0-0.63-0.16-1.28-0.49-1.92c-0.32-0.64-0.72-1.14-1.19-1.51c-0.86-0.62-2.16-0.93-3.88-0.93h-1.67V16.9z M578.51,21.98
		l10.85,14.64h-11.17l-8.56-13.7v13.7h-9.01V1.03h14.01c1.94,0,3.59,0.26,4.95,0.75c1.36,0.51,2.54,1.3,3.54,2.37
		c1.97,2.15,2.96,4.78,2.96,7.86c0,1.56-0.28,3.05-0.86,4.44c-0.56,1.41-1.32,2.55-2.29,3.42
		C581.84,20.84,580.37,21.54,578.51,21.98z"/>
	<path class="st0" d="M616.9,3.07l-3.59,7.2c-1.92-1.64-3.87-2.48-5.87-2.48c-1.26,0-2.25,0.37-2.95,1.1
		c-0.59,0.59-0.89,1.25-0.89,1.96c0,1.09,0.72,1.98,2.15,2.69c0.4,0.19,1.75,0.64,4.06,1.36c2.99,0.92,5.14,2.16,6.46,3.71
		c1.32,1.55,1.98,3.62,1.98,6.19c0,4.6-1.48,7.98-4.44,10.11c-2.43,1.76-5.42,2.64-8.99,2.64c-4.27,0-8.26-1.35-12-4.04l3.85-7.46
		c2.67,2.41,5.3,3.62,7.9,3.62c1.57,0,2.73-0.42,3.45-1.29c0.57-0.68,0.86-1.41,0.86-2.2c0-0.97-0.38-1.74-1.12-2.31
		c-0.74-0.56-2.17-1.17-4.26-1.81c-3.27-0.99-5.45-1.95-6.52-2.88c-1.83-1.55-2.75-3.91-2.75-7.08c0-3.71,1.19-6.69,3.56-8.94
		c2.16-2.04,4.89-3.07,8.19-3.07C609.72,0.1,613.37,1.08,616.9,3.07z"/>
	<path class="st0" d="M68.05,272.85v11.82c0,1.25,0.03,2.09,0.09,2.54c0.06,0.45,0.22,0.9,0.47,1.36c0.57,1.11,1.5,1.66,2.8,1.66
		c0.63,0,1.22-0.16,1.75-0.48c0.53-0.31,0.93-0.75,1.2-1.29c0.2-0.43,0.34-0.87,0.41-1.35c0.07-0.48,0.1-1.29,0.1-2.43v-11.82h5.17
		v12.58c0,2.09-0.25,3.7-0.75,4.82c-0.76,1.71-1.88,3-3.39,3.87c-1.31,0.74-2.82,1.12-4.55,1.12c-1.96,0-3.68-0.48-5.14-1.43
		c-1.22-0.79-2.07-1.81-2.57-3.07c-0.49-1.25-0.74-3.03-0.74-5.31v-12.58H68.05z"/>
	<polygon class="st0" points="84.17,294.68 84.17,272.85 89.33,272.85 98.63,286.2 98.63,272.85 103.79,272.85 103.79,294.68 
		98.63,294.68 89.33,281.31 89.33,294.68 	"/>
	<rect x="107.92" y="272.85" class="st0" width="5.17" height="21.83"/>
	<polygon class="st0" points="124.64,277.68 124.64,294.68 119.48,294.68 119.48,277.68 115.3,277.68 115.3,272.85 128.82,272.85 
		128.82,277.68 	"/>
	<polygon class="st0" points="136.97,284.19 129.85,272.85 135.96,272.85 139.7,278.8 143.3,272.85 149.49,272.85 142.13,284.19 
		142.13,294.68 136.97,294.68 	"/>
	<path class="st0" d="M169.11,286.55l-2.12-6.95l-2.15,6.95H169.11z M170.49,290.88h-7.05l-1.36,3.8h-5.4l7.56-21.83h5.58
		l7.41,21.83h-5.47L170.49,290.88z"/>
	<polygon class="st0" points="179.48,294.68 179.48,272.85 184.65,272.85 193.95,286.2 193.95,272.85 199.11,272.85 199.11,294.68 
		193.95,294.68 184.65,281.31 184.65,294.68 	"/>
	<path class="st0" d="M208.41,289.85h1.17c0.96,0,1.76-0.15,2.42-0.44c0.66-0.28,1.25-0.74,1.75-1.38c0.94-1.18,1.42-2.6,1.42-4.28
		c0-1.66-0.48-3.08-1.42-4.25c-0.5-0.64-1.09-1.1-1.75-1.38c-0.66-0.29-1.46-0.44-2.42-0.44h-1.17V289.85z M203.24,294.68v-21.83
		h7.6c2.46,0,4.6,0.96,6.46,2.9c1.05,1.09,1.86,2.36,2.43,3.84c0.52,1.37,0.79,2.76,0.79,4.17c0,2.07-0.52,4.02-1.58,5.86
		c-1.05,1.83-2.44,3.18-4.14,4.08c-1.27,0.66-2.59,1-3.96,1H203.24z"/>
	<path class="st0" d="M243.95,274.09l-2.05,4.42c-1.09-0.96-2.2-1.44-3.33-1.44c-0.72,0-1.28,0.23-1.68,0.67
		c-0.33,0.36-0.5,0.76-0.5,1.19c0,0.66,0.41,1.21,1.22,1.65c0.23,0.12,1,0.4,2.31,0.83c1.71,0.56,2.94,1.32,3.69,2.26
		c0.76,0.95,1.13,2.21,1.13,3.78c0,2.81-0.85,4.87-2.54,6.18c-1.38,1.06-3.09,1.61-5.12,1.61c-2.43,0-4.71-0.82-6.84-2.46l2.2-4.58
		c1.51,1.47,3.02,2.21,4.5,2.21c0.9,0,1.56-0.26,1.97-0.79c0.33-0.42,0.49-0.86,0.49-1.34c0-0.59-0.21-1.07-0.64-1.41
		c-0.42-0.35-1.24-0.72-2.43-1.11c-1.88-0.61-3.11-1.19-3.72-1.76c-1.05-0.95-1.56-2.39-1.56-4.32c0-2.27,0.68-4.09,2.03-5.46
		c1.23-1.25,2.78-1.88,4.67-1.88C239.86,272.33,241.94,272.92,243.95,274.09z"/>
	<polygon class="st0" points="255.49,277.68 255.49,294.68 250.32,294.68 250.32,277.68 246.14,277.68 246.14,272.85 259.66,272.85 
		259.66,277.68 	"/>
	<path class="st0" d="M267.09,282.61h0.95c0.96,0,1.69-0.19,2.18-0.57c0.27-0.23,0.5-0.54,0.68-0.94c0.19-0.4,0.28-0.79,0.28-1.18
		c0-0.4-0.09-0.8-0.28-1.2c-0.18-0.4-0.41-0.71-0.68-0.93c-0.49-0.39-1.22-0.59-2.18-0.59h-0.95V282.61z M272.15,285.72l6.18,8.96
		h-6.36l-4.87-8.39v8.39h-5.16v-21.83h8c1.1,0,2.04,0.15,2.81,0.46c0.77,0.31,1.44,0.79,2.01,1.45c1.12,1.32,1.69,2.93,1.69,4.83
		c0,0.95-0.16,1.86-0.48,2.72c-0.32,0.86-0.76,1.57-1.3,2.1C274.03,285.02,273.19,285.44,272.15,285.72z"/>
	<polygon class="st0" points="291.6,277.68 285.59,277.68 285.59,281.3 291.27,281.3 291.27,286.14 285.59,286.14 285.59,289.85 
		291.6,289.85 291.6,294.68 280.42,294.68 280.42,272.85 291.6,272.85 	"/>
	<polygon class="st0" points="294.86,294.68 294.86,272.85 300.03,272.85 309.32,286.2 309.32,272.85 314.48,272.85 314.48,294.68 
		309.32,294.68 300.03,281.31 300.03,294.68 	"/>
	<path class="st0" d="M328.46,282.57h10.14c-0.04,2.9-0.38,5.13-1.02,6.69c-0.83,1.99-2.01,3.52-3.55,4.57
		c-1.56,1.06-3.4,1.6-5.54,1.6c-2.14,0-4.06-0.55-5.77-1.63c-1.66-1.06-2.89-2.6-3.71-4.6c-0.69-1.66-1.03-3.42-1.03-5.33
		c0-2.17,0.45-4.16,1.31-6c0.9-1.91,2.19-3.35,3.87-4.31c1.65-0.94,3.49-1.42,5.52-1.42c2.09,0,3.86,0.5,5.31,1.5
		c1.45,1,2.63,2.55,3.56,4.64l-4.86,2.23c-0.89-2.3-2.31-3.45-4.25-3.45c-1.51,0-2.73,0.67-3.68,2c-0.95,1.34-1.42,2.95-1.42,4.84
		c0,2.15,0.57,3.91,1.75,5.29c0.88,1.05,2.05,1.57,3.5,1.57c1.47,0,2.59-0.54,3.33-1.62c0.35-0.49,0.59-1.22,0.72-2.18h-4.19V282.57
		z"/>
	<polygon class="st0" points="349.05,277.68 349.05,294.68 343.88,294.68 343.88,277.68 339.7,277.68 339.7,272.85 353.22,272.85 
		353.22,277.68 	"/>
	<polygon class="st0" points="360.64,281.25 367.92,281.25 367.92,272.85 373.09,272.85 373.09,294.68 367.92,294.68 367.92,285.66 
		360.64,285.66 360.64,294.68 355.48,294.68 355.48,272.85 360.64,272.85 	"/>
	<polygon class="st0" points="395.86,277.68 389.77,277.68 389.77,281.3 395.31,281.3 395.31,286.14 389.77,286.14 389.77,294.68 
		384.59,294.68 384.59,272.85 395.86,272.85 	"/>
	<path class="st0" d="M408.84,277.68c-1.53,0-2.82,0.6-3.89,1.8c-1.08,1.22-1.63,2.65-1.63,4.28c0,1.73,0.55,3.21,1.63,4.42
		c1.07,1.2,2.38,1.8,3.91,1.8c1.53,0,2.84-0.59,3.93-1.8c1.08-1.2,1.62-2.66,1.62-4.36c0-1.72-0.54-3.17-1.62-4.34
		C411.7,278.3,410.38,277.7,408.84,277.68z M408.85,272.19c3.3,0,5.98,1.22,8.07,3.65c1.89,2.21,2.84,4.88,2.84,7.98
		c0,2.14-0.48,4.1-1.43,5.91c-1.02,1.94-2.43,3.42-4.23,4.43c-1.55,0.88-3.33,1.32-5.33,1.32c-3.25,0-5.89-1.22-7.96-3.65
		c-1.9-2.21-2.84-4.95-2.84-8.19c0-2.03,0.47-3.94,1.42-5.69C401.42,274.18,404.58,272.26,408.85,272.19z"/>
	<path class="st0" d="M428.16,282.61h0.95c0.97,0,1.7-0.19,2.19-0.57c0.27-0.23,0.49-0.54,0.68-0.94c0.18-0.4,0.27-0.79,0.27-1.18
		c0-0.4-0.1-0.8-0.27-1.2c-0.19-0.4-0.41-0.71-0.68-0.93c-0.49-0.39-1.22-0.59-2.19-0.59h-0.95V282.61z M433.22,285.72l6.18,8.96
		h-6.38l-4.87-8.39v8.39h-5.16v-21.83H431c1.1,0,2.04,0.15,2.81,0.46c0.77,0.31,1.44,0.79,2,1.45c1.12,1.32,1.69,2.93,1.69,4.83
		c0,0.95-0.17,1.86-0.48,2.72c-0.32,0.86-0.76,1.57-1.3,2.1C435.1,285.02,434.27,285.44,433.22,285.72z"/>
	<polygon class="st0" points="452.15,272.85 455.56,286.96 459.72,272.85 463.79,272.85 467.67,286.96 471.38,272.85 476.72,272.85 
		470.43,294.68 465.21,294.68 461.63,282.03 457.87,294.68 452.67,294.68 446.81,272.85 	"/>
	<path class="st0" d="M488.35,277.68c-1.54,0-2.83,0.6-3.9,1.8c-1.09,1.22-1.63,2.65-1.63,4.28c0,1.73,0.54,3.21,1.63,4.42
		c1.07,1.2,2.37,1.8,3.91,1.8c1.52,0,2.84-0.59,3.91-1.8c1.08-1.2,1.62-2.66,1.62-4.36c0-1.72-0.54-3.17-1.62-4.34
		C491.2,278.3,489.89,277.7,488.35,277.68z M488.36,272.19c3.28,0,5.97,1.22,8.05,3.65c1.89,2.21,2.84,4.88,2.84,7.98
		c0,2.14-0.47,4.1-1.43,5.91c-1.02,1.94-2.42,3.42-4.22,4.43c-1.56,0.88-3.34,1.32-5.34,1.32c-3.24,0-5.89-1.22-7.95-3.65
		c-1.9-2.21-2.84-4.95-2.84-8.19c0-2.03,0.47-3.94,1.43-5.69C480.92,274.18,484.08,272.26,488.36,272.19z"/>
	<path class="st0" d="M507.66,282.61h0.95c0.96,0,1.7-0.19,2.18-0.57c0.27-0.23,0.49-0.54,0.67-0.94c0.18-0.4,0.27-0.79,0.27-1.18
		c0-0.4-0.09-0.8-0.27-1.2c-0.18-0.4-0.4-0.71-0.67-0.93c-0.49-0.39-1.22-0.59-2.18-0.59h-0.95V282.61z M512.72,285.72l6.18,8.96
		h-6.36l-4.87-8.39v8.39h-5.17v-21.83h8c1.11,0,2.05,0.15,2.82,0.46c0.77,0.31,1.45,0.79,2.01,1.45c1.11,1.32,1.68,2.93,1.68,4.83
		c0,0.95-0.16,1.86-0.48,2.72c-0.32,0.86-0.76,1.57-1.3,2.1C514.6,285.02,513.77,285.44,512.72,285.72z"/>
	<polygon class="st0" points="526.16,281.85 532.4,272.85 538.71,272.85 530.89,283.18 539.42,294.68 532.8,294.68 526.16,285.21 
		526.16,294.68 521,294.68 521,272.85 526.16,272.85 	"/>
	<polygon class="st0" points="552.81,277.68 546.8,277.68 546.8,281.3 552.48,281.3 552.48,286.14 546.8,286.14 546.8,289.85 
		552.81,289.85 552.81,294.68 541.64,294.68 541.64,272.85 552.81,272.85 	"/>
	<path class="st0" d="M561.23,282.61h0.95c0.97,0,1.7-0.19,2.18-0.57c0.28-0.23,0.49-0.54,0.68-0.94c0.18-0.4,0.28-0.79,0.28-1.18
		c0-0.4-0.09-0.8-0.28-1.2c-0.18-0.4-0.4-0.71-0.68-0.93c-0.48-0.39-1.21-0.59-2.18-0.59h-0.95V282.61z M566.3,285.72l6.18,8.96
		h-6.37l-4.87-8.39v8.39h-5.17v-21.83h8c1.11,0,2.05,0.15,2.82,0.46c0.77,0.31,1.44,0.79,2,1.45c1.13,1.32,1.68,2.93,1.68,4.83
		c0,0.95-0.16,1.86-0.48,2.72c-0.32,0.86-0.75,1.57-1.3,2.1C568.18,285.02,567.35,285.44,566.3,285.72z"/>
	<path class="st0" d="M587.41,274.09l-2.04,4.42c-1.09-0.96-2.21-1.44-3.35-1.44c-0.71,0-1.27,0.23-1.68,0.67
		c-0.33,0.36-0.51,0.76-0.51,1.19c0,0.66,0.41,1.21,1.23,1.65c0.22,0.12,1,0.4,2.31,0.83c1.71,0.56,2.94,1.32,3.69,2.26
		c0.76,0.95,1.13,2.21,1.13,3.78c0,2.81-0.85,4.87-2.54,6.18c-1.38,1.06-3.09,1.61-5.11,1.61c-2.44,0-4.72-0.82-6.85-2.46l2.19-4.58
		c1.52,1.47,3.02,2.21,4.5,2.21c0.9,0,1.55-0.26,1.96-0.79c0.33-0.42,0.49-0.86,0.49-1.34c0-0.59-0.2-1.07-0.63-1.41
		c-0.42-0.35-1.24-0.72-2.44-1.11c-1.87-0.61-3.1-1.19-3.72-1.76c-1.05-0.95-1.56-2.39-1.56-4.32c0-2.27,0.68-4.09,2.02-5.46
		c1.23-1.25,2.79-1.88,4.67-1.88C583.32,272.33,585.38,272.92,587.41,274.09z"/>
	<path class="st0" d="M560.35,57.59l-19.42,93.94l-20.25-93.94h-61.83l-21.88,97.19l-18.88-97.19h-94.4l0.02,0.09h-85.1v-0.09
		h-98.36v120.75c0,9.42-0.86,14.14-2.87,17.08c-2.87,4.12-9.45,6.77-16.63,6.77c-7.45,0-14.04-2.65-16.91-6.77
		c-2.01-2.94-2.87-7.66-2.87-17.08V57.59H2.6v116.04c0,15.6,0.86,27.67,2.87,35.33c3.44,13.25,12.9,25.03,26.09,32.09
		c21.22,11.79,49.03,17.09,89.18,17.09c20.23,0,37.87-1.48,52.89-4.4l201.22,0.28h89.47l23.26-89.52l22.98,89.52h91.65l50.61-196.43
		H560.35z"/>
	<path class="st1" d="M649.48,60.19c-1.6,6.21-48.31,187.48-49.28,191.22c-3.76,0-83.86,0-87.63,0c-0.95-3.73-24.98-97.3-24.98-97.3
		s-24.31,93.59-25.28,97.3c-3.83,0-87.46,0-87.46,0l-201.46-0.28l-0.26,0.06c-14.84,2.89-32.46,4.35-52.39,4.35
		c-39.94,0-67.05-5.17-87.92-16.75c-12.5-6.7-21.55-17.8-24.85-30.48c-1.87-7.15-2.78-18.49-2.78-34.68c0,0,0-108.48,0-113.43
		c4.79,0,88.38,0,93.16,0c0,4.96,0,118.14,0,118.14c0,9.84,0.93,15.03,3.32,18.53c3.4,4.89,10.7,7.91,19.06,7.91l0,0
		c8.06,0,15.43-3.1,18.76-7.88c2.41-3.54,3.34-8.73,3.34-18.57c0,0,0-113.18,0-118.14c4.92,0,95.76,0,95.76,0l85.1,0.08
		c0,0,88.14-0.08,92.23-0.08c0.79,4.02,18.47,95.07,18.47,95.07l5.08,0.08c0,0,20.56-91.27,21.43-95.15c3.74,0,53.89,0,57.66,0
		c0.85,3.92,19.81,91.89,19.81,91.89l5.08-0.02c0,0,18.18-87.91,19-91.86C566.35,60.19,643.4,60.19,649.48,60.19z M652.82,55h-94.59
		c0,0-13.57,65.67-17.36,83.98c-3.94-18.28-18.1-83.98-18.1-83.98h-66.01c0,0-15.45,68.6-19.62,87.13
		C433.53,123.52,420.22,55,420.22,55h-96.54l-85.08,0.08L137.65,55v123.34c0,8.57-0.7,13.09-2.42,15.62
		c-2.34,3.37-8.16,5.64-14.49,5.64c-6.48,0-12.42-2.27-14.78-5.67c-1.71-2.5-2.41-7.03-2.41-15.59V55H0v118.63
		c0,16.64,0.97,28.42,2.95,35.99c3.66,14.07,13.64,26.36,27.39,33.72c21.64,12.02,49.54,17.39,90.4,17.39
		c20.13,0,37.99-1.49,53.09-4.4c0.41,0,201.01,0.28,201.01,0.28h91.48c0,0,17.22-66.28,21.23-81.73
		c3.98,15.46,20.99,81.73,20.99,81.73h95.68L656.17,55H652.82z"/>
	<g>
		<path class="st1" d="M213.63,176.48c0,0,2.61,6.18,75.52,5.23l-31.59-13.06c0,0-17.34-27.79-17.34-29.45
			c0-1.66-12.11-27.07-12.11-27.07l-36.57,2.37l-3.08,25.89l8.31,24.46L213.63,176.48z"/>
		<path class="st1" d="M274.58,182.72c-51.48,0-60.11-4.08-61.55-5.54l-17.03-11.76l-8.48-24.95l3.2-26.85l37.96-2.46l0.27,0.56
			c3.67,7.7,12.2,25.78,12.2,27.47c0.37,1.58,10.58,18.35,17.04,28.72l31.31,12.95l-0.34,1.77
			C283.95,182.7,279.1,182.72,274.58,182.72z M214.42,176.01c0.61,0.53,7.99,5.44,70.23,4.84l-27.71-11.46l-0.16-0.25
			c-6.52-10.46-17.48-28.26-17.48-29.94c-0.2-1.45-7.2-16.55-11.75-26.12l-35.19,2.28l-2.97,24.93l8.15,23.98L214.42,176.01z"/>
	</g>
	<g>
		<path class="st1" d="M361.84,140.39c0,0-6.76-8.27-74.97-2.88l31.15,11.34c0,0,17.73,27.54,17.75,29.2
			c0.02,1.66,12.5,26.9,12.5,26.9l36.54-2.89l2.72-25.93l-9.11-23.46L361.84,140.39z"/>
		<path class="st1" d="M347.72,205.91l-0.28-0.56c-3.78-7.64-12.57-25.6-12.59-27.29c-0.39-1.57-10.83-18.19-17.44-28.46
			l-30.86-11.24l0.24-1.78c15.34-1.21,28.8-1.83,40.03-1.83c29.15,0,34.77,4.08,35.62,4.93l16.72,12.38l0.1,0.25l9.19,23.67
			l-2.82,26.91L347.72,205.91z M291.18,138.1l27.44,10l0.17,0.26c6.67,10.37,17.87,28.01,17.9,29.68
			c0.22,1.45,7.44,16.45,12.13,25.95l35.16-2.78l2.62-24.95l-8.94-23.01l-16.53-12.28c-0.01-0.01-4.61-4.37-34.3-4.37
			C316.69,136.6,304.72,137.11,291.18,138.1z"/>
	</g>
	<path class="st2" d="M361.92,140.63c-0.1-0.04-0.21-0.06-0.31-0.11c5.88,5.04,14.63,13.99,19.35,21.69
		c2.47,4.06,2.98,27.16,3.03,29.79l-2.01,0.07c-0.39-7.02-2.07-23.32-4.75-28.86c-3-5.89-18.98-21.38-23.02-23.51
		c-2.76-1.22-6.34-1.97-10.43-2.47c4.55,2.8,17.59,14.98,23.72,25.04c2.48,4.06,2.97,27.17,3.02,29.79l-2,0.07
		c-0.38-7.01-2.05-23.3-4.75-28.86c-2.99-5.89-18.99-21.38-23.03-23.51c-4.35-1.95-10.79-2.73-18.1-3.13
		c0.17,0.06,0.33,0.11,0.49,0.18c3.37,1.37,18.02,14.71,24.63,25.55c2.48,4.05,2.99,27.16,3.03,29.78l-2.01,0.08
		c-0.39-7.03-2.06-23.32-4.76-28.87c-2.99-5.88-18.98-21.37-23.02-23.52c-5.04-2.24-12.16-2.21-20.41-2.18c0,0-9.74-0.06-9.73-0.06
		c-9.61-0.17-15.1,2.64-17.62,6.09c-0.01,0.01-0.01,0.01-0.02,0.02c-0.83,1.15-1.34,2.38-1.55,3.57c-0.61,3.31,0.89,6.49,3.46,7.43
		l0.27,0.1l0.91,1.22c3.53,1.62,9.02,2.65,17.12,2.65c3.58,0,6.79,0.22,9.72,0.6l0.47-0.52c0.38,0.25,0.68,0.49,1.04,0.73
		c32.21,5.1,23.02,32.63-11.92,37.39c-1.85,0.7-4.18,1.09-7.02,1.09c-30.95,0-58-2.34-97.01-8.29v47.46
		c37.71,6.74,60.86,8.82,97.01,8.82c39.01,0,58.51-3.89,76.45-15.05c16.9-10.63,27.05-28.27,27.05-47.2
		C389.23,163.97,378.3,146.86,361.92,140.63z M215.58,177.16c-6.11-5-15.18-13.86-20.07-21.49c-2.59-4.04-3.19-26.9-3.25-29.49
		l2.01-0.09c0.43,6.93,2.21,23.04,5.03,28.54c3.11,5.82,19.73,21.21,23.94,23.35c2.84,1.22,6.56,1.98,10.78,2.49
		c-4.75-2.84-18.21-14.88-24.57-24.81c-2.58-4.04-3.19-26.9-3.25-29.49l2.01-0.09c0.42,6.93,2.21,23.06,5.02,28.54
		c3.11,5.82,19.74,21.21,23.94,23.35c4.51,1.94,11.17,2.74,18.71,3.17c-0.14-0.06-0.28-0.09-0.42-0.15
		c-3.48-1.36-18.69-14.59-25.57-25.34c-2.58-4.04-3.19-26.9-3.26-29.49l2.01-0.09c0.42,6.93,2.21,23.04,5.02,28.54
		c3.11,5.82,19.74,21.21,23.93,23.35c6.83,2.93,18.51,3.28,30.85,3.65c0,0,2.09,0.06,2.07,0.06c10.63,0.22,17.63-3.33,18.71-9.48
		c0.35-1.97-0.04-4.02-0.9-5.66c-3.07-1.38-7.85-2.25-14.65-2.25c-41.94,0-42.04-38.25-10.9-44.24c2.54-0.66,5.9-0.96,10.24-0.96
		h19.5c15.34,0,51.49,3.1,69.96,5.96V74.23c-29.13-5.45-60.86-8.56-90.77-8.56c-36.66,0-63.19,4.67-81.13,14.01
		c-16.91,9.08-26.53,26.98-26.53,49.28C184.04,153.49,194.42,169.42,215.58,177.16z"/>
	<path class="st1" d="M350.18,198.43l1.64-6.3l0.01-0.04c-0.12-6.09-0.72-26.28-3.18-30.31c-5.36-8.81-16-19.33-21.88-23.83
		c4.83,0.41,9.95,1.15,13.53,2.75c3.84,2.03,19.68,17.42,22.52,23.03c2.62,5.4,4.26,21.5,4.65,28.45l2.76,5.8l1.34-5.95
		c-0.11-6.08-0.68-26.22-3.18-30.32c-4.94-8.1-14.5-17.76-20.53-22.72c2.31,0.45,4.37,0.99,5.91,1.67
		c3.83,2.02,19.65,17.41,22.51,23.02c2.59,5.35,4.28,21.78,4.64,28.45l2.37,4.78l1.75-4.93c-0.05-2.65-0.52-25.96-3.18-30.33
		c-3.41-5.57-8.97-11.89-14.24-17.04c12.51,7.62,20.57,22.5,20.57,39.06c0,18.54-9.93,35.85-26.56,46.31
		c-17.9,11.12-37.05,14.88-75.89,14.88c-35.74,0-59.21-2.12-95.96-8.65c0-1.67,0-43.09,0-45.36c38.49,5.84,65.53,8.13,95.96,8.13
		c2.88,0,5.37-0.4,7.39-1.17c21.08-2.84,32.33-13.82,32.43-23.16c0.09-8.11-7.66-14.18-20.72-16.25l-0.45-0.03l-0.68-0.06
		c0,0-0.93-0.21-0.98-0.15c-1.03-0.06-9.28-0.59-9.28-0.59c-7.27,0-12.78-0.85-16.48-2.5l-0.65-0.33l-0.55-0.49
		c-1.77-0.64-3.16-3.24-3.16-5.53c0-0.42,0.04-0.86,0.11-1.29l1.37-3.14c1.63-2.21,5.93-5.87,16.77-5.68c0,0,1.33,0.06,1.21-0.06
		c0,0,1.79,0.07,8.53,0.12c8.16-0.03,15.16-0.06,19.98,2.09c3.84,2.05,19.67,17.44,22.51,23.03c2.61,5.36,4.26,21.48,4.65,28.45
		l0.06,1.03L350.18,198.43z M322.29,137.6l0.44,0.16c3.19,1.3,17.75,14.65,24.13,25.12c1.63,2.67,2.51,15.69,2.81,26.96
		c-0.52-7.09-2.05-21.52-4.71-26.97c-3.1-6.11-19.1-21.67-23.47-23.98c-5.3-2.36-12.51-2.33-20.85-2.3c-0.04,0-9.77-0.06-9.77-0.06
		c-11.77-0.21-16.63,4-18.47,6.52c-0.03,0.03-1.76,4.03-1.76,4.03c-0.69,3.79,1.63,8.49,4.68,9.6l0.33,0.17l0.24,0.11
		c3.97,1.82,9.88,2.74,17.55,2.74l10.09,0.64c0,0,0.3,0.07,0.41-0.04c0.16,0.11,0.14,0.04,0.14,0.04
		c12.29,2.04,19.36,7.29,19.36,14.2c0,0.04,0,0.07,0,0.11c-0.09,8.24-10.93,18.44-30.84,21.16c-2.02,0.74-4.25,1.08-6.88,1.08
		c-30.66,0-57.81-2.32-96.85-8.27l-1.21-0.19v49.56l0.87,0.16c37.41,6.69,61.02,8.83,97.2,8.83c39.29,0,58.72-3.84,77.01-15.2
		c17.25-10.85,27.55-28.83,27.55-48.09c0-19.98-11.24-37.67-27.99-44.04l-1.37,1.67c6.3,5.4,14.65,14.12,19.13,21.44
		c1.82,2.99,2.62,18.47,2.83,27.57c-0.51-7.66-2.12-22.22-4.72-27.58c-3.07-6.03-19.32-21.79-23.48-23.98
		c-2.67-1.19-6.18-2.02-10.79-2.58l-0.68,1.94c4.67,2.87,17.45,14.99,23.38,24.69c1.73,2.85,2.55,17.21,2.81,26.82
		c-0.53-7.13-2.06-21.39-4.7-26.83c-3.11-6.13-19.12-21.68-23.48-23.98c-5.01-2.25-12.53-2.93-18.53-3.26L322.29,137.6z"/>
	<path class="st1" d="M185.09,128.95c0-21.86,9.47-39.48,25.97-48.35c17.94-9.34,44.32-13.88,80.64-13.88
		c29.1,0,60.11,2.92,89.72,8.4c0,1.68,0,46.47,0,48.73c-19.04-2.86-53.89-5.81-68.91-5.81h-19.5c-4.47,0-7.9,0.33-10.5,0.99
		c-15.96,3.07-22.9,13.78-22.9,23.08c0,0.59,0.03,1.17,0.08,1.74c0.95,9.91,10.41,21.49,33.98,21.49c5.96,0,10.66,0.73,13.8,2.05
		c0.49,1.05,0.82,2.2,0.82,3.34c0,0.44-0.04,0.87-0.11,1.29c-0.98,5.6-7.58,8.82-17.65,8.61c-0.02,0-2.06-0.06-2.06-0.06
		c-12.29-0.37-23.84-0.72-30.47-3.57c-4-2.03-20.46-17.33-23.43-22.88c-2.71-5.3-4.27-18.9-4.67-25.49l-1.95-6.8l-2.25,7.52
		c0.15,6.02,0.69,22.83,3.28,26.87c5.57,8.69,16.52,19.07,22.64,23.57c-5-0.42-10.32-1.17-14.05-2.78
		c-3.99-2.03-20.46-17.33-23.42-22.88c-2.7-5.27-4.21-18.74-4.61-25.34l-1.68-7.09l-2.57,7.04c0.14,6.02,0.66,23.43,3.26,27.49
		c5.27,8.21,15.06,17.6,21.22,22.47c-2.4-0.47-4.53-1-6.11-1.68c-4-2.03-20.47-17.33-23.43-22.88c-2.72-5.31-4.14-18.36-4.56-25.24
		l-1.83-7.66l-2.41,7.46c0.09,4.27,0.5,23.31,3.21,27.54c3.62,5.64,9.54,12.04,15.09,17.19
		C193.2,165.13,185.09,150.56,185.09,128.95z M210.08,78.74c-17.22,9.25-27.09,27.55-27.09,50.21c0,25.17,10.54,41.26,32.23,49.2
		l1.03-1.8c-6.51-5.33-15.18-13.97-19.85-21.24c-1.85-2.88-2.74-17.67-3.02-26.74c0.57,6.98,2.19,21.32,4.98,26.76
		c3.23,6.05,19.87,21.5,24.4,23.8c2.74,1.19,6.36,2.03,11.14,2.6l0.66-1.95c-4.86-2.9-18.12-14.95-24.23-24.47
		c-1.85-2.9-2.75-17.76-3.03-27.25c0.56,7.6,2.29,21.99,4.99,27.27c3.24,6.05,19.87,21.5,24.4,23.8c5.2,2.24,12.95,2.93,19.13,3.29
		c0,0,0.01-1.42,0.02-1.87c0.02-0.05,0.1-0.23,0.1-0.23c-0.03,0-0.06-0.01-0.1-0.01c0-0.01,0-0.07,0-0.07
		c-3.31-1.29-18.42-14.56-25.07-24.93c-1.62-2.53-2.64-15.03-3.01-26.96c0.59,7.66,2.29,21.73,4.97,26.98
		c3.24,6.05,19.86,21.5,24.4,23.8c7.06,3.03,18.81,3.39,31.24,3.76c1.25,0.04,1.81,0.01,2.26-0.04c-0.03,0.01-0.13,0.09-0.13,0.09
		c11.2,0.24,18.59-3.63,19.76-10.35c0.38-2.09,0.01-4.4-1-6.33l-0.17-0.33l-0.33-0.15c-3.46-1.56-8.53-2.35-15.08-2.35
		c-22.16,0-31.02-10.55-31.88-19.58c-0.83-8.75,5.44-19.54,21.19-22.56c2.48-0.64,5.75-0.95,10.03-0.95h19.5
		c15.24,0,51.12,3.06,69.8,5.96l1.21,0.18V73.36l-0.86-0.16c-30-5.61-61.45-8.58-90.96-8.58C255.04,64.62,228.35,69.24,210.08,78.74
		z"/>
	<g>
		<path class="st0" d="M624.93,242.1c4.44,0,7.97,3.61,7.97,8.11c0,4.58-3.53,8.15-8.01,8.15c-4.44,0-8.04-3.57-8.04-8.15
			c0-4.51,3.61-8.11,8.04-8.11H624.93z M624.89,243.36c-3.57,0-6.49,3.06-6.49,6.85c0,3.86,2.92,6.89,6.53,6.89
			c3.61,0.04,6.49-3.03,6.49-6.86c0-3.82-2.88-6.89-6.49-6.89H624.89z M623.37,254.94h-1.44v-9.05c0.76-0.11,1.48-0.22,2.56-0.22
			c1.37,0,2.27,0.29,2.81,0.69c0.54,0.4,0.83,1.01,0.83,1.88c0,1.19-0.79,1.91-1.77,2.2v0.07c0.79,0.14,1.33,0.86,1.52,2.2
			c0.21,1.41,0.43,1.95,0.58,2.24h-1.51c-0.22-0.29-0.44-1.12-0.61-2.31c-0.22-1.15-0.8-1.59-1.95-1.59h-1.01V254.94z
			 M623.37,249.92h1.05c1.19,0,2.2-0.43,2.2-1.55c0-0.79-0.57-1.59-2.2-1.59c-0.47,0-0.79,0.04-1.05,0.07V249.92z"/>
	</g>
</g>
</svg>
