<?xml version="1.0" encoding="utf-8"?>
<!-- Generator: Adobe Illustrator 24.3.0, SVG Export Plug-In . SVG Version: 6.00 Build 0)  -->
<svg version="1.1" id="Layer_1" xmlns="http://www.w3.org/2000/svg" xmlns:xlink="http://www.w3.org/1999/xlink" x="0px" y="0px"
	 viewBox="0 0 109 23" style="enable-background:new 0 0 109 23;" xml:space="preserve">
<style type="text/css">
	.ufcw-sto0{fill:#FFC425;}
	.ufcw-sto1{fill:#FFFFFF;}
</style>
<path class="ufcw-sto0" d="M23.6,22.5H26c0-1.3,1.1-2.4,2.5-2.5v-2.4C25.8,17.8,23.6,19.9,23.6,22.5z"/>
<path class="ufcw-sto0" d="M19.7,22.5h2.1c0-3.6,3-6.6,6.7-6.6v-2C23.6,13.9,19.7,17.8,19.7,22.5z"/>
<path class="ufcw-sto0" d="M15.8,22.5h1.8c0-5.9,4.9-10.8,10.9-10.8V10C21.5,10.1,15.8,15.7,15.8,22.5z"/>
<path class="ufcw-sto0" d="M11.9,22.5h1.4c0-8.2,6.8-14.9,15.1-14.9V6.2C19.3,6.2,11.9,13.5,11.9,22.5z"/>
<path class="ufcw-sto0" d="M8,22.5h1.1C9.1,12,17.8,3.5,28.4,3.4V2.3C17.2,2.3,8,11.4,8,22.5z"/>
<path class="ufcw-sto0" d="M4.1,22.5h0.8c0-9.6,5.9-17.9,14.3-21.4h-1.8C9.5,5.1,4.1,13.2,4.1,22.5z"/>
<path class="ufcw-sto0" d="M0.2,22.5h0.5c0-8.7,4.1-16.4,10.4-21.4h-0.7C4.1,6.2,0.2,13.9,0.2,22.5z"/>
<path class="ufcw-sto1" d="M43.5,13.3c0,2.6-0.3,5.9-3,7.9c-3,2.2-9.9,2.4-13.5,0.3c-3.8-2.1-3.6-7.2-3.6-8.2v-9l-2.5-3.2h10.3l-2.5,3.2v9
	c0,0.8-0.1,3.6,1.9,5.3c1.9,1.6,4.2,1.4,6-0.1c1.7-1.3,1.6-4.2,1.6-5.2V2.9c0-0.8,0.7-1.6,1.5-1.7c0.9-0.1,1.6-0.1,2.3,0
	c0.8,0.1,1.5,0.9,1.5,1.7L43.5,13.3L43.5,13.3z M77.6,19.8c0.8,0,0.5,1.8-0.1,2.1c-2.2,0.9-7.3,1.2-9.6,0.5c-4.3-1.3-8.3-4.1-9-9.2
	c-0.3,0.1-0.7,0.1-1,0.1c-0.7,0-2.6,0.1-3.7,0.1c-1.3,0.1-3.5,0.7-3.5,2.8v4.5c0,1-0.7,1.8-1.9,1.8h-6.2l2.5-3.1v-4.7V3.5
	c0-1.8,1.3-2.4,2.3-2.4c4.2,0,9.1,0,10.6,0c1,0,1.7,0.2,1.9,0.8c0.1,0.5,0.1,0.7,0,1.1c-0.1,0.4-0.9,0.6-1.7,0.6
	c-0.9,0.1-2,0.1-3.2,0.2c-2,0.1-4.2,0.5-4.2,3.3c0,3.1,3.1,3.6,3.9,3.6c0.8,0,2.2,0.1,3.3,0.1c0.3,0,0.6,0.1,0.9,0.1
	c0.3-5.2,3.5-8.1,7.2-9.6c2.2-0.9,8.7-1.1,11,0.4c0.1,0.1,0.3,0.2,0.4,0.3C77.6,1.5,78,1,78.7,1c1.2,0,1.6-0.1,2.5,0.1
	c0.9,0.2,1.5,1.5,1.6,2.7C83,5.9,84,11,84.5,12.6c0.8,2.9,2,2.5,3-1.4C88,9,88.6,5.9,89,3.5c0.3-1.8,1-2.6,2.4-2.6
	c1.5,0,3.1,0,3.7,0c1.3,0,1.9,0.5,2.3,2.6c0.4,2.1,1,5.7,1.6,8.1c1,4,2.2,3.6,2.9,0.9c0.6-2.2,1.5-6.6,1.8-8.7
	c0.2-1.1,0.6-2.4,1.5-2.5c1-0.2,1.4-0.1,2.5-0.1c1.8,0,1.3,2.2,0.8,4.2c-0.4,1.9-2.6,10.5-3.3,13.4c-0.5,2.5-0.8,3.8-3.1,3.9
	c-1.1,0-2.4,0-3.2,0c-2.1-0.1-2.2-2.2-2.7-4.5c-0.3-1.6-1-5.1-1.4-6.9c-0.7-2.7-2.2-2.6-2.9,0.1c-0.5,1.6-1.3,4.9-1.6,6.8
	c-0.4,2.5-0.8,4.5-2.8,4.5c-1.5,0-1.9,0-3.1,0c-2.2-0.1-2.6-1.6-3.3-4.1c-0.5-2.1-2.5-11-3.1-13.1c-0.1-0.5-0.3-1-0.3-1.5
	c-0.1,0-0.2,0-0.3,0c-6.6-1-9.2,0-11.7,3.5c-1.8,2.5-1,6.9-0.2,8.2C68.2,20.5,72.8,20,77.6,19.8z"/>
</svg>
