<svg height="58" viewBox="0 0 190 58" width="190" xmlns="http://www.w3.org/2000/svg"><path d="m215 30v57.2683246h-190v-57.2683246zm-.814895.6988414h-90.420859v55.8686043h90.420859zm-118.4974024 9.8489783c-.6751874 2.3002682-1.9371448 4.8592911-2.0195338 6.9945268 2.0195338-2.90335 5.2045698-3.5940417 8.4860612-3.7692615 2.270719-.2546798 4.635885.8801735 5.47786 2.7464673.669159 1.7012612 1.089141 4.3438191-.841975 5.7109404l-.336964.1920215c-5.566831 3.0951975-14.1531611 4.2340694-15.2224892 12.2587659-.8439842 4.6901837-.5063905 9.8917645 3.2794818 13.1312919 2.6907023 1.876481 6.2233794 2.4754879 9.6696484 1.876481 2.863518-.4298996 1.764329-4.1787866 3.615066-5.5438705.506391 2.3043431 2.600276 4.6086861 4.788606 5.4644103 5.445708 2.6425579 4.467088-3.8466841 6.14501-5.890235l-.081131.0011591-.051537.0041527-.03706.0076984c-.064239.0182117-.122739.0608033-.417042.1581347-1.259948.511397-2.855481.2546798-3.448279-1.0248317l.033802-16.5142274-.019029-6.4414422c-.007946-.9875101-.018763-1.7159189-.033161-2.078999l-.005726-.121586c-.114541-1.9987272-.982639-4.0952516-.982639-4.0952516-3.283501-6.6481622-12.531157-5.6233306-17.9989694-3.0663451zm-25.8399854-.148733c-5.4175753 3.2110033-7.2482174 9.0340028-8.5825164 14.5289748-1.3805171 8.7446865.3315653 17.0553986 6.9990411 22.5462957 4.7464069 3.6286782 12.2438006 3.0418958 17.2393837.1670699.6320364-2.3181762 1.6355995-5.0167044 2.0931682-7.1635682l.0710487-.3525428-1.5834753 2.0313263c-2.730892 2.9155746-8.8276737 2.870751-12.5733563 1.2652494-2.6665885-1.1409657-3.9988779-3.5492181-4.9975927-5.6579671-.8545969-2.3862863-1.0680027-4.8280231-.32416-6.7417249l.0749837-.1835289h21.5738459c.6691589-7.0984362-.4179732-13.9360801-5.1663895-19.0846875-3.8280716-3.8018605-10.3850257-3.7386999-14.8239811-1.3548967zm-22.9965622-1.2795115c-3.2051308.4584237-5.5461825 2.689419-6.9568419 5.462373-.1848727-1.3589716-.1848727-2.805553-.1667874-4.2847334-2.7813971 1.8046273-5.7816049 3.4583935-8.3928548 5.3108231l-.5533786.4001173h.747529c1.1052175.16707 1.8205946 2.1189362 1.8447085 3.2925008 0 8.6774511-.0944459 17.8072135-.1125313 26.0343906-.0915838 1.3335962-1.4945116 3.0043782-2.942674 3.9459843l-.1358591.0861068 12.1151934.065198c-.9626049-.5690011-2.2785546-2.6380957-2.4563686-3.8646323l-.0132901-.1124479-.008038-20.777799.0464899-.5338109c.2460371-2.7572324.6074457-5.4897837 2.2403056-7.6200184 1.40865-2.2697066 4.2339878-2.3308298 6.3901667-1.90908 1.7289956.6556591 3.0211295 2.1066816 3.2688578 4.1658353l.018662.1779838-.0964554 26.3012951c-.4786166 1.6188905-1.381386 2.9327655-3.0704665 4.049409l-.1909299.1232653h12.8084662c-1.5284727-.3265723-2.7099228-2.5027597-3.233032-3.8595571l-.0444403-.1175231v-25.22349c-.0221043-4.184899-.9163258-6.5809268-3.1548936-8.9280561-2.5359718-2.1209736-4.4228795-2.5325362-7.9515376-2.1841342zm118.258274 30.6521514c1.070508 0 1.878621.1644125 2.474159.3437717l.172334.0541066.07837 2.2084256h-.383811c-.052247-.673178-.781691-1.9692967-2.210436-1.9692967-1.945182 0-2.262681 2.0778089-2.262681 3.7296067 0 2.0918754.727434 3.9727546 2.568123 3.9727546 1.172201 0 1.815754-.3483467 2.229644-.6202555l.085285-.0569414v.9143163c-.448116.1969297-1.177559.5043811-2.542001.5043811-2.869546 0-3.900413-1.7361962-3.900413-4.7142551 0-2.4053552.739491-4.3666139 3.691427-4.3666139zm-22.865343.0018086c.812335 0 1.614539.1452133 2.047518.2173978l.108661.0177121.080379 2.0536951h-.383811c-.106503-.7153772-.450125-1.6538073-1.852747-1.6538073-1.071056 0-1.667874.5425613-1.667874 1.2298056 0 1.2961188 2.250625 1.9070026 3.241302 2.6746264.649064.5003621 1.111246 1.0831132 1.111246 1.9833631 0 1.8648033-1.440802 2.5540572-3.452298 2.5540572-.957855 0-1.760366-.2009347-2.234176-.3241972l-.120942-.0314819-.07837-2.1843117h.381803c.160759.6731779.464191 1.9049931 2.196368 1.9049931 1.153446 0 1.8005-.6229408 1.8005-1.4307543 0-1.2961188-1.547304-1.772367-2.765053-2.5520477-.793747-.516438-1.442811-1.1514357-1.442811-2.2104351 0-1.4307543 1.097179-2.2486152 3.030305-2.2486152zm6.82723 0c.812335 0 1.614539.1452133 2.047518.2173978l.108661.0177121.080379 2.0536951h-.383811c-.106503-.7153772-.450125-1.6538073-1.852747-1.6538073-1.071056 0-1.667874.5425613-1.667874 1.2298056 0 1.2961188 2.250625 1.9070026 3.243311 2.6746264.647055.5003621 1.111246 1.0831132 1.111246 1.9833631 0 1.8648033-1.442811 2.5540572-3.454307 2.5540572-.957855 0-1.760366-.2009347-2.234176-.3241972l-.120942-.0314819-.07837-2.1843117h.381803c.160759.6731779.464191 1.9049931 2.198378 1.9049931 1.151436 0 1.79849-.6229408 1.79849-1.4307543 0-1.2961188-1.547304-1.772367-2.765053-2.5520477-.793747-.516438-1.440802-1.1514357-1.440802-2.2104351 0-1.4307543 1.09718-2.2486152 3.028296-2.2486152zm7.515479-.0012057c2.767063 0 3.613057 1.7201203 3.613057 4.5414392 0 2.8172999-.845994 4.5354108-3.613057 4.5354108-2.750987 0-3.611047-1.7181109-3.611047-4.5354108 0-2.8213189.86006-4.5414392 3.611047-4.5414392zm39.271393 0c2.767062 0 3.611047 1.7201203 3.611047 4.5414392 0 2.8172999-.843985 4.5354108-3.611047 4.5354108-2.750987 0-3.613057-1.7181109-3.613057-4.5354108 0-2.8213189.86207-4.5414392 3.613057-4.5414392zm-8.243114.1312194.066313 2.0516856h-.383812c-.126598-.9360553-.408827-1.3978925-1.643653-1.4379437l-.18297-.002858h-.502372v6.6413525c0 .9793232.179543 1.2096455.991746 1.2302294l.133566.0015858v.3295557h-3.705493v-.3295557c.880055 0 1.1036-.1813562 1.123755-1.083331l.001558-.1484842v-6.6413525h-.516438c-1.325439 0-1.640189.433937-1.791901 1.3122973l-.020656.1285044h-.383812l.07837-2.0516856zm4.260915 0v.3335748c-.881964 0-1.103791.1795426-1.123769 1.0796131l-.001544.1481831v5.6908654c0 .9793232.177729 1.2096455.991474 1.2302294l.133839.0015858v.3295557h-3.705493v-.3295557c.891508 0 1.104745-.1813562 1.12384-1.083331l.001472-.1484842v-5.6908654c0-.9774142-.168661-1.2058275-.990114-1.2262253l-.135198-.0015709v-.3335748zm10.492734 0 4.141551 7.1055439h.026123v-5.5441729c0-.9774142-.179542-1.2058275-.991746-1.2262253l-.133566-.0015709v-.3335748h3.082552v.3335748c-.904872 0-1.104268.1795426-1.121945 1.0796131l-.001358.1481831v7.2522363h-1.257938l-4.352548-7.4752893h-.026123v5.9139184c0 .9793232.166848 1.2096455.989842 1.2302294l.13547.0015858v.3295557h-3.084561v-.3295557c.880054 0 1.1036-.1813562 1.123754-1.083331l.001558-.1484842v-5.6908654c0-.9774142-.179543-1.2058275-.991746-1.2262253l-.133566-.0015709v-.3335748zm-67.970476.000201 2.698741 7.2642933c.349887.921054.639253 1.1888372 1.444409 1.217154l.157151.0026042v.3295558h-3.771806v-.3295558c.516438 0 .994696-.0542561.994696-.4641913 0-.1190621-.022607-.2460365-.061886-.3690548l-.044617-.1212599-.528495-1.4287448h-3.428183l-.502372 1.3483653c-.066313.1607589-.120569.3315653-.120569.5063906 0 .3787882.251237.5098046.848637.5265887l.144049.0019062v.3295558h-3.227235v-.3295558c.861623 0 1.205239-.2616922 1.586097-1.2167492l.06771-.1758249 2.658551-7.0914774zm38.040382.0006028v.3335748c-.880055 0-1.1036.177729-1.123755 1.0793411l-.001558.1484551v5.6908654c0 1.0067527.200949 1.2157393 1.073066 1.2257867.824599-.0113477 1.168589-.2718995 1.542945-1.2038365l.070672-.1827091 2.66056-7.0914775h1.083114l2.700749 7.2642933c.347996.921054.637251 1.1870572 1.4424 1.2151646l.157152.0025842v.3295557h-3.769797v-.3295557c.516438 0 .992686-.0522467.992686-.4621819 0-.1190621-.022606-.2460365-.061886-.3690547l-.044616-.12126-.528495-1.4287448h-3.428184l-.502372 1.3483654c-.064303.1607589-.120569.3315652-.120569.5063905 0 .3787882.25297.508072.849008.5246085l.143678.001877v.3295557h-6.840291v-.3295557c.893417 0 1.106749-.1795426 1.125849-1.0813361l.001473-.1484696v-5.6908654c0-.9793232-.168662-1.2060184-.991837-1.2262396l-.135485-.0015566v-.3335748zm-15.851834.5029745c-1.772367 0-2.049676 1.83868-2.049676 3.9064415 0 2.07379.277309 3.9004131 2.049676 3.9004131 1.76031 0 2.051686-1.8266231 2.051686-3.9004131 0-2.0677615-.291376-3.9064415-2.051686-3.9064415zm39.271393 0c-1.772367 0-2.049676 1.83868-2.049676 3.9064415 0 2.07379.277309 3.9004131 2.049676 3.9004131 1.76031 0 2.051685-1.8266231 2.051685-3.9004131 0-2.0677615-.291375-3.9064415-2.051685-3.9064415zm-18.920319.9920834-1.509125 3.9968684h2.978059zm-43.345869-.0004106-1.508681 3.9966762h2.978059zm-25.796941-15.2688727v16.1482326c-1.762319 1.3483654-4.201836 1.7683481-6.472556 1.2619575-1.6015602-.6751874-3.112694-1.6799306-3.7858719-3.4482786-.5023716-2.9459071-.4240017-6.7277605 2.4395164-8.9160911 2.3551185-2.2727291 5.2990155-3.1910644 7.8189115-5.0458204zm54.033682-1.2746172c1.204687 0 2.110505.1806724 2.774723.3717573l.175203.0522443.088418 2.3691845h-.428021c-.058275-.7234151-.868098-2.1119702-2.461621-2.1119702-2.168235 0-2.521905 2.2245014-2.521905 3.9988779 0 2.2405773.811832 4.2520732 2.861509 4.2520732 1.313073 0 2.029188-.3708915 2.491088-.6639621l.089092-.0574435v.9766104c-.502371.215015-1.312195.5405518-2.831366.5405518-3.199103 0-4.350538-1.8587749-4.350538-5.0478298 0-2.58219.825899-4.6800938 4.113418-4.6800938zm32.135305.000201c3.082552 0 4.027011 1.842699 4.027011 4.862957 0 3.0202581-.944459 4.8649666-4.027011 4.8649666-3.068486 0-4.025001-1.8447085-4.025001-4.8649666 0-3.020258.956515-4.862957 4.025001-4.862957zm-42.442965.1424726v.3536696c-.983691 0-1.231027.1932023-1.252352 1.1680668l-.001568.1521657v4.7343499c0 1.4186974.267262 2.5239149 2.109961 2.5239149 1.691629 0 2.245332-.6988245 2.282725-2.3379123l.002061-.1860026v-4.7343499c0-1.0545019-.200493-1.2979186-1.111824-1.31871l-.142095-.0015225v-.3536696h3.584923v.3536696c-.983691 0-1.231026.1932023-1.252352 1.1680668l-.001567.1521657v4.7343499c0 1.6035702-.514429 3.176998-3.554782 3.176998-2.481391 0-3.474174-1.0369451-3.535642-2.9797072l-.003063-.1972908v-4.7343499c0-1.0545019-.200493-1.2979186-1.111825-1.31871l-.142095-.0015225v-.3536696zm37.119032 0v.3516601c-.983692 0-1.229205.195025-1.250356 1.1700631l-.001554.1521789v6.0967817c0 1.0525881.19867 1.2959137 1.109828 1.3167007l.142082.0015224v.3556791h-4.129495v-.3556791c.997088 0 1.232303-.1932023 1.252443-1.166331l.001477-.1518921v-6.0967817c0-1.0545019-.187735-1.2997412-1.110002-1.3207062l-.143918-.0015358v-.3516601zm-5.485496-.0006029.074351 2.1983781h-.428021c-.142237-1.0033453-.457297-1.5010901-1.840313-1.5424756l-.195297-.0028194h-.560646v7.1176008c0 1.0525881.200493 1.2959136 1.111824 1.3167007l.142095.0015223v.3556791h-4.129494v-.3556791c.983691 0 1.231026-.1932023 1.252352-1.1663309l.001567-.1518921v-7.1176008h-.576722c-1.480031 0-1.827516.4651524-1.995623 1.4130433l-.021902.1322517h-.42802l.086407-2.1983781zm18.655468-.0008038 4.613781 7.6139439h.030142v-5.9400417c0-1.0545019-.200493-1.2979186-1.111824-1.31871l-.142095-.0015226v-.3536696h3.436222v.3536696c-1.012781 0-1.234589.1940815-1.252661 1.1747258l-.001259.1455068v7.7706838h-1.400612l-4.8509-8.0118222h-.030142v6.3379201c0 1.0525881.187734 1.2977363 1.110002 1.3186969l.143917.0015356v.3536696h-3.436222v-.3536696c.983692 0 1.231027-.195025 1.252353-1.1683272l.001567-.1519053v-6.0967817c0-1.0545019-.200493-1.2979186-1.111825-1.31871l-.142095-.0015226v-.3536696zm-65.579789 0 .086408 2.0577141h-.426011c-.057773-.7337137-.235504-1.3511598-1.704021-1.4013399l-.198963-.0032911h-.944458c-.678202 0-.861881.199575-.882192.8785493l-.001982.1422698v2.5098485h1.931116c.90998 0 1.089531-.1767458 1.105911-.9915607l.001316-.1417896h.397879v2.9358596h-.397879c0-.8046877-.130846-1.116462-.954559-1.14862l-.152668-.0028157h-1.931116v2.9358596c0 .8985577.104604 1.0107772.768303 1.0201007l.115871.0007184h1.358413c1.204586 0 1.636596-.4606447 1.714689-1.2733922l.00945-.1312388h.428021l-.088418 2.057714h-7.181904v-.3536696c.983691 0 1.229204-.195025 1.250356-1.1683272l.001554-.1519053v-6.0967817c0-1.0545019-.198671-1.2979186-1.109829-1.31871l-.142081-.0015226v-.3536696zm35.331996.000201 3.008201 7.7847502c.390956.9925747.715594 1.2753541 1.618882 1.3037105l.165542.0024557v.3516601h-4.201836v-.3516601c.574713 0 1.105217-.0582751 1.105217-.4963432 0-.1281047-.024867-.2641218-.06782-.395335l-.04873-.1291409-.590789-1.5312286h-3.820034l-.560646 1.4448207c-.072342.1708063-.130617.3556791-.130617.5385423 0 .410739.281828.5501527.954948.5669157l.150269.001769v.3516601h-3.59899v-.3516601c.965188 0 1.346033-.2813504 1.773011-1.312209l.071698-.1788299 2.961983-7.5998775zm-33.535113.0002009h3.820034c2.801224 0 4.822767.735472 4.822767 4.6921507 0 4.0082555-1.89043 4.7197864-4.63437 4.7494306l-.188397.0009952h-3.820034v-.3536696c.997088 0 1.232303-.1932023 1.252443-1.1663309l.001476-.1518921v-6.0967817c0-1.0545019-.187734-1.296096-1.110002-1.3167138l-.143917-.0015093v-.3556791h3.820034zm55.936867.5377386c-1.975325 0-2.286796 1.9713061-2.286796 4.1837506 0 2.2265109.311471 4.1837507 2.286796 4.1837507 1.961259 0 2.286795-1.9572398 2.286795-4.1837507 0-2.2124445-.325536-4.1837506-2.286795-4.1837506zm-52.116833.113335c-.738263 0-.924463.1290537-.942874.8831613l-.001585.1396673v6.0967817c0 .7093487.044209 1.0208191.944459 1.0208191 2.535971 0 3.082552-1.2619575 3.082552-4.0993523 0-2.6083133-.309461-4.0410771-3.082552-4.0410771zm28.816838.9522956-1.68194 4.2822155h3.319672zm-93.9911133-16.0103818c5.2507879 3.8341 7.9153669 9.3280358 8.8296832 15.2439637-5.0799816 2.7509869-12.6597642 2.4937726-17.8241443.1667874.66514-6.0827153 3.6653032-11.5766511 8.9944611-15.4107511zm-1.8306421 12.6597642c-.7515479-.0823889-2.2486153-.0823889-1.7482531 1.1655021.1667873.6671495.2471668 1.4166879 1.1655021 1.4166879.8339368-.4983526 1.0007242-1.7462437.582751-2.58219zm4.8308053-.4139542c-.6631305.07837-2.1662263-.3335747-1.5834753.9987147.2511858.5827511.1687969 2.0818279 1.4166879 1.5834753.7495384-.669159.0843984-1.7522721.1667874-2.58219zm-8.9964706-3.5849237 1.1655021 1.7522721-1.1655021 1.8326516 10.1659917-.9987147zm10.5779364-1.8286326c-3.1669506.8299179-6.0807058-2.5018106-9.163258-.1687969.0843985.9143163 2.0858469.4983526 1.5854848 1.9974295 1.0831132.3315652 2.0818279.2511858 2.1642168-.9987147 2.7529964-.8299179.9163258 3.4985158 3.6653032 2.1662263-.3335747-1.6658642 1.7482532-1.4166879 2.1662263-2.5801805zm90.1246603-8.7712072c3.293549 0 4.300301 1.9672872 4.300301 5.1965318 0 3.2252257-1.006752 5.1945224-4.300301 5.1945224-3.275462 0-4.300301-1.9692967-4.300301-5.1945224 0-3.2292446 1.024839-5.1965318 4.300301-5.1965318zm-25.029358.1495058 3.213168 8.3152547c.416916 1.0641817.765297 1.3636675 1.73713 1.3922445l.167864.0023391v.3797929h-4.489193v-.3797929c.614903 0 1.181578-.0602846 1.181578-.528495 0-.1371474-.025998-.2833375-.072907-.4233108l-.053691-.1373359-.628969-1.6357219h-4.081267l-.596817 1.545295c-.07837.1788443-.142674.3777835-.142674.5747132 0 .4388718.302834.5854125 1.021234.6030007l.160344.0018547v.3797929h-3.844147v-.3797929c1.032775 0 1.439872-.3010512 1.898383-1.4079585l.072923-.1815453 3.164941-8.1203345zm47.807891 0 3.213169 8.3152547c.418819 1.0641817.765497 1.3636675 1.738854 1.3922445l.168149.0023391v.3797929h-4.489193v-.3797929c.614903 0 1.179569-.0602846 1.179569-.528495 0-.1371474-.025998-.2833375-.072059-.4233108l-.05253-.1373359-.630978-1.6357219h-4.079258l-.598827 1.545295c-.07837.1788443-.142673.3777835-.142673.5747132 0 .4388718.302834.5854125 1.021233.6030007l.160345.0018547v.3797929h-3.844148v-.3797929c1.034685 0 1.440064-.3010512 1.896675-1.4079585l.072622-.1815453 3.166951-8.1203345zm-35.269701.000201.080379 2.3490896h-.458162c-.152135-1.0745729-.490667-1.6065635-1.97419-1.6490304l-.200075-.0027674h-.598827v7.6038964c0 1.1278699.216053 1.386035 1.1952 1.4071742l.145128.0014758v.3777834h-4.410823v-.3777834c1.051144 0 1.314977-.2068982 1.336789-1.2533737l.001529-.1552763v-7.6038964h-.614903c-1.584898 0-1.953601.5019808-2.135444 1.5165543l-.022744.1352435h-.456154l.094446-2.3490896zm-26.463127.0008038 4.92927 8.1344009h.032152v-6.345958c0-1.1278699-.214222-1.3878659-1.19495-1.4091716l-.145378-.0014879v-.3777834h3.671332v.3777834c-1.084074 0-1.31874.2095944-1.337096 1.2618828l-.001222.1487767v8.2971693h-1.497067l-5.182466-8.5543836h-.032152v6.7699596c0 1.1302051.202241 1.3871002 1.199373 1.4073025l.140955.0013475v.375774h-3.671332v-.375774c1.053062 0 1.315151-.2068982 1.336801-1.2533737l.001517-.1552763v-6.5127453c0-1.1278699-.214222-1.3878659-1.193202-1.4091716l-.145116-.0014879v-.3777834zm32.953366 0v.3777834c-1.053062 0-1.316982.2087292-1.338798 1.2553712l-.001529.1552883v6.5127453c0 1.1278699.216053 1.386035 1.195199 1.4071742l.145128.0014758v.375774h-4.410822v-.375774c1.068697 0 1.317402-.2077558 1.337008-1.2598844l.001309-.1487656v-6.5127453c0-1.1302051-.20224-1.3889388-1.197613-1.4093009l-.140704-.0013586v-.3777834zm15.012471 0 4.92927 8.1344009h.032152v-6.345958c0-1.1278699-.214222-1.3878659-1.19495-1.4091716l-.145377-.0014879v-.3777834h3.671331v.3777834c-1.084074 0-1.31874.2095944-1.337096 1.2618828l-.001222.1487767v8.2971693h-1.497067l-5.182466-8.5543836h-.032151v6.7699596c0 1.1302051.20224 1.3871002 1.199372 1.4073025l.140955.0013475v.375774h-3.671332v-.375774c1.053063 0 1.315151-.2068982 1.336802-1.2533737l.001516-.1552763v-6.5127453c0-1.1278699-.214222-1.3878659-1.193201-1.4091716l-.145117-.0014879v-.3777834zm24.241238.0002009v.3777835c-1.053062 0-1.315151.2087291-1.336801 1.2553711l-.001517.1552883v6.5127454c0 .8141769.125469 1.0637439.909649 1.0889607l.145332.0021904h1.165502c1.19695 0 1.655781-.4660853 1.927816-1.5257493l.04148-.1722667h.456154l-.094446 2.3912888h-7.623991v-.375774c1.053062 0 1.31515-.2068982 1.336801-1.2533737l.001516-.1552762v-6.5127454c0-1.1278699-.214222-1.3878659-1.193201-1.4091716l-.145116-.0014878v-.3777835zm-33.25278.5767226c-2.11197 0-2.441526 2.1059417-2.441526 4.4690977 0 2.375213.329556 4.4650788 2.441526 4.4650788 2.093885 0 2.441526-2.0898658 2.441526-4.4650788 0-2.363156-.347641-4.4690977-2.441526-4.4690977zm-25.989893 1.1361636-1.796481 4.5715815h3.544734zm47.807892 0-1.796481 4.5715815h3.544734z" fill="#fff" fill-rule="evenodd" transform="translate(-25 -30)"/></svg>