<svg width="83" height="40" viewBox="0 0 83 40" fill="none" xmlns="http://www.w3.org/2000/svg">
<path d="M16.4311 19.2316L22.7708 21.8215C22.3452 24.2254 21.6748 26.2328 20.7594 27.8437C19.8441 29.4545 18.707 30.6705 17.3497 31.4916C15.9923 32.311 14.2652 32.7223 12.1684 32.7223C9.62464 32.7223 7.5459 32.2221 5.93385 31.2234C4.3218 30.2246 2.92995 28.4657 1.7583 25.9498C0.585005 23.4323 0 20.2106 0 16.2847C0 11.0506 1.03033 7.02756 3.08935 4.21719C5.15001 1.40518 8.06353 0 11.8316 0C14.7796 0 17.0982 0.806252 18.7859 2.41711C20.4735 4.02797 21.7257 6.50432 22.5457 9.84122L16.1583 11.7614C15.9348 10.7972 15.6998 10.093 15.455 9.64541C15.0507 8.89675 14.5561 8.3225 13.9695 7.91938C13.3844 7.51625 12.7288 7.31551 12.0057 7.31551C10.3658 7.31551 9.1103 8.20732 8.23772 9.98931C7.57712 11.3122 7.24847 13.3887 7.24847 16.2188C7.24847 19.7252 7.64286 22.1292 8.42998 23.4307C9.21711 24.7322 10.3247 25.3821 11.751 25.3821C13.1774 25.3821 14.1798 24.8573 14.888 23.8058C15.5963 22.7561 16.109 21.2308 16.4294 19.2299L16.4311 19.2316Z" fill="#CC0000"/>
<path d="M23.8718 0.539697H30.7423L33.2155 18.2542L36.8356 0.539697H43.6814L47.3114 18.2295L49.7862 0.539697H56.6206L51.4607 32.1826H44.3683L40.2634 12.26L36.1733 32.1826H29.081L23.8718 0.539697Z" fill="#CC0000"/>
<path d="M73.3737 26.9585H65.1623L64.0219 32.1826H56.637L65.4334 0.539697H73.3228L82.1192 32.1826H74.5454L73.3737 26.9585ZM71.8734 20.1168L69.2902 8.74208L66.7333 20.1168H71.8734Z" fill="#CC0000"/>
<path d="M82.0929 34.7347H0.0936645V40H82.0929V34.7347Z" fill="#CC0000"/>
</svg>
