<?xml version="1.0" encoding="utf-8"?>
<!-- Generator: Adobe Illustrator 21.0.0, SVG Export Plug-In . SVG Version: 6.00 Build 0)  -->
<svg version="1.1" id="Layer_1" xmlns="http://www.w3.org/2000/svg" xmlns:xlink="http://www.w3.org/1999/xlink" x="0px" y="0px"
	 viewBox="0 0 64 64" style="enable-background:new 0 0 64 64;" xml:space="preserve">
<style type="text/css">
	.st0{fill:#E9CCAB;}
	.st1{fill:#FFFFFF;}
	.st2{fill:#E03A3E;}
	.st3{fill:#D4A46B;}
	.st4{fill:#00AEEF;}
</style>
<g>
	<g>
		<path class="st0" d="M27.7,58.5l4.4,1.6l5.1-1.6l11.8,0l0.4,1c0,0,11.2-0.8,13.7-12.6c0.1-0.6,0.1-1.4-0.2-2.6l-8.8-33.5
			C51.8,3.4,35.3,3.4,32,3.3c-3.3-0.1-19.8,0-22.1,7.6L1.1,44.4c-0.3,1.2-0.3,2-0.2,2.6c2.6,11.8,13.6,12.4,13.6,12.4l0.4-1
			L27.7,58.5z"/>
		<path class="st1" d="M32.1,60.2l-4.4-1.6l-12.7,0l-0.4,1l-0.1,0c0,0-2.8-0.2-5.9-1.8C5.8,56.2,2.1,53.2,0.8,47
			c-0.1-0.6-0.1-1.4,0.2-2.6l8.8-33.5C12.3,2.7,31.2,3.2,32,3.2c0.2,0,0.4,0,0.7,0c2.3,0.1,7,0.2,11.6,1.1c5.7,1.2,9,3.4,10,6.5
			L63,44.4c0.3,1.2,0.3,2,0.2,2.6c-1.3,6.1-5,9.2-7.9,10.8c-3.1,1.7-5.9,1.9-5.9,1.9l-0.1,0l-0.4-1l-11.7,0L32.1,60.2z M14.9,58.3
			L14.9,58.3l12.9,0l0,0l4.3,1.6l5.1-1.5l11.9,0l0.4,1c0.5,0,3-0.4,5.8-1.8C58.1,56.1,61.7,53,63,47c0.1-0.6,0.1-1.3-0.2-2.5
			L54,10.9c-0.9-3-4.2-5.1-9.8-6.3c-4.5-1-9.3-1.1-11.5-1.1c-0.3,0-0.5,0-0.7,0c-0.8,0-19.5-0.5-22,7.5L1.2,44.5
			c-0.3,1.2-0.3,2-0.2,2.5c1.3,6.1,4.9,9.1,7.7,10.6c2.8,1.5,5.3,1.7,5.7,1.8L14.9,58.3z"/>
	</g>
	<g>
		<path class="st2" d="M32,9.1c6.4,0,15.6,1.3,16.4,4.1c0.7,2.6,8.4,30,8.4,30c2.1,8.7-7.8,10.8-9.1,10.8l0.9,6.2
			c0,0,12.7-1.6,14.9-12.6c0.1-0.6,0.3-1.9,0-3l-9-34.2C52.2,2.8,35.4,2.9,32,2.8c-3.3-0.1-20.2,0-22.5,7.7l-9,34.2
			c-0.3,1.2-0.1,2.4,0.1,3c2.9,11.7,14.9,12.6,14.9,12.6l0.9-6.2c-3,0.1-10.8-3.4-9.3-10.3c0,0,7.8-28,8.6-30.6
			C16.4,10.4,25.6,9.2,32,9.1z"/>
		<path class="st2" d="M48.4,60.7l-1-6.9h0.4c1,0,5.4-1,7.7-3.9c1.4-1.8,1.8-4,1.2-6.5c-0.1-0.3-7.6-27.4-8.4-30
			c-0.3-1.1-2.4-2.2-5.9-2.9c-3-0.6-6.8-1-10.2-1c-3.5,0-7.3,0.4-10.2,1c-3.5,0.7-5.6,1.7-5.9,2.9c-0.7,2.6-8.4,29.9-8.6,30.6
			c-0.5,2.3,0,4.3,1.5,6.1c2.1,2.5,5.7,3.8,7.5,3.8l0.4,0l-1,6.9l-0.3,0c-0.1,0-3.1-0.2-6.5-1.9C5.8,57.2,1.8,54,0.2,47.8
			c-0.2-0.8-0.3-2-0.1-3.2l9-34.2c1-3.4,4.8-5.7,11.1-7C25.7,2.3,31,2.4,32,2.5c0.2,0,0.4,0,0.7,0c2.3,0.1,7.2,0.2,11.8,1.2
			c5.9,1.3,9.3,3.5,10.3,6.8l9,34.2c0.3,1.5,0.1,2.9,0,3.2c-0.6,3.2-2.6,7.6-8.4,10.6c-3.5,1.8-6.6,2.2-6.7,2.2L48.4,60.7z
			 M30.9,3.1c-4.2,0-19,0.5-21.2,7.5l-9,34.2c-0.2,1-0.1,2.2,0.1,2.9c1.2,4.8,4,8.3,8.4,10.5c2.7,1.3,5.2,1.7,6,1.8l0.9-5.6
			c-2-0.1-5.4-1.4-7.6-4c-1.6-1.9-2.1-4.2-1.6-6.6l0,0c0.1-0.3,7.8-28,8.6-30.6C16.2,10,25.8,8.9,32,8.8l0,0.3l0-0.3
			c3.5,0,7.4,0.4,10.4,1c3.8,0.8,5.9,1.9,6.4,3.3c0.7,2.6,8.3,29.8,8.4,30c0.7,2.8,0.2,5.1-1.3,7.1c-2.3,2.9-6.3,3.9-7.8,4.1
			l0.9,5.6c0.9-0.1,3.5-0.7,6.3-2.1c4.5-2.3,7.2-5.7,8.1-10.2c0.1-0.7,0.2-1.9,0-2.9l-9-34.2c-1.4-4.7-8.7-7.2-21.6-7.5
			c-0.3,0-0.5,0-0.7,0C31.9,3.1,31.5,3.1,30.9,3.1z"/>
	</g>
	<path class="st1" d="M15,59.7l-0.3-0.1c-4.3-0.8-11.8-3.5-13.8-12.4c-0.1-0.7-0.1-1.8,0.2-2.9L9.9,11c1-3.3,4.6-5.6,10.8-6.8
		C25.9,3.2,31,3.3,32,3.3c0.2,0,0.4,0,0.7,0c2.3,0.1,7,0.2,11.5,1.1c5.7,1.2,9.1,3.4,10,6.6l8.7,33.2c0.2,1.1,0.3,1.9,0.2,2.7
		c-1.3,10-12.5,12.4-13.8,12.7L49,59.6l-0.8-4.9l0.3,0c1.4-0.2,5.8-1.7,8-4.8c1.2-1.8,1.5-3.8,1-6c-0.1-0.3-7.9-28.5-8.7-31.2
		c-0.3-1.2-2.5-2.3-6.1-3c-3.1-0.6-7.1-1-10.6-1c-3.6,0-7.6,0.4-10.6,1c-3.6,0.8-5.8,1.8-6.1,3c-0.8,2.7-8.6,31-8.7,31.2
		c-0.5,2.2-0.2,4.3,1,6c2.3,3.4,7,4.7,8,4.8l0.3,0L15,59.7z M31,3.9c-4.1,0-18.4,0.5-20.5,7.3L1.7,44.4c-0.2,1-0.3,2.1-0.2,2.6
		c1.8,8.4,8.8,11.1,13,11.9l0.6-3.7c-1.9-0.4-6-2-8.1-5c-1.3-1.9-1.7-4.1-1.1-6.5c0.1-0.3,7.9-28.6,8.7-31.3C15.6,9.2,25.5,8,32,7.9
		c6.2,0,16.4,1.2,17.4,4.5c0.8,2.7,8.6,31,8.7,31.2c0.6,2.4,0.2,4.6-1.1,6.5c-2.3,3.3-6.6,4.7-8.1,5l0.6,3.7
		c1.2-0.3,4.3-1.1,7.2-3.1c3.4-2.3,5.3-5.3,5.8-9c0.1-0.6,0-1.4-0.2-2.4l-8.7-33.2c-1.4-4.5-8.4-7-20.9-7.2c-0.3,0-0.5,0-0.7,0
		C31.9,3.9,31.5,3.9,31,3.9z"/>
	<path class="st1" d="M9.2,54.4c0.3-0.5,0.8-0.6,1.3-0.3c0.2,0.1,0.4,0.3,0.5,0.6c0,0.2,0,0.4-0.1,0.6l-0.8,1.4l-0.4-0.3l0.8-1.3
		c0.2-0.3,0.1-0.5-0.1-0.6c-0.3-0.2-0.5-0.1-0.6,0.2L8.9,56l-0.4-0.3L9.2,54.4z"/>
	<path class="st1" d="M6.3,54.1L6,53.8L7.5,52l0.4,0.3l-0.4,1.9l0,0l1.1-1.3L9,53.2L7.4,55l-0.4-0.3l0.4-1.9l0,0L6.3,54.1z"/>
	<path class="st1" d="M6.8,51l0.3,0.4l-1.9,1.5l-0.3-0.4L6.8,51z"/>
	<path class="st1" d="M5.8,49.5l0.2,0.4l-1.7,0.9l0.3,0.6l-0.4,0.2l-0.9-1.7l0.4-0.2l0.3,0.6L5.8,49.5z"/>
	<path class="st1" d="M3.1,47l0.2,1.2l0.5-0.1L3.6,47L4,46.9l0.2,1.1l0.6-0.1l-0.3-1.3L5,46.6l0.4,1.8L3,48.8l-0.3-1.7L3.1,47z"/>
	<path class="st1" d="M3,45.3l0-0.5c0-0.2,0.1-0.5,0.8-0.5c0.4,0,0.8,0.2,0.7,0.6l0,0.5L3,45.3z M5,45.9l0.1-1
		c0.1-0.8-0.6-1-1.2-1.1c-0.4,0-1.1,0.1-1.2,0.9l-0.1,1L5,45.9z"/>
	<path class="st1" d="M4.8,41.2L5,40.6c0-0.2,0.2-0.3,0.4-0.3c0.2,0.1,0.3,0.2,0.2,0.5l-0.2,0.6L4.8,41.2z M5.7,41.9L6,41
		c0.1-0.5,0.1-0.6,0-0.8c-0.1-0.2-0.2-0.3-0.4-0.3c-0.2-0.1-0.5,0-0.7,0.2c0-0.1-0.1-0.3-0.4-0.4c-0.2-0.1-0.6,0-0.8,0.5l-0.3,1.1
		L5.7,41.9z M3.9,41l0.1-0.6c0.1-0.2,0.2-0.3,0.3-0.3c0.2,0,0.2,0.2,0.2,0.4l-0.2,0.6L3.9,41z"/>
	<path class="st1" d="M5.3,38.4l-0.6-0.2l0.2-0.6c0.1-0.3,0.3-0.3,0.4-0.3c0.2,0.1,0.3,0.2,0.2,0.5L5.3,38.4z M6.4,39.2l0.1-0.5
		l-0.9-0.2L5.8,38c0.1-0.4,0.2-0.3,0.5-0.3c0.2,0.1,0.4,0.1,0.5,0.1l0.1-0.5l-0.1,0c-0.1,0.1-0.1,0.1-0.5,0c-0.4-0.1-0.5,0-0.7,0.1
		c0-0.2-0.2-0.4-0.5-0.5c-0.2-0.1-0.7-0.1-0.8,0.5l-0.3,1.2L6.4,39.2z"/>
	<path class="st1" d="M6.1,35.8c-0.6-0.2-0.7-0.6-0.6-0.8c0.1-0.3,0.3-0.6,1-0.4c0.6,0.2,0.7,0.6,0.6,0.8C7,35.6,6.8,36,6.1,35.8z
		 M6,36.3c1.1,0.3,1.4-0.5,1.5-0.8c0.1-0.3,0.2-1.1-0.9-1.4c-1.1-0.3-1.4,0.5-1.5,0.8C5,35.1,4.9,36,6,36.3z"/>
	<path class="st1" d="M8.2,32.6l-0.1,0.5l-1.9-0.5L6,33.3l-0.4-0.1l0.5-1.9l0.4,0.1l-0.2,0.7L8.2,32.6z"/>
	<path class="st1" d="M7.7,30.5l1,0.3l-0.1,0.5l-2.3-0.6l0.1-0.5l0.9,0.2l0.2-0.9l-0.9-0.2l0.1-0.5l2.3,0.6l-0.1,0.5l-1-0.3
		L7.7,30.5z"/>
	<path class="st1" d="M7.9,26.3l-0.3,1.2L8,27.6l0.3-1.1l0.4,0.1l-0.3,1.1L9,27.9l0.3-1.3l0.4,0.1l-0.5,1.7L7,27.9l0.5-1.7L7.9,26.3
		z"/>
	<path class="st1" d="M8.9,25.1L8.2,25l0.2-0.6c0.1-0.3,0.3-0.3,0.4-0.3C9,24.2,9.1,24.3,9,24.6L8.9,25.1z M10,26l0.1-0.5l-0.9-0.2
		l0.1-0.5c0.1-0.4,0.2-0.3,0.5-0.3c0.2,0.1,0.4,0.1,0.5,0.1l0.1-0.5l-0.1,0c-0.1,0.1-0.1,0.1-0.5,0c-0.4-0.1-0.5,0-0.7,0.1
		c0-0.2-0.2-0.4-0.4-0.5c-0.2-0.1-0.7-0.1-0.8,0.5l-0.3,1.2L10,26z"/>
	<path class="st1" d="M9.9,22.5l1,0.3l-0.1,0.5l-2.3-0.6l0.1-0.5l0.9,0.2l0.2-0.9l-0.9-0.2L9,20.8l2.3,0.6l-0.1,0.5l-1-0.3L9.9,22.5
		z"/>
	<path class="st1" d="M10.5,19.8c-0.6-0.2-0.7-0.6-0.6-0.8c0.1-0.3,0.3-0.6,1-0.4c0.6,0.2,0.7,0.6,0.6,0.8
		C11.4,19.7,11.1,20,10.5,19.8z M10.3,20.3c1.1,0.3,1.4-0.5,1.5-0.8c0.1-0.3,0.2-1.1-0.9-1.4c-1.1-0.3-1.4,0.5-1.5,0.8
		C9.3,19.2,9.3,20,10.3,20.3z"/>
	<path class="st1" d="M11.3,16.9c-0.6-0.2-0.7-0.6-0.6-0.8c0.1-0.3,0.3-0.6,1-0.4c0.6,0.2,0.7,0.6,0.6,0.8
		C12.2,16.8,11.9,17.1,11.3,16.9z M11.1,17.4c1.1,0.3,1.4-0.5,1.5-0.8c0.1-0.3,0.2-1.1-0.9-1.4c-1.1-0.3-1.4,0.5-1.5,0.8
		C10.2,16.3,10.1,17.1,11.1,17.4z"/>
	<path class="st1" d="M11.4,13.7l0.1-0.5c0.1-0.2,0.2-0.5,0.9-0.3c0.4,0.1,0.7,0.4,0.6,0.7l-0.1,0.5L11.4,13.7z M13.1,14.7l0.3-1
		c0.2-0.8-0.4-1.2-0.9-1.3c-0.4-0.1-1.1-0.2-1.4,0.6l-0.3,1L13.1,14.7z"/>
	<path class="st1" d="M14.3,10.1c-0.3-0.4-0.2-0.7,0-0.8c0.2-0.1,0.5-0.2,0.8,0.2c0.3,0.4,0.2,0.7,0,0.8
		C14.9,10.4,14.6,10.5,14.3,10.1z M14,10.3c0.5,0.6,1.1,0.3,1.3,0.2c0.2-0.1,0.6-0.6,0.1-1.3C14.8,8.6,14.2,8.9,14,9
		C13.9,9.2,13.4,9.7,14,10.3z"/>
	<path class="st1" d="M16.7,9.6l-0.3,0.2l-0.8-1.6l1.1-0.5l0.1,0.3L16,8.2l0.2,0.4l0.7-0.3L17,8.5l-0.7,0.3L16.7,9.6z"/>
	<path class="st1" d="M20.7,6.6c-0.1-0.1-0.2-0.4-0.6-0.3c-0.2,0.1-0.5,0.3-0.4,0.9C19.8,7.7,20,8,20.4,7.9c0.3-0.1,0.4-0.3,0.4-0.6
		l0.5-0.1c0,0.5-0.2,1-0.8,1.1c-0.6,0.1-1.2-0.2-1.3-1C19,6.6,19.4,6,20,5.9c0.7-0.2,1.1,0.3,1.2,0.6L20.7,6.6z"/>
	<path class="st1" d="M22.9,6L22.9,6l0.4,0.9L22.7,7L22.9,6z M22.7,7.4l0.9-0.1l0.2,0.5l0.5-0.1l-1.2-2.2l-0.6,0.1L22.1,8l0.5-0.1
		L22.7,7.4z"/>
	<path class="st1" d="M25.4,6.2l-0.1-0.6l0.6-0.1c0.3,0,0.4,0.2,0.4,0.3c0,0.2-0.1,0.3-0.4,0.4L25.4,6.2z M25,7.6l0.5,0l-0.1-0.9
		l0.5,0c0.4,0,0.4,0.1,0.4,0.4c0,0.2,0.1,0.4,0.1,0.5l0.5,0l0-0.1c-0.1,0-0.1-0.1-0.1-0.5c0-0.4-0.1-0.5-0.4-0.6
		c0.2-0.1,0.3-0.3,0.3-0.6c0-0.2-0.2-0.7-0.8-0.6l-1.2,0.1L25,7.6z"/>
	<path class="st1" d="M28.2,6.1l0-0.7l0.4,0c0.3,0,0.4,0.1,0.5,0.3c0,0.1,0,0.4-0.4,0.4L28.2,6.1z M28.3,6.5l0.6,0
		c0.6,0,0.7-0.6,0.7-0.8c0-0.5-0.3-0.7-0.8-0.7l-1.1,0l0.1,2.4l0.5,0L28.3,6.5z"/>
	<path class="st1" d="M32.1,5.3l-1.3,0l0,0.5l1.2,0l0,0.4l-1.2,0l0,0.6l1.3,0l0,0.4l-1.8,0l0-2.4l1.7,0L32.1,5.3z"/>
	<path class="st1" d="M34.6,4.9l0.5,0l-0.1,2.4l-0.5,0l-0.9-1.7l0,0l-0.1,1.7l-0.5,0l0.1-2.4l0.5,0l0.9,1.7l0,0L34.6,4.9z"/>
	<path class="st1" d="M36.8,7.4l-0.5,0l0.1-2l-0.7-0.1l0-0.4l1.9,0.1l0,0.4L37,5.5L36.8,7.4z"/>
	<path class="st1" d="M40.2,5.8l-1.3-0.1l-0.1,0.5L40,6.3l0,0.4l-1.2-0.1l-0.1,0.6l1.3,0.1l0,0.4l-1.8-0.2l0.3-2.4l1.7,0.2L40.2,5.8
		z"/>
	<path class="st1" d="M41.5,6.6L41.6,6l0.6,0.1c0.3,0,0.3,0.2,0.3,0.4c0,0.2-0.2,0.3-0.4,0.3L41.5,6.6z M40.8,7.9l0.5,0.1L41.5,7
		L42,7.1c0.4,0.1,0.4,0.2,0.3,0.5c0,0.2,0,0.4,0,0.5l0.5,0.1l0-0.1c-0.1-0.1-0.1-0.1,0-0.5c0.1-0.4,0-0.5-0.2-0.6
		c0.2,0,0.4-0.2,0.5-0.5c0-0.2,0-0.7-0.6-0.8l-1.2-0.2L40.8,7.9z"/>
	<path class="st1" d="M44.1,7.7c0,0.1,0,0.4,0.4,0.5C44.7,8.3,45,8.3,45,8c0-0.2-0.1-0.3-0.3-0.4l-0.2-0.1c-0.4-0.2-0.7-0.4-0.6-0.9
		C44,6.4,44.2,6,45,6.2c0.7,0.2,0.8,0.7,0.7,1L45.2,7c0-0.1,0-0.4-0.4-0.5c-0.2,0-0.4,0-0.5,0.2c0,0.2,0.1,0.3,0.2,0.3l0.5,0.3
		c0.3,0.2,0.6,0.4,0.5,0.8c-0.2,0.7-0.9,0.6-1.1,0.5c-0.8-0.2-0.9-0.7-0.8-1L44.1,7.7z"/>
	<path class="st1" d="M48.8,8.7L48.8,8.7l-0.1,0.7l-0.4-0.2L48.8,8.7z M48,9.4l0.6,0.3l-0.1,0.4l0.4,0.2l0.3-1.9l-0.4-0.2l-1.4,1.3
		l0.3,0.2L48,9.4z"/>
	<path class="st1" d="M51.2,10.2l0.2,0.3l-1.4,1.1l-0.2-0.3l0.5-1.4l0,0l-1,0.8l-0.2-0.3l1.4-1.1l0.2,0.3L50.3,11l0,0L51.2,10.2z"/>
	<path class="st1" d="M51.7,12.1l0.1,0.3c0,0.2,0.1,0.4-0.4,0.6c-0.3,0.1-0.6,0.1-0.7-0.2l-0.1-0.3L51.7,12.1z M50.2,12.1l0.2,0.7
		c0.2,0.6,0.7,0.6,1.1,0.4c0.3-0.1,0.8-0.4,0.6-0.9l-0.2-0.8L50.2,12.1z"/>
	<path class="st1" d="M52.2,16.9c-0.5,0.1-0.8,0-0.9-0.5c-0.2-0.8,0.3-0.9,0.7-1l0.1,0.4c-0.4,0.1-0.5,0.2-0.5,0.4
		c0.1,0.2,0.2,0.2,0.4,0.2l1.6-0.5l0.1,0.5L52.2,16.9z"/>
	<path class="st1" d="M53.1,18c0.6-0.2,0.9,0.1,1,0.4c0.1,0.3,0,0.7-0.6,0.8c-0.6,0.2-0.9-0.1-1-0.4C52.4,18.6,52.4,18.2,53.1,18z
		 M52.9,17.6c-1.1,0.3-1,1.1-0.9,1.4c0.1,0.3,0.4,1.1,1.5,0.8c1.1-0.3,1-1.1,0.9-1.4C54.4,18,54,17.3,52.9,17.6z"/>
	<path class="st1" d="M52.8,21.3l-0.1-0.5l2.3-0.6l0.1,0.5L52.8,21.3z"/>
	<path class="st1" d="M55.7,22.9l0.1,0.4L53.5,24l-0.1-0.5l1.4-1.4l0,0l-1.6,0.5L53,22.2l2.3-0.6l0.1,0.5l-1.3,1.4l0,0L55.7,22.9z"
		/>
	<path class="st1" d="M56.1,26.1l-0.3-1.2L55.3,25l0.3,1.1l-0.4,0.1l-0.3-1.1l-0.6,0.2l0.4,1.3l-0.4,0.1l-0.5-1.7l2.3-0.6l0.5,1.7
		L56.1,26.1z"/>
	<path class="st1" d="M55.9,27.6l0.6-0.2l0.2,0.6c0.1,0.3-0.1,0.4-0.2,0.4c-0.2,0.1-0.3,0-0.4-0.3L55.9,27.6z M54.5,27.5l0.1,0.5
		l0.9-0.2l0.1,0.5c0.1,0.4,0,0.4-0.3,0.5c-0.2,0.1-0.3,0.1-0.4,0.2l0.1,0.5l0.1,0c0-0.1,0.1-0.1,0.4-0.2c0.4-0.1,0.5-0.2,0.5-0.5
		c0.1,0.2,0.4,0.3,0.6,0.2c0.2-0.1,0.6-0.3,0.4-0.9l-0.3-1.2L54.5,27.5z"/>
	<path class="st1" d="M56,30.3c-0.1,0-0.4,0.2-0.2,0.6c0.1,0.2,0.2,0.5,0.4,0.4c0.2,0,0.2-0.2,0.2-0.5l0-0.3c0-0.4,0-0.8,0.5-0.9
		c0.3-0.1,0.7-0.1,0.9,0.7c0.2,0.7-0.2,1-0.5,1.1L57.2,31c0.1,0,0.3-0.1,0.2-0.6c-0.1-0.2-0.2-0.4-0.4-0.3c-0.2,0-0.2,0.2-0.2,0.3
		l0,0.6c0,0.3,0,0.7-0.4,0.8c-0.7,0.2-0.9-0.5-1-0.7c-0.2-0.8,0.2-1.1,0.5-1.2L56,30.3z"/>
	<path class="st1" d="M57.3,34.3c0.5-0.1,0.7,0.1,0.7,0.3c0.1,0.2,0,0.5-0.5,0.6c-0.5,0.1-0.7-0.1-0.7-0.3
		C56.8,34.7,56.8,34.4,57.3,34.3z M57.2,33.9c-0.8,0.2-0.7,0.8-0.7,1.1c0.1,0.2,0.3,0.8,1.1,0.6c0.8-0.2,0.7-0.8,0.7-1.1
		C58.3,34.3,58,33.7,57.2,33.9z"/>
	<path class="st1" d="M57.1,36.8L57,36.4l1.7-0.5l0.3,1.2l-0.3,0.1l-0.2-0.9l-0.4,0.1l0.2,0.8L58,37.3l-0.2-0.8L57.1,36.8z"/>
	<path class="st1" d="M60,40.2L60,40.2l-0.8,0.5L59,40.2L60,40.2z M58.5,40.2l0.2,0.8l-0.4,0.3l0.1,0.5l2.1-1.4l-0.2-0.6l-2.5-0.2
		l0.1,0.5L58.5,40.2z"/>
	<path class="st1" d="M59.2,44.7l-0.1-0.5l1.9-0.4l0,0l-2,0l-0.1-0.5l1.9-0.8l0,0l-1.9,0.4l-0.1-0.5L61,42l0.2,0.7l-1.7,0.8l0,0
		l1.9,0l0.2,0.7L59.2,44.7z"/>
	<path class="st1" d="M61.1,47.3l0.1-1.3l-0.5,0l-0.1,1.2l-0.4,0l0.1-1.2l-0.6,0l-0.1,1.3l-0.4,0l0.1-1.8l2.4,0.1l-0.1,1.7
		L61.1,47.3z"/>
	<path class="st1" d="M60.1,48.8l0.6,0.2l-0.2,0.6c-0.1,0.3-0.3,0.3-0.4,0.2c-0.2-0.1-0.3-0.2-0.2-0.5L60.1,48.8z M59,47.9l-0.2,0.5
		l0.9,0.3l-0.2,0.5c-0.1,0.3-0.3,0.3-0.6,0.2c-0.2-0.1-0.4-0.1-0.5-0.1l-0.2,0.5l0.1,0c0.1-0.1,0.2-0.1,0.5,0.1
		c0.4,0.2,0.5,0.1,0.7-0.1c0,0.2,0.2,0.5,0.4,0.5c0.2,0.1,0.7,0.1,0.9-0.5l0.4-1.1L59,47.9z"/>
	<path class="st1" d="M57.7,50.7l0.3-0.4l2,1.3L59.7,52L57.7,50.7z"/>
	<path class="st1" d="M57.3,53.6c0.1,0.1,0.4,0.2,0.7-0.1c0.2-0.2,0.3-0.5-0.2-1c-0.3-0.3-0.7-0.5-1-0.2c-0.2,0.2-0.2,0.4-0.1,0.7
		l-0.3,0.4c-0.3-0.4-0.3-0.9,0.1-1.4c0.4-0.4,1.1-0.5,1.7,0.1c0.6,0.6,0.6,1.2,0.1,1.7c-0.5,0.5-1.1,0.4-1.3,0.1L57.3,53.6z"/>
	<path class="st1" d="M55.5,55.3L55.5,55.3l-0.8-0.6l0.5-0.3L55.5,55.3z M55.1,53.9l-0.7,0.5L54,54l-0.5,0.3l2,1.5l0.5-0.3l-0.6-2.5
		L55,53.4L55.1,53.9z"/>
	<g>
		<path class="st3" d="M32.1,51.8c0,0,1.2-2.5,7.2-1.8c5.3,0.6,11.4-3.7,8.2-14.1c0,0-3.1-7.1,1.3-12.5c0,0-3.2-2.5-4.5-7.7
			c0,0-7,3.7-12.2-0.3h0c-5.2,4.1-12.2,0.3-12.2,0.3c-1.3,5.2-4.5,7.7-4.5,7.7c4.3,5.4,1.3,12.5,1.3,12.5
			c-3.2,10.4,2.9,14.7,8.2,14.1C30.8,49.3,32.1,51.8,32.1,51.8z"/>
		<path d="M32.1,52.2l-0.2-0.4c0,0-1.3-2.4-7-1.7c-2.8,0.3-5.5-0.7-7.3-2.7c-1.6-1.9-3-5.4-1.2-11.6l0,0c0-0.1,3-7-1.2-12.3
			l-0.1-0.2l0.2-0.1c0,0,3.2-2.5,4.4-7.6l0.1-0.3l0.2,0.1c0.1,0,6.9,3.6,12-0.3l0.1,0h0.1l0.1,0c5.1,3.9,11.9,0.4,12,0.3l0.2-0.1
			l0.1,0.3c1.2,5.1,4.4,7.5,4.4,7.6l0.2,0.1l-0.1,0.2c-4.2,5.2-1.3,12.2-1.2,12.3l0,0c1.9,6.2,0.4,9.8-1.2,11.6
			c-1.7,2.1-4.4,3.1-7.3,2.7c-5.7-0.7-7,1.6-7,1.7L32.1,52.2z M26.9,49.7c3.4,0,4.7,1.2,5.2,1.8c0.5-0.7,2.3-2.2,7.2-1.6
			c2.7,0.3,5.3-0.6,6.9-2.6c1.5-1.8,2.9-5.2,1.1-11.2c-0.1-0.3-2.9-7.2,1.2-12.5c-0.7-0.6-3.2-3-4.3-7.4c-0.6,0.3-2,0.9-4,1.3
			c-3.1,0.6-5.9,0-8.1-1.6c-2.2,1.6-5,2.2-8.1,1.6c-1.9-0.3-3.4-1-4-1.3c-1.1,4.5-3.6,6.8-4.3,7.4c4.1,5.3,1.3,12.2,1.2,12.5
			c-1.8,6-0.4,9.4,1.1,11.2c1.6,1.9,4.2,2.9,6.9,2.6C25.6,49.7,26.2,49.7,26.9,49.7z"/>
	</g>
	<g>
		<path class="st4" d="M32.1,50.4c0,0,0.8-2.1,6.2-1.6c0,0,5.1,0.8,7.3-2.5c2.2-3.3,2-4.5,0.7-9.9c-1.4-5.4-1.9-8,0.9-12.8
			c0,0-3.1-3.6-3.6-6.4c0,0-6.4,2.8-11.6-0.5c-5.1,3.2-11.5,0.5-11.5,0.5c-0.5,2.8-3.6,6.4-3.6,6.4c2.8,4.9,2.3,7.4,1,12.8
			s-1.6,6.6,0.7,9.9c2.3,3.3,7.3,2.5,7.3,2.5C31.2,48.3,32.1,50.4,32.1,50.4z"/>
		<path d="M32.1,50.7L32,50.4c0,0-0.9-2-6.2-1.6c0,0-5.2,0.8-7.4-2.5c-2.3-3.3-2.1-4.5-0.7-10s1.8-7.9-0.9-12.7l0-0.1l0-0.1
			c0,0,3.1-3.6,3.6-6.4l0-0.1l0.1,0.1c0.1,0,6.4,2.7,11.4-0.5l0.1,0l0.1,0c5,3.2,11.4,0.5,11.5,0.4l0.1-0.1l0,0.1
			c0.5,2.7,3.6,6.3,3.6,6.3l0,0.1l0,0.1c-2.8,4.8-2.3,7.2-0.9,12.7c1.4,5.5,1.6,6.7-0.7,10c-2.3,3.3-7.4,2.5-7.4,2.5
			c-5.2-0.5-6.1,1.5-6.1,1.6L32.1,50.7z M27.3,48.6c3.3,0,4.4,1.1,4.7,1.6c0.3-0.5,1.7-1.9,6.2-1.5c0.1,0,5.1,0.8,7.2-2.4
			c2.2-3.3,2-4.4,0.6-9.8c-1.4-5.4-1.9-8,0.9-12.8c-0.4-0.5-3.1-3.6-3.6-6.3c-0.9,0.4-6.8,2.5-11.5-0.5c-4.7,2.9-10.5,0.8-11.4,0.5
			c-0.5,2.6-3.2,5.8-3.6,6.3c2.8,4.8,2.3,7.4,0.9,12.8c-1.4,5.4-1.5,6.6,0.7,9.8c2.2,3.2,7.2,2.4,7.2,2.4
			C26.3,48.6,26.9,48.6,27.3,48.6z"/>
	</g>
	<polygon class="st2" points="31.9,22.6 27.3,34.2 31.8,44.5 32.3,44.5 36.7,34.4 	"/>
	<g>
		<path class="st3" d="M21.1,19.3l9.2,27.5l3.5,0l9.1-27.4L32.5,44.2c0,0-0.6-0.1-0.9,0L21.1,19.3z"/>
		<path d="M30.2,46.9L21,19.3l0.2-0.1l10.5,24.8c0.2,0,0.6,0,0.7,0l10.3-24.8l0.2,0.1l-9.1,27.5L30.2,46.9z M22,21.7l8.3,24.9l3.4,0
			l8.2-24.8l-9.3,22.4l-0.1,0c-0.2,0-0.6-0.1-0.8,0l-0.1,0l0-0.1L22,21.7z"/>
	</g>
	<g>
		
			<rect x="12.7" y="29.8" transform="matrix(0.3703 -0.9289 0.9289 0.3703 -13.5269 44.2099)" class="st3" width="26.3" height="4.5"/>
		<path d="M23.1,45.3l-4.4-1.7l9.8-24.6l4.4,1.7l0,0.1L23.1,45.3z M19,43.4l4,1.6l9.7-24.2l-4-1.6L19,43.4z"/>
	</g>
	<g>
		<g>
			<g>
				<rect x="29.5" y="19" transform="matrix(0.3721 -0.9282 0.9282 0.3721 0.5313 39.6659)" width="0.2" height="0.9"/>
				<rect x="27.5" y="23.3" transform="matrix(0.3712 -0.9286 0.9286 0.3712 -4.3495 40.2685)" width="0.2" height="0.1"/>
				<rect x="28" y="22.2" transform="matrix(0.372 -0.9282 0.9282 0.372 -3.1127 40.189)" width="0.2" height="0.5"/>
				<rect x="28.4" y="21.2" transform="matrix(0.372 -0.9282 0.9282 0.372 -1.9206 39.9304)" width="0.2" height="0.5"/>
				<rect x="28.9" y="20.1" transform="matrix(0.3722 -0.9282 0.9282 0.3722 -0.7324 39.6659)" width="0.2" height="0.5"/>
			</g>
			<g>
				<rect x="27.9" y="23" transform="matrix(0.372 -0.9282 0.9282 0.372 -4.2652 40.7183)" width="0.2" height="0.9"/>
				<rect x="25.8" y="27.4" transform="matrix(0.3723 -0.9281 0.9281 0.3723 -9.1682 41.2773)" width="0.2" height="0.1"/>
				<rect x="26.4" y="26.2" transform="matrix(0.3722 -0.9282 0.9282 0.3722 -7.9149 41.2304)" width="0.2" height="0.5"/>
				<rect x="26.8" y="25.2" transform="matrix(0.3722 -0.9282 0.9282 0.3722 -6.7229 40.972)" width="0.2" height="0.5"/>
				<rect x="27.2" y="24.2" transform="matrix(0.3721 -0.9282 0.9282 0.3721 -5.5297 40.7162)" width="0.2" height="0.5"/>
			</g>
		</g>
		<g>
			<g>
				<rect x="26.2" y="27.1" transform="matrix(0.372 -0.9282 0.9282 0.372 -9.056 41.7538)" width="0.2" height="0.9"/>
				<rect x="24.2" y="31.4" transform="matrix(0.3723 -0.9281 0.9281 0.3723 -13.958 42.3118)" width="0.2" height="0.1"/>
				<rect x="24.8" y="30.3" transform="matrix(0.3722 -0.9282 0.9282 0.3722 -12.7051 42.2653)" width="0.2" height="0.5"/>
				<rect x="25.2" y="29.3" transform="matrix(0.3722 -0.9282 0.9282 0.3722 -11.5131 42.0069)" width="0.2" height="0.5"/>
				<rect x="25.6" y="28.3" transform="matrix(0.3722 -0.9282 0.9282 0.3722 -10.3212 41.7484)" width="0.2" height="0.5"/>
			</g>
			<g>
				<rect x="24.6" y="31.2" transform="matrix(0.3721 -0.9282 0.9282 0.3721 -13.8568 42.7968)" width="0.2" height="0.9"/>
				<rect x="22.6" y="35.5" transform="matrix(0.3723 -0.9281 0.9281 0.3723 -18.7563 43.359)" width="0.2" height="0.1"/>
				<rect x="23.2" y="34.4" transform="matrix(0.372 -0.9282 0.9282 0.372 -17.502 43.3211)" width="0.2" height="0.5"/>
				<rect x="23.6" y="33.4" transform="matrix(0.3719 -0.9283 0.9283 0.3719 -16.3091 43.0658)" width="0.2" height="0.5"/>
				<rect x="24" y="32.3" transform="matrix(0.3721 -0.9282 0.9282 0.3721 -15.1186 42.8008)" width="0.2" height="0.5"/>
			</g>
		</g>
	</g>
	<g>
		<rect x="35.9" y="18.9" transform="matrix(0.9302 -0.367 0.367 0.9302 -9.1136 16.2371)" class="st3" width="4.5" height="26.3"/>
		<path d="M40.8,45.3l-9.7-24.7l4.4-1.7l9.7,24.7L40.8,45.3z M31.4,20.7L40.9,45l4-1.6l-9.6-24.3L31.4,20.7z"/>
	</g>
	<g>
		<g>
			<path class="st3" d="M32.2,33.4v-2.9v0c-0.2-0.7-1.4-0.1-2.1-0.2c-0.6-0.1-0.2-0.5-0.2-0.5c0.8-0.4,1.1-0.6,1.1-0.6
				c0.9-0.5,1.2,0.1,1.2,0.1v-0.3h1.5v8.4h-1.5V37H32c0,0.1-0.1,0.3-0.2,0.3c-0.1,0-0.2-0.2-0.2-0.4c0-0.2,0.1-0.4,0.2-0.4
				c0.1,0,0.2,0.1,0.2,0.2c0,0,0.1,0.1,0.3-0.1v-2.2v0l-1.3-1.5V32L32.2,33.4"/>
			<path d="M33.8,37.4h-1.6V37H32c0,0.1-0.1,0.3-0.3,0.3c-0.2,0-0.3-0.2-0.3-0.4s0.1-0.4,0.3-0.4c0.1,0,0.2,0.1,0.2,0.2
				c0,0,0.1,0,0.2-0.1v-2.2l-1.3-1.5v-1l1.3,1.5v-2.8c-0.1-0.4-0.6-0.3-1.2-0.2c-0.3,0.1-0.7,0.1-0.9,0.1c-0.2,0-0.3-0.1-0.3-0.2
				c-0.1-0.2,0.1-0.4,0.1-0.4l0,0c0.8-0.4,1.1-0.6,1.1-0.6c0.6-0.3,1-0.2,1.2,0v-0.3h1.6V37.4z M32.3,37.3h1.4V29h-1.4v0.5l-0.1-0.2
				c0,0-0.3-0.5-1.1-0.1c0,0-0.3,0.2-1.1,0.6c0,0-0.1,0.2-0.1,0.3c0,0.1,0.2,0.1,0.3,0.2c0.2,0,0.6,0,0.9-0.1
				c0.6-0.1,1.2-0.2,1.3,0.3l0,0h0v3.1L31,32.1v0.7l1.3,1.5l0,0h0v2.2l0,0c-0.1,0.1-0.2,0.2-0.3,0.2c-0.1,0-0.1,0-0.1,0l0,0
				c0-0.1-0.1-0.2-0.1-0.2c-0.1,0-0.2,0.1-0.2,0.3c0,0.2,0.1,0.3,0.2,0.3c0.1,0,0.1-0.1,0.2-0.2l0,0h0.3V37.3z"/>
		</g>
	</g>
	<g>
		<path class="st3" d="M39.1,40.8c-7.9,2.9-14.2,0-14.2,0l1.4-3.4c0,0,5.7,2,11.5,0L39.1,40.8z"/>
		<path d="M31.9,42.2c-4.2,0-7.1-1.3-7.1-1.3l-0.1,0l1.4-3.6l0.1,0c0.1,0,5.7,1.9,11.5,0l0.1,0l1.4,3.6l-0.1,0
			C36.5,41.9,34.1,42.2,31.9,42.2z M25,40.8c0.8,0.3,6.8,2.6,14,0l-1.3-3.2c-5.4,1.8-10.6,0.3-11.4,0L25,40.8z"/>
	</g>
	<path d="M33.4,46.3c-0.2,0-0.3,0-0.5-0.1l0.1-0.2c0.9,0.3,1.1-0.3,1.1-0.3c0.1-0.3,0-0.6-0.1-0.9c-0.6-0.7-2.2-0.6-2.2-0.6l0-0.2
		c0.1,0,1.8-0.1,2.4,0.7c0.2,0.3,0.3,0.6,0.2,1C34.2,45.8,34.1,46.3,33.4,46.3z"/>
	<g>
		
			<ellipse transform="matrix(2.787525e-02 -0.9996 0.9996 2.787525e-02 -15.7031 77.5578)" class="st3" cx="32" cy="46.9" rx="1.9" ry="1.9"/>
		<path d="M32,48.8C32,48.8,32,48.8,32,48.8c-0.6,0-1.1-0.2-1.4-0.6c-0.4-0.4-0.6-0.9-0.5-1.4c0-0.5,0.2-1,0.6-1.4
			c0.4-0.4,0.9-0.6,1.4-0.5c0.5,0,1,0.2,1.4,0.6c0.4,0.4,0.6,0.9,0.5,1.4C34,48,33.1,48.8,32,48.8z M32,45.1c-0.5,0-0.9,0.2-1.2,0.5
			c-0.3,0.3-0.5,0.8-0.6,1.2c0,0.5,0.2,0.9,0.5,1.3c0.3,0.3,0.8,0.5,1.2,0.6c1,0,1.8-0.7,1.8-1.7c0-0.5-0.2-0.9-0.5-1.3
			C33,45.3,32.5,45.1,32,45.1L32,45.1C32.1,45.1,32,45.1,32,45.1z"/>
	</g>
	<path d="M27.1,40.4l1-1.6l0.7,0.2L27.4,41l-0.9-0.2l-0.2-2.5l0.7,0.2L27.1,40.4z"/>
	<path d="M29,39l0.6,0.1l-0.4,2.3l-0.6-0.1L29,39z"/>
	<path d="M30.9,39.2l0.8,1.6l0.1-1.6l0.6,0l-0.1,2.3l-0.8,0l-0.9-1.7l-0.1,1.7l-0.6,0l0.1-2.3L30.9,39.2z"/>
	<path d="M32.7,40.6l0-0.4c-0.1-0.8,0.1-1,0.8-1.1l0.4,0c0.8-0.1,1,0.1,1,0.7l-0.6,0.1c0-0.2-0.1-0.3-0.5-0.3l-0.2,0
		c-0.3,0-0.4,0.1-0.4,0.6l0,0.3c0,0.4,0.1,0.5,0.5,0.5l0.2,0c0.4,0,0.4-0.1,0.4-0.3l0.6-0.1c0.1,0.6-0.1,0.8-0.9,0.9l-0.3,0
		C33.1,41.5,32.8,41.4,32.7,40.6z"/>
	<path d="M35.1,38.9l0.6-0.1l0.5,2.3l-0.6,0.1L35.1,38.9z"/>
	<path d="M37.8,38.7l-0.6,0.2l0.5,1.8l-0.6,0.2L36.7,39l-0.6,0.2L36,38.8l1.7-0.5L37.8,38.7z"/>
	<g>
		<line x1="28.7" y1="19.1" x2="19" y2="43.5"/>
		<rect x="10.7" y="31.2" transform="matrix(0.3702 -0.9289 0.9289 0.3702 -14.056 41.864)" width="26.2" height="0.2"/>
	</g>
	<path d="M22.8,38.3l1.8,0.7l0.4-1.1l0.4,0.2l-0.7,1.8L22.5,39L22.8,38.3z"/>
	<path d="M24.1,34.8l2.6,0l-0.3,0.7l-0.6,0l-0.4,1l0.5,0.4l-0.3,0.7l-1.9-1.8L24.1,34.8z M25.1,36.3l0.3-0.7l-1.1,0L25.1,36.3z"/>
	<path d="M26.1,31.6c0.4,0.1,0.4,0.2,0.4,0.4c0.1-0.2,0.3-0.3,0.7-0.2c0.5,0.2,0.6,0.5,0.3,1.1l-0.6,1.6l-2.2-0.9l0.6-1.4
		C25.5,31.5,25.7,31.4,26.1,31.6z M26,32.6c0.1-0.2,0-0.3-0.1-0.3c-0.1-0.1-0.2,0-0.3,0.2L25.4,33l0.4,0.2L26,32.6z M27,32.9
		c0.1-0.2,0-0.3-0.1-0.4c-0.2-0.1-0.3,0-0.4,0.2l-0.3,0.7l0.5,0.2L27,32.9z"/>
	<path d="M27.1,31.2l-0.4-0.2c-0.7-0.3-0.8-0.6-0.5-1.5l0.1-0.4c0.4-0.9,0.7-1.1,1.4-0.8l0.4,0.2c0.8,0.3,0.9,0.6,0.5,1.5l-0.2,0.4
		C28.1,31.3,27.9,31.5,27.1,31.2z M27,30.4l0.4,0.1c0.4,0.1,0.5,0.1,0.7-0.3l0.1-0.2c0.2-0.4,0.1-0.6-0.3-0.7l-0.3-0.1
		c-0.4-0.1-0.5-0.1-0.7,0.3l-0.1,0.2C26.6,30,26.6,30.2,27,30.4z"/>
	<path d="M29.6,26.7c-0.2-0.1-0.4,0-0.5,0.3l-0.1,0.4l0.7,0.3l-0.3,0.7l-2.2-0.9l0.5-1.1c0.3-0.8,0.6-1,1.1-0.7
		c0.4,0.2,0.4,0.4,0.4,0.6c0.1-0.2,0.3-0.4,0.6-0.3l0.5,0.2l-0.3,0.7L29.6,26.7z M28.6,26.7c0.1-0.2,0.1-0.3-0.1-0.4
		c-0.2-0.1-0.3,0-0.4,0.2l-0.2,0.5l0.5,0.2L28.6,26.7z"/>
	<path d="M28.3,24.9l-1.6-0.6l0.1-0.2l1.5,0.6c0.2-0.2,1.3-1.1,3.2-0.5l-0.1,0.2C29.4,23.7,28.3,24.8,28.3,24.9L28.3,24.9z"/>
	<g>
		<g>
			<g>
				<rect x="29.1" y="18.8" transform="matrix(0.3721 -0.9282 0.9282 0.3721 0.4371 39.2424)" width="0.2" height="0.9"/>
				<rect x="27.1" y="23.2" transform="matrix(0.3712 -0.9286 0.9286 0.3712 -4.4439 39.8448)" width="0.2" height="0.1"/>
				<rect x="27.7" y="22" transform="matrix(0.3719 -0.9283 0.9283 0.3719 -3.2055 39.768)" width="0.2" height="0.5"/>
				<rect x="28.1" y="21" transform="matrix(0.3721 -0.9282 0.9282 0.3721 -2.017 39.5033)" width="0.2" height="0.5"/>
				<rect x="28.5" y="20" transform="matrix(0.3721 -0.9282 0.9282 0.3721 -0.825 39.2448)" width="0.2" height="0.5"/>
			</g>
			<g>
				<rect x="27.5" y="22.9" transform="matrix(0.372 -0.9282 0.9282 0.372 -4.36 40.2935)" width="0.2" height="0.9"/>
				<rect x="25.5" y="27.2" transform="matrix(0.3718 -0.9283 0.9283 0.3718 -9.2557 40.8707)" width="0.2" height="0.1"/>
				<rect x="26.1" y="26.1" transform="matrix(0.372 -0.9282 0.9282 0.372 -8.0062 40.8138)" width="0.2" height="0.5"/>
				<rect x="26.5" y="25.1" transform="matrix(0.3722 -0.9282 0.9282 0.3722 -6.8171 40.5485)" width="0.2" height="0.5"/>
				<rect x="26.9" y="24.1" transform="matrix(0.372 -0.9282 0.9282 0.372 -5.622 40.2966)" width="0.2" height="0.5"/>
			</g>
		</g>
		<g>
			<g>
				<rect x="25.9" y="27" transform="matrix(0.372 -0.9282 0.9282 0.372 -9.1507 41.3289)" width="0.2" height="0.9"/>
				<rect x="23.8" y="31.3" transform="matrix(0.3727 -0.9279 0.9279 0.3727 -14.0572 41.8699)" width="0.2" height="0.1"/>
				<rect x="24.4" y="30.2" transform="matrix(0.3722 -0.9282 0.9282 0.3722 -12.7993 41.8418)" width="0.2" height="0.5"/>
				<rect x="24.8" y="29.1" transform="matrix(0.3722 -0.9282 0.9282 0.3722 -11.6073 41.5833)" width="0.2" height="0.5"/>
				<rect x="25.2" y="28.1" transform="matrix(0.3722 -0.9282 0.9282 0.3722 -10.4153 41.3249)" width="0.2" height="0.5"/>
			</g>
			<g>
				<rect x="24.2" y="31" transform="matrix(0.3721 -0.9282 0.9282 0.3721 -13.951 42.3733)" width="0.2" height="0.9"/>
				<rect x="22.2" y="35.4" transform="matrix(0.3712 -0.9286 0.9286 0.3712 -18.8413 42.9854)" width="0.2" height="0.1"/>
				<rect x="22.8" y="34.2" transform="matrix(0.3719 -0.9283 0.9283 0.3719 -17.5955 42.9009)" width="0.2" height="0.5"/>
				<rect x="23.2" y="33.2" transform="matrix(0.372 -0.9282 0.9282 0.372 -16.4041 42.6391)" width="0.2" height="0.5"/>
				<rect x="23.6" y="32.2" transform="matrix(0.372 -0.9282 0.9282 0.372 -15.212 42.3805)" width="0.2" height="0.5"/>
			</g>
		</g>
	</g>
	<rect x="22.6" y="35.1" transform="matrix(0.3721 -0.9282 0.9282 0.3721 -18.7457 43.4038)" width="0.2" height="0.9"/>
	<rect x="20.6" y="39.4" transform="matrix(0.3712 -0.9286 0.9286 0.3712 -23.6391 44.0191)" width="0.2" height="0.1"/>
	<rect x="21.2" y="38.3" transform="matrix(0.3719 -0.9283 0.9283 0.3719 -22.3909 43.9321)" width="0.2" height="0.5"/>
	<rect x="21.6" y="37.3" transform="matrix(0.372 -0.9282 0.9282 0.372 -21.1992 43.6699)" width="0.2" height="0.5"/>
	<rect x="22" y="36.3" transform="matrix(0.372 -0.9282 0.9282 0.372 -20.0071 43.4113)" width="0.2" height="0.5"/>
	<rect x="21" y="39.2" transform="matrix(0.372 -0.9282 0.9282 0.372 -23.5439 44.458)" width="0.2" height="0.9"/>
	<rect x="19" y="43.5" transform="matrix(0.3727 -0.9279 0.9279 0.3727 -28.4435 44.9898)" width="0.2" height="0.1"/>
	<rect x="19.5" y="42.4" transform="matrix(0.3722 -0.9282 0.9282 0.3722 -27.1911 44.9674)" width="0.2" height="0.5"/>
	<rect x="19.9" y="41.3" transform="matrix(0.372 -0.9282 0.9282 0.372 -25.9985 44.7183)" width="0.2" height="0.5"/>
	<rect x="20.4" y="40.3" transform="matrix(0.372 -0.9282 0.9282 0.372 -24.8064 44.4597)" width="0.2" height="0.5"/>
	<rect x="19.4" y="43.2" transform="matrix(0.3721 -0.9282 0.9282 0.3721 -28.3349 45.4897)" width="0.2" height="0.9"/>
	<rect x="23" y="35.2" transform="matrix(0.3721 -0.9282 0.9282 0.3721 -18.6516 43.8273)" width="0.2" height="0.9"/>
	<rect x="20.9" y="39.6" transform="matrix(0.3712 -0.9286 0.9286 0.3712 -23.5447 44.4428)" width="0.2" height="0.1"/>
	<rect x="21.5" y="38.4" transform="matrix(0.372 -0.9282 0.9282 0.372 -22.2971 44.3521)" width="0.2" height="0.5"/>
	<rect x="21.9" y="37.4" transform="matrix(0.372 -0.9282 0.9282 0.372 -21.105 44.0935)" width="0.2" height="0.5"/>
	<rect x="22.3" y="36.4" transform="matrix(0.372 -0.9282 0.9282 0.372 -19.9129 43.8349)" width="0.2" height="0.5"/>
	<rect x="21.3" y="39.3" transform="matrix(0.372 -0.9282 0.9282 0.372 -23.4499 44.8797)" width="0.2" height="0.9"/>
	<rect x="19.3" y="43.6" transform="matrix(0.3723 -0.9281 0.9281 0.3723 -28.3487 45.4363)" width="0.2" height="0.1"/>
	<rect x="19.9" y="42.5" transform="matrix(0.3723 -0.9281 0.9281 0.3723 -27.0972 45.3871)" width="0.2" height="0.5"/>
	<rect x="20.3" y="41.5" transform="matrix(0.3722 -0.9282 0.9282 0.3722 -25.9049 45.1325)" width="0.2" height="0.5"/>
	<rect x="20.7" y="40.5" transform="matrix(0.3719 -0.9283 0.9283 0.3719 -24.7119 44.8869)" width="0.2" height="0.5"/>
	<rect x="19.7" y="43.4" transform="matrix(0.372 -0.9282 0.9282 0.372 -28.2407 45.9151)" width="0.2" height="0.9"/>
	<g>
		<line x1="44.9" y1="43.5" x2="35.3" y2="19.1"/>
		<rect x="40" y="18.2" transform="matrix(0.9306 -0.3662 0.3662 0.9306 -8.6811 16.8646)" width="0.2" height="26.2"/>
	</g>
	<path d="M34.7,25.7l0.4-0.2c0.7-0.3,1-0.1,1.4,0.8l0.1,0.4c0.4,0.9,0.3,1.3-0.5,1.6l-0.4,0.2c-0.8,0.3-1,0.2-1.4-0.8l-0.2-0.4
		C33.9,26.3,33.9,26,34.7,25.7z M35.4,26.3L35,26.4c-0.4,0.1-0.4,0.3-0.3,0.7l0.1,0.2c0.2,0.4,0.3,0.5,0.7,0.3l0.3-0.1
		c0.4-0.1,0.4-0.3,0.3-0.7l-0.1-0.2C35.9,26.2,35.8,26.1,35.4,26.3z"/>
	<path d="M37.7,29.3l-1.2,1.3l1.8,0.2l0.4,1l-2.2,0.9L36.1,32l1.6-0.6l-1.9-0.1l-0.3-0.7l1.3-1.4l-1.6,0.6L35,29.2l2.2-0.9
		L37.7,29.3z"/>
	<path d="M39.2,33.3l-1.1,1.6l1.5-0.6l0.3,0.7l-2.2,0.9L37.3,35l1.1-1.8l-1.6,0.6l-0.3-0.7l2.2-0.9L39.2,33.3z"/>
	<path d="M40.1,35.5l0.3,0.7l-2.2,0.9l-0.3-0.7L40.1,35.5z"/>
	<path d="M41.3,38.5l-1.9,1.8l-0.3-0.7l0.5-0.4l-0.4-1l-0.6,0l-0.3-0.7l2.6,0L41.3,38.5z M39.6,38.1l0.3,0.7l0.8-0.7L39.6,38.1z"/>
	<path d="M35.8,24.9L35.8,24.9c-0.1-0.1-1-1.2-3-0.5l-0.1-0.2c2-0.6,2.9,0.3,3.2,0.5l1.5-0.5l0.1,0.2L35.8,24.9z"/>
	<g>
		<g>
			<g>
				<rect x="34.3" y="19.2" transform="matrix(0.9309 -0.3653 0.3653 0.9309 -4.6406 14.045)" width="0.9" height="0.2"/>
				<rect x="36.8" y="23.1" transform="matrix(0.9302 -0.367 0.367 0.9302 -5.9487 15.1247)" width="0.1" height="0.2"/>
				<rect x="36" y="22.1" transform="matrix(0.9309 -0.3653 0.3653 0.9309 -5.6254 14.7686)" width="0.5" height="0.2"/>
				<rect x="35.6" y="21.1" transform="matrix(0.9309 -0.3653 0.3653 0.9309 -5.2828 14.5531)" width="0.5" height="0.2"/>
				<rect x="35.2" y="20.1" transform="matrix(0.9309 -0.3653 0.3653 0.9309 -4.9403 14.3376)" width="0.5" height="0.2"/>
			</g>
			<g>
				<rect x="35.9" y="23.3" transform="matrix(0.9309 -0.3653 0.3653 0.9309 -6.0214 14.9108)" width="0.9" height="0.2"/>
				<rect x="38.4" y="27.2" transform="matrix(0.9309 -0.3653 0.3653 0.9309 -7.3146 15.9128)" width="0.1" height="0.2"/>
				<rect x="37.6" y="26.2" transform="matrix(0.9309 -0.3653 0.3653 0.9309 -7.0061 15.6343)" width="0.5" height="0.2"/>
				<rect x="37.2" y="25.2" transform="matrix(0.9309 -0.3653 0.3653 0.9309 -6.6636 15.4188)" width="0.5" height="0.2"/>
				<rect x="36.8" y="24.2" transform="matrix(0.9309 -0.3653 0.3653 0.9309 -6.321 15.2034)" width="0.5" height="0.2"/>
			</g>
		</g>
		<g>
			<g>
				<rect x="37.5" y="27.3" transform="matrix(0.9309 -0.3653 0.3653 0.9309 -7.3971 15.7777)" width="0.9" height="0.2"/>
				<rect x="40" y="31.3" transform="matrix(0.9309 -0.3653 0.3653 0.9309 -8.6903 16.7797)" width="0.1" height="0.2"/>
				<rect x="39.2" y="30.3" transform="matrix(0.9309 -0.3653 0.3653 0.9309 -8.3818 16.5012)" width="0.5" height="0.2"/>
				<rect x="38.8" y="29.3" transform="matrix(0.9309 -0.3653 0.3653 0.9309 -8.0393 16.2857)" width="0.5" height="0.2"/>
				<rect x="38.4" y="28.3" transform="matrix(0.9309 -0.3653 0.3653 0.9309 -7.6967 16.0703)" width="0.5" height="0.2"/>
			</g>
			<g>
				<rect x="39.1" y="31.4" transform="matrix(0.9309 -0.3653 0.3653 0.9309 -8.7778 16.6435)" width="0.9" height="0.2"/>
				<rect x="41.6" y="35.3" transform="matrix(0.9317 -0.3633 0.3633 0.9317 -10.0322 17.5332)" width="0.1" height="0.2"/>
				<rect x="40.8" y="34.4" transform="matrix(0.9309 -0.3653 0.3653 0.9309 -9.7625 17.367)" width="0.5" height="0.2"/>
				<rect x="40.4" y="33.4" transform="matrix(0.9309 -0.3653 0.3653 0.9309 -9.42 17.1515)" width="0.5" height="0.2"/>
				<rect x="40" y="32.4" transform="matrix(0.9309 -0.3653 0.3653 0.9309 -9.0774 16.9361)" width="0.5" height="0.2"/>
			</g>
		</g>
	</g>
	<rect x="40.7" y="35.5" transform="matrix(0.9309 -0.3653 0.3653 0.9309 -10.1535 17.5124)" width="0.9" height="0.2"/>
	<rect x="43.2" y="39.4" transform="matrix(0.9302 -0.367 0.367 0.9302 -11.4848 18.6138)" width="0.1" height="0.2"/>
	<rect x="42.4" y="38.5" transform="matrix(0.9309 -0.3653 0.3653 0.9309 -11.1382 18.236)" width="0.5" height="0.2"/>
	<rect x="42" y="37.4" transform="matrix(0.9309 -0.3653 0.3653 0.9309 -10.7957 18.0205)" width="0.5" height="0.2"/>
	<rect x="41.6" y="36.4" transform="matrix(0.9309 -0.3653 0.3653 0.9309 -10.4532 17.805)" width="0.5" height="0.2"/>
	<rect x="42.3" y="39.6" transform="matrix(0.9309 -0.3653 0.3653 0.9309 -11.5342 18.3783)" width="0.9" height="0.2"/>
	<rect x="44.8" y="43.5" transform="matrix(0.9309 -0.3653 0.3653 0.9309 -12.8275 19.3802)" width="0.1" height="0.2"/>
	<rect x="44" y="42.5" transform="matrix(0.9309 -0.3653 0.3653 0.9309 -12.5189 19.1018)" width="0.5" height="0.2"/>
	<rect x="43.6" y="41.5" transform="matrix(0.9309 -0.3653 0.3653 0.9309 -12.1764 18.8863)" width="0.5" height="0.2"/>
	<rect x="43.2" y="40.5" transform="matrix(0.9309 -0.3653 0.3653 0.9309 -11.8339 18.6708)" width="0.5" height="0.2"/>
	<rect x="43.9" y="43.6" transform="matrix(0.9309 -0.3653 0.3653 0.9309 -12.9099 19.2451)" width="0.9" height="0.2"/>
	<g>
		<g>
			<g>
				<rect x="34" y="19.3" transform="matrix(0.9309 -0.3653 0.3653 0.9309 -4.7167 13.9228)" width="0.9" height="0.2"/>
				<rect x="36.4" y="23.2" transform="matrix(0.9309 -0.3653 0.3653 0.9309 -6.0099 14.9248)" width="0.1" height="0.2"/>
				<rect x="35.6" y="22.3" transform="matrix(0.9309 -0.3653 0.3653 0.9309 -5.7014 14.6463)" width="0.5" height="0.2"/>
				<rect x="35.2" y="21.3" transform="matrix(0.9309 -0.3653 0.3653 0.9309 -5.3588 14.4308)" width="0.5" height="0.2"/>
				<rect x="34.8" y="20.3" transform="matrix(0.9309 -0.3653 0.3653 0.9309 -5.0163 14.2154)" width="0.5" height="0.2"/>
			</g>
			<g>
				<rect x="35.6" y="23.4" transform="matrix(0.9309 -0.3653 0.3653 0.9309 -6.0974 14.7885)" width="0.9" height="0.2"/>
				<rect x="38" y="27.3" transform="matrix(0.9302 -0.367 0.367 0.9302 -7.4117 15.8731)" width="0.1" height="0.2"/>
				<rect x="37.2" y="26.4" transform="matrix(0.9309 -0.3653 0.3653 0.9309 -7.0821 15.5121)" width="0.5" height="0.2"/>
				<rect x="36.8" y="25.4" transform="matrix(0.9309 -0.3653 0.3653 0.9309 -6.7396 15.2966)" width="0.5" height="0.2"/>
				<rect x="36.4" y="24.3" transform="matrix(0.9309 -0.3653 0.3653 0.9309 -6.397 15.0811)" width="0.5" height="0.2"/>
			</g>
		</g>
		<g>
			<g>
				<rect x="37.2" y="27.5" transform="matrix(0.9309 -0.3653 0.3653 0.9309 -7.4731 15.6554)" width="0.9" height="0.2"/>
				<rect x="39.6" y="31.4" transform="matrix(0.9302 -0.367 0.367 0.9302 -8.7932 16.7454)" width="0.1" height="0.2"/>
				<rect x="38.8" y="30.4" transform="matrix(0.9309 -0.3653 0.3653 0.9309 -8.4578 16.379)" width="0.5" height="0.2"/>
				<rect x="38.4" y="29.4" transform="matrix(0.9309 -0.3653 0.3653 0.9309 -8.1153 16.1635)" width="0.5" height="0.2"/>
				<rect x="38" y="28.4" transform="matrix(0.9309 -0.3653 0.3653 0.9309 -7.7728 15.948)" width="0.5" height="0.2"/>
			</g>
			<g>
				<rect x="38.8" y="31.6" transform="matrix(0.9309 -0.3653 0.3653 0.9309 -8.8538 16.5212)" width="0.9" height="0.2"/>
				<rect x="41.2" y="35.5" transform="matrix(0.9302 -0.367 0.367 0.9302 -10.1798 17.6167)" width="0.1" height="0.2"/>
				<rect x="40.4" y="34.5" transform="matrix(0.9309 -0.3653 0.3653 0.9309 -9.8385 17.2448)" width="0.5" height="0.2"/>
				<rect x="40" y="33.5" transform="matrix(0.9309 -0.3653 0.3653 0.9309 -9.496 17.0293)" width="0.5" height="0.2"/>
				<rect x="39.6" y="32.5" transform="matrix(0.9309 -0.3653 0.3653 0.9309 -9.1535 16.8138)" width="0.5" height="0.2"/>
			</g>
		</g>
	</g>
	<rect x="40.4" y="35.6" transform="matrix(0.9309 -0.3653 0.3653 0.9309 -10.2295 17.3902)" width="0.9" height="0.2"/>
	<rect x="42.8" y="39.5" transform="matrix(0.9309 -0.3653 0.3653 0.9309 -11.5228 18.3922)" width="0.1" height="0.2"/>
	<rect x="42" y="38.6" transform="matrix(0.9309 -0.3653 0.3653 0.9309 -11.2142 18.1137)" width="0.5" height="0.2"/>
	<rect x="41.6" y="37.6" transform="matrix(0.9309 -0.3653 0.3653 0.9309 -10.8717 17.8983)" width="0.5" height="0.2"/>
	<rect x="41.2" y="36.6" transform="matrix(0.9309 -0.3653 0.3653 0.9309 -10.5292 17.6828)" width="0.5" height="0.2"/>
	<rect x="42" y="39.7" transform="matrix(0.9309 -0.3653 0.3653 0.9309 -11.6102 18.256)" width="0.9" height="0.2"/>
	<rect x="44.4" y="43.6" transform="matrix(0.9309 -0.3653 0.3653 0.9309 -12.9035 19.258)" width="0.1" height="0.2"/>
	<rect x="43.6" y="42.7" transform="matrix(0.9309 -0.3653 0.3653 0.9309 -12.5949 18.9796)" width="0.5" height="0.2"/>
	<rect x="43.2" y="41.7" transform="matrix(0.9309 -0.3653 0.3653 0.9309 -12.2524 18.7641)" width="0.5" height="0.2"/>
	<rect x="42.8" y="40.6" transform="matrix(0.9309 -0.3653 0.3653 0.9309 -11.9099 18.5486)" width="0.5" height="0.2"/>
	<rect x="43.6" y="43.8" transform="matrix(0.9309 -0.3653 0.3653 0.9309 -12.9859 19.1229)" width="0.9" height="0.2"/>
	<g>
		
			<ellipse transform="matrix(1.981865e-02 -0.9998 0.9998 1.981865e-02 10.9776 51.9693)" class="st3" cx="32" cy="20.4" rx="2.2" ry="2.2"/>
		<path d="M32,22.7C32,22.7,32,22.7,32,22.7c-0.7,0-1.3-0.3-1.7-0.7c-0.4-0.5-0.7-1-0.7-1.7c0-0.6,0.3-1.2,0.7-1.6
			c0.5-0.4,1.1-0.7,1.7-0.7l0,0c1.3,0,2.3,1.1,2.3,2.4c0,0.6-0.3,1.2-0.7,1.6C33.2,22.5,32.6,22.7,32,22.7z M32,18.2
			c-0.6,0-1.1,0.2-1.5,0.6c-0.4,0.4-0.6,0.9-0.7,1.5c0,0.6,0.2,1.1,0.6,1.5c0.4,0.4,0.9,0.6,1.5,0.7c0.6,0,1.1-0.2,1.5-0.6
			c0.4-0.4,0.6-0.9,0.7-1.5C34.2,19.3,33.2,18.3,32,18.2C32,18.2,32,18.2,32,18.2z"/>
	</g>
	<g>
		
			<ellipse transform="matrix(1.982657e-02 -0.9998 0.9998 1.982657e-02 10.9768 51.9686)" class="st3" cx="32" cy="20.4" rx="1" ry="1"/>
		<path d="M32,21.5C32,21.5,32,21.5,32,21.5c-0.3,0-0.6-0.1-0.8-0.3c-0.2-0.2-0.3-0.5-0.3-0.8c0-0.6,0.5-1.1,1.2-1.1l0,0
			c0.3,0,0.6,0.1,0.8,0.3c0.2,0.2,0.3,0.5,0.3,0.8c0,0.3-0.1,0.6-0.3,0.8C32.6,21.4,32.3,21.5,32,21.5z M32,19.5
			c-0.5,0-0.9,0.4-0.9,0.9c0,0.2,0.1,0.5,0.3,0.7c0.2,0.2,0.4,0.3,0.6,0.3c0.3,0,0.5-0.1,0.7-0.3c0.2-0.2,0.3-0.4,0.3-0.6
			c0-0.2-0.1-0.5-0.3-0.7C32.5,19.6,32.3,19.5,32,19.5C32,19.5,32,19.5,32,19.5z"/>
	</g>
	<path d="M31.3,46.9c-0.1,0-0.3,0-0.4-0.1c-0.2-0.1-0.7-0.2-0.6-0.4c0-0.1,0.1-0.1,0.3-0.1c0.1,0,0.3,0,0.5,0c0.2,0,0.3,0.1,0.4,0.1
		c0.1,0.1,0.2,0.1,0.2,0.2l0,0C31.5,46.8,31.4,46.9,31.3,46.9C31.3,46.9,31.3,46.9,31.3,46.9z M30.5,46.5c-0.1,0-0.2,0-0.2,0
		c0,0,0.2,0.1,0.5,0.2c0.3,0.1,0.5,0.1,0.6,0c0,0-0.2-0.2-0.5-0.2C30.8,46.5,30.6,46.5,30.5,46.5z"/>
	<path d="M33.5,47.4c-0.1,0-0.3,0-0.4,0c-0.2-0.1-0.6-0.2-0.6-0.4c0-0.2,0.5-0.1,0.7-0.1c0.2,0.1,0.6,0.2,0.6,0.4v0
		C33.8,47.4,33.7,47.4,33.5,47.4z M32.8,47c-0.1,0-0.2,0-0.2,0c0,0,0.2,0.1,0.5,0.2c0.3,0.1,0.5,0,0.6,0c0,0-0.2-0.1-0.5-0.2
		C33,47,32.9,47,32.8,47z"/>
	<g>
		
			<ellipse transform="matrix(2.789814e-02 -0.9996 0.9996 2.789814e-02 -15.7287 77.5796)" class="st3" cx="32" cy="46.9" rx="0.6" ry="0.6"/>
		<path d="M32,47.6C32,47.6,32,47.6,32,47.6c-0.4,0-0.7-0.3-0.7-0.8c0-0.4,0.4-0.7,0.8-0.7c0.2,0,0.4,0.1,0.5,0.2
			c0.1,0.1,0.2,0.3,0.2,0.5C32.7,47.3,32.4,47.6,32,47.6z M32,46.3c-0.3,0-0.5,0.2-0.5,0.5c0,0.3,0.2,0.5,0.5,0.6
			c0.3,0,0.5-0.2,0.6-0.5c0-0.1,0-0.3-0.1-0.4C32.3,46.4,32.2,46.3,32,46.3C32,46.3,32,46.3,32,46.3z"/>
	</g>
	<rect x="32.2" y="29" width="0.1" height="8.2"/>
	<g>
		<g>
			<path class="st3" d="M32,61.3c0,0-1-1.6-2.4-1.4c-1.4,0.2-2.8,0.4-4.7,0c0,0-3.6,1.5-7.1,0.2l0.2-0.3c0,0-3.2,0.1-5-2.2
				c0,0,1.4-0.5,2.3-0.6c0,0-0.9-0.3-1.4-1.4c0,0,2.6-0.8,4.4,0.6c0,0,2.6-1.5,5.3-0.1c0,0,0,0.2-0.3-0.6c0,0,2.8-1.1,4.5,0.7
				c0,0,0-0.6-0.1-1c0,0,3.6-0.1,4.1,3.9l0.1,0.3l0.1-0.3c0.5-4.1,4.1-3.9,4.1-3.9c-0.1,0.4-0.1,1-0.1,1c1.7-1.7,4.5-0.7,4.5-0.7
				c-0.3,0.8-0.3,0.6-0.3,0.6c2.7-1.4,5.3,0.1,5.3,0.1c1.8-1.4,4.4-0.6,4.4-0.6c-0.4,1-1.4,1.4-1.4,1.4c0.9,0.1,2.3,0.6,2.3,0.6
				c-1.8,2.3-5,2.2-5,2.2l0.2,0.3c-3.5,1.4-7.1-0.2-7.1-0.2c-1.8,0.5-3.2,0.3-4.7,0C33,59.6,32,61.3,32,61.3z"/>
			<path d="M32,61.5l-0.1-0.1c0,0-1-1.6-2.3-1.4c-1.3,0.2-2.8,0.4-4.7,0c-0.4,0.1-3.8,1.5-7.1,0.1L17.7,60l0.2-0.2
				c-0.7,0-3.3-0.3-4.8-2.3l-0.1-0.1l0.1,0c0.1,0,1.1-0.4,2-0.6c-0.3-0.2-0.8-0.6-1.1-1.3l0-0.1l0.1,0c0.1,0,2.6-0.8,4.5,0.5
				c0.4-0.2,2.7-1.3,5-0.2c0-0.1-0.1-0.2-0.1-0.4l0-0.1l0.1,0c0,0,2.7-1,4.4,0.5c0-0.2,0-0.5-0.1-0.7l0-0.1l0.1,0c0,0,3.7-0.1,4.2,4
				l0,0l0,0c0.5-4.1,4.2-4,4.2-4l0.1,0l0,0.1c-0.1,0.2-0.1,0.5-0.1,0.7c1.8-1.5,4.4-0.5,4.4-0.5l0.1,0l0,0.1
				c-0.1,0.1-0.1,0.3-0.1,0.4c2.4-1.1,4.6,0,5,0.2c1.9-1.3,4.4-0.6,4.5-0.5l0.1,0l0,0.1c-0.3,0.7-0.8,1.1-1.1,1.3
				c0.9,0.2,1.9,0.5,2,0.6l0.1,0L51,57.6c-1.5,2-4.1,2.2-4.8,2.3l0.2,0.2l-0.1,0.1c-3.3,1.3-6.8,0-7.1-0.1c-1.9,0.5-3.4,0.2-4.7,0
				c-1.3-0.2-2.3,1.3-2.3,1.4L32,61.5z M29.9,59.7c1.1,0,1.9,1,2.1,1.3c0.3-0.4,1.2-1.5,2.4-1.3c1.3,0.2,2.8,0.4,4.6,0l0,0l0,0
				c0,0,3.5,1.5,6.9,0.2l-0.3-0.3l0.2,0c0,0,3,0,4.8-2.1c-0.4-0.1-1.4-0.5-2.1-0.6l0-0.2c0,0,0.8-0.3,1.3-1.2
				c-0.5-0.1-2.7-0.6-4.2,0.6l-0.1,0l-0.1,0c0,0-2.5-1.4-5.1-0.1c0,0.1-0.1,0.1-0.1,0l-0.1,0l0-0.2l0,0c0-0.1,0.1-0.2,0.2-0.5
				c-0.5-0.2-2.8-0.8-4.3,0.7L36,56.3l0-0.3c0,0,0-0.5,0.1-0.9c-0.7,0-3.4,0.3-3.9,3.8L32,59.6L31.8,59c-0.4-3.5-3.2-3.8-3.9-3.8
				C28,55.6,28,56,28,56.1l0,0.3l-0.2-0.2c-1.5-1.5-3.8-0.8-4.3-0.7c0.1,0.3,0.2,0.4,0.2,0.5l0,0l0,0.1l-0.1,0c0,0-0.1,0-0.1,0
				c-2.6-1.3-5.1,0.1-5.1,0.1l-0.1,0l-0.1,0c-1.6-1.2-3.7-0.7-4.2-0.6c0.4,0.9,1.3,1.2,1.3,1.2l0,0.2c-0.7,0.1-1.7,0.4-2.1,0.6
				c1.8,2.1,4.8,2.1,4.8,2.1l0.2,0L18,59.9c3.4,1.3,6.9-0.2,6.9-0.2l0,0l0,0c1.9,0.5,3.3,0.2,4.6,0C29.7,59.7,29.8,59.7,29.9,59.7z"
				/>
		</g>
		<g>
			<path d="M31,59.9c-3.4-2.5-3.3-4.7-3.3-4.8l0-0.1l0.1,0c3.8,0.1,4.2,4.1,4.2,4.1l-0.2,0c0,0-0.1-1-0.7-2c-0.7-1.3-1.8-1.9-3.3-2
				c0,0.4,0.3,2.3,3.2,4.5L31,59.9z"/>
			<path d="M31.5,59.6c-1.9-2.7-2.4-2.9-2.4-2.9l0-0.1C29.1,56.6,29.7,56.8,31.5,59.6L31.5,59.6z"/>
			<path d="M25.5,57.8c0,0-0.1-0.1-0.3-0.2c-0.3-0.3-0.8-0.8-1.2-1.1c-2.7-1.9-5.5-0.3-5.6-0.2L18.3,56c0,0,2.5-1.5,5.1-0.2
				c-0.1-0.2-0.2-0.4-0.2-0.4l0-0.1l0.1,0c3.7-1,4.8,0.9,4.9,1L28,56.4c0,0-1-1.9-4.5-1c0.1,0.2,0.2,0.5,0.6,0.7
				c0.1,0,0.1,0.1,0.2,0.2c0.4,0.3,0.8,0.7,1.2,1.1C25.6,57.6,25.6,57.7,25.5,57.8C25.5,57.8,25.5,57.8,25.5,57.8z"/>
			<path d="M23.1,57.5c-0.9-0.4-2.6-0.6-2.6-0.6l0-0.1c0.1,0,1.7,0.2,2.6,0.6L23.1,57.5z"/>
			<path d="M29.3,58.4c-2.3-2.1-4.1-2.1-4.1-2.1l0-0.1C25.2,56.2,27.1,56.2,29.3,58.4L29.3,58.4z"/>
			<path d="M19,57c-1.2-2.2-4.3-1.6-5-1.5c0.1,0.3,0.5,0.9,1.3,1.3L15.3,57c-1.1-0.5-1.4-1.4-1.5-1.5l0-0.1l0.1,0
				c0,0,3.8-1.1,5.3,1.5L19,57z"/>
			<path d="M17.9,59.8c-0.6,0-3.1-0.1-4.7-2.2L13,57.5l0.1-0.1c0,0,4.8-2.1,7.6,0.3l-0.1,0.2c-2.5-2.1-6.5-0.6-7.3-0.3
				c1.8,2.2,4.6,2,4.6,2l0,0.2C18,59.8,17.9,59.8,17.9,59.8z"/>
			<path d="M19.7,58.4c-1.4-0.4-3.8-0.1-3.8-0.1l0-0.1c0,0,2.5-0.4,3.9,0.1L19.7,58.4z"/>
			<path d="M17.7,56.7c-0.4-0.3-1.9-0.4-1.9-0.4l0-0.1C15.9,56.2,17.3,56.3,17.7,56.7L17.7,56.7z"/>
			<path d="M21,60.7c-0.5,0-0.9,0-1.2-0.1c-1.3-0.2-1.9-0.5-2-0.5L17.7,60l0.1-0.1c0,0,2.7-3.9,8.8-2.2l-0.1,0.2
				c-3.1-0.9-5.2-0.2-6.5,0.4c-1.1,0.6-1.8,1.3-2,1.6c0.6,0.2,3.2,1.2,7-0.2l0.1,0.2C23.5,60.6,22.1,60.7,21,60.7z"/>
			<path d="M26.8,60.2c-2.8-0.1-3.1-1.3-3.2-1.3l0-0.1l0.1,0c0,0,3.1-2.3,6.2-0.1c0.3,0.3,1.2,1.1,1.6,1.1l0,0.2
				c-0.5-0.1-1.7-1.1-1.7-1.2c-2.8-2-5.5-0.3-5.9,0c0.1,0.2,0.7,1,2.9,1.1c0,0,2-0.1,2.9-0.3c0.4-0.1,0.7,0,1.1,0.2l0,0l-0.1,0.2
				l0,0c-0.3-0.2-0.6-0.2-1-0.2C28.8,60.1,26.9,60.2,26.8,60.2z"/>
			<path d="M21.2,59.5L21.2,59.5c-0.1-0.1,0.5-0.9,3-1l0,0.1C21.8,58.7,21.2,59.5,21.2,59.5z"/>
			<path d="M31.1,60.1c-1.7-1.5-5-1.1-5-1.1l0-0.1C26.1,58.9,29.4,58.5,31.1,60.1L31.1,60.1z"/>
		</g>
		<g>
			<path d="M33,59.8l-0.1-0.2c2.9-2.1,3.2-4,3.2-4.5c-3.5,0.1-3.9,3.9-3.9,3.9l-0.2,0c0,0,0.5-4,4.2-4.1l0.1,0l0,0.1
				C36.4,55.2,36.4,57.3,33,59.8z"/>
			<path d="M32.6,59.5L32.6,59.5c1.8-2.8,2.4-3,2.4-3l0,0.1C35,56.7,34.5,56.9,32.6,59.5z"/>
			<path d="M38.6,57.8C38.5,57.8,38.5,57.7,38.6,57.8c-0.1-0.1-0.1-0.2,0-0.3c0.4-0.5,0.8-0.8,1.2-1.1c0.1-0.1,0.1-0.1,0.2-0.2
				c0.4-0.2,0.5-0.6,0.6-0.7c-1.8-0.5-2.9-0.2-3.6,0.1c-0.7,0.3-1,0.8-1,0.8l-0.2-0.1c0-0.1,1.1-2,4.9-1l0.1,0l0,0.1
				c0,0,0,0.2-0.2,0.4c2.6-1.3,5.1,0.2,5.1,0.2l-0.1,0.2c-0.1-0.1-2.9-1.7-5.6,0.2c-0.4,0.3-0.9,0.8-1.2,1.1
				C38.7,57.7,38.6,57.8,38.6,57.8z"/>
			<path d="M40.9,57.4l-0.1-0.1c0.9-0.5,2.5-0.6,2.6-0.6l0,0.1C43.5,56.8,41.8,57,40.9,57.4z"/>
			<path d="M34.8,58.4L34.8,58.4c2.2-2.2,4.1-2.3,4.1-2.3l0,0.1C38.9,56.3,37,56.3,34.8,58.4z"/>
			<path d="M45,57l-0.2-0.1c1.5-2.6,5.3-1.5,5.3-1.5l0.1,0l0,0.1c0,0-0.4,1-1.5,1.5l-0.1-0.2c0.8-0.3,1.2-1,1.3-1.3
				C49.3,55.4,46.3,54.8,45,57z"/>
			<path d="M46.2,59.8c-0.1,0-0.1,0-0.1,0l0-0.2c0,0,2.8,0.2,4.6-2c-0.8-0.3-4.8-1.8-7.3,0.3l-0.1-0.2c2.9-2.4,7.6-0.3,7.6-0.3
				l0.1,0.1L51,57.6C49.3,59.7,46.8,59.8,46.2,59.8z"/>
			<path d="M44.4,58.3l0-0.1c1.4-0.4,3.9-0.1,3.9-0.1l0,0.1C48.2,58.3,45.7,57.9,44.4,58.3z"/>
			<path d="M46.4,56.7L46.4,56.7c0.4-0.4,1.8-0.5,1.9-0.5l0,0.1C48.3,56.3,46.8,56.4,46.4,56.7z"/>
			<path d="M43.1,60.7c-1.1,0-2.5-0.2-4-0.8l0.1-0.2c3.8,1.4,6.4,0.4,7,0.2c-0.5-0.6-3.1-3.6-8.5-2l-0.1-0.2
				c3.2-0.9,5.4-0.2,6.7,0.5c1.4,0.8,2.1,1.7,2.1,1.8l0.1,0.1l-0.1,0.1C46.3,60.1,45.1,60.7,43.1,60.7z"/>
			<path d="M37.2,60.2c0,0-2-0.1-2.9-0.3c-0.3,0-0.7,0-1,0.2l0,0L33.2,60l0,0c0.4-0.2,0.7-0.3,1.1-0.2c1,0.1,2.9,0.3,2.9,0.3
				c2.2-0.1,2.8-0.9,2.9-1.1c-0.4-0.3-3.1-2-5.9,0c0,0-1.2,1.1-1.7,1.2l0-0.2c0.4-0.1,1.3-0.8,1.6-1.1c3.2-2.3,6.2,0,6.3,0.1l0.1,0
				l0,0.1C40.4,58.9,40,60.1,37.2,60.2z"/>
			<path d="M42.9,59.5c0,0-0.6-0.8-3-0.9l0-0.1C42.3,58.6,42.9,59.4,42.9,59.5L42.9,59.5z"/>
			<path d="M32.9,60.1L32.9,60.1c1.7-1.6,5-1.2,5-1.2l0,0.1C37.9,59,34.7,58.6,32.9,60.1z"/>
		</g>
		<path d="M32,61.2c0,0,0.6-1,1.1-1.2c0,0-0.1-0.1,0-0.3c0.1-0.1,0.3-0.2,0.2-0.4l0,0c-0.8,0.6-0.9,0.5-0.9,0.5
			c-0.2-0.2,0.2-0.6,0-0.5C32.1,59.5,32,59,32,59h0c0,0-0.1,0.5-0.3,0.4c-0.2-0.1,0.1,0.3,0,0.5c0,0-0.1,0.1-0.9-0.5l0,0
			c-0.1,0.2,0.1,0.3,0.2,0.4c0.1,0.1,0,0.3,0,0.3C31.4,60.2,32,61.2,32,61.2z"/>
	</g>
</g>
</svg>
